<svg width="31" height="31" viewBox="0 0 31 31" fill="none" xmlns="http://www.w3.org/2000/svg">
<path fill-rule="evenodd" clip-rule="evenodd" d="M15.4971 0C24.0558 0 30.9941 6.93832 30.9941 15.4971C30.9939 24.0557 24.0557 30.9941 15.4971 30.9941C6.93848 30.9941 0.000201529 24.0556 0 15.4971C0 6.93835 6.93836 4.76837e-05 15.4971 0Z" fill="#F17522"/>
<path d="M14 3.10156C17.8844 6.10156 24.8226 15.2016 21.5 27.6016" stroke="#FFCAA6" stroke-linecap="round"/>
<path d="M3 10.8535C7.54028 8.98952 18.8902 7.53089 27.9676 16.6083" stroke="#FFCAA6" stroke-linecap="round"/>
<path d="M7 6.60156C10.7105 9.17299 17.3382 16.973 14.1643 27.6016" stroke="#FFCAA6" stroke-linecap="round"/>
<path d="M4 19.375C8.15144 17.6013 18.282 16.1395 25.5928 24.4817" stroke="#FFCAA6" stroke-linecap="round"/>
</svg>
