<svg width="72" height="66" viewBox="0 0 72 66" fill="none" xmlns="http://www.w3.org/2000/svg">
<path d="M67.2027 57.2489C65.847 58.9775 63.1283 58.7183 61.888 56.9051C57.5016 50.4924 50.9453 45.2549 44.6244 45.2199C44.3668 45.2185 44.1151 45.1376 43.9124 44.9786C43.4338 44.6033 42.7414 44.6869 42.3661 45.1656L39.9601 48.2332C39.6193 48.6678 38.9907 48.7438 38.5561 48.403C38.1215 48.0621 38.0456 47.4335 38.3864 46.999L40.8549 43.8515C41.1957 43.417 41.1198 42.7884 40.6852 42.4475C40.2506 42.1067 39.622 42.1827 39.2812 42.6173L36.8127 45.7647C36.4718 46.1993 35.8432 46.2753 35.4087 45.9344C34.9741 45.5936 34.8981 44.965 35.2389 44.5304L37.7075 41.383C38.0483 40.9484 37.9723 40.3198 37.5378 39.979C37.1032 39.6382 36.4746 39.7142 36.1338 40.1487L33.6652 43.2962C33.3244 43.7307 32.6958 43.8067 32.2612 43.4659C31.8267 43.1251 31.7507 42.4965 32.0915 42.0619L34.56 38.9145C34.9009 38.4799 34.8249 37.8513 34.3903 37.5105C33.9557 37.1696 33.3272 37.2456 32.9863 37.6802L30.5178 40.8276C30.177 41.2622 29.5484 41.3382 29.1138 40.9974C28.6792 40.6565 28.6032 40.0279 28.9441 39.5934L31.4126 36.4459C31.7534 36.0114 31.6774 35.3828 31.2429 35.042C30.8083 34.7011 30.1797 34.7771 29.8389 35.2117L27.3704 38.3591C27.0295 38.7937 26.4009 38.8697 25.9664 38.5288C25.5318 38.188 25.4558 37.5594 25.7966 37.1248L28.2652 33.9774C28.606 33.5428 28.53 32.9143 28.0954 32.5734C27.6609 32.2326 27.0323 32.3086 26.6914 32.7431L24.2229 35.8906C23.8821 36.3252 23.2535 36.4011 22.8189 36.0603C22.3844 35.7195 22.3084 35.0909 22.6492 34.6563L25.1177 31.5089C25.4586 31.0743 25.3826 30.4457 24.948 30.1049C24.5134 29.7641 23.8848 29.84 23.544 30.2746L21.0755 33.4221C20.7346 33.8566 20.1061 33.9326 19.6715 33.5918C19.2369 33.2509 19.1609 32.6224 19.5018 32.1878L21.9703 29.0404C22.3111 28.6058 22.2351 27.9772 21.8006 27.6364C21.366 27.2955 20.7374 27.3715 20.3966 27.8061L17.928 30.9535C17.5872 31.3881 16.9586 31.4641 16.5241 31.1232C16.0895 30.7824 16.0135 30.1538 16.3543 29.7193L18.8229 26.5718C19.1637 26.1373 19.0877 25.5087 18.6531 25.1678C18.2186 24.827 17.59 24.903 17.2491 25.3376L14.7806 28.485C14.4398 28.9196 13.8112 28.9956 13.3766 28.6547C12.942 28.3139 12.8661 27.6853 13.2069 27.2507L15.6754 24.1033C16.0163 23.6687 15.9403 23.0401 15.5057 22.6993C15.0711 22.3585 14.4425 22.4345 14.1017 22.869L11.6332 26.0165C11.2923 26.451 10.6638 26.527 10.2292 26.1862C9.79461 25.8454 9.71862 25.2168 10.0595 24.7822L12.528 21.6348C12.8688 21.2002 12.7928 20.5716 12.3583 20.2308C11.9237 19.8899 11.2951 19.9659 10.9543 20.4005L8.48574 23.5479C8.1449 23.9825 7.51631 24.0585 7.08174 23.7177C6.64717 23.3768 6.57118 22.7482 6.91202 22.3137L9.38055 19.1662C9.72138 18.7317 9.64539 18.1031 9.21082 17.7622C8.77625 17.4214 8.14766 17.4974 7.80683 17.932L5.3383 21.0794C4.99747 21.514 4.36888 21.59 3.93431 21.2491C3.49974 20.9083 3.42375 20.2797 3.76458 19.8451L6.23311 16.6977C6.57394 16.2631 6.49795 15.6345 6.06338 15.2937C5.62881 14.9529 5.00023 15.0289 4.65939 15.4634L2.19086 18.6109C1.85003 19.0454 1.22144 19.1214 0.786871 18.7806C0.3523 18.4398 0.276312 17.8112 0.617144 17.3766L9.257 6.36058C10.2795 5.05687 12.1653 4.8289 13.469 5.8514L69.336 49.6678C70.6397 50.6903 70.8677 52.5761 69.8452 53.8798L67.2027 57.2489Z" fill="#FFCD50"/>
</svg>
