<svg width="222" height="348" viewBox="0 0 222 348" fill="none" xmlns="http://www.w3.org/2000/svg">
<path d="M55.1621 151.669C56.8362 146.236 61.8721 142.523 67.5573 142.523H162.298C168.084 142.523 173.185 146.362 174.758 151.93C201.812 247.654 203.719 292.996 196.82 326.289C195.63 332.034 190.432 335.948 184.565 335.948H41.6326C35.8266 335.948 30.6689 332.108 29.3734 326.449C20.55 287.9 25.5687 247.713 55.1621 151.669Z" fill="#5D5F74"/>
<path opacity="0.57" d="M104.695 252.498C105.309 246.878 110.066 242.629 115.72 242.629C121.408 242.629 126.184 246.927 126.744 252.588C130.145 286.954 130.967 307.117 130.545 321.73C130.311 329.812 123.485 335.948 115.399 335.948C107.343 335.948 100.506 329.86 100.228 321.808C99.692 306.285 100.871 287.513 104.695 252.498Z" fill="#4D4F63"/>
<path opacity="0.31" d="M114.296 250.54C114.305 249.926 114.805 249.416 115.418 249.416C116.033 249.416 116.533 249.925 116.54 250.54C117.136 298.236 117.147 318.849 116.98 334.369C116.97 335.245 116.258 335.948 115.382 335.948C114.507 335.948 113.794 335.244 113.784 334.369C113.571 315.853 113.655 297.936 114.296 250.54Z" fill="#111752"/>
<path opacity="0.31" d="M80.3499 289.558C80.365 288.943 80.8684 288.439 81.4838 288.439C82.1001 288.439 82.6038 288.943 82.6178 289.559C83.1863 314.67 83.2112 325.979 83.0592 334.368C83.0433 335.246 82.3259 335.947 81.4477 335.947C80.5701 335.947 79.853 335.246 79.8358 334.369C79.6424 324.512 79.7351 314.603 80.3499 289.558Z" fill="#111752"/>
<path opacity="0.31" d="M148.218 289.558C148.233 288.943 148.737 288.439 149.352 288.439C149.968 288.439 150.472 288.943 150.486 289.559C151.054 314.67 151.079 325.979 150.927 334.368C150.911 335.246 150.194 335.947 149.316 335.947C148.438 335.947 147.721 335.246 147.704 334.369C147.511 324.512 147.603 314.603 148.218 289.558Z" fill="#111752"/>
<path d="M162.298 142.523H67.5574C61.8721 142.523 56.8423 146.217 55.1682 151.65C53.1004 158.36 51.1526 164.798 49.3211 170.982C46.8726 179.249 53.1019 187.486 61.7236 187.486H167.611C176.063 187.486 182.266 179.548 180.096 171.38C178.436 165.132 176.657 158.648 174.754 151.915C173.18 146.347 168.084 142.523 162.298 142.523Z" fill="#4D4F63"/>
<path d="M183.921 23.2322C183.836 22.8666 183.794 22.6838 183.754 22.5564C183.105 20.4432 180.841 19.4093 179.314 20.5284C179.222 20.5959 179.1 20.704 178.858 20.9203L130.752 63.8281C130.391 64.1495 130.211 64.3102 130.124 64.406C128.633 66.048 129.543 69.05 131.755 69.7888C131.884 69.832 132.145 69.8921 132.667 70.0125C157.836 75.8171 173.658 83.1737 196.267 99.1124C196.721 99.4326 196.948 99.5928 197.07 99.6635C199.147 100.873 201.298 99.2696 200.93 96.7863C200.908 96.6412 200.846 96.3751 200.723 95.8429L183.921 23.2322Z" fill="#5D5F74"/>
<path d="M173.741 44.3788C174.25 44.0061 175.004 44.3506 175.221 45.0546C175.234 45.097 175.248 45.1583 175.276 45.2802L185.831 90.8915C185.865 91.0374 185.882 91.1106 185.889 91.1571C185.951 91.5691 185.799 91.9118 185.543 92.0995C171.034 82.7216 158.629 76.9579 142.964 72.4745C142.915 72.1702 142.982 71.8569 143.19 71.6288C143.218 71.5981 143.269 71.5534 143.368 71.4647L173.589 44.5097C173.67 44.4376 173.711 44.4013 173.741 44.3788Z" fill="#FFF5DC"/>
<path d="M37.1725 23.2322C37.2571 22.8666 37.2994 22.6838 37.3386 22.5564C37.9885 20.4432 40.2525 19.4093 41.7793 20.5284C41.8713 20.5959 41.9926 20.704 42.235 20.9203L90.3412 63.8281C90.7016 64.1495 90.8818 64.3102 90.9688 64.406C92.4596 66.048 91.5501 69.05 89.338 69.7888C89.2089 69.832 88.9481 69.8921 88.4263 70.0125C63.2572 75.8171 47.4354 83.1737 24.8262 99.1124C24.3719 99.4326 24.1447 99.5928 24.0233 99.6635C21.946 100.873 19.7948 99.2696 20.1634 96.7863C20.185 96.6412 20.2466 96.3751 20.3697 95.8429L37.1725 23.2322Z" fill="#5D5F74"/>
<path d="M47.3522 44.3789C46.8433 44.0061 46.0884 44.3505 45.8717 45.0547C45.8586 45.0971 45.8452 45.1584 45.817 45.2802L35.2623 90.8916C35.2285 91.0375 35.2108 91.1106 35.2037 91.1572C35.1414 91.5691 35.2948 91.9119 35.5504 92.0996C50.0595 82.7217 62.4641 76.958 78.1295 72.4746C78.1781 72.1702 78.1106 71.857 77.902 71.6289C77.8739 71.5982 77.8246 71.5534 77.7252 71.4648L47.5045 44.5097C47.4237 44.4376 47.3828 44.4014 47.3522 44.3789Z" fill="#FFF5DC"/>
<path d="M213.785 127.254C213.785 165.673 168.206 176.458 111.983 176.458C55.7586 176.458 10.1802 165.673 10.1802 127.254C10.1802 88.8339 55.7586 37.3281 111.983 37.3281C168.206 37.3281 213.785 88.8339 213.785 127.254Z" fill="#5D5F74"/>
<ellipse cx="77.2002" cy="98.4099" rx="5.93847" ry="6.78682" fill="black"/>
<ellipse cx="102.186" cy="119.618" rx="13.9568" ry="11.0286" fill="#FFEFC7"/>
<ellipse cx="125.173" cy="119.618" rx="13.9568" ry="11.0286" fill="#FFEFC7"/>
<ellipse cx="146.765" cy="98.4099" rx="5.93847" ry="6.78682" fill="black"/>
<path d="M112.759 119.072C113.179 119.7 114.121 119.666 114.504 119.015C116.795 115.126 119.054 112.518 122.893 109.15C123.649 108.488 123.089 107.205 122.09 107.312C115.91 107.972 111.371 107.934 105.169 107.283C104.177 107.179 103.627 108.44 104.369 109.106C107.225 111.67 109.48 114.179 112.759 119.072Z" fill="#FF8A8A"/>
<path d="M19.4015 247.843C30.7205 235.849 52.1508 248.623 62.1936 257.079C62.68 257.489 62.9288 258.091 62.8757 258.724C60.9447 281.769 55.7205 327.028 49.5559 331.361C43.3016 335.756 33.548 329.529 29.453 325.866C13.8174 310.481 4.88272 263.228 19.4015 247.843Z" fill="#5D5F74"/>
<path d="M76.3517 333.624C76.3517 344.892 61.5387 346.129 43.2659 346.129C24.9932 346.129 10.1802 344.892 10.1802 333.624C10.1802 322.355 14.7667 315.588 33.0395 315.588C51.3122 315.588 76.3517 322.355 76.3517 333.624Z" fill="#5D5F74"/>
<path d="M151.007 335.321C151.007 346.589 165.82 347.826 184.092 347.826C202.365 347.826 217.178 346.589 217.178 335.321C217.178 324.053 212.592 317.285 194.319 317.285C176.046 317.285 151.007 324.053 151.007 335.321Z" fill="#5D5F74"/>
<path d="M206.44 247.843C195.121 235.849 173.691 248.623 163.648 257.079C163.162 257.489 162.913 258.091 162.966 258.724C164.897 281.769 170.121 327.028 176.286 331.361C182.54 335.756 192.294 329.529 196.389 325.866C212.024 310.481 220.959 263.228 206.44 247.843Z" fill="#5D5F74"/>
<path d="M116.394 335.575C116.394 346.614 106.291 347.825 93.8279 347.825C81.3649 347.825 71.2617 346.614 71.2617 335.575C71.2617 324.536 81.3649 315.588 93.8279 315.588C106.291 315.588 116.394 324.536 116.394 335.575Z" fill="#4D4F63"/>
<path d="M160.508 335.575C160.508 346.614 150.405 347.825 137.942 347.825C125.479 347.825 115.376 346.614 115.376 335.575C115.376 324.536 125.479 315.588 137.942 315.588C150.405 315.588 160.508 324.536 160.508 335.575Z" fill="#4D4F63"/>
</svg>
