<?xml version="1.0" encoding="UTF-8"?>
<svg id="Layer_2" data-name="Layer 2" xmlns="http://www.w3.org/2000/svg" xmlns:xlink="http://www.w3.org/1999/xlink" viewBox="0 0 235.76 370.39">
  <defs>
    <style>
      .cls-1, .cls-2 {
        fill: #f7ebce;
      }

      .cls-3 {
        fill: #fdf1cf;
      }

      .cls-4 {
        fill: #9f7138;
      }

      .cls-2 {
        stroke: #dfc99f;
        stroke-linecap: round;
        stroke-linejoin: round;
        stroke-width: 2px;
      }

      .cls-5 {
        fill: #fcf0cb;
      }

      .cls-6 {
        fill: url(#radial-gradient);
      }

      .cls-7 {
        fill: #fdf5df;
      }

      .cls-8 {
        fill: #89511a;
        stroke: #8a511a;
      }

      .cls-8, .cls-9, .cls-10 {
        stroke-miterlimit: 10;
      }

      .cls-11 {
        fill: #fdf5db;
      }

      .cls-9 {
        fill: #fff5dc;
        stroke: #fff5dc;
      }

      .cls-10 {
        stroke: #000;
      }

      .cls-12 {
        fill: #f0908d;
      }
    </style>
    <radialGradient id="radial-gradient" cx="119.8" cy="76.49" fx="119.8" fy="76.49" r="97.89" gradientTransform="translate(-5.17 19.82) scale(1.01)" gradientUnits="userSpaceOnUse">
      <stop offset="0" stop-color="#925b27"/>
      <stop offset=".76" stop-color="#fdf5db"/>
    </radialGradient>
  </defs>
  <g id="ANGRY_SIT" data-name="ANGRY SIT">
    <g>
      <g id="body">
        <g>
          <path class="cls-11" d="M220.46,333.78s11.92-15.29,13.48-49.25-22.29-33.96-22.29-33.96c-1.56-15.29-20.74-84.25-20.74-84.25l-5.34-20.15-67.69,2.51-67.69-2.51-5.34,20.15s-19.18,68.95-20.74,84.25c0,0-23.85,0-22.29,33.96,1.56,33.96,13.48,49.25,13.48,49.25,0,0-15.55.52-15.29,19.18.26,18.66,38.62,14.78,38.62,14.78,0,0,30.33,1.56,34.99-8.81h88.52c4.67,10.37,34.99,8.81,34.99,8.81,0,0,38.36,3.89,38.62-14.78.26-18.66-15.29-19.18-15.29-19.18Z"/>
          <path class="cls-1" d="M117.88,170.89l-70.9-7.87.08,11.04s2.28,13.11,11.06,13.89c8.78.77,59.77-.96,59.77-.96,0,0,50.99,1.73,59.77.96,8.78-.77,11.06-13.89,11.06-13.89l.08-11.04-70.9,7.87Z"/>
        </g>
        <path class="cls-3" d="M100.3,348.98s-4.16-98.45,19.12-98.45,19.4,98.45,19.4,98.45h-38.52Z"/>
        <g>
          <line class="cls-2" x1="80.47" y1="304.64" x2="80.47" y2="356.63"/>
          <line class="cls-2" x1="158.44" y1="304.64" x2="158.44" y2="356.63"/>
          <line class="cls-2" x1="119.45" y1="260.6" x2="119.45" y2="356.63"/>
        </g>
        <g>
          <path class="cls-4" d="M120.18,351.23c-3.94-13.98-15.87-17.45-21.75-18.31h0s-.03,0-.03,0c-1.4-.2-2.45-.26-2.97-.28l-.36-.03h-.9s-18.54-.21-23.85,18.62c-5.31,18.83,22.42,18.53,22.42,18.53h.89s1.62,0,1.62,0h1.62s0,0,0,0h.89s2.44.02,5.73-.43h0s0,0,0,0c7.81-1.08,20.42-4.85,16.68-18.1Z"/>
          <path class="cls-4" d="M169.95,351.85c-3.94-13.98-15.87-17.45-21.75-18.31h0s-.03,0-.03,0c-1.4-.2-2.45-.26-2.97-.28l-.36-.03h-.9s-18.54-.21-23.85,18.62c-5.31,18.83,22.42,18.53,22.42,18.53h.89s1.62,0,1.62,0h1.62s0,0,0,0h.89s2.44.02,5.73-.43h0s0,0,0,0c7.81-1.08,20.42-4.85,16.68-18.1Z"/>
        </g>
      </g>
      <g>
        <g>
          <path class="cls-8" d="M12.93,86.16L31.72,3.76c.71-3.12,4.5-4.32,6.86-2.17l41.58,37.92L12.93,86.16Z"/>
          <path class="cls-8" d="M216.04,86.16L197.24,3.76c-.71-3.12-4.5-4.32-6.86-2.17l-41.58,37.92,67.24,46.65Z"/>
        </g>
        <g>
          <path class="cls-7" d="M34.58,59.42l6.66-31.95c.25-1.18,1.54-1.66,2.39-.88l19.26,17.92c.81.76.65,2.18-.3,2.7l-25.92,14.03c-1.11.6-2.36-.49-2.08-1.82Z"/>
          <path class="cls-7" d="M195.04,59.42l-6.66-31.95c-.25-1.18-1.54-1.66-2.39-.88l-19.26,17.92c-.81.76-.65,2.18.3,2.7l25.92,14.03c1.11.6,2.36-.49,2.08-1.82Z"/>
        </g>
        <path class="cls-6" d="M219.93,81.8c-32.71-55.17-87.9-62.52-102.03-63.5v-.15s-.59,0-1.69.05c-1.1-.05-1.69-.05-1.69-.05v.15c-14.12.98-69.32,8.33-102.03,63.5-36.99,62.39,16.48,94.61,85.89,95.48h35.66c69.4-.87,122.88-33.09,85.89-95.48Z"/>
        <g>
          <path class="cls-5" d="M118.68,119.74s-5.2,7.53-17.53,4.66c-12.33-2.88-11.43-13.58-10.13-15.75,1.64-2.74,4.25-8.49,17.12-8.22,9.41.2,19.03.1,23.53.04,3.21-.05,6.39.66,9.21,2.2,3.61,1.98,7.18,5.59,6.15,12-1.92,12.05-23.28,13.83-28.35,5.07Z"/>
          <path class="cls-12" d="M108.27,100.79l9.34,11.24c.42.51,1.2.51,1.62,0l9.33-11.24c.57-.69.08-1.72-.81-1.72h-18.67c-.89,0-1.38,1.04-.81,1.72Z"/>
        </g>
        <ellipse class="cls-10" cx="77.21" cy="86.16" rx="6.9" ry="7.62"/>
        <ellipse class="cls-10" cx="159.31" cy="86.16" rx="6.9" ry="7.62"/>
        <ellipse class="cls-9" cx="77.21" cy="81.34" rx="3.66" ry="16.1" transform="translate(-17.91 140.73) rotate(-78.47)"/>
        <ellipse class="cls-9" cx="157.78" cy="81.34" rx="16.1" ry="3.66" transform="translate(-13.07 33.17) rotate(-11.53)"/>
      </g>
    </g>
  </g>
</svg>