<?xml version="1.0" encoding="UTF-8"?>
<svg id="Layer_2" data-name="Layer 2" xmlns="http://www.w3.org/2000/svg" xmlns:xlink="http://www.w3.org/1999/xlink" viewBox="0 0 235.81 372.3">
  <defs>
    <style>
      .cls-1, .cls-2 {
        fill: #f7ebce;
      }

      .cls-3 {
        fill: #fdf1cf;
      }

      .cls-4 {
        fill: #9f7138;
      }

      .cls-2 {
        stroke: #dfc99f;
        stroke-linecap: round;
        stroke-linejoin: round;
        stroke-width: 2px;
      }

      .cls-5 {
        fill: #fcf0cb;
      }

      .cls-6 {
        fill: url(#radial-gradient);
      }

      .cls-7 {
        fill: #fdf5df;
      }

      .cls-8 {
        fill: #89511a;
        stroke: #8a511a;
        stroke-miterlimit: 10;
      }

      .cls-9 {
        fill: #fdf5db;
      }

      .cls-10 {
        fill: #f0908d;
      }
    </style>
    <radialGradient id="radial-gradient" cx="114.99" cy="76.41" fx="114.99" fy="76.41" r="97.91" gradientTransform="translate(-.69 19.92) scale(1.01)" gradientUnits="userSpaceOnUse">
      <stop offset="0" stop-color="#925b27"/>
      <stop offset=".76" stop-color="#fdf5db"/>
    </radialGradient>
  </defs>
  <g id="HAPPY_SIT" data-name="HAPPY SIT">
    <g>
      <g id="body">
        <g>
          <path class="cls-9" d="M220.51,335.69s11.93-15.3,13.48-49.26-22.3-33.97-22.3-33.97c-1.56-15.3-20.74-84.27-20.74-84.27l-5.34-20.15-67.71,2.51-67.71-2.51-5.34,20.15s-19.19,68.97-20.74,84.27c0,0-23.85,0-22.3,33.97s13.48,49.26,13.48,49.26c0,0-15.56.52-15.3,19.19.26,18.67,38.63,14.78,38.63,14.78,0,0,30.34,1.56,35-8.82h88.54c4.67,10.37,35,8.82,35,8.82,0,0,38.37,3.89,38.63-14.78.26-18.67-15.3-19.19-15.3-19.19Z"/>
          <path class="cls-1" d="M117.91,172.76l-70.92-7.87.08,11.04s2.28,13.12,11.06,13.89,59.78-.96,59.78-.96c0,0,51,1.73,59.78.96s11.06-13.89,11.06-13.89l.08-11.04-70.92,7.87Z"/>
        </g>
        <path class="cls-3" d="M100.32,350.89s-4.16-98.47,19.13-98.47,19.4,98.47,19.4,98.47h-38.53Z"/>
        <g>
          <line class="cls-2" x1="80.49" y1="306.55" x2="80.49" y2="358.54"/>
          <line class="cls-2" x1="158.47" y1="306.55" x2="158.47" y2="358.54"/>
          <line class="cls-2" x1="119.48" y1="262.5" x2="119.48" y2="358.54"/>
        </g>
        <g>
          <path class="cls-4" d="M120.21,353.15c-3.94-13.98-15.87-17.45-21.75-18.31h0s-.03,0-.03,0c-1.4-.2-2.45-.26-2.97-.28l-.36-.03h-.9s-18.54-.21-23.85,18.63c-5.31,18.84,22.42,18.54,22.42,18.54h.89s1.62,0,1.62,0h1.62s0,0,0,0h.89s2.44.02,5.74-.43h0s0,0,0,0c7.81-1.08,20.42-4.85,16.69-18.11Z"/>
          <path class="cls-4" d="M169.99,353.77c-3.94-13.98-15.87-17.45-21.75-18.31h0s-.03,0-.03,0c-1.4-.2-2.45-.26-2.97-.28l-.36-.03h-.9s-18.54-.21-23.85,18.63c-5.31,18.84,22.42,18.54,22.42,18.54h.89s1.62,0,1.62,0h1.62s0,0,0,0h.89s2.44.02,5.74-.43h0s0,0,0,0c7.81-1.08,20.42-4.85,16.69-18.11Z"/>
        </g>
      </g>
      <g id="HAPPY_REF" data-name="HAPPY REF">
        <g>
          <path class="cls-8" d="M12.51,86.18L31.32,3.76c.71-3.12,4.5-4.32,6.86-2.17l41.59,37.93L12.51,86.18Z"/>
          <path class="cls-8" d="M215.67,86.18L196.87,3.76c-.71-3.12-4.5-4.32-6.86-2.17l-41.59,37.93,67.25,46.66Z"/>
        </g>
        <g>
          <path class="cls-7" d="M34.18,59.44l6.66-31.95c.25-1.18,1.54-1.66,2.39-.88l19.27,17.93c.81.76.65,2.18-.3,2.7l-25.93,14.03c-1.11.6-2.36-.49-2.09-1.82Z"/>
          <path class="cls-7" d="M194.67,59.44l-6.66-31.95c-.25-1.18-1.54-1.66-2.39-.88l-19.27,17.93c-.81.76-.65,2.18.3,2.7l25.93,14.03c1.11.6,2.36-.49,2.09-1.82Z"/>
        </g>
        <path class="cls-6" d="M219.56,81.81c-32.72-55.19-87.92-62.54-102.05-63.51v-.15s-.59,0-1.69.05c-1.1-.05-1.69-.05-1.69-.05v.15c-14.13.98-69.33,8.33-102.05,63.51-37,62.4,16.49,94.63,85.91,95.5h35.67c69.42-.87,122.9-33.1,85.91-95.5Z"/>
        <g>
          <path class="cls-5" d="M115.75,118.63s-5.21,7.53-17.53,4.66-11.44-13.59-10.14-15.75c1.64-2.74,4.25-8.49,17.12-8.22,9.41.2,19.03.1,23.54.04,3.21-.05,6.4.66,9.21,2.2,3.61,1.98,7.18,5.59,6.16,12.01-1.92,12.05-23.29,13.84-28.36,5.07Z"/>
          <path class="cls-10" d="M105.34,99.67l9.34,11.24c.42.51,1.2.51,1.62,0l9.33-11.24c.57-.69.08-1.72-.81-1.72h-18.68c-.89,0-1.38,1.04-.81,1.73Z"/>
        </g>
        <g>
          <path d="M150.31,85.74c7.51-5.4,20.75-4.73,25.7,3.94.72,1.26,2.66.13,1.94-1.14-5.52-9.67-20.26-10.86-28.77-4.74-1.16.84-.04,2.79,1.14,1.94h0Z"/>
          <path d="M82.64,84.17c-8.38-6.45-23.08-5.38-28.95,4.03-.77,1.23,1.18,2.36,1.94,1.14,5.26-8.44,18.5-8.89,25.87-3.22,1.15.88,2.27-1.07,1.14-1.94h0Z"/>
        </g>
      </g>
    </g>
  </g>
</svg>