<svg width="222" height="348" viewBox="0 0 222 348" fill="none" xmlns="http://www.w3.org/2000/svg">
<path d="M55.1621 151.667C56.8362 146.234 61.8721 142.521 67.5573 142.521H162.298C168.084 142.521 173.185 146.36 174.758 151.928C201.812 247.652 203.719 292.994 196.82 326.287C195.63 332.032 190.432 335.946 184.565 335.946H41.6326C35.8266 335.946 30.6689 332.106 29.3734 326.447C20.55 287.898 25.5687 247.711 55.1621 151.667Z" fill="#FFF4D8"/>
<path opacity="0.36" d="M104.695 252.496C105.309 246.876 110.066 242.627 115.72 242.627C121.408 242.627 126.184 246.926 126.744 252.586C130.145 286.952 130.967 307.116 130.545 321.728C130.311 329.811 123.485 335.946 115.399 335.946C107.343 335.946 100.506 329.858 100.228 321.806C99.692 306.283 100.871 287.511 104.695 252.496Z" fill="#FEE4A0"/>
<path opacity="0.31" d="M114.296 250.538C114.305 249.924 114.805 249.414 115.418 249.414C116.033 249.414 116.533 249.923 116.54 250.538C117.136 298.234 117.147 318.847 116.98 334.367C116.97 335.243 116.258 335.946 115.382 335.946C114.507 335.946 113.794 335.242 113.784 334.367C113.571 315.851 113.655 297.934 114.296 250.538Z" fill="#FABA52"/>
<path opacity="0.31" d="M80.3499 289.556C80.365 288.941 80.8684 288.438 81.4838 288.438C82.1001 288.438 82.6038 288.941 82.6178 289.557C83.1863 314.668 83.2112 325.977 83.0592 334.366C83.0433 335.244 82.3259 335.945 81.4477 335.945C80.5701 335.945 79.853 335.244 79.8358 334.367C79.6424 324.51 79.7351 314.601 80.3499 289.556Z" fill="#FABA52"/>
<path opacity="0.31" d="M148.218 289.556C148.233 288.941 148.737 288.438 149.352 288.438C149.968 288.438 150.472 288.941 150.486 289.557C151.054 314.668 151.079 325.977 150.927 334.366C150.911 335.244 150.194 335.945 149.316 335.945C148.438 335.945 147.721 335.244 147.704 334.367C147.511 324.51 147.603 314.601 148.218 289.556Z" fill="#FABA52"/>
<path d="M162.298 142.521H67.5574C61.8721 142.521 56.8423 146.215 55.1682 151.648C53.1004 158.358 51.1526 164.796 49.3211 170.98C46.8726 179.247 53.1019 187.484 61.7236 187.484H167.611C176.063 187.484 182.266 179.546 180.096 171.378C178.436 165.13 176.657 158.646 174.754 151.913C173.18 146.345 168.084 142.521 162.298 142.521Z" fill="#EAD2AA" fill-opacity="0.28"/>
<path d="M183.92 23.2322C183.836 22.8666 183.793 22.6838 183.754 22.5564C183.104 20.4432 180.84 19.4093 179.313 20.5284C179.221 20.5959 179.1 20.704 178.858 20.9203L130.752 63.8281C130.391 64.1495 130.211 64.3102 130.124 64.406C128.633 66.048 129.543 69.05 131.755 69.7888C131.884 69.832 132.145 69.8921 132.666 70.0125C157.836 75.8171 173.657 83.1737 196.267 99.1124C196.721 99.4326 196.948 99.5928 197.069 99.6635C199.147 100.873 201.298 99.2696 200.929 96.7863C200.908 96.6412 200.846 96.3751 200.723 95.8429L183.92 23.2322Z" fill="#FEE4A0"/>
<path d="M173.741 44.379C174.249 44.006 175.004 44.3505 175.221 45.0548C175.234 45.0972 175.249 45.1585 175.277 45.2803L185.831 90.8917C185.865 91.0375 185.882 91.1108 185.889 91.1573C185.951 91.5694 185.798 91.9121 185.542 92.0997C171.033 82.7218 158.629 76.9581 142.963 72.4747C142.915 72.1704 142.982 71.8571 143.191 71.629C143.219 71.5983 143.269 71.5537 143.369 71.4649L173.589 44.5098C173.67 44.4379 173.71 44.4015 173.741 44.379Z" fill="#FFF5DC"/>
<path d="M37.1725 23.2322C37.2571 22.8666 37.2994 22.6838 37.3386 22.5564C37.9885 20.4432 40.2525 19.4093 41.7793 20.5284C41.8713 20.5959 41.9926 20.704 42.235 20.9203L90.3412 63.8281C90.7016 64.1495 90.8818 64.3102 90.9688 64.406C92.4596 66.048 91.5501 69.05 89.338 69.7888C89.2089 69.832 88.9481 69.8921 88.4263 70.0125C63.2572 75.8171 47.4354 83.1737 24.8262 99.1124C24.3719 99.4326 24.1447 99.5928 24.0233 99.6635C21.946 100.873 19.7948 99.2696 20.1634 96.7863C20.185 96.6412 20.2466 96.3751 20.3697 95.8429L37.1725 23.2322Z" fill="#FEE4A0"/>
<path d="M47.3527 44.379C46.8438 44.006 46.089 44.3506 45.8722 45.0547C45.8591 45.0972 45.8447 45.1585 45.8165 45.2803L35.2619 90.8917C35.2281 91.0375 35.2113 91.1107 35.2042 91.1573C35.1419 91.5691 35.2944 91.9119 35.5499 92.0997C50.0594 82.7216 62.4642 76.9581 78.13 72.4747C78.1786 72.1704 78.1109 71.8571 77.9025 71.629C77.8744 71.5982 77.8243 71.5537 77.7247 71.4649L47.504 44.5098C47.4234 44.4379 47.3833 44.4015 47.3527 44.379Z" fill="#FFF5DC"/>
<path d="M213.785 127.252C213.785 165.671 168.206 176.456 111.983 176.456C55.7586 176.456 10.1802 165.671 10.1802 127.252C10.1802 88.8319 55.7586 37.3262 111.983 37.3262C168.206 37.3262 213.785 88.8319 213.785 127.252Z" fill="url(#paint0_radial_2005_5078)"/>
<ellipse cx="77.1999" cy="98.4079" rx="5.93847" ry="6.78682" fill="black"/>
<ellipse cx="102.186" cy="119.616" rx="13.9568" ry="11.0286" fill="#FFEFC7"/>
<ellipse cx="125.173" cy="119.616" rx="13.9568" ry="11.0286" fill="#FFEFC7"/>
<ellipse cx="146.765" cy="98.4079" rx="5.93847" ry="6.78682" fill="black"/>
<path d="M112.759 119.07C113.179 119.698 114.121 119.664 114.504 119.013C116.795 115.124 119.054 112.516 122.893 109.149C123.649 108.486 123.089 107.203 122.09 107.31C115.91 107.97 111.371 107.932 105.169 107.281C104.177 107.177 103.627 108.438 104.369 109.104C107.225 111.668 109.48 114.177 112.759 119.07Z" fill="#FF8A8A"/>
<path d="M19.4015 247.841C30.7205 235.847 52.1508 248.621 62.1936 257.077C62.68 257.487 62.9288 258.089 62.8757 258.722C60.9447 281.767 55.7205 327.026 49.5559 331.359C43.3016 335.755 33.548 329.527 29.453 325.864C13.8174 310.479 4.88272 263.226 19.4015 247.841Z" fill="#FFF4D8"/>
<path d="M76.3517 333.622C76.3517 344.89 61.5387 346.127 43.2659 346.127C24.9932 346.127 10.1802 344.89 10.1802 333.622C10.1802 322.353 14.7667 315.586 33.0395 315.586C51.3122 315.586 76.3517 322.353 76.3517 333.622Z" fill="#FFF4D8"/>
<path d="M151.007 335.319C151.007 346.587 165.82 347.824 184.092 347.824C202.365 347.824 217.178 346.587 217.178 335.319C217.178 324.051 212.592 317.283 194.319 317.283C176.046 317.283 151.007 324.051 151.007 335.319Z" fill="#FFF4D8"/>
<path d="M206.44 247.841C195.121 235.847 173.691 248.621 163.648 257.077C163.162 257.487 162.913 258.089 162.966 258.722C164.897 281.767 170.121 327.026 176.286 331.359C182.54 335.755 192.294 329.527 196.389 325.864C212.024 310.479 220.959 263.226 206.44 247.841Z" fill="#FFF4D8"/>
<path d="M116.394 335.573C116.394 346.612 106.291 347.823 93.8279 347.823C81.3649 347.823 71.2617 346.612 71.2617 335.573C71.2617 324.535 81.3649 315.586 93.8279 315.586C106.291 315.586 116.394 324.535 116.394 335.573Z" fill="#FEE4A0"/>
<path d="M160.508 335.573C160.508 346.612 150.405 347.823 137.942 347.823C125.479 347.823 115.376 346.612 115.376 335.573C115.376 324.535 125.479 315.586 137.942 315.586C150.405 315.586 160.508 324.535 160.508 335.573Z" fill="#FEE4A0"/>
<defs>
<radialGradient id="paint0_radial_2005_5078" cx="0" cy="0" r="1" gradientUnits="userSpaceOnUse" gradientTransform="translate(111.983 106.891) rotate(90) scale(162.035 237.125)">
<stop stop-color="#FFDE8B"/>
<stop offset="0.34522" stop-color="#FFF4D8"/>
</radialGradient>
</defs>
</svg>
