<svg width="222" height="348" viewBox="0 0 222 348" fill="none" xmlns="http://www.w3.org/2000/svg">
<path d="M55.162 151.669C56.8361 146.236 61.872 142.523 67.5572 142.523H162.298C168.084 142.523 173.185 146.362 174.758 151.93C201.812 247.654 203.719 292.996 196.82 326.289C195.629 332.034 190.432 335.948 184.565 335.948H41.6325C35.8265 335.948 30.6688 332.108 29.3733 326.449C20.5499 287.9 25.5686 247.713 55.162 151.669Z" fill="#FFF4D8"/>
<path opacity="0.36" d="M104.695 252.498C105.309 246.878 110.066 242.629 115.72 242.629C121.408 242.629 126.184 246.927 126.744 252.588C130.145 286.954 130.967 307.118 130.545 321.73C130.311 329.812 123.485 335.948 115.399 335.948C107.342 335.948 100.506 329.86 100.228 321.808C99.6919 306.285 100.87 287.513 104.695 252.498Z" fill="#FFEAB3"/>
<path opacity="0.31" d="M114.296 250.54C114.304 249.926 114.804 249.416 115.418 249.416C116.032 249.416 116.533 249.925 116.54 250.54C117.136 298.236 117.147 318.849 116.98 334.369C116.97 335.245 116.257 335.948 115.382 335.948C114.507 335.948 113.794 335.244 113.784 334.369C113.571 315.853 113.655 297.936 114.296 250.54Z" fill="#A86F2B"/>
<path opacity="0.31" d="M80.3496 289.558C80.3647 288.943 80.8682 288.439 81.4836 288.439C82.0998 288.439 82.6036 288.943 82.6175 289.559C83.186 314.67 83.211 325.979 83.059 334.368C83.0431 335.246 82.3256 335.947 81.4474 335.947C80.5699 335.947 79.8527 335.246 79.8355 334.369C79.6422 324.512 79.7349 314.603 80.3496 289.558Z" fill="#A86F2B"/>
<path opacity="0.31" d="M148.218 289.558C148.233 288.943 148.736 288.439 149.352 288.439C149.968 288.439 150.472 288.943 150.486 289.559C151.054 314.67 151.079 325.979 150.927 334.368C150.911 335.246 150.194 335.947 149.316 335.947C148.438 335.947 147.721 335.246 147.704 334.369C147.51 324.512 147.603 314.603 148.218 289.558Z" fill="#A86F2B"/>
<path d="M162.298 142.523H67.5572C61.872 142.523 56.8422 146.217 55.1681 151.65C53.1003 158.36 51.1525 164.798 49.321 170.982C46.8725 179.249 53.1017 187.486 61.7235 187.486H167.611C176.063 187.486 182.266 179.548 180.096 171.38C178.436 165.132 176.657 158.648 174.754 151.915C173.18 146.347 168.084 142.523 162.298 142.523Z" fill="#EAD2AA" fill-opacity="0.28"/>
<path d="M183.92 23.2341C183.836 22.8685 183.794 22.6857 183.754 22.5584C183.104 20.4451 180.84 19.4112 179.314 20.5304C179.222 20.5978 179.1 20.706 178.858 20.9222L130.752 63.83C130.391 64.1515 130.211 64.3122 130.124 64.408C128.633 66.05 129.543 69.052 131.755 69.7908C131.884 69.8339 132.145 69.8941 132.667 70.0144C157.836 75.8191 173.658 83.1757 196.267 99.1143C196.721 99.4346 196.948 99.5947 197.07 99.6654C199.147 100.875 201.298 99.2715 200.929 96.7883C200.908 96.6431 200.846 96.377 200.723 95.8448L183.92 23.2341Z" fill="#934E00"/>
<path fill-rule="evenodd" clip-rule="evenodd" d="M173.741 44.3789C174.25 44.0061 175.005 44.3504 175.222 45.0547C175.235 45.0971 175.248 45.1584 175.276 45.2803L185.831 90.8916C185.865 91.0375 185.882 91.1107 185.889 91.1572C185.951 91.5692 185.799 91.9119 185.543 92.0996C171.034 82.7219 158.63 76.958 142.965 72.4746C142.916 72.1701 142.983 71.8571 143.191 71.6289C143.219 71.5982 143.269 71.5535 143.368 71.4648L173.589 44.5098C173.67 44.4377 173.71 44.4014 173.741 44.3789Z" fill="#FFF5DC"/>
<path d="M37.1725 23.2341C37.2571 22.8685 37.2994 22.6857 37.3386 22.5584C37.9885 20.4451 40.2525 19.4112 41.7793 20.5304C41.8713 20.5978 41.9926 20.706 42.235 20.9222L90.3412 63.83C90.7016 64.1515 90.8818 64.3122 90.9688 64.408C92.4596 66.05 91.5501 69.052 89.338 69.7908C89.2089 69.8339 88.9481 69.8941 88.4263 70.0144C63.2572 75.8191 47.4354 83.1757 24.8262 99.1143C24.3719 99.4346 24.1447 99.5947 24.0233 99.6654C21.946 100.875 19.7948 99.2715 20.1634 96.7883C20.185 96.6431 20.2466 96.377 20.3697 95.8448L37.1725 23.2341Z" fill="#934E00"/>
<path fill-rule="evenodd" clip-rule="evenodd" d="M47.3521 44.379C46.8432 44.006 46.0884 44.3505 45.8717 45.0547C45.8586 45.0972 45.8452 45.1585 45.817 45.2803L35.2613 90.8916C35.2276 91.0374 35.2108 91.1107 35.2037 91.1573C35.1414 91.5692 35.2947 91.912 35.5504 92.0997C50.0592 82.722 62.4635 76.958 78.1285 72.4747C78.1772 72.1702 78.1106 71.8571 77.9019 71.629C77.8739 71.5983 77.8245 71.5535 77.7252 71.4649L47.5045 44.5098C47.4237 44.4377 47.3828 44.4014 47.3521 44.379Z" fill="#FFF5DC"/>
<path d="M213.785 127.254C213.785 165.673 168.206 176.458 111.983 176.458C55.7586 176.458 10.1802 165.673 10.1802 127.254C10.1802 88.8339 55.7586 37.3281 111.983 37.3281C168.206 37.3281 213.785 88.8339 213.785 127.254Z" fill="url(#paint0_radial_1676_4897)"/>
<ellipse cx="77.2001" cy="98.4099" rx="5.93847" ry="6.78682" fill="black"/>
<ellipse cx="102.186" cy="119.618" rx="13.9568" ry="11.0286" fill="#FFEFC7"/>
<ellipse cx="125.173" cy="119.618" rx="13.9568" ry="11.0286" fill="#FFEFC7"/>
<ellipse cx="146.765" cy="98.4099" rx="5.93847" ry="6.78682" fill="black"/>
<path d="M112.759 119.072C113.179 119.7 114.121 119.666 114.504 119.015C116.795 115.126 119.054 112.518 122.893 109.15C123.649 108.488 123.089 107.205 122.09 107.312C115.91 107.972 111.371 107.934 105.169 107.283C104.177 107.179 103.627 108.44 104.369 109.106C107.225 111.67 109.48 114.179 112.759 119.072Z" fill="#FF8A8A"/>
<path d="M19.4014 247.843C30.7204 235.849 52.1507 248.623 62.1935 257.079C62.6799 257.489 62.9286 258.091 62.8755 258.724C60.9446 281.769 55.7203 327.028 49.5558 331.361C43.3015 335.756 33.5479 329.529 29.4528 325.866C13.8172 310.481 4.8826 263.228 19.4014 247.843Z" fill="#FFF4D8"/>
<path d="M76.3517 333.624C76.3517 344.892 61.5387 346.129 43.2659 346.129C24.9932 346.129 10.1802 344.892 10.1802 333.624C10.1802 322.355 14.7667 315.588 33.0395 315.588C51.3122 315.588 76.3517 322.355 76.3517 333.624Z" fill="#FFF4D8"/>
<path d="M151.007 335.321C151.007 346.589 165.82 347.826 184.093 347.826C202.365 347.826 217.178 346.589 217.178 335.321C217.178 324.053 212.592 317.285 194.319 317.285C176.046 317.285 151.007 324.053 151.007 335.321Z" fill="#FFF4D8"/>
<path d="M206.44 247.843C195.121 235.849 173.691 248.623 163.648 257.079C163.162 257.489 162.913 258.091 162.966 258.724C164.897 281.769 170.121 327.028 176.286 331.361C182.54 335.756 192.294 329.529 196.389 325.866C212.024 310.481 220.959 263.228 206.44 247.843Z" fill="#FFF4D8"/>
<path d="M116.394 335.575C116.394 346.614 106.291 347.825 93.8279 347.825C81.3649 347.825 71.2617 346.614 71.2617 335.575C71.2617 324.536 81.3649 315.588 93.8279 315.588C106.291 315.588 116.394 324.536 116.394 335.575Z" fill="#A86F2B"/>
<path d="M160.508 335.575C160.508 346.614 150.405 347.825 137.942 347.825C125.479 347.825 115.376 346.614 115.376 335.575C115.376 324.536 125.479 315.588 137.942 315.588C150.405 315.588 160.508 324.536 160.508 335.575Z" fill="#A86F2B"/>
<defs>
<radialGradient id="paint0_radial_1676_4897" cx="0" cy="0" r="1" gradientUnits="userSpaceOnUse" gradientTransform="translate(111.983 106.893) rotate(90) scale(162.035 237.125)">
<stop stop-color="#934E00"/>
<stop offset="0.34522" stop-color="#FFF4D8"/>
</radialGradient>
</defs>
</svg>
