<?xml version="1.0" encoding="UTF-8"?>
<svg id="Layer_2" data-name="Layer 2" xmlns="http://www.w3.org/2000/svg" xmlns:xlink="http://www.w3.org/1999/xlink" viewBox="0 0 318.9 402.35">
  <defs>
    <style>
      .cls-1 {
        fill: none;
        stroke: #845c2c;
        stroke-linecap: round;
        stroke-linejoin: round;
        stroke-width: 2px;
      }

      .cls-2 {
        fill: #9f7138;
      }

      .cls-3 {
        stroke: #fdf5db;
      }

      .cls-3, .cls-4, .cls-5, .cls-6 {
        stroke-miterlimit: 10;
      }

      .cls-3, .cls-7 {
        fill: #fdf5db;
      }

      .cls-8 {
        fill: #fcf0cb;
      }

      .cls-9 {
        fill: url(#radial-gradient);
      }

      .cls-10 {
        fill: #fdf5df;
      }

      .cls-4 {
        fill: #89511a;
        stroke: #8a511a;
      }

      .cls-5 {
        fill: #fff5dc;
        stroke: #fff5dc;
      }

      .cls-6 {
        stroke: #000;
      }

      .cls-11 {
        fill: #f0908d;
      }
    </style>
    <radialGradient id="radial-gradient" cx="142.65" cy="311.14" fx="142.65" fy="311.14" r="81.1" gradientTransform="translate(4.96 19.58) scale(1.01)" gradientUnits="userSpaceOnUse">
      <stop offset="0" stop-color="#925b27"/>
      <stop offset=".76" stop-color="#fdf5db"/>
    </radialGradient>
  </defs>
  <g id="PLAYING_ANGRY" data-name="PLAYING ANGRY">
    <g>
      <g>
        <path class="cls-3" d="M265.58,233.19s-6.91-18.25-30.42-21.29c0,0-16.87-30.97-74.94-32.91h-24.11c-71.72,4.6-76.59,32.91-76.59,32.91-25.72,3.98-31.09,21.29-31.09,21.29-21.48,57.52,22.64,79.4,23.04,82.68.45,3.66,12.92,45.76,12.92,45.76,16.35,30.6,83.9,18.51,83.9,18.51,0,0,66.09,12.1,82.09-18.51,0,0,12.2-42.1,12.64-45.76.39-3.28,43.56-25.16,22.55-82.68Z"/>
        <path class="cls-7" d="M133.64,181.05c-2.55-26.34-26.76-45.03-29.31-46.31-2.55-1.27-49.28-36.54-24.64-97.29,0,0,10.2-35.26,62.45-37.39,52.25-2.12,64.57,44.18,64.57,44.18,0,0,8.07,26.76-10.62,26.34-12.35-.28-13.76-8.16-13.91-14.7-.12-5.26-2.13-10.3-5.58-14.28-5.6-6.46-15.23-15.51-25.54-16.05-16.14-.85-47.16,4.67-50.56,33.99-3.4,29.31,3.82,40.78,14.02,48.86,10.2,8.07,32.71,30.19,38.66,45.88,6.01,15.83,8.48,31.75,7.44,33.64-2.05,3.72-24.91,2.1-24.91,2.1l-2.07-8.98Z"/>
        <path class="cls-3" d="M228.79,344.46s23.48,1.19,30.25-2.99,14.93-5.97,17.11-19.9,34.63-4.18,34.63-4.18c0,0,3.37,32.25-17.51,47.76-20.1,14.93-30.05,17.51-66.47,18.11s-12.14-21.69-12.14-21.69l14.13-17.11Z"/>
        <path class="cls-3" d="M58.84,309.24l-4.18,15.72s-34.83,2.39-47.96,20.3c-13.13,17.91-4.38,28.66,16.52,40.4,20.9,11.74,42.19,0,42.19,0l23.08-35.6-17.71-35.84-11.94-4.98Z"/>
        <g>
          <path class="cls-2" d="M57.05,364.96s-22.89-7.36-33.43,16.72c-10.55,24.08,35.02,18.91,35.02,18.91,0,0,17.91,0,16.72-17.3-1.19-17.3-18.31-18.32-18.31-18.32Z"/>
          <path class="cls-2" d="M304.33,298.6c-6.88-2.94-14.71-2.97-21.68-.22-7.28,2.87-15.73,8.69-15.85,20.21-.2,20.3,36.82,13.33,36.82,13.33,0,0,26.87-2.59,9.35-26.47,0,0-1.62-3.86-8.64-6.86Z"/>
          <path class="cls-1" d="M284.09,317.59s-2.78,9.14,0,13.71"/>
          <path class="cls-1" d="M301.64,317.59s2.78,9.14,0,13.71"/>
        </g>
      </g>
      <g id="ANGRY_REF" data-name="ANGRY REF">
        <g>
          <path class="cls-4" d="M63.93,326.86l15.57-68.27c.59-2.59,3.73-3.58,5.69-1.79l34.45,31.41-55.7,38.65Z"/>
          <path class="cls-4" d="M232.2,326.86l-15.57-68.27c-.59-2.59-3.73-3.58-5.69-1.79l-34.45,31.41,55.7,38.65Z"/>
        </g>
        <g>
          <path class="cls-10" d="M81.87,304.71l5.52-26.47c.2-.98,1.28-1.38,1.98-.73l15.96,14.85c.67.63.54,1.81-.25,2.24l-21.48,11.62c-.92.5-1.96-.4-1.73-1.51Z"/>
          <path class="cls-10" d="M214.81,304.71l-5.52-26.47c-.2-.98-1.28-1.38-1.98-.73l-15.96,14.85c-.67.63-.54,1.81.25,2.24l21.48,11.62c.92.5,1.96-.4,1.73-1.51Z"/>
        </g>
        <path class="cls-9" d="M235.42,323.24c-27.1-45.71-72.83-51.8-84.53-52.61v-.13s-.49,0-1.4.04c-.91-.04-1.4-.04-1.4-.04v.13c-11.7.81-57.43,6.9-84.53,52.61-30.64,51.69,13.66,78.38,71.16,79.1h29.54c57.5-.72,101.8-27.41,71.16-79.1Z"/>
        <g>
          <path class="cls-8" d="M151.54,354.68s-4.31,6.24-14.52,3.86c-10.21-2.38-9.47-11.25-8.4-13.05,1.36-2.27,3.52-7.03,14.18-6.81,7.79.17,15.77.09,19.5.03,2.66-.04,5.3.55,7.63,1.83,2.99,1.64,5.94,4.63,5.1,9.94-1.59,9.98-19.29,11.46-23.49,4.2Z"/>
          <path class="cls-11" d="M142.92,338.98l7.74,9.31c.35.42.99.42,1.34,0l7.73-9.31c.47-.57.07-1.43-.67-1.43h-15.47c-.74,0-1.14.86-.67,1.43Z"/>
        </g>
        <ellipse class="cls-6" cx="117.18" cy="326.86" rx="5.71" ry="6.31"/>
        <ellipse class="cls-6" cx="185.2" cy="326.86" rx="5.71" ry="6.31"/>
        <ellipse class="cls-5" cx="117.18" cy="322.86" rx="3.04" ry="13.34" transform="translate(-222.58 373.16) rotate(-78.47)"/>
        <ellipse class="cls-5" cx="183.94" cy="322.86" rx="13.34" ry="3.04" transform="translate(-60.81 43.27) rotate(-11.53)"/>
      </g>
    </g>
  </g>
</svg>