<svg width="338" height="430" viewBox="0 0 338 430" fill="none" xmlns="http://www.w3.org/2000/svg">
<path d="M155.755 201.5C155.755 136.5 90.2554 135 90.2554 79C90.2554 23 131.255 13.5 155.755 13.5C180.255 13.5 206.755 35.5 206.755 62" stroke="#FAEDCC" stroke-width="27" stroke-linecap="round"/>
<path d="M154.875 190.5C321.875 190.5 250.375 359.5 245.375 373.5C226.375 392.5 79.8746 397.5 68.3746 373.5C56.8746 349.5 -8.62474 190.5 154.875 190.5Z" fill="#FAEDCC"/>
<path d="M294.755 332.5C294.755 366.5 260.755 368 241.255 367.5L230.755 407C300.255 413 334.255 382.5 329.755 332.5H294.755Z" fill="#FAEDCC"/>
<path d="M337.755 339.68C337.755 353.034 325.443 354.5 310.255 354.5C295.068 354.5 282.755 353.034 282.755 339.68C282.755 326.326 295.068 315.5 310.255 315.5C325.443 315.5 337.755 326.326 337.755 339.68Z" fill="#FEE4A0"/>
<path d="M14.2503 405C-23.0345 377.892 20.2503 346 59.2503 346C73.7501 354 67.7505 395 66.2505 405C64.7505 415 30.7554 417 14.2503 405Z" fill="#FAEDCC"/>
<path d="M78.7554 411.68C78.7554 425.034 66.4432 426.5 51.2554 426.5C36.0675 426.5 23.7554 425.034 23.7554 411.68C23.7554 398.326 36.0675 387.5 51.2554 387.5C66.4432 387.5 78.7554 398.326 78.7554 411.68Z" fill="#FEE4A0"/>
<path d="M228.676 276.732C228.592 276.367 228.549 276.184 228.51 276.056C227.86 273.943 225.596 272.909 224.069 274.028C223.977 274.096 223.856 274.204 223.614 274.42L175.507 317.328C175.147 317.65 174.967 317.81 174.88 317.906C173.389 319.548 174.298 322.55 176.511 323.289C176.64 323.332 176.901 323.392 177.422 323.512C202.591 329.317 218.413 336.674 241.022 352.612C241.477 352.933 241.704 353.093 241.825 353.163C243.903 354.373 246.054 352.77 245.685 350.286C245.664 350.141 245.602 349.875 245.479 349.343L228.676 276.732Z" fill="#FEE4A0"/>
<path d="M218.496 297.879C219.005 297.506 219.76 297.851 219.977 298.555C219.99 298.597 220.003 298.659 220.032 298.78L230.587 344.392C230.621 344.537 230.638 344.611 230.645 344.657C230.707 345.069 230.554 345.412 230.298 345.6C215.789 336.222 203.385 330.458 187.719 325.975C187.671 325.67 187.738 325.357 187.947 325.129C187.975 325.098 188.024 325.053 188.123 324.965L218.344 298.01C218.425 297.938 218.466 297.901 218.496 297.879Z" fill="#FFF5DC"/>
<path d="M81.9278 276.732C82.0125 276.367 82.0548 276.184 82.0939 276.056C82.7439 273.943 85.0079 272.909 86.5347 274.028C86.6267 274.096 86.7479 274.204 86.9904 274.42L135.097 317.328C135.457 317.65 135.637 317.81 135.724 317.906C137.215 319.548 136.306 322.55 134.093 323.289C133.964 323.332 133.703 323.392 133.182 323.512C108.013 329.317 92.1907 336.674 69.5815 352.612C69.1272 352.933 68.9001 353.093 68.7787 353.163C66.7014 354.373 64.5502 352.77 64.9188 350.286C64.9404 350.141 65.0019 349.875 65.1251 349.343L81.9278 276.732Z" fill="#FEE4A0"/>
<path d="M92.1084 297.879C91.5996 297.506 90.8448 297.851 90.628 298.555C90.6149 298.597 90.6005 298.658 90.5723 298.78L80.0176 344.392C79.9838 344.538 79.967 344.611 79.96 344.657C79.8976 345.069 80.0502 345.412 80.3057 345.6C94.8149 336.222 107.219 330.458 122.885 325.975C122.933 325.67 122.867 325.357 122.658 325.129C122.63 325.098 122.58 325.054 122.48 324.965L92.2598 298.01C92.1792 297.938 92.1391 297.901 92.1084 297.879Z" fill="#FFF5DC"/>
<path d="M258.54 380.754C258.54 419.173 212.962 429.958 156.738 429.958C100.514 429.958 54.9358 419.173 54.9358 380.754C54.9358 342.334 100.514 290.828 156.738 290.828C212.962 290.828 258.54 342.334 258.54 380.754Z" fill="url(#paint0_radial_2237_3797)"/>
<ellipse cx="121.956" cy="367.287" rx="5.93847" ry="6.78682" fill="black"/>
<ellipse cx="146.941" cy="388.495" rx="13.9568" ry="11.0286" fill="#FFEFC7"/>
<ellipse cx="169.929" cy="388.495" rx="13.9568" ry="11.0286" fill="#FFEFC7"/>
<ellipse cx="191.521" cy="367.287" rx="5.93847" ry="6.78682" fill="black"/>
<path d="M157.514 387.949C157.935 388.577 158.876 388.543 159.26 387.891C161.55 384.003 163.809 381.395 167.649 378.027C168.404 377.365 167.844 376.082 166.845 376.189C160.665 376.849 156.127 376.811 149.924 376.16C148.933 376.056 148.383 377.317 149.124 377.983C151.98 380.547 154.235 383.056 157.514 387.949Z" fill="#FF8A8A"/>
<path d="M246.255 226C284.755 226 309.255 289.006 256.255 335.503C240.255 285 199.255 226 246.255 226Z" fill="#FAEDCC"/>
<path d="M64.2384 226C25.7385 226 1.23908 289.006 54.2391 335.503C70.2383 285 111.238 226 64.2384 226Z" fill="#FAEDCC"/>
<path d="M301.123 353.5C298.624 347 300.123 340 301.123 338.5M301.123 353.5C298.624 347 300.123 340 301.123 338.5" stroke="#7A4D18" stroke-width="2" stroke-linecap="round"/>
<path d="M319.755 353.5C322.255 347 320.755 340 319.755 338.5" stroke="#7A4D18" stroke-width="2" stroke-linecap="round"/>
<defs>
<radialGradient id="paint0_radial_2237_3797" cx="0" cy="0" r="1" gradientUnits="userSpaceOnUse" gradientTransform="translate(156.756 378.5) rotate(90.007) scale(143.928 210.627)">
<stop stop-color="#FFDE8B"/>
<stop offset="0.34522" stop-color="#FFF4D8"/>
</radialGradient>
</defs>
</svg>
