<?xml version="1.0" encoding="UTF-8"?>
<svg id="Layer_2" data-name="Layer 2" xmlns="http://www.w3.org/2000/svg" xmlns:xlink="http://www.w3.org/1999/xlink" viewBox="0 0 317.18 402.35">
  <defs>
    <style>
      .cls-1 {
        fill: none;
        stroke: #845c2c;
        stroke-linecap: round;
        stroke-linejoin: round;
        stroke-width: 2px;
      }

      .cls-2 {
        fill: #9f7138;
      }

      .cls-3 {
        stroke: #fdf5db;
      }

      .cls-3, .cls-4 {
        stroke-miterlimit: 10;
      }

      .cls-3, .cls-5 {
        fill: #fdf5db;
      }

      .cls-6 {
        fill: #fcf0cb;
      }

      .cls-7 {
        fill: url(#radial-gradient);
      }

      .cls-8 {
        fill: #fdf5df;
      }

      .cls-4 {
        fill: #89511a;
        stroke: #8a511a;
      }

      .cls-9 {
        fill: #f0908d;
      }
    </style>
    <radialGradient id="radial-gradient" cx="134.67" cy="311.49" fx="134.67" fy="311.49" r="80.66" gradientTransform="translate(9.71 19.58) scale(1.01)" gradientUnits="userSpaceOnUse">
      <stop offset="0" stop-color="#925b27"/>
      <stop offset=".76" stop-color="#fdf5db"/>
    </radialGradient>
  </defs>
  <g id="PLAYING_HAPPY" data-name="PLAYING HAPPY">
    <g>
      <g>
        <path class="cls-3" d="M264.15,231.93s-6.88-18.15-30.25-21.18c0,0-16.78-30.8-74.54-32.73h-23.97c-71.33,4.58-76.17,32.73-76.17,32.73-25.58,3.96-30.92,21.18-30.92,21.18-21.36,57.21,22.52,78.97,22.92,82.24.44,3.64,12.85,45.51,12.85,45.51,16.26,30.44,83.44,18.41,83.44,18.41,0,0,65.73,12.03,81.65-18.41,0,0,12.14-41.87,12.57-45.51.39-3.26,43.33-25.03,22.42-82.24Z"/>
        <path class="cls-5" d="M132.93,180.07c-2.54-26.2-26.62-44.79-29.16-46.06-2.54-1.27-49.01-36.34-24.51-96.76,0,0,10.14-35.07,62.11-37.18,51.97-2.11,64.23,43.94,64.23,43.94,0,0,8.03,26.62-10.56,26.2-12.28-.28-13.68-8.11-13.83-14.62-.12-5.24-2.12-10.25-5.55-14.21-5.57-6.42-15.14-15.42-25.41-15.96-16.06-.85-46.9,4.65-50.28,33.8-3.38,29.16,3.8,40.56,13.94,48.59,10.14,8.03,32.53,30.03,38.45,45.63,5.97,15.74,8.43,31.58,7.4,33.46-2.03,3.7-24.78,2.09-24.78,2.09l-2.06-8.93Z"/>
        <path class="cls-3" d="M227.56,342.6s23.36,1.19,30.09-2.97c6.73-4.16,14.84-5.94,17.02-19.79,2.18-13.85,34.44-4.16,34.44-4.16,0,0,3.36,32.08-17.42,47.5-19.99,14.84-29.89,17.42-66.11,18.01-36.22.59-12.07-21.57-12.07-21.57l14.05-17.02Z"/>
        <path class="cls-3" d="M58.53,307.57l-4.16,15.64s-34.64,2.38-47.7,20.19-4.35,28.5,16.43,40.18c20.78,11.68,41.96,0,41.96,0l22.96-35.41-17.62-35.65-11.88-4.95Z"/>
        <g>
          <path class="cls-2" d="M56.75,362.99s-22.76-7.32-33.25,16.63c-10.49,23.95,34.84,18.8,34.84,18.8,0,0,17.81,0,16.63-17.21-1.19-17.21-18.21-18.22-18.21-18.22Z"/>
          <path class="cls-2" d="M302.68,296.98c-6.85-2.93-14.63-2.95-21.56-.22-7.25,2.86-15.65,8.64-15.76,20.1-.2,20.19,36.62,13.26,36.62,13.26,0,0,26.72-2.57,9.3-26.32,0,0-1.62-3.84-8.6-6.82Z"/>
          <path class="cls-1" d="M282.55,315.88s-2.76,9.09,0,13.64"/>
          <path class="cls-1" d="M300.02,315.88s2.76,9.09,0,13.64"/>
        </g>
      </g>
      <g id="HAPPY_REF" data-name="HAPPY REF">
        <g>
          <path class="cls-4" d="M61.05,327.26l15.49-67.9c.59-2.57,3.71-3.56,5.65-1.78l34.26,31.24-55.4,38.44Z"/>
          <path class="cls-4" d="M228.42,327.26l-15.49-67.9c-.59-2.57-3.71-3.56-5.65-1.78l-34.26,31.24,55.4,38.44Z"/>
        </g>
        <g>
          <path class="cls-8" d="M78.9,305.24l5.49-26.32c.2-.98,1.27-1.37,1.97-.72l15.87,14.77c.67.62.54,1.8-.25,2.22l-21.36,11.56c-.92.5-1.95-.4-1.72-1.5Z"/>
          <path class="cls-8" d="M211.12,305.24l-5.49-26.32c-.2-.98-1.27-1.37-1.97-.72l-15.87,14.77c-.67.62-.54,1.8.25,2.22l21.36,11.56c.92.5,1.95-.4,1.72-1.5Z"/>
        </g>
        <path class="cls-7" d="M231.62,323.67c-26.96-45.46-72.43-51.52-84.07-52.32v-.13s-.49,0-1.39.04c-.91-.04-1.39-.04-1.39-.04v.13c-11.64.81-57.12,6.86-84.07,52.32-30.48,51.41,13.58,77.96,70.77,78.67h29.38c57.19-.72,101.25-27.27,70.77-78.67Z"/>
        <g>
          <path class="cls-6" d="M146.1,354s-4.29,6.21-14.45,3.84c-10.16-2.37-9.42-11.19-8.35-12.98,1.35-2.26,3.5-7,14.11-6.77,7.75.16,15.68.09,19.39.03,2.64-.04,5.27.55,7.59,1.82,2.98,1.63,5.91,4.6,5.07,9.89-1.58,9.93-19.18,11.4-23.36,4.18Z"/>
          <path class="cls-9" d="M137.53,338.38l7.7,9.26c.35.42.99.42,1.33,0l7.69-9.26c.47-.56.07-1.42-.67-1.42h-15.39c-.73,0-1.14.86-.67,1.42Z"/>
        </g>
        <g>
          <path d="M174.67,327.08c6.11-4.38,16.86-3.88,20.9,3.17.72,1.26,2.66.12,1.94-1.14-4.61-8.06-16.87-9.08-23.98-3.98-1.17.84-.04,2.79,1.14,1.94h0Z"/>
          <path d="M118.92,325.44c-7-5.38-19.22-4.44-24.12,3.39-.77,1.23,1.18,2.36,1.94,1.14,4.29-6.87,15.05-7.18,21.04-2.58,1.15.88,2.27-1.07,1.14-1.94h0Z"/>
        </g>
      </g>
    </g>
  </g>
</svg>