<svg width="287" height="362" viewBox="0 0 287 362" fill="none" xmlns="http://www.w3.org/2000/svg">
<path d="M192 181C253 181 242 127 242 105.5H279.5C284.5 187.5 263.5 214.5 198 219.5L192 181Z" fill="#FFF4D8"/>
<path d="M70.166 165.669C71.8401 160.236 76.876 156.523 82.5612 156.523H177.302C183.088 156.523 188.189 160.362 189.762 165.93C216.816 261.654 218.723 306.996 211.824 340.289C210.634 346.034 205.436 349.948 199.569 349.948H56.6365C50.8305 349.948 45.6728 346.108 44.3774 340.449C35.5539 301.9 40.5726 261.713 70.166 165.669Z" fill="#FFF4D8"/>
<path opacity="0.36" d="M119.699 266.498C120.313 260.878 125.07 256.629 130.724 256.629C136.412 256.629 141.188 260.927 141.748 266.588C145.149 300.954 145.971 321.117 145.549 335.73C145.315 343.812 138.489 349.948 130.403 349.948C122.346 349.948 115.51 343.86 115.232 335.808C114.696 320.285 115.874 301.513 119.699 266.498Z" fill="#FFEAB3"/>
<path opacity="0.31" d="M129.3 264.54C129.308 263.926 129.809 263.416 130.422 263.416C131.036 263.416 131.537 263.925 131.544 264.54C132.14 312.236 132.151 332.849 131.984 348.369C131.974 349.245 131.262 349.948 130.386 349.948C129.511 349.948 128.798 349.244 128.788 348.369C128.575 329.853 128.659 311.936 129.3 264.54Z" fill="#A86F2B"/>
<path opacity="0.31" d="M95.3538 303.558C95.3689 302.943 95.8723 302.439 96.4877 302.439C97.104 302.439 97.6077 302.943 97.6217 303.559C98.1902 328.67 98.2151 339.979 98.0631 348.368C98.0472 349.246 97.3298 349.947 96.4516 349.947C95.5741 349.947 94.8569 349.246 94.8397 348.369C94.6463 338.512 94.739 328.603 95.3538 303.558Z" fill="#A86F2B"/>
<path opacity="0.31" d="M163.222 303.558C163.237 302.943 163.74 302.439 164.356 302.439C164.972 302.439 165.476 302.943 165.49 303.559C166.058 328.67 166.083 339.979 165.931 348.368C165.915 349.246 165.198 349.947 164.32 349.947C163.442 349.947 162.725 349.246 162.708 348.369C162.514 338.512 162.607 328.603 163.222 303.558Z" fill="#A86F2B"/>
<path d="M177.302 156.523H82.5613C76.876 156.523 71.8463 160.217 70.1721 165.65C68.1043 172.36 66.1565 178.798 64.325 184.982C61.8765 193.249 68.1058 201.486 76.7275 201.486H182.615C191.067 201.486 197.27 193.548 195.1 185.38C193.44 179.132 191.661 172.648 189.758 165.915C188.184 160.347 183.088 156.523 177.302 156.523Z" fill="#EAD2AA" fill-opacity="0.28"/>
<path d="M214.183 38.5484C214.196 38.1734 214.202 37.9859 214.197 37.8527C214.116 35.6433 212.197 34.0587 210.433 34.7445C210.326 34.7858 210.181 34.8589 209.891 35.005L152.319 64C151.887 64.2172 151.672 64.3258 151.563 64.3958C149.698 65.596 149.799 68.7311 151.745 70.0173C151.858 70.0924 152.095 70.218 152.568 70.4693C175.377 82.5904 188.755 93.7913 206.469 115.039C206.825 115.465 207.003 115.679 207.102 115.779C208.795 117.485 211.288 116.493 211.575 113.999C211.592 113.853 211.601 113.58 211.62 113.034L214.183 38.5484Z" fill="#FEE4A0"/>
<path d="M198.876 56.3396C199.465 56.111 200.105 56.639 200.131 57.3755C200.133 57.4199 200.13 57.4828 200.126 57.6076L198.516 104.396C198.511 104.545 198.509 104.62 198.504 104.667C198.458 105.082 198.221 105.374 197.925 105.489C186.337 92.6751 175.847 83.8974 161.876 75.5122C161.908 75.2054 162.054 74.9197 162.315 74.7533C162.35 74.7309 162.409 74.7003 162.528 74.6405L198.696 56.4256C198.792 56.377 198.841 56.3534 198.876 56.3396Z" fill="#FFF5DC"/>
<path d="M41.9189 37.5484C41.906 37.1734 41.8995 36.9859 41.9044 36.8527C41.9852 34.6433 43.9045 33.0586 45.669 33.7445C45.7753 33.7858 45.9204 33.8589 46.2105 34.005L103.783 63C104.214 63.2172 104.43 63.3258 104.539 63.3958C106.404 64.596 106.302 67.7311 104.357 69.0173C104.243 69.0923 104.007 69.218 103.534 69.4693C80.7248 81.5904 67.3461 92.7913 49.6325 114.039C49.2766 114.465 49.0986 114.679 48.9996 114.779C47.3062 116.485 44.8133 115.493 44.5266 112.999C44.5099 112.853 44.5005 112.58 44.4817 112.034L41.9189 37.5484Z" fill="#FEE4A0"/>
<path d="M57.2254 55.3394C56.6372 55.1107 55.9972 55.6388 55.9702 56.3753C55.9686 56.4197 55.9706 56.4826 55.9749 56.6076L57.5849 103.397C57.59 103.546 57.5925 103.62 57.5977 103.667C57.6441 104.081 57.8803 104.374 58.1758 104.489C69.7637 91.6749 80.2542 82.8973 94.2257 74.512C94.1939 74.2052 94.0474 73.9194 93.7868 73.753C93.7517 73.7306 93.6917 73.7005 93.5726 73.6406L57.4052 55.4256C57.3091 55.3772 57.2607 55.3531 57.2254 55.3394Z" fill="#FFF5DC"/>
<path d="M228.789 141.254C228.789 179.673 183.21 190.458 126.986 190.458C70.7625 190.458 25.1841 179.673 25.1841 141.254C25.1841 102.834 70.7625 51.3281 126.986 51.3281C183.21 51.3281 228.789 102.834 228.789 141.254Z" fill="url(#paint0_radial_2237_3756)"/>
<ellipse cx="92.2041" cy="85.7868" rx="5.93847" ry="6.78682" fill="black"/>
<ellipse cx="117.189" cy="106.995" rx="13.9568" ry="11.0286" fill="#FFEFC7"/>
<ellipse cx="140.177" cy="106.995" rx="13.9568" ry="11.0286" fill="#FFEFC7"/>
<ellipse cx="161.769" cy="85.7868" rx="5.93847" ry="6.78682" fill="black"/>
<path d="M127.763 106.449C128.183 107.077 129.125 107.043 129.508 106.391C131.799 102.503 134.058 99.8951 137.897 96.5275C138.653 95.8648 138.093 94.5818 137.093 94.6886C130.914 95.3491 126.375 95.3106 120.172 94.6599C119.181 94.5559 118.631 95.8169 119.373 96.4828C122.228 99.0469 124.484 101.556 127.763 106.449Z" fill="#FF8A8A"/>
<path d="M34.4054 261.843C45.7244 249.849 67.1547 262.623 77.1975 271.079C77.6839 271.489 77.9327 272.091 77.8796 272.724C75.9486 295.769 70.7244 341.028 64.5598 345.361C58.3055 349.756 48.5519 343.529 44.4569 339.866C28.8213 324.481 19.8866 277.228 34.4054 261.843Z" fill="#FFF4D8"/>
<path d="M91.3556 347.624C91.3556 358.892 76.5426 360.129 58.2698 360.129C39.9971 360.129 25.1841 358.892 25.1841 347.624C25.1841 336.355 29.7706 329.588 48.0434 329.588C66.3162 329.588 91.3556 336.355 91.3556 347.624Z" fill="#FFF4D8"/>
<path d="M166.011 349.321C166.011 360.589 180.824 361.826 199.096 361.826C217.369 361.826 232.182 360.589 232.182 349.321C232.182 338.053 227.596 331.285 209.323 331.285C191.05 331.285 166.011 338.053 166.011 349.321Z" fill="#FFF4D8"/>
<path d="M221.444 261.843C210.125 249.849 188.695 262.623 178.652 271.079C178.165 271.489 177.917 272.091 177.97 272.724C179.901 295.769 185.125 341.028 191.29 345.361C197.544 349.756 207.297 343.529 211.393 339.866C227.028 324.481 235.963 277.228 221.444 261.843Z" fill="#FFF4D8"/>
<path d="M131.398 349.575C131.398 360.614 121.295 361.825 108.832 361.825C96.3689 361.825 86.2656 360.614 86.2656 349.575C86.2656 338.536 96.3689 329.588 108.832 329.588C121.295 329.588 131.398 338.536 131.398 349.575Z" fill="#FEE4A0"/>
<path d="M287 104.28C287 119.346 275.583 125.5 261.5 125.5C247.417 125.5 236 119.346 236 104.28C236 89.2137 247.417 78.5 261.5 78.5C275.583 78.5 287 89.2137 287 104.28Z" fill="#FEE4A0"/>
<path d="M275 110.339C275 117.198 270.15 120 261.745 120C253.341 120 248 117.198 248 110.339C248 103.48 253.341 97 261.745 97C270.15 97 275 103.48 275 110.339Z" fill="#E49782"/>
<path d="M262.54 89.1578C262.869 92.5591 260.329 94.2068 257.031 94.5257C253.733 94.8447 250.924 93.714 250.596 90.3128C250.267 86.9115 252.674 83.8957 255.972 83.5768C259.27 83.2579 262.211 85.7566 262.54 89.1578Z" fill="#E49782"/>
<path d="M276.61 95.4205C274.841 98.3222 271.854 98.1269 269.059 96.424C266.265 94.7212 264.722 92.1556 266.49 89.2539C268.259 86.3523 271.957 85.3804 274.752 87.0833C277.546 88.7862 278.378 92.5188 276.61 95.4205Z" fill="#E49782"/>
<path d="M282.529 107.073C280.086 108.532 277.949 107.221 276.544 104.869C275.139 102.516 274.998 100.013 277.441 98.554C279.883 97.0949 283.003 97.8192 284.408 100.172C285.813 102.524 284.972 105.614 282.529 107.073Z" fill="#E49782"/>
<path d="M241.058 102.836C243.299 105.056 245.948 104.214 248.086 102.056C250.224 99.8974 251.043 97.241 248.801 95.0205C246.56 92.8 243.01 92.7495 240.872 94.9077C238.734 97.0659 238.817 100.615 241.058 102.836Z" fill="#E49782"/>
<defs>
<radialGradient id="paint0_radial_2237_3756" cx="0" cy="0" r="1" gradientUnits="userSpaceOnUse" gradientTransform="translate(126.986 99) rotate(90) scale(183.928 269.164)">
<stop stop-color="#FFDE8B"/>
<stop offset="0.34522" stop-color="#FFF4D8"/>
</radialGradient>
</defs>
</svg>
