<?xml version="1.0" encoding="UTF-8"?>
<svg id="Layer_2" data-name="Layer 2" xmlns="http://www.w3.org/2000/svg" xmlns:xlink="http://www.w3.org/1999/xlink" viewBox="0 0 317.79 398.8">
  <defs>
    <style>
      .cls-1, .cls-2 {
        fill: #f7ebce;
      }

      .cls-3 {
        fill: #fdf1cf;
      }

      .cls-4 {
        fill: #d99b86;
      }

      .cls-5 {
        fill: #9f7138;
      }

      .cls-6 {
        fill: #9f7138;
      }

      .cls-2 {
        stroke: #dfc99f;
        stroke-linecap: round;
        stroke-linejoin: round;
        stroke-width: 2px;
      }

      .cls-7 {
        fill: #fcf0cb;
      }

      .cls-8 {
        fill: url(#radial-gradient);
      }

      .cls-9 {
        fill: #fdf5df;
      }

      .cls-10 {
        fill: #89511a;
        stroke: #8a511a;
        stroke-miterlimit: 10;
      }

      .cls-11 {
        fill: #fdf5db;
      }

      .cls-12 {
        fill: #f0908d;
      }
    </style>
    <radialGradient id="radial-gradient" cx="127.46" cy="71.67" fx="127.46" fy="71.67" r="103.57" gradientTransform="translate(-5.59 29.53) scale(1.02)" gradientUnits="userSpaceOnUse">
      <stop offset="0" stop-color="#925b27"/>
      <stop offset=".76" stop-color="#fdf5db"/>
    </radialGradient>
  </defs>
  <g id="SIT_PAW_HAPPY" data-name="SIT PAW HAPPY">
    <g>
      <g id="body">
        <path class="cls-11" d="M189.54,170.41s61.97,22.11,71.93-40.79l1.56-36.43,45.46,2.18s0,53.87-7.78,72.86c-7.78,18.99-16.81,29.89-31.45,38.92-14.64,9.03-50.76,15.26-61.97,14.64-11.21-.62-19.62-51.38-19.62-51.38h1.87Z"/>
        <g>
          <g>
            <path class="cls-11" d="M233.24,354.97s12.62-16.18,14.26-52.11-23.59-35.93-23.59-35.93c-1.65-16.18-21.94-89.13-21.94-89.13l-5.65-21.32-71.61,2.66-71.61-2.66-5.65,21.32s-20.29,72.95-21.94,89.13c0,0-25.23,0-23.59,35.93,1.65,35.93,14.26,52.11,14.26,52.11,0,0-16.45.55-16.18,20.29.27,19.75,40.86,15.63,40.86,15.63,0,0,32.09,1.65,37.02-9.32h93.65c4.94,10.97,37.02,9.32,37.02,9.32,0,0,40.59,4.11,40.86-15.63.27-19.75-16.18-20.29-16.18-20.29Z"/>
            <path class="cls-1" d="M124.71,182.64l-75.02-8.33.09,11.68s2.41,13.87,11.7,14.69,63.23-1.01,63.23-1.01c0,0,53.94,1.83,63.23,1.01s11.7-14.69,11.7-14.69l.09-11.68-75.02,8.33Z"/>
          </g>
          <path class="cls-3" d="M106.11,371.05s-4.4-104.16,20.23-104.16,20.52,104.16,20.52,104.16h-40.76Z"/>
          <g>
            <line class="cls-2" x1="85.13" y1="324.14" x2="85.13" y2="379.14"/>
            <line class="cls-2" x1="167.62" y1="324.14" x2="167.62" y2="379.14"/>
            <line class="cls-2" x1="126.38" y1="277.55" x2="126.38" y2="379.14"/>
          </g>
          <path class="cls-6" d="M132.18,379.19c-4.17-14.79-16.79-18.46-23.01-19.37h0s-.03,0-.03,0c-1.48-.22-2.59-.28-3.14-.29l-.39-.04h-.95s-19.61-.22-25.23,19.7c-5.62,19.92,23.72,19.61,23.72,19.61h.94s1.71,0,1.71,0h1.71s0,0,0,0h.94s2.59.02,6.07-.46h0s0,0,0,0c8.26-1.14,21.6-5.13,17.65-19.15Z"/>
        </g>
        <g>
          <path class="cls-5" d="M317.67,81.08c-2.35-29.45-32.15-29.02-32.15-29.02,0,0-29.24-.43-31.58,29.02-2.35,29.45,31.51,27.74,32.15,27.96.64-.21,33.93,1.49,31.58-27.96Z"/>
          <g>
            <path class="cls-4" d="M292.55,76.63c-4.59-2.07-9.75-2.07-14.34,0-4.43,2-9.31,6.04-9.58,14.18-.33,10.11,7.34,11.97,12.41,12.11.01,0,.02,0,.03,0h.19c.4,0,.79,0,1.15,0l5.2-.03c4.64.27,14.89-.43,14.52-12.08-.26-8.14-5.15-12.19-9.58-14.18Z"/>
            <path class="cls-4" d="M265.42,70.19s-6.63-.06-7.06,6.69c-.33,5.08,3.84,6.06,5.92,6.23.76.06,1.52-.09,2.21-.44,1.54-.78,4.29-2.62,5.06-6.01.24-1.04.05-2.15-.52-3.06-.86-1.38-2.57-3.26-5.6-3.42Z"/>
            <path class="cls-4" d="M314.02,82.32s.31-6.1-5.89-6.76c-4.66-.49-5.72,3.3-5.96,5.21-.09.7.03,1.41.32,2.05.66,1.45,2.25,4.05,5.33,4.88.95.26,1.98.12,2.83-.36,1.3-.74,3.1-2.24,3.36-5.03Z"/>
            <path class="cls-4" d="M303.32,65.42s-3.65-5.87-9.84-2.48c-4.66,2.55-3.19,6.77-2.18,8.7.37.71.93,1.29,1.62,1.7,1.55.92,4.7,2.31,8.12,1.1,1.05-.37,1.92-1.16,2.41-2.16.74-1.53,1.44-4.09-.12-6.85Z"/>
            <path class="cls-4" d="M283.57,59.74s-6.14-4.17-10.73,1.85c-3.46,4.53-.18,8.02,1.65,9.47.67.53,1.48.86,2.33.96,1.92.23,5.62.22,8.43-2.46.87-.82,1.38-1.98,1.42-3.17.06-1.82-.37-4.64-3.1-6.66Z"/>
          </g>
        </g>
      </g>
      <g>
        <path class="cls-10" d="M24.95,94.51L21.31,5.13c-.14-3.39,3.43-5.67,6.46-4.14l53.39,26.99L24.95,94.51Z"/>
        <path class="cls-10" d="M226.55,94.64l3.03-89.41c.11-3.39-3.47-5.65-6.49-4.1l-53.21,27.35,56.67,66.15Z"/>
        <path class="cls-9" d="M39.79,61.13l-2.06-34.48c-.08-1.28,1.13-2.13,2.21-1.57l24.84,12.86c1.05.54,1.28,2.04.44,2.84l-22.78,21.61c-.98.93-2.57.17-2.66-1.27Z"/>
        <path class="cls-9" d="M212.16,61.54l1.82-34.49c.07-1.28-1.14-2.12-2.22-1.55l-24.75,13.03c-1.04.55-1.27,2.05-.42,2.84l22.93,21.46c.98.92,2.57.15,2.65-1.29Z"/>
        <path class="cls-8" d="M235.43,85.68C200.51,27.31,141.59,19.53,126.52,18.5v-.16s-.63,0-1.8.05c-1.17-.05-1.8-.05-1.8-.05v.16c-15.08,1.04-73.99,8.81-108.91,67.18-39.49,66,17.6,100.09,91.68,101.01h38.07c74.09-.92,131.17-35.01,91.68-101.01Z"/>
        <g>
          <path class="cls-7" d="M125.8,113.29s-5.56,7.97-18.71,4.93c-13.16-3.04-12.21-14.37-10.82-16.66,1.75-2.9,4.53-8.98,18.27-8.69,10.04.21,20.31.11,25.12.04,3.42-.05,6.83.7,9.83,2.33,3.86,2.09,7.66,5.91,6.57,12.7-2.05,12.75-24.85,14.63-30.26,5.36Z"/>
          <path class="cls-12" d="M114.69,93.23l9.97,11.89c.45.54,1.28.54,1.73,0l9.96-11.89c.61-.73.09-1.82-.86-1.82h-19.93c-.95,0-1.47,1.1-.86,1.82Z"/>
        </g>
      </g>
      <g>
        <path d="M161.49,75.66c8.02-5.72,22.22-5.05,27.53,4.19.72,1.26,2.67.12,1.94-1.14-5.88-10.24-21.58-11.43-30.61-4.99-1.17.83-.05,2.79,1.14,1.94h0Z"/>
        <path d="M89.26,74.12c-8.89-6.79-24.54-5.71-30.79,4.24-.77,1.23,1.17,2.36,1.94,1.14,5.64-8.98,19.84-9.44,27.71-3.43,1.15.88,2.27-1.07,1.14-1.94h0Z"/>
      </g>
    </g>
  </g>
</svg>