<?xml version="1.0" encoding="UTF-8"?>
<svg id="Layer_2" data-name="Layer 2" xmlns="http://www.w3.org/2000/svg" xmlns:xlink="http://www.w3.org/1999/xlink" viewBox="0 0 322.73 405">
  <defs>
    <style>
      .cls-1, .cls-2 {
        fill: #f7ebce;
      }

      .cls-3 {
        fill: #fdf1cf;
      }

      .cls-4 {
        fill: #d99b86;
      }

      .cls-5 {
        fill: #9f7138;
      }

      .cls-6 {
        fill: #9f7138;
      }

      .cls-2 {
        stroke: #dfc99f;
        stroke-linecap: round;
        stroke-linejoin: round;
        stroke-width: 2px;
      }

      .cls-7 {
        fill: #fcf0cb;
      }

      .cls-8 {
        fill: url(#radial-gradient);
      }

      .cls-9 {
        fill: #fdf5df;
      }

      .cls-10 {
        fill: #89511a;
        stroke: #8a511a;
      }

      .cls-10, .cls-11, .cls-12 {
        stroke-miterlimit: 10;
      }

      .cls-13 {
        fill: #fdf5db;
      }

      .cls-11 {
        fill: #fff5dc;
        stroke: #fff5dc;
      }

      .cls-12 {
        stroke: #000;
      }

      .cls-14 {
        fill: #f0908d;
      }
    </style>
    <radialGradient id="radial-gradient" cx="136.94" cy="73.25" fx="136.94" fy="73.25" r="105.18" gradientTransform="translate(-13.34 29.51) scale(1.02)" gradientUnits="userSpaceOnUse">
      <stop offset="0" stop-color="#925b27"/>
      <stop offset=".76" stop-color="#fdf5db"/>
    </radialGradient>
  </defs>
  <g id="SIT_PAW_ANGRY" data-name="SIT PAW ANGRY">
    <g>
      <g id="body">
        <path class="cls-13" d="M192.49,173.05s62.93,22.45,73.05-41.43l1.58-37,46.17,2.21s0,54.71-7.91,74c-7.91,19.29-17.08,30.36-31.94,39.53-14.86,9.17-51.55,15.5-62.93,14.86s-19.92-52.18-19.92-52.18h1.9Z"/>
        <g>
          <g>
            <path class="cls-13" d="M236.87,360.49s12.81-16.43,14.48-52.92c1.67-36.49-23.95-36.49-23.95-36.49-1.67-16.43-22.28-90.52-22.28-90.52l-5.74-21.65-72.73,2.7-72.73-2.7-5.74,21.65s-20.61,74.08-22.28,90.52c0,0-25.62,0-23.95,36.49s14.48,52.92,14.48,52.92c0,0-16.71.56-16.43,20.61.28,20.05,41.5,15.88,41.5,15.88,0,0,32.59,1.67,37.6-9.47h95.11c5.01,11.14,37.6,9.47,37.6,9.47,0,0,41.22,4.18,41.5-15.88.28-20.05-16.43-20.61-16.43-20.61Z"/>
            <path class="cls-1" d="M126.65,185.47l-76.18-8.46.09,11.86s2.45,14.09,11.88,14.92c9.43.83,64.22-1.03,64.22-1.03,0,0,54.78,1.86,64.22,1.03,9.43-.83,11.88-14.92,11.88-14.92l.09-11.86-76.18,8.46Z"/>
          </g>
          <path class="cls-3" d="M107.76,376.81s-4.46-105.78,20.54-105.78,20.84,105.78,20.84,105.78h-41.39Z"/>
          <g>
            <line class="cls-2" x1="86.46" y1="329.18" x2="86.46" y2="385.04"/>
            <line class="cls-2" x1="170.23" y1="329.18" x2="170.23" y2="385.04"/>
            <line class="cls-2" x1="128.34" y1="281.86" x2="128.34" y2="385.04"/>
          </g>
          <path class="cls-6" d="M134.24,385.08c-4.24-15.02-17.05-18.75-23.37-19.67h0s-.03,0-.03,0c-1.51-.22-2.63-.28-3.19-.3l-.39-.04h-.97s-19.92-.22-25.62,20.01c-5.7,20.23,24.09,19.91,24.09,19.91h.96s1.74,0,1.74,0h1.74s0,0,0,0h.96s2.63.02,6.16-.46h0s0,0,0,0c8.39-1.16,21.94-5.21,17.92-19.45Z"/>
        </g>
        <g>
          <path class="cls-5" d="M322.61,82.34c-2.38-29.91-32.65-29.47-32.65-29.47,0,0-29.69-.43-32.08,29.47-2.38,29.91,32,28.17,32.65,28.39.65-.22,34.46,1.52,32.08-28.39Z"/>
          <g>
            <path class="cls-4" d="M297.1,77.82c-4.66-2.1-9.91-2.1-14.56,0-4.5,2.03-9.46,6.14-9.73,14.4-.33,10.26,7.46,12.16,12.61,12.3.01,0,.02,0,.03,0h.19c.41,0,.8,0,1.17,0l5.28-.03c4.72.28,15.13-.43,14.74-12.27-.27-8.27-5.23-12.38-9.73-14.4Z"/>
            <path class="cls-4" d="M269.55,71.28s-6.73-.06-7.17,6.8c-.33,5.16,3.9,6.15,6.01,6.33.77.06,1.55-.09,2.24-.45,1.56-.8,4.36-2.66,5.14-6.1.24-1.06.05-2.19-.52-3.11-.87-1.4-2.61-3.32-5.69-3.47Z"/>
            <path class="cls-4" d="M318.9,83.59s.32-6.19-5.98-6.86c-4.74-.5-5.81,3.35-6.05,5.29-.09.71.03,1.43.33,2.08.67,1.47,2.28,4.11,5.42,4.96.96.26,2.01.13,2.88-.36,1.33-.75,3.15-2.28,3.41-5.1Z"/>
            <path class="cls-4" d="M308.04,66.43s-3.71-5.96-9.99-2.52c-4.73,2.59-3.24,6.87-2.21,8.83.38.72.95,1.31,1.65,1.72,1.57.93,4.78,2.35,8.24,1.11,1.06-.38,1.95-1.18,2.44-2.2.75-1.55,1.46-4.15-.12-6.95Z"/>
            <path class="cls-4" d="M287.98,60.66s-6.23-4.23-10.9,1.88c-3.51,4.6-.19,8.15,1.67,9.62.68.54,1.5.87,2.36.97,1.95.23,5.71.22,8.57-2.49.88-.83,1.4-2.01,1.44-3.22.06-1.85-.38-4.71-3.15-6.76Z"/>
          </g>
        </g>
      </g>
      <g>
        <path class="cls-10" d="M25.34,95.97L21.64,5.2c-.14-3.44,3.49-5.76,6.56-4.21l54.22,27.4L25.34,95.97Z"/>
        <path class="cls-10" d="M230.07,96.1l3.08-90.8c.12-3.44-3.52-5.74-6.59-4.16l-54.03,27.78,57.55,67.18Z"/>
        <path class="cls-9" d="M40.41,62.07l-2.09-35.01c-.08-1.3,1.14-2.16,2.25-1.59l25.23,13.06c1.06.55,1.3,2.07.45,2.88l-23.13,21.95c-.99.94-2.61.17-2.7-1.29Z"/>
        <path class="cls-9" d="M215.46,62.49l1.85-35.03c.07-1.3-1.16-2.15-2.26-1.58l-25.13,13.24c-1.06.56-1.29,2.08-.43,2.89l23.28,21.79c1,.94,2.61.15,2.69-1.31Z"/>
        <path class="cls-8" d="M239.09,87.01C203.63,27.72,143.8,19.83,128.49,18.78v-.16s-.64,0-1.83.06c-1.19-.06-1.83-.06-1.83-.06v.16c-15.31,1.05-75.14,8.94-110.61,68.23-40.1,67.03,17.87,101.65,93.11,102.58h38.66c75.24-.94,133.21-35.55,93.11-102.58Z"/>
        <g>
          <path class="cls-7" d="M127.75,115.04s-5.64,8.09-19,5c-13.36-3.09-12.4-14.6-10.99-16.92,1.78-2.94,4.6-9.12,18.56-8.83,10.2.22,20.63.11,25.51.04,3.48-.05,6.93.71,9.98,2.37,3.92,2.13,7.78,6,6.67,12.9-2.08,12.95-25.24,14.86-30.73,5.44Z"/>
          <path class="cls-14" d="M116.48,94.67l10.13,12.07c.46.54,1.3.54,1.75,0l10.12-12.07c.62-.74.09-1.85-.88-1.85h-20.24c-.97,0-1.5,1.12-.88,1.85Z"/>
        </g>
        <g>
          <ellipse class="cls-12" cx="83.37" cy="77.14" rx="7.41" ry="8.19"/>
          <ellipse class="cls-12" cx="171.58" cy="77.14" rx="7.41" ry="8.19"/>
          <ellipse class="cls-11" cx="83.37" cy="71.97" rx="3.94" ry="17.3" transform="translate(-3.8 139.27) rotate(-78.47)"/>
          <ellipse class="cls-11" cx="169.94" cy="71.97" rx="17.3" ry="3.94" transform="translate(-10.95 35.41) rotate(-11.53)"/>
        </g>
      </g>
    </g>
  </g>
</svg>