<svg width="287" height="362" viewBox="0 0 287 362" fill="none" xmlns="http://www.w3.org/2000/svg">
<path d="M192 180.998C253 180.998 242 126.998 242 105.498H279.5C284.5 187.498 263.5 214.498 198 219.498L192 180.998Z" fill="#5D5F74"/>
<path d="M70.1662 165.667C71.8403 160.234 76.8763 156.521 82.5615 156.521H177.302C183.088 156.521 188.189 160.36 189.763 165.928C216.816 261.652 218.723 306.994 211.824 340.287C210.634 346.032 205.436 349.946 199.569 349.946H56.6368C50.8307 349.946 45.6731 346.106 44.3776 340.447C35.5542 301.898 40.5729 261.711 70.1662 165.667Z" fill="#5D5F74"/>
<path opacity="0.36" d="M119.699 266.496C120.313 260.876 125.07 256.627 130.724 256.627C136.413 256.627 141.188 260.926 141.748 266.586C145.149 300.952 145.971 321.116 145.549 335.728C145.315 343.811 138.49 349.946 130.403 349.946C122.347 349.946 115.51 343.858 115.232 335.806C114.696 320.283 115.875 301.511 119.699 266.496Z" fill="#505370"/>
<path opacity="0.31" d="M129.3 264.538C129.309 263.924 129.809 263.414 130.423 263.414C131.037 263.414 131.537 263.923 131.545 264.538C132.141 312.234 132.151 332.847 131.984 348.367C131.975 349.243 131.262 349.946 130.386 349.946C129.511 349.946 128.799 349.242 128.788 348.367C128.575 329.851 128.66 311.934 129.3 264.538Z" fill="#46496A"/>
<path opacity="0.31" d="M95.354 303.556C95.3691 302.941 95.8726 302.438 96.488 302.438C97.1042 302.438 97.608 302.941 97.6219 303.557C98.1904 328.668 98.2154 339.977 98.0634 348.366C98.0475 349.244 97.33 349.945 96.4518 349.945C95.5743 349.945 94.8571 349.244 94.8399 348.367C94.6466 338.51 94.7393 328.601 95.354 303.556Z" fill="#46496A"/>
<path opacity="0.31" d="M163.222 303.556C163.237 302.941 163.741 302.438 164.356 302.438C164.972 302.438 165.476 302.941 165.49 303.557C166.059 328.668 166.084 339.977 165.932 348.366C165.916 349.244 165.198 349.945 164.32 349.945C163.442 349.945 162.725 349.244 162.708 348.367C162.515 338.51 162.607 328.601 163.222 303.556Z" fill="#46496A"/>
<path d="M177.302 156.521H82.5615C76.8763 156.521 71.8465 160.215 70.1723 165.648C68.1046 172.358 66.1568 178.796 64.3253 184.98C61.8768 193.247 68.106 201.484 76.7278 201.484H182.615C191.067 201.484 197.27 193.546 195.1 185.378C193.44 179.13 191.661 172.646 189.758 165.913C188.185 160.345 183.088 156.521 177.302 156.521Z" fill="#505370"/>
<path d="M214.183 38.5465C214.196 38.1714 214.202 37.9839 214.197 37.8508C214.117 35.6414 212.197 34.0567 210.433 34.7425C210.326 34.7839 210.181 34.8569 209.891 35.0031L152.319 63.998C151.888 64.2153 151.672 64.3239 151.563 64.3939C149.698 65.5941 149.8 68.7292 151.745 70.0153C151.859 70.0904 152.095 70.216 152.568 70.4673C175.377 82.5884 188.756 93.7894 206.469 115.037C206.825 115.464 207.003 115.677 207.102 115.777C208.796 117.483 211.289 116.491 211.575 113.997C211.592 113.851 211.601 113.578 211.62 113.032L214.183 38.5465Z" fill="#4D4F63"/>
<path d="M198.876 56.3376C199.464 56.109 200.105 56.6371 200.131 57.3736C200.133 57.4179 200.131 57.4809 200.127 57.6059L198.517 104.395C198.512 104.544 198.509 104.619 198.504 104.665C198.458 105.079 198.221 105.372 197.926 105.487C186.338 92.6731 175.848 83.8956 161.876 75.5102C161.908 75.2035 162.054 74.9177 162.315 74.7513C162.35 74.7289 162.41 74.6988 162.529 74.6388L198.697 56.4239C198.793 56.3755 198.841 56.3514 198.876 56.3376Z" fill="#FFF5DC"/>
<path d="M41.9191 37.5465C41.9062 37.1714 41.8998 36.9839 41.9046 36.8508C41.9855 34.6413 43.9048 33.0567 45.6692 33.7425C45.7756 33.7839 45.9206 33.8569 46.2108 34.0031L103.783 62.998C104.214 63.2152 104.43 63.3238 104.539 63.3939C106.404 64.5941 106.302 67.7291 104.357 69.0153C104.243 69.0904 104.007 69.216 103.534 69.4673C80.725 81.5884 67.3463 92.7894 49.6328 114.037C49.2768 114.464 49.0989 114.677 48.9999 114.777C47.3064 116.483 44.8136 115.491 44.5269 112.997C44.5101 112.851 44.5007 112.578 44.482 112.032L41.9191 37.5465Z" fill="#4D4F63"/>
<path d="M57.2255 55.3376C56.6373 55.109 55.9973 55.6371 55.9703 56.3736C55.9687 56.4179 55.9707 56.4809 55.975 56.6059L57.585 103.395C57.5901 103.544 57.5926 103.619 57.5978 103.665C57.6442 104.079 57.8804 104.372 58.1759 104.487C69.7638 91.6731 80.2543 82.8956 94.2258 74.5102C94.194 74.2035 94.0475 73.9177 93.7869 73.7513C93.7518 73.7289 93.6918 73.6988 93.5727 73.6388L57.4053 55.4239C57.3092 55.3755 57.2608 55.3514 57.2255 55.3376Z" fill="#FFF5DC"/>
<path d="M228.789 141.252C228.789 179.671 183.211 190.456 126.987 190.456C70.7628 190.456 25.1843 179.671 25.1843 141.252C25.1843 102.832 70.7628 51.3262 126.987 51.3262C183.211 51.3262 228.789 102.832 228.789 141.252Z" fill="#5D5F74"/>
<ellipse cx="92.2043" cy="85.7849" rx="5.93847" ry="6.78682" fill="black"/>
<ellipse cx="117.19" cy="106.993" rx="13.9568" ry="11.0286" fill="#FFEFC7"/>
<ellipse cx="140.177" cy="106.993" rx="13.9568" ry="11.0286" fill="#FFEFC7"/>
<ellipse cx="161.769" cy="85.7849" rx="5.93847" ry="6.78682" fill="black"/>
<path d="M127.763 106.447C128.183 107.075 129.125 107.041 129.508 106.39C131.799 102.501 134.058 99.8931 137.898 96.5255C138.653 95.8628 138.093 94.5799 137.094 94.6867C130.914 95.3471 126.375 95.3087 120.173 94.658C119.181 94.554 118.631 95.8149 119.373 96.4808C122.229 99.0449 124.484 101.554 127.763 106.447Z" fill="#FF8A8A"/>
<path d="M34.4056 261.841C45.7246 249.847 67.1549 262.621 77.1978 271.077C77.6842 271.487 77.9329 272.089 77.8798 272.722C75.9488 295.767 70.7246 341.026 64.56 345.359C58.3058 349.755 48.5521 343.527 44.4571 339.864C28.8215 324.479 19.8869 277.226 34.4056 261.841Z" fill="#5D5F74"/>
<path d="M91.3559 347.622C91.3559 358.89 76.5429 360.127 58.2701 360.127C39.9973 360.127 25.1843 358.89 25.1843 347.622C25.1843 336.353 29.7709 329.586 48.0436 329.586C66.3164 329.586 91.3559 336.353 91.3559 347.622Z" fill="#5D5F74"/>
<path d="M166.011 349.319C166.011 360.587 180.824 361.824 199.097 361.824C217.369 361.824 232.182 360.587 232.182 349.319C232.182 338.051 227.596 331.283 209.323 331.283C191.05 331.283 166.011 338.051 166.011 349.319Z" fill="#5D5F74"/>
<path d="M221.444 261.841C210.125 249.847 188.695 262.621 178.652 271.077C178.166 271.487 177.917 272.089 177.97 272.722C179.901 295.767 185.125 341.026 191.29 345.359C197.544 349.755 207.298 343.527 211.393 339.864C227.028 324.479 235.963 277.226 221.444 261.841Z" fill="#5D5F74"/>
<path d="M131.398 349.573C131.398 360.612 121.295 361.823 108.832 361.823C96.3691 361.823 86.2659 360.612 86.2659 349.573C86.2659 338.535 96.3691 329.586 108.832 329.586C121.295 329.586 131.398 338.535 131.398 349.573Z" fill="#4D4F63"/>
<path d="M287 104.278C287 119.344 275.584 125.498 261.5 125.498C247.417 125.498 236 119.344 236 104.278C236 89.2117 247.417 78.498 261.5 78.498C275.584 78.498 287 89.2117 287 104.278Z" fill="#4D4F63"/>
<path d="M275 110.337C275 117.197 270.15 119.998 261.746 119.998C253.341 119.998 248 117.197 248 110.337C248 103.478 253.341 96.998 261.746 96.998C270.15 96.998 275 103.478 275 110.337Z" fill="#E49782"/>
<path d="M262.54 89.1559C262.869 92.5571 260.329 94.2049 257.031 94.5238C253.733 94.8427 250.925 93.7121 250.596 90.3108C250.267 86.9096 252.674 83.8938 255.972 83.5749C259.271 83.2559 262.211 85.7546 262.54 89.1559Z" fill="#E49782"/>
<path d="M276.61 95.4185C274.841 98.3202 271.854 98.1249 269.06 96.4221C266.265 94.7192 264.722 92.1536 266.491 89.252C268.259 86.3503 271.958 85.3785 274.752 87.0813C277.546 88.7842 278.378 92.5169 276.61 95.4185Z" fill="#E49782"/>
<path d="M282.529 107.071C280.086 108.53 277.949 107.219 276.544 104.867C275.139 102.514 274.998 100.011 277.441 98.552C279.884 97.093 283.003 97.8173 284.408 100.17C285.813 102.522 284.972 105.612 282.529 107.071Z" fill="#E49782"/>
<path d="M241.058 102.834C243.299 105.054 245.948 104.212 248.086 102.054C250.224 99.8955 251.043 97.239 248.801 95.0185C246.56 92.7981 243.01 92.7476 240.872 94.9058C238.734 97.0639 238.817 100.614 241.058 102.834Z" fill="#E49782"/>
</svg>
