<svg width="287" height="362" viewBox="0 0 287 362" fill="none" xmlns="http://www.w3.org/2000/svg">
<path d="M192 180.998C253 180.998 242 126.998 242 105.498H279.5C284.5 187.498 263.5 214.498 198 219.498L192 180.998Z" fill="#FFF4D8"/>
<path d="M70.166 165.667C71.8401 160.234 76.876 156.521 82.5612 156.521H177.302C183.088 156.521 188.189 160.36 189.762 165.928C216.816 261.652 218.723 306.994 211.824 340.287C210.634 346.032 205.436 349.946 199.569 349.946H56.6365C50.8305 349.946 45.6728 346.106 44.3774 340.447C35.5539 301.898 40.5726 261.711 70.166 165.667Z" fill="#FFF4D8"/>
<path opacity="0.36" d="M119.699 266.496C120.313 260.876 125.07 256.627 130.724 256.627C136.412 256.627 141.188 260.926 141.748 266.586C145.149 300.952 145.971 321.116 145.549 335.728C145.315 343.811 138.489 349.946 130.403 349.946C122.346 349.946 115.51 343.858 115.232 335.806C114.696 320.283 115.874 301.511 119.699 266.496Z" fill="#FFEAB3"/>
<path opacity="0.31" d="M129.3 264.538C129.308 263.924 129.809 263.414 130.422 263.414C131.036 263.414 131.537 263.923 131.544 264.538C132.14 312.234 132.151 332.847 131.984 348.367C131.974 349.243 131.262 349.946 130.386 349.946C129.511 349.946 128.798 349.242 128.788 348.367C128.575 329.851 128.659 311.934 129.3 264.538Z" fill="#A86F2B"/>
<path opacity="0.31" d="M95.3538 303.556C95.3689 302.941 95.8723 302.438 96.4877 302.438C97.104 302.438 97.6077 302.941 97.6217 303.557C98.1902 328.668 98.2151 339.977 98.0631 348.366C98.0472 349.244 97.3298 349.945 96.4516 349.945C95.5741 349.945 94.8569 349.244 94.8397 348.367C94.6463 338.51 94.739 328.601 95.3538 303.556Z" fill="#A86F2B"/>
<path opacity="0.31" d="M163.222 303.556C163.237 302.941 163.74 302.438 164.356 302.438C164.972 302.438 165.476 302.941 165.49 303.557C166.058 328.668 166.083 339.977 165.931 348.366C165.915 349.244 165.198 349.945 164.32 349.945C163.442 349.945 162.725 349.244 162.708 348.367C162.514 338.51 162.607 328.601 163.222 303.556Z" fill="#A86F2B"/>
<path d="M177.302 156.521H82.5613C76.876 156.521 71.8463 160.215 70.1721 165.648C68.1043 172.358 66.1565 178.796 64.325 184.98C61.8765 193.247 68.1058 201.484 76.7275 201.484H182.615C191.067 201.484 197.27 193.546 195.1 185.378C193.44 179.13 191.661 172.646 189.758 165.913C188.184 160.345 183.088 156.521 177.302 156.521Z" fill="#EAD2AA" fill-opacity="0.28"/>
<path d="M214.183 38.5465C214.196 38.1714 214.202 37.9839 214.197 37.8508C214.116 35.6414 212.197 34.0567 210.433 34.7425C210.326 34.7839 210.181 34.8569 209.891 35.0031L152.319 63.998C151.887 64.2153 151.672 64.3239 151.563 64.3939C149.698 65.5941 149.799 68.7292 151.745 70.0153C151.858 70.0904 152.095 70.216 152.568 70.4673C175.377 82.5884 188.755 93.7894 206.469 115.037C206.825 115.464 207.003 115.677 207.102 115.777C208.795 117.483 211.288 116.491 211.575 113.997C211.592 113.851 211.601 113.578 211.62 113.032L214.183 38.5465Z" fill="#934E00"/>
<path d="M198.877 56.3374C199.465 56.1091 200.104 56.637 200.131 57.3731C200.132 57.4175 200.131 57.4804 200.126 57.6054L198.516 104.394C198.511 104.544 198.508 104.619 198.503 104.666C198.457 105.08 198.221 105.371 197.925 105.487C186.338 92.673 175.848 83.8952 161.876 75.51C161.908 75.2036 162.054 74.9182 162.314 74.7518C162.349 74.7294 162.409 74.6992 162.528 74.6393L198.696 56.4244C198.792 56.3757 198.841 56.3512 198.877 56.3374Z" fill="#FFF5DC"/>
<path d="M41.9189 37.5465C41.906 37.1714 41.8995 36.9839 41.9044 36.8508C41.9852 34.6413 43.9045 33.0567 45.669 33.7425C45.7753 33.7839 45.9204 33.8569 46.2105 34.0031L103.783 62.998C104.214 63.2152 104.43 63.3238 104.539 63.3939C106.404 64.5941 106.302 67.7291 104.357 69.0153C104.243 69.0904 104.007 69.216 103.534 69.4673C80.7248 81.5884 67.3461 92.7894 49.6325 114.037C49.2766 114.464 49.0986 114.677 48.9996 114.777C47.3062 116.483 44.8133 115.491 44.5266 112.997C44.5099 112.851 44.5005 112.578 44.4817 112.032L41.9189 37.5465Z" fill="#934E00"/>
<path d="M57.2247 55.3375C56.6367 55.1091 55.9967 55.6371 55.9696 56.3734C55.968 56.4178 55.9709 56.4805 55.9752 56.6055L57.5852 103.394C57.5904 103.544 57.5921 103.619 57.5974 103.666C57.6438 104.08 57.8806 104.372 58.1761 104.487C69.7637 91.6731 80.2538 82.8952 94.2251 74.5101C94.1932 74.2035 94.047 73.9185 93.7864 73.7521C93.7513 73.7297 93.6921 73.6992 93.5732 73.6394L57.4058 55.4245C57.309 55.3757 57.2602 55.3513 57.2247 55.3375Z" fill="#FFF5DC"/>
<path d="M228.789 141.252C228.789 179.671 183.21 190.456 126.986 190.456C70.7625 190.456 25.1841 179.671 25.1841 141.252C25.1841 102.832 70.7625 51.3262 126.986 51.3262C183.21 51.3262 228.789 102.832 228.789 141.252Z" fill="url(#paint0_radial_2216_3899)"/>
<ellipse cx="92.2041" cy="85.7849" rx="5.93847" ry="6.78682" fill="black"/>
<ellipse cx="117.189" cy="106.993" rx="13.9568" ry="11.0286" fill="#FFEFC7"/>
<ellipse cx="140.177" cy="106.993" rx="13.9568" ry="11.0286" fill="#FFEFC7"/>
<ellipse cx="161.769" cy="85.7849" rx="5.93847" ry="6.78682" fill="black"/>
<path d="M127.763 106.447C128.183 107.075 129.125 107.041 129.508 106.39C131.799 102.501 134.058 99.8931 137.897 96.5255C138.653 95.8628 138.093 94.5799 137.093 94.6867C130.914 95.3471 126.375 95.3087 120.172 94.658C119.181 94.554 118.631 95.8149 119.373 96.4808C122.228 99.0449 124.484 101.554 127.763 106.447Z" fill="#FF8A8A"/>
<path d="M34.4054 261.841C45.7244 249.847 67.1547 262.621 77.1975 271.077C77.6839 271.487 77.9327 272.089 77.8796 272.722C75.9486 295.767 70.7244 341.026 64.5598 345.359C58.3055 349.755 48.5519 343.527 44.4569 339.864C28.8213 324.479 19.8866 277.226 34.4054 261.841Z" fill="#FFF4D8"/>
<path d="M91.3556 347.622C91.3556 358.89 76.5426 360.127 58.2698 360.127C39.9971 360.127 25.1841 358.89 25.1841 347.622C25.1841 336.353 29.7706 329.586 48.0434 329.586C66.3162 329.586 91.3556 336.353 91.3556 347.622Z" fill="#FFF4D8"/>
<path d="M166.011 349.319C166.011 360.587 180.824 361.824 199.096 361.824C217.369 361.824 232.182 360.587 232.182 349.319C232.182 338.051 227.596 331.283 209.323 331.283C191.05 331.283 166.011 338.051 166.011 349.319Z" fill="#FFF4D8"/>
<path d="M221.444 261.841C210.125 249.847 188.695 262.621 178.652 271.077C178.165 271.487 177.917 272.089 177.97 272.722C179.901 295.767 185.125 341.026 191.29 345.359C197.544 349.755 207.297 343.527 211.393 339.864C227.028 324.479 235.963 277.226 221.444 261.841Z" fill="#FFF4D8"/>
<path d="M131.398 349.573C131.398 360.612 121.295 361.823 108.832 361.823C96.3689 361.823 86.2656 360.612 86.2656 349.573C86.2656 338.535 96.3689 329.586 108.832 329.586C121.295 329.586 131.398 338.535 131.398 349.573Z" fill="#A86F2B"/>
<path d="M287 104.278C287 119.344 275.583 125.498 261.5 125.498C247.417 125.498 236 119.344 236 104.278C236 89.2117 247.417 78.498 261.5 78.498C275.583 78.498 287 89.2117 287 104.278Z" fill="#A86F2B"/>
<path d="M275 110.337C275 117.197 270.15 119.998 261.745 119.998C253.341 119.998 248 117.197 248 110.337C248 103.478 253.341 96.998 261.745 96.998C270.15 96.998 275 103.478 275 110.337Z" fill="#E49782"/>
<path d="M262.54 89.1559C262.869 92.5571 260.329 94.2049 257.031 94.5238C253.733 94.8427 250.924 93.7121 250.596 90.3108C250.267 86.9096 252.674 83.8938 255.972 83.5749C259.27 83.2559 262.211 85.7546 262.54 89.1559Z" fill="#E49782"/>
<path d="M276.61 95.4185C274.841 98.3202 271.854 98.1249 269.059 96.4221C266.265 94.7192 264.722 92.1536 266.49 89.252C268.259 86.3503 271.957 85.3785 274.752 87.0813C277.546 88.7842 278.378 92.5169 276.61 95.4185Z" fill="#E49782"/>
<path d="M282.529 107.071C280.086 108.53 277.949 107.219 276.544 104.867C275.139 102.514 274.998 100.011 277.441 98.552C279.883 97.093 283.003 97.8173 284.408 100.17C285.813 102.522 284.972 105.612 282.529 107.071Z" fill="#E49782"/>
<path d="M241.058 102.834C243.299 105.054 245.948 104.212 248.086 102.054C250.224 99.8955 251.043 97.239 248.801 95.0185C246.56 92.7981 243.01 92.7476 240.872 94.9058C238.734 97.0639 238.817 100.614 241.058 102.834Z" fill="#E49782"/>
<defs>
<radialGradient id="paint0_radial_2216_3899" cx="0" cy="0" r="1" gradientUnits="userSpaceOnUse" gradientTransform="translate(126.986 98.998) rotate(90) scale(183.928 269.164)">
<stop stop-color="#934E00"/>
<stop offset="0.34522" stop-color="#FFF4D8"/>
</radialGradient>
</defs>
</svg>
