<svg width="367" height="391" viewBox="0 0 367 391" fill="none" xmlns="http://www.w3.org/2000/svg">
<path d="M183.5 385.517C277.665 385.517 354 309.181 354 215.017H13C13 309.181 89.3354 385.517 183.5 385.517Z" fill="white"/>
<path d="M183.5 44.0166C277.665 44.0166 354 120.352 354 214.517H13C13 120.352 89.3354 44.0166 183.5 44.0166Z" fill="#F17522"/>
<circle cx="183.5" cy="214.517" r="170.5" stroke="#F17522" stroke-width="11"/>
<path d="M299.43 23.0456C299.345 22.7634 299.302 22.6222 299.262 22.5168C298.599 20.7922 296.55 20.0709 294.953 21.0001C294.855 21.0569 294.734 21.1404 294.491 21.3073L225.683 68.6097C225.238 68.9152 225.016 69.0679 224.907 69.1592C223.036 70.7253 223.688 73.7102 226.042 74.3535C226.179 74.3909 226.453 74.4385 227 74.5337C263.622 80.8994 285.929 88.9005 318.738 106.872C319.217 107.134 319.456 107.265 319.587 107.321C321.822 108.284 324.192 106.364 323.715 103.978C323.687 103.839 323.611 103.585 323.458 103.077L299.43 23.0456Z" fill="#FFDE8B"/>
<path fill-rule="evenodd" clip-rule="evenodd" d="M286.304 47.136C286.837 46.8262 287.52 47.067 287.741 47.6418C287.754 47.677 287.768 47.7245 287.797 47.8186L302.66 97.3225C302.703 97.467 302.725 97.5393 302.734 97.5842C302.814 97.9785 302.655 98.3379 302.382 98.5588C282.138 88.4609 264.862 82.2736 243.001 77.4621C242.99 77.1713 243.104 76.8731 243.361 76.6594C243.396 76.63 243.461 76.5865 243.588 76.4992L286.151 47.2385C286.232 47.1831 286.272 47.1549 286.304 47.136Z" fill="#FFF5DC"/>
<path d="M74.1087 23.0456C74.1935 22.7634 74.2358 22.6222 74.2764 22.5168C74.9392 20.7922 76.9885 20.0709 78.5855 21.0001C78.6831 21.0569 78.8045 21.1404 79.0473 21.3073L147.856 68.6097C148.3 68.9152 148.522 69.0679 148.631 69.1592C150.502 70.7253 149.85 73.7102 147.497 74.3535C147.359 74.3909 147.086 74.4385 146.538 74.5337C109.916 80.8994 87.6098 88.9005 54.8003 106.872C54.3213 107.134 54.0819 107.265 53.9515 107.321C51.7167 108.284 49.3467 106.364 49.8233 103.978C49.8511 103.839 49.9273 103.585 50.0799 103.077L74.1087 23.0456Z" fill="#FFDE8B"/>
<path fill-rule="evenodd" clip-rule="evenodd" d="M87.2337 47.1371C86.7014 46.8274 86.0182 47.0673 85.7972 47.642C85.7837 47.6772 85.7697 47.7247 85.7415 47.8188L70.8782 97.3227C70.8348 97.4672 70.8131 97.5395 70.804 97.5844C70.724 97.9789 70.8837 98.3381 71.1565 98.559C91.4004 88.4614 108.677 82.2747 130.537 77.4633C130.548 77.1722 130.434 76.8744 130.177 76.6606C130.142 76.6311 130.079 76.5868 129.951 76.4994L87.388 47.2387C87.3072 47.1832 87.2662 47.1561 87.2337 47.1371Z" fill="#FFF5DC"/>
<path d="M2.6262 208.773C4.68726 206.177 8.00942 205.017 11.3234 205.017H355.937C360.057 205.017 364.233 206.825 365.908 210.589C367.36 213.853 367.372 216.654 365.895 219.815C364.227 223.385 360.194 225.017 356.254 225.017H11.3891C8.03594 225.017 4.67707 223.824 2.61963 221.176C-0.922413 216.618 -0.825676 213.119 2.6262 208.773Z" fill="#1A1A1A"/>
<circle cx="183" cy="215.017" r="53" fill="#1A1A1A"/>
<path d="M220.434 219.388C220.434 236.78 203.771 248.017 183.217 248.017C162.663 248.017 146 236.78 146 219.388C146 201.996 162.663 185.034 183.217 185.034C203.771 185.034 220.434 201.996 220.434 219.388Z" fill="#FFDE8B"/>
<path d="M158.536 182.999C158.565 182.905 158.579 182.857 158.592 182.822C158.813 182.247 159.496 182.007 160.029 182.317C160.061 182.336 160.102 182.364 160.183 182.419L173.855 191.818C173.966 191.894 174.021 191.932 174.055 191.96C174.625 192.431 174.505 193.336 173.832 193.642C173.792 193.66 173.728 193.682 173.602 193.727L155.158 200.219C155.032 200.263 154.968 200.286 154.926 200.296C154.209 200.48 153.549 199.849 153.698 199.125C153.707 199.082 153.727 199.018 153.765 198.889L158.536 182.999Z" fill="#FFDE8B"/>
<path d="M207.837 182.999C207.808 182.905 207.794 182.857 207.781 182.822C207.56 182.247 206.877 182.007 206.344 182.317C206.312 182.336 206.271 182.364 206.191 182.419L192.518 191.818C192.407 191.894 192.352 191.932 192.318 191.96C191.748 192.431 191.868 193.336 192.541 193.642C192.581 193.66 192.645 193.682 192.771 193.727L211.215 200.219C211.342 200.263 211.405 200.286 211.447 200.296C212.164 200.48 212.824 199.849 212.675 199.125C212.666 199.082 212.646 199.018 212.608 198.889L207.837 182.999Z" fill="#FFDE8B"/>
<path d="M204.753 218.185C204.753 227.805 195.182 234.019 183.377 234.019C171.571 234.019 162 227.805 162 218.185C162 208.565 171.571 199.184 183.377 199.184C195.182 199.184 204.753 208.565 204.753 218.185Z" fill="#FFF5DC"/>
<path d="M168.49 199.753C168.515 199.649 168.528 199.597 168.54 199.56C168.743 198.946 169.483 198.697 170.039 199.055C170.072 199.077 170.116 199.11 170.203 199.176L175.837 203.465C175.939 203.542 175.99 203.581 176.022 203.611C176.561 204.097 176.428 204.96 175.77 205.246C175.73 205.263 175.67 205.284 175.549 205.324L168.275 207.774C168.154 207.814 168.094 207.834 168.052 207.845C167.352 208.015 166.691 207.42 166.798 206.716C166.805 206.674 166.82 206.613 166.849 206.49L168.49 199.753Z" fill="#FFF5DC"/>
<path d="M198.018 199.753C197.993 199.649 197.98 199.597 197.968 199.56C197.764 198.946 197.025 198.697 196.469 199.055C196.435 199.077 196.392 199.11 196.305 199.176L190.671 203.465C190.569 203.542 190.518 203.581 190.485 203.611C189.947 204.097 190.08 204.96 190.738 205.246C190.777 205.263 190.838 205.284 190.958 205.324L198.233 207.774C198.354 207.814 198.414 207.834 198.456 207.845C199.156 208.015 199.817 207.42 199.71 206.716C199.703 206.674 199.688 206.613 199.658 206.49L198.018 199.753Z" fill="#FFF5DC"/>
</svg>
