<svg width="119" height="67" viewBox="0 0 119 67" fill="none" xmlns="http://www.w3.org/2000/svg">
<path d="M27.7312 27.4977C27.7307 27.4838 27.7283 27.4696 27.7283 27.4557C27.7284 27.442 27.7308 27.4284 27.7313 27.4147L27.7318 27.1118C27.7318 27.0914 27.7484 27.0749 27.7689 27.0749C27.7847 27.0749 27.7984 27.0658 27.8038 27.051C29.0366 23.661 45.5477 21.0001 65.7326 21.0316C85.912 21.0631 102.41 23.7742 103.64 27.1667C103.646 27.1832 103.662 27.1933 103.679 27.1933C103.702 27.1934 103.72 27.2117 103.72 27.2344L103.682 51.418C103.679 53.6271 101.885 55.4152 99.676 55.4117L31.6878 55.3057C29.4787 55.3022 27.6906 53.5086 27.6941 51.2994L27.7312 27.4977Z" fill="#8D6633"/>
<path d="M27.6967 40.6179L27.6899 40.6298C29.5257 41.9565 29.4245 45.7054 27.4074 49.1991C25.3903 52.6928 22.1943 54.6549 20.1274 53.7284L20.1206 53.7402L3.93671 44.3965L11.5129 31.2742L27.6967 40.6179Z" fill="#8D6633"/>
<ellipse cx="7.50594" cy="37.7086" rx="7.57591" ry="4.29302" transform="rotate(-60 7.50594 37.7086)" fill="#B69060"/>
<path d="M48.2374 31.0332L48.2239 31.0348C48.2561 33.2996 45.1887 35.4574 41.1819 35.926C37.175 36.3946 33.6925 35.0029 33.2013 32.7918L33.1877 32.7934L31.0168 14.2324L46.0666 12.4723L48.2374 31.0332Z" fill="#8D6633"/>
<ellipse cx="38.5121" cy="13.1007" rx="7.57591" ry="4.29302" transform="rotate(-6.6708 38.5121 13.1007)" fill="#B69060"/>
<path d="M67.7106 29.0668L67.6994 29.0746C68.7972 31.0558 67.1123 34.4063 63.8015 36.7114C60.4908 39.0165 56.7638 39.4342 55.2867 37.7171L55.2755 37.7249L44.5974 22.3887L57.0325 13.7306L67.7106 29.0668Z" fill="#8D6633"/>
<ellipse cx="50.6704" cy="17.8524" rx="7.57591" ry="4.29302" transform="rotate(-34.8481 50.6704 17.8524)" fill="#B69060"/>
<path d="M70.6814 26.2954L70.6681 26.292C69.8784 28.4149 66.238 29.316 62.3332 28.3024C58.4284 27.2888 55.6859 24.7309 56.0283 22.4919L56.0151 22.4884L60.7103 4.40039L75.3766 8.20738L70.6814 26.2954Z" fill="#8D6633"/>
<ellipse cx="68.1066" cy="6.05874" rx="7.57591" ry="4.29302" transform="rotate(14.5514 68.1066 6.05874)" fill="#B69060"/>
<path d="M80.1895 27.5308L80.179 27.522C78.5502 29.0959 74.8775 28.3372 71.7929 25.7372C68.7083 23.1372 67.3387 19.646 68.6142 17.7742L68.6037 17.7654L80.6475 3.47656L92.2332 13.242L80.1895 27.5308Z" fill="#8D6633"/>
<ellipse cx="86.603" cy="8.16506" rx="7.57591" ry="4.29302" transform="rotate(40.1268 86.603 8.16506)" fill="#B69060"/>
<path d="M105.711 34.0668L105.699 34.0746C106.797 36.0558 105.112 39.4063 101.802 41.7114C98.4908 44.0165 94.7638 44.4342 93.2867 42.7171L93.2755 42.7249L82.5974 27.3887L95.0325 18.7306L105.711 34.0668Z" fill="#8D6633"/>
<ellipse cx="88.6704" cy="22.8524" rx="7.57591" ry="4.29302" transform="rotate(-34.8481 88.6704 22.8524)" fill="#B69060"/>
<path d="M73.1593 12.6689L73.1645 12.6804C75.2998 11.9336 78.1152 13.8157 79.5695 17.0224C81.0237 20.2293 80.5848 23.588 78.6161 24.7023L78.6213 24.7138L61.602 32.4316L56.1399 20.3866L73.1593 12.6689Z" fill="#8D6633"/>
<ellipse cx="58.6411" cy="26.5133" rx="6.61263" ry="4.29302" transform="rotate(-114.393 58.6411 26.5133)" fill="#B69060"/>
<path d="M49.1593 25.6689L49.1645 25.6804C51.2998 24.9336 54.1152 26.8157 55.5695 30.0224C57.0237 33.2293 56.5848 36.588 54.6161 37.7023L54.6213 37.7138L37.602 45.4316L32.1399 33.3866L49.1593 25.6689Z" fill="#8D6633"/>
<ellipse cx="34.6411" cy="39.5133" rx="6.61263" ry="4.29302" transform="rotate(-114.393 34.6411 39.5133)" fill="#B69060"/>
<path d="M46.6799 45.1756L46.6681 45.1824C47.5849 47.2536 45.6079 50.4404 42.1047 52.4411C38.6017 54.4418 34.8523 54.5255 33.5342 52.6835L33.5223 52.6903L24.2544 36.4629L37.412 28.9482L46.6799 45.1756Z" fill="#8D6633"/>
<ellipse cx="30.7077" cy="32.4863" rx="7.57591" ry="4.29302" transform="rotate(-29.7319 30.7077 32.4863)" fill="#B69060"/>
<path d="M59.5361 51.9276C59.5415 51.9367 59.5477 51.9458 59.553 51.9551C59.5581 51.9641 59.5625 51.9736 59.5676 51.9827L59.6776 52.1752L59.6699 52.1795C60.6627 54.2071 59.7752 56.7719 57.604 58.012C55.4327 59.252 52.7727 58.7133 51.5308 56.828L51.5223 56.8329L42.2544 40.6055L50.4096 35.9478L59.5361 51.9276Z" fill="#8D6633"/>
<ellipse cx="46.2068" cy="38.0572" rx="4.69589" ry="4.29302" transform="rotate(-29.7319 46.2068 38.0572)" fill="#B69060"/>
<path d="M64.6165 44.3125L64.6088 44.3168C65.1113 45.485 63.8335 47.3687 61.662 48.6089C59.4906 49.8489 57.2196 49.992 56.4688 48.9658L56.4612 48.9702L51.2645 39.8711L59.4197 35.2134L64.6165 44.3125Z" fill="#8D6633"/>
<ellipse cx="55.2716" cy="37.4196" rx="4.69589" ry="2.40722" transform="rotate(-29.7319 55.2716 37.4196)" fill="#B69060"/>
<path d="M63.1547 58.598L63.1539 58.5893C61.8825 58.568 60.6893 56.6295 60.4498 54.1403C60.2104 51.6513 61.0122 49.5217 62.2562 49.2584L62.2553 49.2496L72.6857 48.2461L73.5851 57.5945L63.1547 58.598Z" fill="#8D6633"/>
<ellipse cx="73.2754" cy="52.9048" rx="4.69589" ry="2.40722" transform="rotate(84.5045 73.2754 52.9048)" fill="#B69060"/>
<path d="M37.2331 31.0113L37.2331 31.022C39.4866 31.1985 41.2806 33.7944 41.2892 36.9769C41.2978 40.1594 39.5177 42.7649 37.2652 42.9536L37.2653 42.9653L18.5778 43.0156L18.5456 31.0616L37.2331 31.0113Z" fill="#8D6633"/>
<ellipse cx="18.3092" cy="37.0389" rx="5.97694" ry="4.29302" transform="rotate(-90.1543 18.3092 37.0389)" fill="#B69060"/>
<path d="M40.128 27.5591L40.1231 27.5687C42.0471 28.7552 42.4569 31.884 41.0107 34.7189C39.5643 37.5538 36.7906 39.0583 34.7007 38.197L34.6954 38.2075L18.0491 29.7148L23.4817 19.0665L40.128 27.5591Z" fill="#8D6633"/>
<ellipse cx="20.5405" cy="24.2754" rx="5.97694" ry="4.29302" transform="rotate(-62.9701 20.5405 24.2754)" fill="#B69060"/>
<path d="M105.524 33.9673L105.535 33.9726C106.532 32.4036 109.636 32.3149 112.633 33.8125C115.63 35.3101 117.422 37.8456 116.767 39.5856L116.778 39.5913L109.922 53.3105L98.6681 47.6866L105.524 33.9673Z" fill="#8D6633"/>
<ellipse cx="104.203" cy="50.6847" rx="6.29051" ry="3.52338" transform="rotate(-153.447 104.203 50.6847)" fill="#B69060"/>
<path d="M97.524 22.9673L97.5345 22.9726C98.5324 21.4036 101.636 21.3149 104.633 22.8125C107.63 24.3101 109.422 26.8456 108.767 28.5856L108.778 28.5913L101.922 42.3105L90.6681 36.6866L97.524 22.9673Z" fill="#8D6633"/>
<ellipse cx="96.2025" cy="39.6847" rx="6.29051" ry="3.52338" transform="rotate(-153.447 96.2025 39.6847)" fill="#B69060"/>
<path d="M86.7872 34.9202L86.7756 34.9216C86.7989 36.7809 84.2494 38.5536 80.9217 38.94C77.5939 39.3264 74.7061 38.185 74.3027 36.3698L74.2901 36.3713L72.5212 21.1367L85.0183 19.6857L86.7872 34.9202Z" fill="#8D6633"/>
<ellipse cx="78.7458" cy="20.206" rx="6.29051" ry="3.52338" transform="rotate(-6.623 78.7458 20.206)" fill="#B69060"/>
<path d="M30.4055 39.6201L30.4124 39.6256C31.5902 38.3674 34.0316 38.5633 35.9847 40.1104C37.9378 41.6576 38.6879 43.9899 37.7327 45.4245L37.7396 45.43L28.8959 56.5938L21.5619 50.7839L30.4055 39.6201Z" fill="#8D6633"/>
<ellipse cx="25.1099" cy="53.839" rx="4.67841" ry="3.27179" transform="rotate(-141.615 25.1099 53.839)" fill="#B69060"/>
<path d="M35.9936 46.415L36.0005 46.4205C37.1784 45.1624 39.6197 45.3582 41.5728 46.9053C43.526 48.4525 44.2761 50.7848 43.3208 52.2194L43.3277 52.2249L34.4841 63.3887L27.15 57.5788L35.9936 46.415Z" fill="#8D6633"/>
<ellipse cx="30.698" cy="60.6339" rx="4.67841" ry="3.27179" transform="rotate(-141.615 30.698 60.6339)" fill="#B69060"/>
<path d="M34.9934 23.415L35.0003 23.4205C36.1781 22.1624 38.6195 22.3582 40.5726 23.9053C42.5257 25.4525 43.2758 27.7848 42.3206 29.2194L42.3274 29.2249L33.4838 40.3887L26.1497 34.5788L34.9934 23.415Z" fill="#8D6633"/>
<ellipse cx="29.6978" cy="37.6339" rx="4.67841" ry="3.27179" transform="rotate(-141.615 29.6978 37.6339)" fill="#B69060"/>
<path d="M67.9929 24.415L67.9998 24.4205C69.1776 23.1624 71.619 23.3582 73.5721 24.9053C75.5252 26.4525 76.2753 28.7848 75.3201 30.2194L75.327 30.2249L66.4833 41.3887L59.1493 35.5788L67.9929 24.415Z" fill="#8D6633"/>
<ellipse cx="62.6973" cy="38.6339" rx="4.67841" ry="3.27179" transform="rotate(-141.615 62.6973 38.6339)" fill="#B69060"/>
<path d="M49.5217 45.6793L49.5249 45.6875C51.1764 45.1945 53.1862 46.5943 54.0932 48.9149C55.0003 51.2357 54.4725 53.6281 52.9244 54.3856L52.9276 54.3938L39.6625 59.5781L36.2566 50.8636L49.5217 45.6793Z" fill="#8D6633"/>
<ellipse cx="37.7815" cy="55.2914" rx="4.67841" ry="3.27179" transform="rotate(-111.347 37.7815 55.2914)" fill="#B69060"/>
<path d="M60.4906 47.1207L60.4938 47.1289C62.1453 46.636 64.1551 48.0357 65.0621 50.3563C65.9691 52.6771 65.4414 55.0695 63.8932 55.827L63.8964 55.8352L50.6313 61.0195L47.2255 52.305L60.4906 47.1207Z" fill="#8D6633"/>
<ellipse cx="48.7503" cy="56.7328" rx="4.67841" ry="3.27179" transform="rotate(-111.347 48.7503 56.7328)" fill="#B69060"/>
<path d="M61.2888 45.0908L61.2957 45.0963C62.1141 44.2919 64.2704 44.8478 66.2234 46.3948C68.1766 47.9421 69.2118 49.9143 68.616 50.8952L68.6236 50.9013L62.7604 58.3027L55.4256 52.4923L61.2888 45.0908Z" fill="#8D6633"/>
<ellipse cx="59.0137" cy="55.4981" rx="4.67841" ry="2.16926" transform="rotate(-141.615 59.0137 55.4981)" fill="#B69060"/>
<path d="M80.4226 31.0394C80.4323 31.0391 80.4421 31.0374 80.4519 31.0374C80.4613 31.0374 80.4707 31.039 80.4802 31.0393L80.6003 31.039L80.6003 31.0497C81.9196 31.2446 82.9727 34.0633 82.982 37.516C82.9913 40.9686 81.9534 43.793 80.6352 43.995L80.6352 44.0077L69.6958 44.0371L69.6609 31.0684L80.4226 31.0394Z" fill="#8D6633"/>
<ellipse cx="69.5305" cy="37.5534" rx="6.48474" ry="2.51304" transform="rotate(-90.1543 69.5305 37.5534)" fill="#B69060"/>
<path d="M90.6964 48.9398L90.6848 48.9411C90.7081 50.8004 88.1586 52.5731 84.8308 52.9595C81.5031 53.3459 78.6153 52.2045 78.2119 50.3894L78.1993 50.3908L76.4304 35.1562L88.9275 33.7052L90.6964 48.9398Z" fill="#8D6633"/>
<ellipse cx="82.655" cy="34.2255" rx="6.29051" ry="3.52338" transform="rotate(-6.623 82.655 34.2255)" fill="#B69060"/>
<path d="M80.7526 46.1349L80.7584 46.1415C81.7981 45.4093 83.9045 46.2718 85.5652 48.1415C87.2257 50.0111 87.8333 52.204 86.9836 53.1499L86.9895 53.1565L79.1552 60.1152L72.9183 53.0936L80.7526 46.1349Z" fill="#8D6633"/>
<ellipse cx="75.9321" cy="56.6991" rx="4.69589" ry="2.40722" transform="rotate(-131.613 75.9321 56.6991)" fill="#B69060"/>
<path d="M86.6271 47.1763L86.6355 47.1787C87.1247 46.005 89.3667 45.6116 91.7685 46.3079C94.1701 47.0043 95.8533 48.5356 95.6388 49.7889L95.6472 49.7914L92.7295 59.8555L83.7093 57.2404L86.6271 47.1763Z" fill="#8D6633"/>
<ellipse cx="88.1811" cy="58.6831" rx="4.69589" ry="2.40722" transform="rotate(-163.832 88.1811 58.6831)" fill="#B69060"/>
</svg>
