<svg width="60" height="64" viewBox="0 0 60 64" fill="none" xmlns="http://www.w3.org/2000/svg">
<path d="M59.6973 57.5469C59.6973 61.1111 56.8083 64.0007 53.2441 64.001H0V57.5469L5.10938 6.99219H53.7812L59.6973 57.5469Z" fill="#FFCD50"/>
<path d="M8.33594 6.99219V51.6309L9.68066 64.001H0V57.5469L5.10938 6.99219H8.33594Z" fill="#D1AC51"/>
<path d="M52.7054 0.0107422C52.7946 0.00403865 52.8845 0 52.975 0C55.4996 0.000129059 57.5463 2.6488 57.5463 5.91602C57.5462 9.18321 55.4996 11.8319 52.975 11.832C52.8845 11.832 52.7946 11.827 52.7054 11.8203V11.832H3.22693V0H52.7054V0.0107422Z" fill="#FFCD50"/>
<ellipse cx="3.22689" cy="5.91597" rx="3.22689" ry="5.91597" fill="#FFE8AF"/>
<path fill-rule="evenodd" clip-rule="evenodd" d="M41.5267 30.5205C42.8057 31.8342 43.5629 33.4559 43.5629 35.2119C43.5626 39.589 38.8673 43.1376 33.0756 43.1377C27.2837 43.1377 22.5885 39.5891 22.5883 35.2119C22.5883 33.4223 23.373 31.771 24.6967 30.4443L26.0404 24.2012L29.7943 27.6826C30.8266 27.4258 31.9296 27.2861 33.0756 27.2861C34.2373 27.2862 35.3544 27.4307 36.3988 27.6943L40.1674 24.2012L41.5267 30.5205Z" fill="#FFB50A"/>
<line opacity="0.4" x1="9.68066" y1="11.9824" x2="52.1681" y2="11.9824" stroke="#D1AC51" stroke-width="4"/>
</svg>
