<svg width="85" height="85" viewBox="0 0 85 85" fill="none" xmlns="http://www.w3.org/2000/svg">
<path d="M12.0631 36.0411C23.0598 50.2876 52.7117 72.543 83.3459 47.5925" stroke="#574E35" stroke-width="2" stroke-linecap="round"/>
<ellipse cx="15.9775" cy="39.2211" rx="1.7638" ry="7.40798" transform="rotate(-39.1617 15.9775 39.2211)" fill="#FFE39D"/>
<ellipse cx="10.9688" cy="36.9321" rx="1.7638" ry="7.40798" transform="rotate(-39.1617 10.9688 36.9321)" fill="#FFE7AB"/>
<ellipse cx="22.0988" cy="43.336" rx="2.82209" ry="7.40798" transform="rotate(-39.1617 22.0988 43.336)" fill="#FFE39D"/>
<ellipse cx="29.907" cy="47.8945" rx="3.17485" ry="7.40798" transform="rotate(-39.1617 29.907 47.8945)" fill="#FFE39D"/>
<ellipse cx="38.0206" cy="51.3442" rx="3.17485" ry="8.1135" transform="rotate(-45.7882 38.0206 51.3442)" fill="#FFE39D"/>
<ellipse cx="3.45717" cy="8.18185" rx="3.45717" ry="8.18185" transform="matrix(0.580003 -0.814615 0.843165 0.537655 37.7817 52.4915)" fill="#FFE39D"/>
<ellipse cx="3.65045" cy="8.63928" rx="3.65045" ry="8.63928" transform="matrix(0.470335 -0.882488 0.90535 0.424665 47.6797 54.8098)" fill="#FFE39D"/>
<ellipse cx="2.06603" cy="7.48937" rx="2.06603" ry="7.48937" transform="matrix(-0.476411 0.879223 0.879223 0.476411 8.26892 35.9466)" fill="#FFE8AF"/>
<ellipse cx="3.21797" cy="8.5537" rx="3.21797" ry="8.5537" transform="matrix(-0.589905 0.807473 0.951465 0.307758 12.401 41.679)" fill="#FFE8AF"/>
<ellipse cx="3.49245" cy="8.79045" rx="3.49245" ry="8.79045" transform="matrix(-0.60637 0.795183 0.963109 0.269113 19.8275 46.5501)" fill="#FFE8AF"/>
<ellipse cx="3.85161" cy="9.69447" rx="3.85161" ry="9.69447" transform="matrix(-0.510557 0.859844 0.987729 0.156175 26.8506 51.1907)" fill="#FFE8AF"/>
<ellipse cx="4.13231" cy="10.2868" rx="4.13231" ry="10.2868" transform="matrix(-0.387232 0.921982 0.997898 -0.0648087 34.9369 56.4856)" fill="#FFE8AF"/>
<ellipse cx="4.36334" cy="10.8619" rx="4.36334" ry="10.8619" transform="matrix(-0.265349 0.964152 0.981257 -0.192703 45.2434 59.3782)" fill="#FFE8AF"/>
<path d="M12.4265 39.8372C13.4022 40.1041 15.5622 40.559 16.3968 40.2432" stroke="#FFE29A" stroke-linecap="round"/>
<path d="M19.1046 48.3001C21.2854 48.4672 25.8933 48.6586 26.8783 48.0866" stroke="#FFE29A" stroke-linecap="round"/>
<path d="M32.97 56.6831C36.762 56.8701 40.7342 54.3706 41.1382 53.3057" stroke="#FFE29A" stroke-linecap="round"/>
<path d="M40.8226 61.2966C44.2967 61.6519 49.7281 55.3371 50.1322 54.2721" stroke="#FFE29A" stroke-linecap="round"/>
</svg>
