<svg width="83" height="657" viewBox="0 0 83 657" fill="none" xmlns="http://www.w3.org/2000/svg">
<mask id="mask0_2215_3769" style="mask-type:alpha" maskUnits="userSpaceOnUse" x="6" y="535" width="46" height="122">
<path d="M49.4576 535.091C58.3558 548.157 37.5826 658.593 10.8 656.6C-4.13662 643.399 25.2604 541.703 49.4576 535.091Z" fill="#48A3BF"/>
</mask>
<g mask="url(#mask0_2215_3769)">
<path d="M49.4576 535.091C58.3558 548.157 37.5826 658.593 10.8 656.6C-4.13662 643.399 25.2604 541.703 49.4576 535.091Z" fill="#48A3BF" stroke="#245A7E"/>
<line y1="-1.5" x2="127.286" y2="-1.5" transform="matrix(-0.298857 0.954298 0.954298 0.298857 50.8691 535.094)" stroke="#245A7E" stroke-width="3"/>
<line y1="-1.5" x2="20.14" y2="-1.5" transform="matrix(-0.96898 0.247138 0.247138 0.96898 29.158 602.199)" stroke="#245A7E" stroke-width="3"/>
<line y1="-1.5" x2="20.14" y2="-1.5" transform="matrix(-0.96898 0.247138 0.247138 0.96898 23.0237 622.432)" stroke="#245A7E" stroke-width="3"/>
<line y1="-1.5" x2="18.8849" y2="-1.5" transform="matrix(-0.577802 -0.816177 -0.816177 0.577802 46.8838 588.66)" stroke="#245A7E" stroke-width="3"/>
</g>
<mask id="mask1_2215_3769" style="mask-type:alpha" maskUnits="userSpaceOnUse" x="40" y="535" width="37" height="99">
<path d="M42.3167 535.072C35.1244 545.633 51.9151 634.897 73.563 633.286C85.636 622.615 61.8749 540.417 42.3167 535.072Z" fill="#5640A4"/>
</mask>
<g mask="url(#mask1_2215_3769)">
<path d="M42.3167 535.072C35.1244 545.633 51.9151 634.897 73.563 633.286C85.636 622.615 61.8749 540.417 42.3167 535.072Z" fill="#5640A4"/>
<line x1="42.6072" y1="534.626" x2="73.3546" y2="632.807" stroke="#352889" stroke-width="3"/>
<line x1="59.0934" y1="587.861" x2="74.8672" y2="591.884" stroke="#352889" stroke-width="3"/>
<line x1="64.0516" y1="604.214" x2="79.8255" y2="608.238" stroke="#352889" stroke-width="3"/>
<line x1="43.1727" y1="577.504" x2="51.9925" y2="565.046" stroke="#352889" stroke-width="3"/>
</g>
<circle cx="43.9998" cy="527" r="18" fill="#F4DBCD"/>
<path d="M61 521C54.5006 527 34.0001 525.5 26.9996 521C25.4997 525 25.9998 530.5 26.9995 533C34.5 539 55.0005 538.5 61 533C62.5 530 62.5005 523.5 61 521Z" fill="#E4804E"/>
<line x1="43.9998" y1="509" x2="43.9997" y2="8.74228e-08" stroke="#333247" stroke-width="4"/>
</svg>
