<svg width="263" height="213" viewBox="0 0 263 213" fill="none" xmlns="http://www.w3.org/2000/svg">
<path d="M47.0762 34.4242C48.1487 26.6875 57.8918 23.896 62.8986 29.8909L112.139 88.8486C116.311 93.8431 113.966 101.477 107.71 103.27L47.9219 120.4C41.6663 122.192 35.6347 116.958 36.5283 110.512L47.0762 34.4242Z" fill="#44A46E"/>
<path d="M52.4672 52.5307C53.5397 44.794 63.2827 42.0025 68.2896 47.9974L108.103 95.667C112.274 100.661 109.929 108.296 103.674 110.088L55.3324 123.939C49.0768 125.731 43.0452 120.497 43.9388 114.051L52.4672 52.5307Z" fill="#036B4C"/>
<path d="M215.924 34.4242C214.851 26.6875 205.108 23.896 200.101 29.8909L150.861 88.8486C146.689 93.8431 149.034 101.477 155.29 103.27L215.078 120.4C221.334 122.192 227.365 116.958 226.472 110.512L215.924 34.4242Z" fill="#44A46E"/>
<path d="M210.533 52.5307C209.46 44.794 199.717 42.0025 194.71 47.9974L154.897 95.667C150.726 100.661 153.071 108.296 159.326 110.088L207.668 123.939C213.923 125.731 219.955 120.497 219.061 114.051L210.533 52.5307Z" fill="#036B4C"/>
<path d="M21 182.62V133.998H238V181.644C238 189.315 234.077 196.548 226.921 199.312C180.34 217.304 73.8713 217.628 30.9474 199.372C24.3814 196.579 21 189.755 21 182.62Z" fill="url(#paint0_linear_2027_3793)"/>
<ellipse cx="130" cy="127" rx="113" ry="41" fill="#007D55"/>
<ellipse cx="130" cy="125" rx="98" ry="27" fill="#44A46E"/>
<ellipse cx="129.5" cy="125" rx="11.5" ry="5" fill="#02855C"/>
<path d="M138 124.58C146 119.08 167 111.08 198.5 115.08" stroke="#02855C"/>
<path d="M139.5 126.001C147 124.501 157 123.001 176.5 130.501M128.5 127.5C129 130.501 128.5 140 128.5 143.5M119 124.501C111 121.001 98 112.501 58.5 116.001M128.5 122C128.5 117.5 127.5 112.5 131 106M133 122C134 116.001 138.5 111 144.5 108.5" stroke="#02855C"/>
<path d="M119 126.276C116.5 126.276 106.5 124.776 98.5 128.776" stroke="#02855C"/>
<defs>
<linearGradient id="paint0_linear_2027_3793" x1="130" y1="146.5" x2="130" y2="241.5" gradientUnits="userSpaceOnUse">
<stop stop-color="#44A46E"/>
<stop offset="1" stop-color="#248861"/>
</linearGradient>
</defs>
</svg>
