<svg width="33" height="54" viewBox="0 0 33 54" fill="none" xmlns="http://www.w3.org/2000/svg">
<path d="M0 25.2832H7.18364C16.5725 25.2832 24.1836 32.8944 24.1836 42.2832V44.0113C24.1836 49.4527 19.7725 53.8639 14.331 53.8639C6.41622 53.8639 0 47.4476 0 39.5328V25.2832Z" fill="#FFDABD"/>
<path d="M14.1328 0C15.4337 0 16.4892 1.05457 16.4893 2.35547V8.63672C16.4894 6.90228 17.8954 5.49609 19.6299 5.49609C20.9306 5.49626 21.9852 6.55086 21.9854 7.85156V25.8325C21.9854 26.7432 22.7236 27.4814 23.6343 27.4814H25.2669C25.2759 27.4814 25.2832 27.4887 25.2832 27.4977C25.2832 27.5156 25.308 27.5204 25.3146 27.5037L26.0218 25.7163C26.0294 25.6971 26.0354 25.6774 26.0398 25.6573L27.0586 21.003C27.4011 19.4383 28.9471 18.4476 30.5118 18.79C32.0764 19.1325 33.0671 20.6785 32.7247 22.2431L31.5371 27.6692C31.5343 27.682 31.5411 27.695 31.5533 27.6999C31.567 27.7055 31.5737 27.7211 31.5683 27.7348L31.4709 27.9805C31.4688 27.9857 31.4672 27.991 31.466 27.9964L31.4456 28.0905C31.4444 28.096 31.4388 28.0994 31.4333 28.0979C31.4285 28.0967 31.4234 28.0992 31.4216 28.1039L24.8532 44.7059C24.8351 44.7518 24.7831 44.7743 24.7372 44.756C24.6892 44.7369 24.635 44.7626 24.6188 44.8117C23.3954 48.5161 20.5757 51.4941 16.974 52.9302C14.4089 53.9529 12.0918 51.6247 12.0918 48.8633V37.9775C12.0918 35.2161 9.85322 32.9775 7.0918 32.9775H5C2.23858 32.9775 0 30.739 0 27.9775V15.2324C6.67517e-05 13.4979 1.40614 12.0919 3.14062 12.0918C4.44153 12.0918 5.49604 13.1464 5.49609 14.4473V7.53809C5.49609 5.80361 6.90228 4.39762 8.63672 4.39746C9.93765 4.39746 10.9922 5.452 10.9922 6.75293V3.14062C10.9922 1.40626 12.3985 0.000258304 14.1328 0Z" fill="#FFDABD"/>
<line x1="5.5" y1="15.5" x2="5.5" y2="26.5" stroke="#E6B691" stroke-linecap="round"/>
<line x1="11.5" y1="9.5" x2="11.5" y2="26.5" stroke="#E6B691" stroke-linecap="round"/>
<line x1="16.5" y1="9.5" x2="16.5" y2="26.5" stroke="#E6B691" stroke-linecap="round"/>
</svg>
