<svg width="265" height="80" viewBox="0 0 265 80" fill="none" xmlns="http://www.w3.org/2000/svg">
<g clip-path="url(#clip0_1942_3426)">
<path d="M39.5681 51.26L41.5701 49.4737C41.7649 49.2997 41.6423 48.9736 41.3789 48.9736H37.3749C37.1115 48.9736 36.9889 49.2997 37.1837 49.4737L39.1857 51.26C39.2939 51.3578 39.4563 51.3578 39.5645 51.26H39.5681Z" fill="#FF9D47"/>
<path d="M86.3796 31.7733L46.88 1.19222C44.9033 -0.394804 42.0968 -0.394804 40.12 1.19222L0.620479 31.7733C-0.591561 32.748 0.0938187 34.7082 1.64494 34.7082H7.42739V73.9962C7.42739 76.913 9.77932 79.2755 12.6832 79.2755C14.9521 79.2755 16.9614 77.8153 17.6756 75.6521L27.2998 49.256L25.4168 49.0893C25.1174 49.064 24.8974 48.7995 24.9262 48.5023C24.9551 48.2052 25.2184 47.9842 25.5106 48.0096L27.6822 48.2016L28.1042 47.0421L26.5242 45.9298C26.2789 45.7558 26.2212 45.4189 26.3908 45.1725C26.5603 44.9261 26.8994 44.8681 27.1447 45.0384L28.4902 45.9841L31.7007 37.1757C31.7476 37.0344 31.9387 37.0054 32.0217 37.1323L34.7488 41.1759C35.528 42.3318 36.6823 43.2086 38.035 43.5456C40.3365 44.1181 42.6631 43.1688 43.9365 41.2846L46.7357 37.1359C46.8187 37.0127 47.0099 37.0381 47.0568 37.1794L49.2211 45.995L50.5739 45.042C50.8192 44.8681 51.1546 44.9297 51.3278 45.1761C51.5009 45.4225 51.4396 45.7595 51.1943 45.9334L49.4953 47.1255L49.5674 47.4226C49.6396 47.7016 49.7298 47.9661 49.8308 48.2197L52.208 48.0096C52.5074 47.9842 52.7671 48.2052 52.7923 48.5023C52.8176 48.8031 52.5975 49.064 52.3018 49.0893L50.4007 49.256C52.3414 52.0242 55.8982 54.0751 60.869 55.644C64.8767 56.8904 70.5473 61.6008 70.5473 65.9923C70.5473 70.1265 67.2106 70.9418 63.0947 70.9418H48.1498C45.668 70.9418 43.5361 72.8911 43.4928 75.3876C43.4495 77.8841 45.484 80.0001 48.0019 80.0001H67.3368C74.0896 80.0001 79.5655 74.4999 79.5655 67.717V34.7082H85.3479C86.899 34.7082 87.5844 32.7444 86.3724 31.7733H86.3796ZM43.5289 33.7952C43.5145 35.7989 42.0247 36.5561 39.3805 38.6758C36.7328 36.5525 35.2466 35.7989 35.2322 33.7952C35.2322 33.7952 35.2322 33.7807 35.2322 33.7734C35.2322 33.7118 35.2322 33.6538 35.2322 33.5922H35.243C35.344 32.4618 36.2891 31.5777 37.4398 31.5777C38.2803 31.5777 39.009 32.0487 39.3841 32.7444C39.7557 32.0487 40.488 31.5777 41.3285 31.5777C42.4792 31.5777 43.4243 32.4618 43.5253 33.5922H43.5361C43.5361 33.6538 43.5361 33.7118 43.5361 33.7734C43.5361 33.7807 43.5361 33.7879 43.5361 33.7915L43.5289 33.7952Z" fill="#F17522"/>
</g>
<path d="M101.636 60.1069C99.7967 60.1069 98.3593 59.8668 97.3315 59.3865C96.3036 58.9063 95.5408 58.2259 95.0349 57.3535C94.529 56.473 94.2239 55.4164 94.1195 54.1678C94.0151 52.9271 93.9669 51.5424 93.9669 50.0136C93.9669 48.7969 94.0071 47.5723 94.0874 46.3476C94.1677 45.115 94.2801 43.8023 94.4407 42.4095C94.0793 42.4095 93.7902 42.4095 93.5815 42.4255C93.3727 42.4415 93.204 42.4415 93.0756 42.4415C92.2485 42.4415 91.5258 42.2574 90.9155 41.8972C90.3052 41.5371 90.0001 40.9768 90.0001 40.2324C90.0001 39.7681 90.1767 39.3519 90.522 38.9917C90.8753 38.6315 91.317 38.3193 91.863 38.0632C92.4091 37.8071 92.9953 37.599 93.6377 37.4389C94.272 37.2868 94.8743 37.1827 95.4444 37.1267C95.4444 36.4063 95.4926 35.5979 95.597 34.7174C95.7014 33.837 95.8861 33.0205 96.1591 32.2521C96.4321 31.4917 96.8015 30.8514 97.2672 30.3311C97.733 29.8108 98.3352 29.5547 99.0579 29.5547C99.4755 29.5547 99.8449 29.6748 100.166 29.9229C100.487 30.171 100.752 30.4832 100.961 30.8514C101.17 31.2276 101.322 31.6438 101.427 32.116C101.531 32.5803 101.579 33.0365 101.579 33.4768C101.579 33.9971 101.539 34.5253 101.459 35.0696C101.379 35.6139 101.242 36.2863 101.033 37.0867C101.475 37.0387 101.772 37.0067 101.925 36.9906C102.077 36.9746 102.222 36.9746 102.35 36.9746C102.792 36.9746 103.25 37.0147 103.731 37.0947C104.213 37.1747 104.655 37.3028 105.056 37.4869C105.458 37.671 105.787 37.9111 106.052 38.2073C106.309 38.5034 106.438 38.8636 106.438 39.2719C106.438 39.7361 106.253 40.1523 105.875 40.5125C105.498 40.8727 105.024 41.1849 104.454 41.441C103.884 41.6971 103.274 41.8973 102.623 42.0413C101.973 42.1854 101.363 42.2815 100.792 42.3295C100.64 43.394 100.527 44.3626 100.463 45.259C100.399 46.1475 100.327 47.052 100.246 47.9565C100.198 48.3967 100.15 48.8449 100.11 49.2932C100.07 49.7494 100.054 50.2057 100.054 50.6699C100.054 51.0061 100.07 51.3983 100.094 51.8545C100.118 52.3108 100.214 52.743 100.367 53.1512C100.519 53.5675 100.768 53.9196 101.106 54.2158C101.443 54.512 101.909 54.664 102.511 54.664C102.872 54.664 103.25 54.632 103.643 54.568C104.029 54.504 104.422 54.4719 104.807 54.4719C105.482 54.4719 105.972 54.7041 106.269 55.1683C106.566 55.6326 106.719 56.2329 106.719 56.9533C106.719 57.4975 106.558 57.9698 106.229 58.37C105.908 58.7702 105.498 59.0904 105 59.3385C104.51 59.5867 103.956 59.7708 103.346 59.8988C102.736 60.0269 102.158 60.0909 101.611 60.0909L101.636 60.1069Z" fill="#F17522"/>
<path d="M115.367 30.2989C114.934 28.8181 113.095 29.3464 112.179 29.9707C112.003 30.0908 111.826 30.2269 111.657 30.3789C111.063 29.2824 110.236 28.4819 109.128 29.4024C107.658 30.6191 108.871 33.5166 110.18 34.3891C110.324 34.4851 110.461 34.5411 110.597 34.5652C110.902 34.8693 111.264 35.0534 111.786 34.9414C112.444 34.8053 113.022 34.197 113.528 33.7887C114.548 32.9643 115.801 31.7637 115.375 30.2989H115.367Z" fill="#F17522"/>
<path d="M113.897 40.0084C113.713 39.0799 113.44 38.2635 113.078 37.5671C112.717 36.8707 112.179 36.5186 111.48 36.5186C110.782 36.5186 110.244 36.7507 109.81 37.2149C109.368 37.6792 109.015 38.2875 108.742 39.0399C108.469 39.7923 108.26 40.6167 108.116 41.5212C107.971 42.4257 107.875 43.3222 107.827 44.1946C107.77 45.0751 107.746 45.8995 107.746 46.6599V49.8616C107.746 50.51 107.77 51.2144 107.827 51.9748C107.875 52.7352 107.955 53.5276 108.06 54.344C108.164 55.1605 108.325 55.8969 108.549 56.5532C108.766 57.2096 109.047 57.7538 109.384 58.1621C109.722 58.5783 110.139 58.7704 110.629 58.7464C111.28 58.7224 111.818 58.4822 112.243 58.026C112.669 57.5778 113.014 56.9854 113.271 56.2571C113.528 55.5367 113.721 54.7282 113.833 53.8478C113.954 52.9673 114.034 52.1028 114.082 51.2464C114.13 50.3899 114.162 49.5975 114.162 48.8611C114.162 48.1247 114.178 47.5324 114.202 47.0922C114.227 46.732 114.243 46.3478 114.243 45.9476V44.803C114.243 44.3627 114.227 43.6824 114.202 42.7699C114.178 41.8494 114.074 40.9289 113.889 39.9924L113.897 40.0084Z" fill="#F17522"/>
<path d="M128.07 59.7946C127.629 59.7946 127.275 59.5945 127.018 59.1943C126.762 58.7941 126.561 58.3379 126.432 57.8176C126.304 57.2973 126.215 56.777 126.183 56.2487C126.143 55.7205 126.127 55.3123 126.127 55.0241C126.127 54.2477 126.175 53.4713 126.264 52.6949C126.352 51.9184 126.456 51.142 126.577 50.3656C126.697 49.5892 126.794 48.8128 126.89 48.0364C126.978 47.26 127.027 46.4836 127.027 45.7071C127.027 45.395 127.01 45.0588 126.986 44.6986C126.962 44.3384 126.906 43.9942 126.81 43.6661C126.721 43.3459 126.569 43.0817 126.36 42.8736C126.151 42.6655 125.878 42.5615 125.541 42.5615C125.308 42.5615 125.051 42.7456 124.762 43.1218C124.473 43.498 124.208 43.9222 123.967 44.4024C123.718 44.8827 123.509 45.363 123.341 45.8352C123.172 46.3155 123.084 46.6677 123.084 46.8998C123.084 47.4681 123.084 48.0444 123.1 48.6287C123.116 49.213 123.116 49.7973 123.116 50.3976V52.6468C123.092 53.1111 123.052 53.5913 122.995 54.0796C122.939 54.5679 122.867 55.0481 122.763 55.5124C122.682 55.9766 122.57 56.4248 122.409 56.8491C122.257 57.2733 122.056 57.6495 121.807 57.9777C121.558 58.2978 121.269 58.57 120.932 58.7701C120.594 58.9782 120.193 59.0823 119.727 59.0823C119.205 59.0823 118.78 58.9142 118.442 58.578C118.105 58.2418 117.832 57.8096 117.623 57.2813C117.415 56.753 117.27 56.1527 117.174 55.4963C117.085 54.84 117.021 54.1917 116.981 53.5593C116.941 52.927 116.925 52.3427 116.941 51.8144C116.957 51.2861 116.957 50.8619 116.957 50.5497V48.7247C116.957 47.7402 116.941 46.7717 116.901 45.8112C116.86 44.8507 116.844 43.8982 116.844 42.9377C116.844 42.4174 116.844 41.761 116.86 40.9606C116.877 40.1602 116.973 39.3758 117.15 38.6154C117.334 37.855 117.631 37.1986 118.041 36.6543C118.458 36.11 119.069 35.8379 119.872 35.8379C120.233 35.8379 120.562 35.958 120.843 36.1901C121.132 36.4222 121.381 36.7104 121.606 37.0465C121.823 37.3827 122.008 37.7429 122.152 38.1351C122.297 38.5193 122.401 38.8555 122.482 39.1436C122.738 38.7835 123.044 38.4313 123.397 38.0951C123.75 37.7589 124.144 37.4628 124.585 37.1986C125.027 36.9425 125.517 36.7344 126.063 36.5743C126.609 36.4142 127.227 36.3422 127.934 36.3422C129.259 36.3422 130.287 36.6623 131.025 37.2947C131.764 37.927 132.31 38.7194 132.664 39.6639C133.017 40.6084 133.226 41.625 133.306 42.7135C133.386 43.8021 133.426 44.7866 133.426 45.6591C133.426 46.0993 133.386 46.7557 133.306 47.6202C133.226 48.4846 133.105 49.4451 132.937 50.4937C132.768 51.5422 132.543 52.6148 132.254 53.7114C131.965 54.808 131.628 55.8165 131.242 56.721C130.857 57.6255 130.391 58.3619 129.861 58.9302C129.331 59.4985 128.729 59.7866 128.054 59.7866L128.07 59.7946Z" fill="#F17522"/>
<path d="M144.066 69.9995C143.44 69.9995 142.733 69.9035 141.947 69.7114C141.152 69.5193 140.405 69.2391 139.706 68.8789C139.008 68.5187 138.413 68.0785 137.932 67.5582C137.45 67.0379 137.209 66.4456 137.209 65.7733C137.209 65.5171 137.273 65.253 137.402 64.9969C137.53 64.7407 137.707 64.5086 137.923 64.3165C138.14 64.1244 138.381 63.9643 138.646 63.8523C138.903 63.7322 139.176 63.6762 139.465 63.6762C139.778 63.6762 140.084 63.7242 140.381 63.8122C140.678 63.9003 140.983 64.0123 141.296 64.1404C141.633 64.2685 141.963 64.3885 142.292 64.4926C142.613 64.5967 142.958 64.6447 143.32 64.6447C143.97 64.6447 144.532 64.4206 145.014 63.9883C145.496 63.5481 145.905 62.9718 146.243 62.2594C146.58 61.547 146.853 60.7546 147.062 59.8902C147.27 59.0257 147.431 58.1612 147.551 57.3128C147.672 56.4643 147.752 55.6559 147.8 54.9035C147.849 54.1511 147.889 53.5428 147.921 53.0785C147.013 54.4473 146.114 55.5038 145.215 56.2402C144.323 56.9766 143.223 57.3448 141.922 57.3448C140.935 57.3448 140.076 57.1367 139.337 56.7205C138.598 56.3042 137.964 55.76 137.45 55.0876C136.928 54.4152 136.502 53.6468 136.165 52.7824C135.828 51.9179 135.571 51.0134 135.402 50.0849C135.233 49.1564 135.121 48.244 135.073 47.3475C135.025 46.451 135.025 45.6346 135.073 44.8822C135.097 44.3139 135.169 43.5695 135.29 42.649C135.41 41.7285 135.595 40.832 135.852 39.9515C136.109 39.0711 136.478 38.3267 136.944 37.7184C137.41 37.11 138.02 36.8299 138.775 36.8859C139.264 36.9099 139.674 37.126 139.979 37.5263C140.292 37.9265 140.541 38.4227 140.742 39.0231C140.935 39.6154 141.079 40.2717 141.168 40.9841C141.256 41.6965 141.32 42.4008 141.344 43.0972C141.368 43.7936 141.376 44.4339 141.36 45.0182C141.344 45.6026 141.344 46.0428 141.344 46.355C141.344 46.7952 141.36 47.2354 141.384 47.6757C141.409 48.1159 141.505 48.5081 141.657 48.8603C141.81 49.2125 142.051 49.4846 142.38 49.6927C142.701 49.9008 143.167 50.0049 143.761 50.0049C144.436 50.0049 144.974 49.8368 145.375 49.5006C145.777 49.1644 146.074 48.7402 146.275 48.2359C146.467 47.7317 146.596 47.1874 146.644 46.6031C146.692 46.0188 146.724 45.4745 146.724 44.9542V43.6335C146.724 43.1132 146.724 42.5689 146.74 42.0006C146.757 41.4323 146.805 40.872 146.893 40.3117C146.981 39.7594 147.126 39.2552 147.319 38.7989C147.511 38.3507 147.776 37.9745 148.098 37.6943C148.419 37.4062 148.844 37.2701 149.366 37.2701C150.017 37.2701 150.571 37.5183 151.037 38.0225C151.502 38.5268 151.896 39.1911 152.225 39.9996C152.546 40.816 152.811 41.7125 153.004 42.697C153.197 43.6815 153.349 44.6581 153.454 45.6266C153.558 46.5951 153.63 47.4916 153.67 48.3C153.711 49.1164 153.727 49.7568 153.727 50.221C153.727 51.3096 153.686 52.5422 153.606 53.927C153.526 55.3117 153.381 56.7365 153.156 58.1932C152.94 59.658 152.602 61.0908 152.161 62.4995C151.719 63.9083 151.141 65.173 150.426 66.2855C149.712 67.3981 148.836 68.2866 147.8 68.959C146.765 69.6313 145.52 69.9675 144.066 69.9675V69.9995Z" fill="#F17522"/>
<path d="M174.083 47.1476C174.083 48.2842 173.962 49.5328 173.713 50.8936C173.464 52.2543 173.055 53.511 172.469 54.6796C171.882 55.8482 171.12 56.8167 170.172 57.5931C169.224 58.3695 168.036 58.7617 166.607 58.7617C166.245 58.7617 165.868 58.7377 165.474 58.6817C165.081 58.6257 164.712 58.5376 164.366 58.4096C164.013 58.2815 163.7 58.1054 163.411 57.8893C163.122 57.6732 162.905 57.377 162.752 57.0168L162.399 62.6038C162.375 63.1961 162.351 63.9085 162.343 64.7409C162.327 65.5654 162.222 66.3578 162.029 67.1102C161.837 67.8626 161.508 68.5029 161.058 69.0312C160.6 69.5595 159.95 69.8236 159.091 69.8236C158.601 69.8236 158.183 69.5675 157.846 69.0632C157.509 68.559 157.244 67.9186 157.051 67.1422C156.858 66.3658 156.706 65.5013 156.601 64.5408C156.497 63.5803 156.433 62.6678 156.408 61.7873C156.384 60.9069 156.368 60.1065 156.368 59.3781V57.7852C156.368 56.0483 156.352 54.3274 156.328 52.6065C156.304 50.8856 156.288 49.1566 156.288 47.4277V45.9709C156.288 45.3146 156.312 44.5942 156.368 43.8178C156.417 43.0414 156.505 42.241 156.625 41.4085C156.746 40.5841 156.914 39.8237 157.147 39.1353C157.38 38.4469 157.677 37.8946 158.039 37.4704C158.4 37.0462 158.842 36.8301 159.364 36.8301C159.701 36.8301 160.006 36.9261 160.279 37.1182C160.552 37.3103 160.785 37.5585 160.978 37.8546C161.17 38.1508 161.331 38.471 161.467 38.8071C161.596 39.1433 161.7 39.4555 161.781 39.7356C162.584 38.8311 163.515 38.1428 164.567 37.6785C165.619 37.2143 166.743 36.9822 167.932 36.9822C169.12 36.9822 170.196 37.3343 170.991 38.0307C171.786 38.7271 172.404 39.5996 172.862 40.6321C173.312 41.6646 173.633 42.7692 173.818 43.9459C174.002 45.1225 174.091 46.1871 174.091 47.1476H174.083ZM168.518 46.8354C168.518 46.4512 168.486 46.051 168.421 45.6508C168.357 45.2506 168.237 44.8744 168.068 44.5222C167.899 44.17 167.659 43.8898 167.345 43.6657C167.032 43.4496 166.647 43.3375 166.181 43.3375C165.555 43.3375 164.904 43.5376 164.214 43.9379C163.523 44.3381 163.009 44.7943 162.68 45.3146C162.551 45.5227 162.471 45.8589 162.447 46.3231C162.423 46.7874 162.407 47.1396 162.407 47.3717C162.407 47.5558 162.407 47.7959 162.423 48.0921C162.439 48.3882 162.455 48.6924 162.479 49.0046C162.503 49.3167 162.535 49.6129 162.576 49.901C162.616 50.1892 162.672 50.4053 162.752 50.5574C162.833 50.7895 163.001 51.0056 163.258 51.1977C163.515 51.3898 163.804 51.5659 164.117 51.718C164.43 51.8701 164.744 51.9901 165.073 52.0702C165.394 52.1502 165.675 52.1902 165.908 52.1902C166.454 52.1902 166.896 51.9821 167.233 51.5659C167.57 51.1497 167.835 50.6614 168.028 50.0931C168.221 49.5248 168.349 48.9325 168.413 48.3242C168.478 47.7159 168.51 47.2196 168.51 46.8274L168.518 46.8354Z" fill="#F17522"/>
<path d="M193.001 53.2395C193.001 53.7037 192.985 54.312 192.945 55.0644C192.905 55.8168 192.793 56.5452 192.616 57.2576C192.431 57.97 192.15 58.5863 191.757 59.0986C191.371 59.6189 190.825 59.875 190.119 59.875C189.155 59.875 188.416 59.5628 187.902 58.9465C187.38 58.3222 187.139 57.5458 187.164 56.6173C186.336 57.3457 185.389 57.914 184.345 58.3222C183.293 58.7384 182.225 58.9465 181.133 58.9465C180.378 58.9465 179.663 58.7624 178.989 58.4022C178.314 58.042 177.72 57.5778 177.198 57.0015C176.676 56.4332 176.267 55.7928 175.954 55.0805C175.64 54.3681 175.488 53.6637 175.488 52.9673C175.488 51.7267 175.873 50.6381 176.636 49.7096C177.399 48.7811 178.339 47.9807 179.455 47.3243C180.571 46.668 181.759 46.1397 183.02 45.7555C184.281 45.3713 185.397 45.1072 186.385 44.9791C186.385 44.851 186.385 44.731 186.401 44.6269C186.417 44.5228 186.417 44.4108 186.417 44.2747C186.417 43.4743 186.2 42.8259 185.758 42.3377C185.317 41.8494 184.69 41.6013 183.887 41.6013C183.237 41.6013 182.683 41.7133 182.217 41.9295C181.751 42.1456 181.31 42.3937 180.892 42.6659C180.475 42.938 180.065 43.1861 179.647 43.4022C179.23 43.6184 178.764 43.7304 178.242 43.7304C177.672 43.7304 177.182 43.5463 176.781 43.1861C176.379 42.8259 176.178 42.3617 176.178 41.7854C176.178 40.9289 176.435 40.1525 176.941 39.4561C177.447 38.7598 178.082 38.1675 178.852 37.6872C179.615 37.207 180.45 36.8308 181.342 36.5586C182.241 36.2865 183.06 36.1504 183.815 36.1504C184.514 36.1504 185.22 36.2384 185.919 36.4065C186.617 36.5746 187.284 36.8308 187.902 37.1829C188.529 37.5351 189.091 37.9594 189.597 38.4636C190.103 38.9679 190.512 39.5602 190.825 40.2326C191.291 41.1931 191.668 42.2016 191.957 43.2822C192.247 44.3548 192.463 45.4513 192.616 46.5799C192.768 47.7085 192.873 48.8291 192.929 49.9577C192.977 51.0863 193.009 52.1749 193.009 53.2395H193.001ZM186.77 51.9988L186.65 49.3574C186.601 49.3574 186.545 49.3574 186.497 49.3414C186.441 49.3254 186.393 49.3254 186.344 49.3254C186.007 49.3254 185.582 49.4134 185.076 49.5815C184.57 49.7496 184.08 49.9817 183.614 50.2779C183.149 50.5741 182.755 50.9022 182.426 51.2704C182.105 51.6306 181.936 52.0068 181.936 52.399C181.936 52.7592 182.064 53.0074 182.321 53.1354C182.578 53.2635 182.875 53.3275 183.213 53.3275C183.783 53.3275 184.393 53.1754 185.044 52.8793C185.694 52.5831 186.264 52.295 186.754 52.0068L186.77 51.9988Z" fill="#F17522"/>
<path d="M214.723 59.2183C213.895 59.2183 213.149 58.7781 212.482 57.8976C211.824 57.0172 211.246 55.9606 210.748 54.736C210.258 53.5033 209.848 52.2466 209.519 50.9499C209.198 49.6533 208.957 48.5807 208.796 47.7322C208.588 48.2525 208.307 48.8848 207.961 49.6372C207.608 50.3896 207.206 51.1741 206.757 52.0065C206.299 52.8389 205.817 53.6714 205.295 54.5118C204.773 55.3523 204.235 56.1127 203.681 56.785C203.119 57.4574 202.565 58.0017 202.011 58.4179C201.449 58.8341 200.911 59.0422 200.397 59.0422C199.698 59.0422 199.08 58.7061 198.55 58.0337C198.02 57.3614 197.57 56.4809 197.209 55.3923C196.848 54.3037 196.543 53.1031 196.294 51.7824C196.045 50.4617 195.86 49.141 195.731 47.8283C195.603 46.5076 195.515 45.2829 195.458 44.1383C195.41 43.0017 195.378 42.0812 195.378 41.3849C195.378 40.7365 195.41 40.1202 195.475 39.5199C195.539 38.9276 195.667 38.3913 195.86 37.927C196.053 37.4628 196.342 37.0946 196.719 36.8224C197.097 36.5503 197.594 36.4142 198.221 36.4142C198.847 36.4142 199.329 36.6303 199.763 37.0706C200.196 37.5108 200.55 38.0871 200.831 38.7995C201.12 39.5119 201.353 40.3123 201.529 41.2008C201.714 42.0972 201.85 43.0017 201.955 43.9142C202.059 44.8347 202.131 45.7232 202.172 46.5876C202.212 47.4521 202.244 48.1965 202.268 48.8208C202.421 48.2765 202.645 47.6122 202.926 46.8198C203.215 46.0273 203.521 45.1869 203.858 44.2984C204.195 43.4019 204.565 42.5215 204.966 41.641C205.368 40.7605 205.769 39.9761 206.171 39.2717C206.572 38.5754 206.966 38.0071 207.359 37.5668C207.744 37.1266 208.122 36.9105 208.491 36.9105H208.531C208.997 36.9105 209.455 37.1346 209.896 37.5668C210.338 38.0071 210.764 38.5754 211.181 39.2717C211.599 39.9681 211.984 40.7685 212.346 41.657C212.707 42.5535 213.044 43.458 213.357 44.3704C213.671 45.2909 213.944 46.1794 214.176 47.0439C214.409 47.9083 214.602 48.6527 214.763 49.2771C214.787 48.5247 214.827 47.6762 214.883 46.7397C214.931 45.7952 215.036 44.8427 215.172 43.8902C215.317 42.9297 215.509 42.0012 215.758 41.0967C216.007 40.1922 216.312 39.3838 216.674 38.6714C217.035 37.959 217.485 37.3907 218.015 36.9665C218.545 36.5423 219.163 36.3262 219.862 36.3262C220.56 36.3262 221.131 36.5823 221.476 37.0866C221.829 37.5908 221.998 38.2072 221.998 38.9276C221.998 39.704 221.901 40.7365 221.709 42.0332C221.516 43.3299 221.251 44.7306 220.914 46.2434C220.576 47.7562 220.183 49.2851 219.725 50.8219C219.268 52.3587 218.77 53.7514 218.224 54.9921C217.678 56.2328 217.107 57.2493 216.513 58.0337C215.919 58.8261 215.317 59.2183 214.723 59.2183Z" fill="#F17522"/>
<path d="M235.553 37.3664C235.553 38.1188 235.296 38.6711 234.79 39.0313C234.284 39.3915 233.722 39.7357 233.095 40.0639C232.469 40.3921 231.907 40.7683 231.401 41.2085C230.895 41.6487 230.638 42.3051 230.638 43.1855C230.638 43.6498 230.751 44.05 230.967 44.3862C231.184 44.7224 231.457 45.0265 231.786 45.2987C232.108 45.5708 232.469 45.851 232.854 46.1311C233.24 46.4193 233.601 46.7394 233.922 47.0996C234.244 47.4598 234.517 47.9001 234.742 48.4203C234.958 48.9406 235.071 49.5729 235.071 50.3253C235.071 51.4139 234.79 52.4785 234.236 53.527C233.674 54.5756 232.967 55.5041 232.092 56.3205C231.224 57.137 230.245 57.7853 229.153 58.2816C228.061 58.7778 226.985 59.018 225.925 59.018C225.483 59.018 225.041 58.9859 224.6 58.9219C224.158 58.8579 223.764 58.7378 223.411 58.5537C223.058 58.3696 222.769 58.1215 222.536 57.7933C222.303 57.4731 222.183 57.0489 222.183 56.5286C222.183 55.8083 222.327 55.24 222.608 54.8397C222.897 54.4395 223.259 54.1194 223.7 53.8872C224.142 53.6551 224.616 53.471 225.122 53.3429C225.627 53.2149 226.101 53.0548 226.543 52.8547C226.985 52.6626 227.346 52.4064 227.635 52.0943C227.916 51.7821 228.061 51.3419 228.061 50.7736C228.061 50.2053 227.844 49.669 227.418 49.0847C226.993 48.5004 226.519 47.884 225.997 47.2197C225.475 46.5633 225.001 45.859 224.576 45.1066C224.15 44.3542 223.933 43.5297 223.933 42.6253C223.933 41.5127 224.158 40.4881 224.616 39.5436C225.073 38.5991 225.684 37.7747 226.447 37.0783C227.209 36.3819 228.085 35.8296 229.072 35.4294C230.06 35.0292 231.096 34.8291 232.188 34.8291C232.606 34.8291 233.015 34.8691 233.417 34.9492C233.818 35.0292 234.179 35.1653 234.485 35.3574C234.798 35.5495 235.047 35.8136 235.247 36.1338C235.44 36.454 235.537 36.8622 235.537 37.3584L235.553 37.3664Z" fill="#F17522"/>
<path d="M263.369 50.6458C262.429 49.077 260.63 47.9084 259.057 47.0519C258.374 46.6757 257.475 46.1554 256.543 45.7952C253.901 44.1944 250.786 44.3465 249.364 47.4601C248.625 49.085 248.136 50.8619 247.646 52.5748C247.22 54.0636 246.481 55.8886 247.132 57.4174C247.75 58.8902 249.396 59.7066 250.898 59.9308C252.287 60.1389 253.652 59.8427 254.969 59.3945C256.623 59.1704 258.237 58.594 259.691 57.8016C261.65 56.7371 264.3 54.8881 263.995 52.3507C263.971 52.1746 263.923 52.0225 263.85 51.8945C263.77 51.4783 263.618 51.062 263.369 50.6538V50.6458Z" fill="#F17522"/>
<path d="M243.695 46.6272C242.707 46.0829 241.543 45.6586 240.443 46.1629C239.431 46.6272 238.805 47.8118 238.933 48.9004C239.086 50.2051 240.041 51.0855 240.981 51.894C241.864 52.6624 242.796 53.3427 244.032 53.1346C244.249 53.0946 244.426 53.0226 244.57 52.9265C244.843 52.8545 245.108 52.7184 245.373 52.5023C247.525 50.7333 245.518 47.6357 243.687 46.6272H243.695Z" fill="#F17522"/>
<path d="M248.497 44.0824C248.834 43.234 248.778 42.2334 248.312 41.305C248.144 40.9608 247.887 40.5846 247.574 40.2084C246.803 38.7116 245.494 36.9346 243.631 37.0227C238.813 37.2548 242.828 44.5147 244.996 45.6833C245.397 45.8994 245.807 45.9074 246.16 45.7793C246.297 45.8113 246.441 45.8194 246.602 45.8033C247.14 45.7553 247.453 45.5792 247.887 45.2751C248.272 45.0029 248.425 44.6587 248.417 44.3065C248.449 44.2265 248.473 44.1465 248.497 44.0664V44.0824Z" fill="#F17522"/>
<path d="M253.789 33.5726C252.6 32.9963 251.235 33.4446 250.481 34.5011C248.786 36.8784 249.573 40.4083 251.436 42.4253C251.846 42.8656 252.36 42.9456 252.809 42.8095C252.954 42.8816 253.106 42.9376 253.259 42.9856C254.496 43.3538 255.564 42.4894 255.949 41.3448C256.423 39.952 255.941 38.2151 255.7 36.8224C255.483 35.5177 255.074 34.1889 253.781 33.5646L253.789 33.5726Z" fill="#F17522"/>
<path d="M262.076 37.9433C260.558 37.359 258.944 38.8158 258.334 40.1125C257.828 41.1851 257.908 42.2977 258.165 43.3862C258.181 43.6904 258.245 43.9786 258.374 44.2347C258.39 44.2667 258.414 44.2987 258.43 44.3307C258.462 44.4268 258.486 44.5228 258.519 44.6189C258.655 45.0511 259.065 45.3073 259.506 45.3793C259.675 45.4754 259.843 45.5554 260.02 45.6194C260.727 45.8756 261.353 45.6194 261.931 45.2192C263.12 44.3868 264.236 42.986 264.348 41.4972C264.461 40.0165 263.457 38.4876 262.076 37.9514V37.9433Z" fill="#F17522"/>
<defs>
<clipPath id="clip0_1942_3426">
<rect width="87" height="80" fill="white"/>
</clipPath>
</defs>
</svg>
