<svg width="367" height="523" viewBox="0 0 367 523" fill="none" xmlns="http://www.w3.org/2000/svg">
<path d="M142.465 340.503C144.13 335.067 149.17 331.348 154.855 331.348H218.716C224.502 331.348 229.609 335.197 231.168 340.769C249.521 406.365 251.389 438.979 247.052 462.724C245.997 468.495 240.776 472.408 234.909 472.408H136.017C130.211 472.408 125.028 468.574 123.857 462.887C118.297 435.866 122.21 406.637 142.465 340.503Z" fill="#5D5F74"/>
<path d="M218.716 331.348H154.855C149.17 331.348 144.138 335.041 142.473 340.477C141.726 342.915 141.001 345.303 140.299 347.643C137.819 355.901 144.044 364.138 152.666 364.138H220.732C229.184 364.138 235.385 356.201 233.173 348.044C232.525 345.656 231.855 343.223 231.16 340.742C229.601 335.17 224.502 331.348 218.716 331.348Z" fill="#4D4F63" fill-opacity="0.43"/>
<path d="M237.484 245.884C237.399 245.519 237.357 245.336 237.318 245.208C236.668 243.095 234.404 242.061 232.877 243.18C232.785 243.248 232.664 243.356 232.421 243.572L199.761 272.703C199.385 273.039 199.197 273.207 199.11 273.302C197.619 274.943 198.506 277.916 200.714 278.677C200.842 278.721 201.118 278.788 201.67 278.921C218.305 282.938 229.405 288.09 244.43 298.5C244.911 298.833 245.151 298.999 245.273 299.069C247.357 300.26 249.48 298.661 249.11 296.178C249.089 296.033 249.025 295.756 248.897 295.203L237.484 245.884Z" fill="#5D5F74"/>
<path fill-rule="evenodd" clip-rule="evenodd" d="M229.408 260.04C229.917 259.667 230.672 260.012 230.889 260.716C230.902 260.758 230.915 260.82 230.943 260.942L238.381 293.08C238.415 293.227 238.432 293.301 238.439 293.348C238.511 293.818 238.303 294.199 237.98 294.36C227.65 287.718 218.752 283.587 207.612 280.366C207.492 280.006 207.535 279.602 207.79 279.323C207.818 279.293 207.869 279.247 207.97 279.157L229.256 260.171C229.337 260.099 229.377 260.063 229.408 260.04Z" fill="#FFF5DC"/>
<path d="M129.754 245.884C129.839 245.519 129.881 245.336 129.92 245.208C130.57 243.095 132.834 242.061 134.361 243.18C134.453 243.248 134.574 243.356 134.817 243.572L167.477 272.703C167.853 273.039 168.042 273.207 168.128 273.302C169.62 274.943 168.733 277.916 166.524 278.677C166.396 278.721 166.12 278.788 165.568 278.921C148.933 282.938 137.834 288.09 122.808 298.5C122.327 298.833 122.087 298.999 121.965 299.069C119.881 300.26 117.759 298.661 118.128 296.178C118.149 296.033 118.214 295.756 118.342 295.203L129.754 245.884Z" fill="#5D5F74"/>
<path fill-rule="evenodd" clip-rule="evenodd" d="M137.831 260.04C137.322 259.667 136.567 260.012 136.35 260.716C136.337 260.758 136.323 260.82 136.295 260.941L128.857 293.08C128.823 293.227 128.807 293.301 128.8 293.348C128.728 293.818 128.936 294.199 129.259 294.36C139.589 287.718 148.487 283.587 159.627 280.366C159.747 280.006 159.703 279.602 159.448 279.323C159.42 279.293 159.37 279.247 159.269 279.157L137.982 260.171C137.902 260.099 137.862 260.063 137.831 260.04Z" fill="#FFF5DC"/>
<path d="M258.909 320.212C258.909 348.23 225.67 356.096 184.667 356.096C143.664 356.096 110.424 348.23 110.424 320.212C110.424 292.193 143.664 254.631 184.667 254.631C225.67 254.631 258.909 292.193 258.909 320.212Z" fill="#5D5F74"/>
<ellipse cx="159.301" cy="299.176" rx="4.33081" ry="4.94949" fill="black"/>
<ellipse cx="177.522" cy="314.644" rx="10.1784" ry="8.04293" fill="#FFEFC7"/>
<ellipse cx="194.286" cy="314.644" rx="10.1784" ry="8.04293" fill="#FFEFC7"/>
<ellipse cx="210.033" cy="299.176" rx="4.33081" ry="4.94949" fill="black"/>
<path d="M184.98 313.87C185.405 314.496 186.345 314.461 186.737 313.815C188.186 311.429 189.657 309.693 191.918 307.638C192.662 306.962 192.098 305.668 191.098 305.763C187.354 306.115 184.371 306.094 180.611 305.738C179.619 305.644 179.064 306.913 179.789 307.597C181.498 309.205 182.982 310.927 184.98 313.87Z" fill="#FF8A8A"/>
<path d="M183.5 517.408C277.665 517.408 354 441.073 354 346.908H13C13 441.073 89.3354 517.408 183.5 517.408Z" fill="white"/>
<path d="M354 346.408C354 440.573 277.665 516.908 183.5 516.908C89.3354 516.908 13 440.573 13 346.408" stroke="#F17522" stroke-width="11" stroke-linecap="round"/>
<path d="M170 345.908C170 354.469 162.165 355.408 152.5 355.408C142.835 355.408 135 354.469 135 345.908C135 337.348 142.835 330.408 152.5 330.408C162.165 330.408 170 337.348 170 345.908Z" fill="#4D4F63"/>
<path d="M235 345.908C235 354.469 227.165 355.408 217.5 355.408C207.835 355.408 200 354.469 200 345.908C200 337.348 207.835 330.408 217.5 330.408C227.165 330.408 235 337.348 235 345.908Z" fill="#4D4F63"/>
<path d="M183.5 23.4248C277.665 23.4248 354 99.7603 354 193.925H13C13 99.7603 89.3354 23.4248 183.5 23.4248Z" fill="#F17522"/>
<path d="M354 193.908C354 99.7437 277.665 23.4082 183.5 23.4082C89.3354 23.4082 13 99.7437 13 193.908" stroke="#F17522" stroke-width="11"/>
<path d="M299.43 2.45381C299.345 2.17157 299.302 2.03045 299.262 1.92503C298.599 0.20038 296.55 -0.520922 294.953 0.408337C294.855 0.465137 294.734 0.548607 294.491 0.715545L225.683 48.0179C225.238 48.3234 225.016 48.4761 224.907 48.5674C223.036 50.1335 223.688 53.1184 226.042 53.7617C226.179 53.7991 226.453 53.8467 227 53.9419C263.622 60.3076 285.929 68.3087 318.738 86.2798C319.217 86.5422 319.456 86.6734 319.587 86.7295C321.822 87.6917 324.192 85.7725 323.715 83.3864C323.687 83.2473 323.611 82.9932 323.458 82.4852L299.43 2.45381Z" fill="#FFDE8B"/>
<path fill-rule="evenodd" clip-rule="evenodd" d="M286.304 26.5442C286.837 26.2344 287.52 26.4752 287.741 27.0501C287.754 27.0851 287.768 27.1321 287.797 27.2258L302.66 76.7307C302.703 76.8751 302.725 76.9475 302.734 76.9924C302.814 77.3867 302.655 77.7461 302.382 77.967C282.138 67.8691 264.862 61.6818 243.001 56.8704C242.99 56.5795 243.104 56.2814 243.361 56.0676C243.396 56.0382 243.46 55.9948 243.588 55.9075L286.151 26.6467C286.232 26.5913 286.272 26.5631 286.304 26.5442Z" fill="#FFF5DC"/>
<path d="M74.1087 2.45381C74.1935 2.17157 74.2358 2.03045 74.2764 1.92503C74.9392 0.20038 76.9885 -0.520922 78.5855 0.408337C78.6831 0.465137 78.8045 0.548607 79.0473 0.715545L147.856 48.0179C148.3 48.3234 148.522 48.4761 148.631 48.5674C150.502 50.1335 149.85 53.1184 147.497 53.7617C147.359 53.7991 147.086 53.8467 146.538 53.9419C109.916 60.3076 87.6098 68.3087 54.8003 86.2798C54.3213 86.5422 54.0819 86.6734 53.9515 86.7295C51.7167 87.6917 49.3467 85.7725 49.8233 83.3864C49.8511 83.2473 49.9273 82.9932 50.0799 82.4852L74.1087 2.45381Z" fill="#FFDE8B"/>
<path fill-rule="evenodd" clip-rule="evenodd" d="M87.2337 26.5441C86.7014 26.2345 86.0182 26.4752 85.7972 27.05C85.7837 27.0851 85.7698 27.1327 85.7415 27.2267L70.8783 76.7306C70.8349 76.8751 70.8131 76.9475 70.804 76.9924C70.7241 77.3866 70.8831 77.746 71.1556 77.967C91.3998 67.8691 108.676 61.6817 130.537 56.8703C130.548 56.5795 130.434 56.2812 130.177 56.0676C130.142 56.0381 130.078 55.9944 129.951 55.9074L87.388 26.6467C87.3071 26.591 87.2663 26.5631 87.2337 26.5441Z" fill="#FFF5DC"/>
<path d="M2.6262 188.181C4.68726 185.586 8.00942 184.425 11.3234 184.425H355.937C360.057 184.425 364.233 186.233 365.908 189.997C367.36 193.261 367.372 196.063 365.895 199.223C364.227 202.793 360.194 204.425 356.254 204.425H11.3891C8.03594 204.425 4.67707 203.232 2.61963 200.584C-0.922413 196.026 -0.825676 192.527 2.6262 188.181Z" fill="#1A1A1A"/>
<circle cx="183" cy="194.425" r="53" fill="#1A1A1A"/>
<path d="M220.434 198.797C220.434 216.189 203.771 227.425 183.217 227.425C162.663 227.425 146 216.189 146 198.797C146 181.404 162.663 164.442 183.217 164.442C203.771 164.442 220.434 181.404 220.434 198.797Z" fill="#FFDE8B"/>
<path d="M158.536 162.407C158.565 162.313 158.579 162.266 158.592 162.231C158.813 161.656 159.496 161.415 160.029 161.725C160.061 161.744 160.102 161.772 160.183 161.827L173.855 171.227C173.966 171.303 174.021 171.341 174.055 171.369C174.625 171.839 174.505 172.744 173.832 173.05C173.792 173.068 173.728 173.091 173.602 173.135L155.158 179.627C155.032 179.671 154.968 179.694 154.926 179.705C154.209 179.888 153.549 179.257 153.698 178.534C153.707 178.49 153.727 178.426 153.765 178.298L158.536 162.407Z" fill="#FFDE8B"/>
<path d="M207.837 162.407C207.808 162.313 207.794 162.266 207.781 162.231C207.56 161.656 206.877 161.415 206.344 161.725C206.312 161.744 206.271 161.772 206.191 161.827L192.518 171.227C192.407 171.303 192.352 171.341 192.318 171.369C191.748 171.839 191.868 172.744 192.541 173.05C192.581 173.068 192.645 173.091 192.771 173.135L211.215 179.627C211.342 179.671 211.405 179.694 211.447 179.705C212.164 179.888 212.824 179.257 212.675 178.534C212.666 178.49 212.646 178.426 212.608 178.298L207.837 162.407Z" fill="#FFDE8B"/>
<path d="M204.753 197.593C204.753 207.213 195.182 213.428 183.377 213.428C171.571 213.428 162 207.213 162 197.593C162 187.974 171.571 178.592 183.377 178.592C195.182 178.592 204.753 187.974 204.753 197.593Z" fill="#FFF5DC"/>
<path d="M168.49 179.161C168.515 179.057 168.528 179.005 168.54 178.968C168.743 178.354 169.483 178.105 170.039 178.464C170.072 178.485 170.116 178.518 170.203 178.584L175.837 182.873C175.939 182.951 175.99 182.99 176.022 183.019C176.561 183.505 176.428 184.368 175.77 184.655C175.73 184.672 175.67 184.692 175.549 184.733L168.275 187.182C168.154 187.222 168.094 187.243 168.052 187.253C167.352 187.423 166.691 186.828 166.798 186.124C166.805 186.082 166.82 186.021 166.849 185.899L168.49 179.161Z" fill="#FFF5DC"/>
<path d="M198.018 179.161C197.993 179.057 197.98 179.005 197.968 178.968C197.764 178.354 197.025 178.105 196.469 178.464C196.435 178.485 196.392 178.518 196.305 178.584L190.671 182.873C190.569 182.951 190.518 182.99 190.485 183.019C189.947 183.505 190.08 184.368 190.738 184.655C190.777 184.672 190.838 184.692 190.958 184.733L198.233 187.182C198.354 187.222 198.414 187.243 198.456 187.253C199.156 187.423 199.817 186.828 199.71 186.124C199.703 186.082 199.688 186.021 199.658 185.899L198.018 179.161Z" fill="#FFF5DC"/>
<path d="M121.133 388.562C120.796 388.562 120.532 388.467 120.341 388.276C120.165 388.086 120.077 387.822 120.077 387.484V373.822C120.077 373.47 120.173 373.206 120.363 373.03C120.554 372.84 120.811 372.744 121.133 372.744C121.441 372.744 121.676 372.803 121.837 372.92C122.013 373.023 122.175 373.214 122.321 373.492L128.085 384.25H127.403L133.145 373.492C133.292 373.214 133.446 373.023 133.607 372.92C133.769 372.803 134.003 372.744 134.311 372.744C134.634 372.744 134.883 372.84 135.059 373.03C135.235 373.206 135.323 373.47 135.323 373.822V387.484C135.323 387.822 135.235 388.086 135.059 388.276C134.898 388.467 134.649 388.562 134.311 388.562C133.974 388.562 133.717 388.467 133.541 388.276C133.365 388.086 133.277 387.822 133.277 387.484V376.132H133.761L128.657 385.57C128.54 385.79 128.415 385.952 128.283 386.054C128.151 386.157 127.968 386.208 127.733 386.208C127.499 386.208 127.308 386.157 127.161 386.054C127.015 385.937 126.883 385.776 126.765 385.57L121.617 376.11H122.145V387.484C122.145 387.822 122.057 388.086 121.881 388.276C121.72 388.467 121.471 388.562 121.133 388.562ZM143.779 388.606C142.605 388.606 141.593 388.386 140.743 387.946C139.907 387.492 139.254 386.854 138.785 386.032C138.33 385.196 138.103 384.206 138.103 383.062C138.103 381.948 138.33 380.972 138.785 380.136C139.239 379.3 139.863 378.648 140.655 378.178C141.447 377.709 142.349 377.474 143.361 377.474C144.109 377.474 144.776 377.599 145.363 377.848C145.949 378.083 146.448 378.435 146.859 378.904C147.284 379.359 147.599 379.916 147.805 380.576C148.025 381.236 148.135 381.977 148.135 382.798C148.135 383.048 148.061 383.238 147.915 383.37C147.768 383.488 147.548 383.546 147.255 383.546H139.863V382.182H146.639L146.265 382.49C146.265 381.757 146.155 381.134 145.935 380.62C145.729 380.107 145.414 379.718 144.989 379.454C144.578 379.176 144.065 379.036 143.449 379.036C142.759 379.036 142.173 379.198 141.689 379.52C141.219 379.843 140.86 380.29 140.611 380.862C140.361 381.434 140.237 382.102 140.237 382.864V382.996C140.237 384.287 140.537 385.262 141.139 385.922C141.755 386.568 142.642 386.89 143.801 386.89C144.241 386.89 144.703 386.832 145.187 386.714C145.685 386.597 146.155 386.399 146.595 386.12C146.844 385.974 147.064 385.908 147.255 385.922C147.46 385.937 147.621 386.003 147.739 386.12C147.871 386.238 147.951 386.384 147.981 386.56C148.01 386.736 147.981 386.92 147.893 387.11C147.805 387.286 147.651 387.448 147.431 387.594C146.932 387.932 146.353 388.188 145.693 388.364C145.033 388.526 144.395 388.606 143.779 388.606ZM155.595 388.606C154.422 388.606 153.41 388.386 152.559 387.946C151.723 387.492 151.07 386.854 150.601 386.032C150.146 385.196 149.919 384.206 149.919 383.062C149.919 381.948 150.146 380.972 150.601 380.136C151.056 379.3 151.679 378.648 152.471 378.178C153.263 377.709 154.165 377.474 155.177 377.474C155.925 377.474 156.592 377.599 157.179 377.848C157.766 378.083 158.264 378.435 158.675 378.904C159.1 379.359 159.416 379.916 159.621 380.576C159.841 381.236 159.951 381.977 159.951 382.798C159.951 383.048 159.878 383.238 159.731 383.37C159.584 383.488 159.364 383.546 159.071 383.546H151.679V382.182H158.455L158.081 382.49C158.081 381.757 157.971 381.134 157.751 380.62C157.546 380.107 157.23 379.718 156.805 379.454C156.394 379.176 155.881 379.036 155.265 379.036C154.576 379.036 153.989 379.198 153.505 379.52C153.036 379.843 152.676 380.29 152.427 380.862C152.178 381.434 152.053 382.102 152.053 382.864V382.996C152.053 384.287 152.354 385.262 152.955 385.922C153.571 386.568 154.458 386.89 155.617 386.89C156.057 386.89 156.519 386.832 157.003 386.714C157.502 386.597 157.971 386.399 158.411 386.12C158.66 385.974 158.88 385.908 159.071 385.922C159.276 385.937 159.438 386.003 159.555 386.12C159.687 386.238 159.768 386.384 159.797 386.56C159.826 386.736 159.797 386.92 159.709 387.11C159.621 387.286 159.467 387.448 159.247 387.594C158.748 387.932 158.169 388.188 157.509 388.364C156.849 388.526 156.211 388.606 155.595 388.606ZM166.928 388.606C166.048 388.606 165.307 388.452 164.706 388.144C164.105 387.836 163.657 387.382 163.364 386.78C163.071 386.179 162.924 385.446 162.924 384.58V379.388H161.604C161.311 379.388 161.083 379.315 160.922 379.168C160.761 379.007 160.68 378.794 160.68 378.53C160.68 378.252 160.761 378.039 160.922 377.892C161.083 377.746 161.311 377.672 161.604 377.672H162.924V375.406C162.924 375.04 163.019 374.761 163.21 374.57C163.415 374.38 163.694 374.284 164.046 374.284C164.398 374.284 164.669 374.38 164.86 374.57C165.051 374.761 165.146 375.04 165.146 375.406V377.672H167.72C168.013 377.672 168.241 377.746 168.402 377.892C168.563 378.039 168.644 378.252 168.644 378.53C168.644 378.794 168.563 379.007 168.402 379.168C168.241 379.315 168.013 379.388 167.72 379.388H165.146V384.404C165.146 385.182 165.307 385.768 165.63 386.164C165.967 386.56 166.51 386.758 167.258 386.758C167.522 386.758 167.749 386.736 167.94 386.692C168.145 386.634 168.314 386.597 168.446 386.582C168.607 386.582 168.739 386.641 168.842 386.758C168.945 386.861 168.996 387.066 168.996 387.374C168.996 387.594 168.952 387.8 168.864 387.99C168.791 388.181 168.651 388.306 168.446 388.364C168.27 388.423 168.028 388.474 167.72 388.518C167.427 388.577 167.163 388.606 166.928 388.606ZM181.358 388.562C180.991 388.562 180.705 388.46 180.5 388.254C180.309 388.049 180.214 387.763 180.214 387.396V374.812H175.55C175.242 374.812 175 374.732 174.824 374.57C174.648 374.394 174.56 374.152 174.56 373.844C174.56 373.536 174.648 373.302 174.824 373.14C175 372.979 175.242 372.898 175.55 372.898H187.144C187.467 372.898 187.716 372.979 187.892 373.14C188.068 373.302 188.156 373.536 188.156 373.844C188.156 374.152 188.068 374.394 187.892 374.57C187.716 374.732 187.467 374.812 187.144 374.812H182.48V387.396C182.48 387.763 182.385 388.049 182.194 388.254C182.018 388.46 181.739 388.562 181.358 388.562ZM191.597 388.562C191.245 388.562 190.973 388.467 190.783 388.276C190.592 388.071 190.497 387.792 190.497 387.44V373.866C190.497 373.5 190.592 373.221 190.783 373.03C190.973 372.84 191.245 372.744 191.597 372.744C191.949 372.744 192.22 372.84 192.411 373.03C192.616 373.221 192.719 373.5 192.719 373.866V379.96H192.411C192.733 379.139 193.239 378.523 193.929 378.112C194.618 377.687 195.41 377.474 196.305 377.474C197.155 377.474 197.859 377.636 198.417 377.958C198.989 378.266 199.414 378.743 199.693 379.388C199.971 380.019 200.111 380.818 200.111 381.786V387.44C200.111 387.792 200.015 388.071 199.825 388.276C199.634 388.467 199.363 388.562 199.011 388.562C198.644 388.562 198.365 388.467 198.175 388.276C197.984 388.071 197.889 387.792 197.889 387.44V381.918C197.889 380.994 197.705 380.32 197.339 379.894C196.987 379.469 196.429 379.256 195.667 379.256C194.772 379.256 194.053 379.535 193.511 380.092C192.983 380.65 192.719 381.398 192.719 382.336V387.44C192.719 388.188 192.345 388.562 191.597 388.562ZM204.272 388.54C203.92 388.54 203.649 388.438 203.458 388.232C203.268 388.012 203.172 387.712 203.172 387.33V378.75C203.172 378.369 203.268 378.076 203.458 377.87C203.649 377.665 203.92 377.562 204.272 377.562C204.624 377.562 204.896 377.665 205.086 377.87C205.292 378.076 205.394 378.369 205.394 378.75V387.33C205.394 387.712 205.299 388.012 205.108 388.232C204.918 388.438 204.639 388.54 204.272 388.54ZM204.272 375.274C203.832 375.274 203.488 375.164 203.238 374.944C203.004 374.724 202.886 374.416 202.886 374.02C202.886 373.61 203.004 373.302 203.238 373.096C203.488 372.876 203.832 372.766 204.272 372.766C204.712 372.766 205.05 372.876 205.284 373.096C205.534 373.302 205.658 373.61 205.658 374.02C205.658 374.416 205.534 374.724 205.284 374.944C205.05 375.164 204.712 375.274 204.272 375.274ZM212.284 388.606C211.639 388.606 210.971 388.533 210.282 388.386C209.607 388.24 208.984 387.99 208.412 387.638C208.221 387.506 208.089 387.36 208.016 387.198C207.943 387.037 207.913 386.876 207.928 386.714C207.957 386.538 208.023 386.392 208.126 386.274C208.243 386.142 208.383 386.062 208.544 386.032C208.72 386.003 208.903 386.04 209.094 386.142C209.666 386.465 210.216 386.692 210.744 386.824C211.272 386.942 211.793 387 212.306 387C213.083 387 213.67 386.861 214.066 386.582C214.462 386.304 214.66 385.93 214.66 385.46C214.66 385.079 214.528 384.786 214.264 384.58C214 384.36 213.604 384.192 213.076 384.074L210.986 383.656C210.077 383.466 209.387 383.128 208.918 382.644C208.449 382.16 208.214 381.544 208.214 380.796C208.214 380.122 208.397 379.535 208.764 379.036C209.131 378.538 209.644 378.156 210.304 377.892C210.964 377.614 211.727 377.474 212.592 377.474C213.237 377.474 213.846 377.555 214.418 377.716C214.99 377.878 215.518 378.12 216.002 378.442C216.193 378.545 216.317 378.684 216.376 378.86C216.435 379.022 216.442 379.183 216.398 379.344C216.369 379.506 216.295 379.652 216.178 379.784C216.061 379.902 215.914 379.975 215.738 380.004C215.577 380.019 215.393 379.975 215.188 379.872C214.748 379.594 214.308 379.396 213.868 379.278C213.443 379.161 213.017 379.102 212.592 379.102C211.815 379.102 211.228 379.249 210.832 379.542C210.451 379.821 210.26 380.202 210.26 380.686C210.26 381.053 210.377 381.354 210.612 381.588C210.847 381.823 211.213 381.992 211.712 382.094L213.802 382.512C214.755 382.703 215.474 383.026 215.958 383.48C216.457 383.935 216.706 384.551 216.706 385.328C216.706 386.34 216.303 387.14 215.496 387.726C214.689 388.313 213.619 388.606 212.284 388.606ZM232.173 388.606C230.604 388.606 229.262 388.284 228.147 387.638C227.032 386.993 226.174 386.076 225.573 384.888C224.986 383.686 224.693 382.27 224.693 380.642C224.693 379.425 224.862 378.332 225.199 377.364C225.536 376.382 226.02 375.546 226.651 374.856C227.296 374.152 228.081 373.617 229.005 373.25C229.944 372.884 231 372.7 232.173 372.7C233.038 372.7 233.867 372.818 234.659 373.052C235.466 373.287 236.162 373.624 236.749 374.064C236.998 374.226 237.16 374.424 237.233 374.658C237.321 374.878 237.336 375.091 237.277 375.296C237.233 375.502 237.138 375.678 236.991 375.824C236.844 375.956 236.654 376.03 236.419 376.044C236.199 376.059 235.957 375.978 235.693 375.802C235.209 375.436 234.674 375.164 234.087 374.988C233.5 374.812 232.884 374.724 232.239 374.724C231.124 374.724 230.186 374.959 229.423 375.428C228.66 375.883 228.081 376.55 227.685 377.43C227.289 378.31 227.091 379.381 227.091 380.642C227.091 381.904 227.289 382.982 227.685 383.876C228.081 384.756 228.66 385.431 229.423 385.9C230.186 386.355 231.124 386.582 232.239 386.582C232.884 386.582 233.5 386.494 234.087 386.318C234.688 386.128 235.253 385.849 235.781 385.482C236.045 385.321 236.28 385.248 236.485 385.262C236.705 385.277 236.888 385.35 237.035 385.482C237.182 385.614 237.277 385.783 237.321 385.988C237.38 386.179 237.372 386.384 237.299 386.604C237.24 386.81 237.101 386.986 236.881 387.132C236.28 387.616 235.568 387.983 234.747 388.232C233.926 388.482 233.068 388.606 232.173 388.606ZM242.913 388.606C242.165 388.606 241.49 388.46 240.889 388.166C240.302 387.873 239.84 387.477 239.503 386.978C239.166 386.48 238.997 385.915 238.997 385.284C238.997 384.492 239.195 383.869 239.591 383.414C240.002 382.945 240.669 382.615 241.593 382.424C242.532 382.219 243.793 382.116 245.377 382.116H246.411V383.48H245.399C244.343 383.48 243.507 383.532 242.891 383.634C242.275 383.737 241.835 383.913 241.571 384.162C241.322 384.397 241.197 384.727 241.197 385.152C241.197 385.71 241.388 386.164 241.769 386.516C242.15 386.854 242.678 387.022 243.353 387.022C243.896 387.022 244.372 386.898 244.783 386.648C245.194 386.384 245.516 386.032 245.751 385.592C246 385.152 246.125 384.646 246.125 384.074V381.544C246.125 380.708 245.949 380.107 245.597 379.74C245.245 379.374 244.666 379.19 243.859 379.19C243.39 379.19 242.898 379.249 242.385 379.366C241.886 379.484 241.366 379.682 240.823 379.96C240.574 380.078 240.361 380.114 240.185 380.07C240.009 380.026 239.87 379.931 239.767 379.784C239.664 379.623 239.606 379.454 239.591 379.278C239.591 379.088 239.635 378.904 239.723 378.728C239.826 378.552 239.994 378.42 240.229 378.332C240.874 378.024 241.512 377.804 242.143 377.672C242.774 377.54 243.368 377.474 243.925 377.474C244.908 377.474 245.714 377.628 246.345 377.936C246.99 378.244 247.467 378.714 247.775 379.344C248.083 379.975 248.237 380.789 248.237 381.786V387.44C248.237 387.792 248.149 388.071 247.973 388.276C247.797 388.467 247.54 388.562 247.203 388.562C246.88 388.562 246.624 388.467 246.433 388.276C246.242 388.071 246.147 387.792 246.147 387.44V386.01H246.345C246.228 386.553 246.008 387.022 245.685 387.418C245.377 387.8 244.988 388.093 244.519 388.298C244.05 388.504 243.514 388.606 242.913 388.606ZM255.873 388.606C254.993 388.606 254.253 388.452 253.651 388.144C253.05 387.836 252.603 387.382 252.309 386.78C252.016 386.179 251.869 385.446 251.869 384.58V379.388H250.549C250.256 379.388 250.029 379.315 249.867 379.168C249.706 379.007 249.625 378.794 249.625 378.53C249.625 378.252 249.706 378.039 249.867 377.892C250.029 377.746 250.256 377.672 250.549 377.672H251.869V375.406C251.869 375.04 251.965 374.761 252.155 374.57C252.361 374.38 252.639 374.284 252.991 374.284C253.343 374.284 253.615 374.38 253.805 374.57C253.996 374.761 254.091 375.04 254.091 375.406V377.672H256.665C256.959 377.672 257.186 377.746 257.347 377.892C257.509 378.039 257.589 378.252 257.589 378.53C257.589 378.794 257.509 379.007 257.347 379.168C257.186 379.315 256.959 379.388 256.665 379.388H254.091V384.404C254.091 385.182 254.253 385.768 254.575 386.164C254.913 386.56 255.455 386.758 256.203 386.758C256.467 386.758 256.695 386.736 256.885 386.692C257.091 386.634 257.259 386.597 257.391 386.582C257.553 386.582 257.685 386.641 257.787 386.758C257.89 386.861 257.941 387.066 257.941 387.374C257.941 387.594 257.897 387.8 257.809 387.99C257.736 388.181 257.597 388.306 257.391 388.364C257.215 388.423 256.973 388.474 256.665 388.518C256.372 388.577 256.108 388.606 255.873 388.606Z" fill="#F17522"/>
<path d="M68.9062 411.369C68.9062 412.046 68.737 412.624 68.3984 413.104C68.0651 413.577 67.5964 413.939 66.9922 414.189C66.388 414.439 65.6771 414.564 64.8594 414.564C64.4271 414.564 64.0182 414.544 63.6328 414.502C63.2474 414.46 62.8932 414.4 62.5703 414.322C62.2474 414.244 61.9635 414.148 61.7188 414.033V412.76C62.1094 412.921 62.5859 413.072 63.1484 413.213C63.7109 413.348 64.2995 413.416 64.9141 413.416C65.487 413.416 65.9714 413.34 66.3672 413.189C66.763 413.033 67.0625 412.812 67.2656 412.525C67.474 412.234 67.5781 411.885 67.5781 411.479C67.5781 411.088 67.4922 410.762 67.3203 410.502C67.1484 410.236 66.862 409.997 66.4609 409.783C66.0651 409.564 65.5234 409.333 64.8359 409.088C64.3516 408.916 63.9245 408.729 63.5547 408.525C63.1849 408.317 62.875 408.083 62.625 407.822C62.375 407.562 62.1849 407.26 62.0547 406.916C61.9297 406.572 61.8672 406.179 61.8672 405.736C61.8672 405.127 62.0208 404.606 62.3281 404.174C62.6406 403.736 63.0703 403.403 63.6172 403.174C64.1693 402.939 64.8021 402.822 65.5156 402.822C66.125 402.822 66.6875 402.88 67.2031 402.994C67.724 403.109 68.2005 403.262 68.6328 403.455L68.2188 404.596C67.8073 404.424 67.3698 404.281 66.9062 404.166C66.4479 404.051 65.974 403.994 65.4844 403.994C64.9948 403.994 64.5807 404.067 64.2422 404.213C63.9089 404.354 63.6536 404.554 63.4766 404.814C63.2995 405.075 63.2109 405.385 63.2109 405.744C63.2109 406.145 63.2943 406.479 63.4609 406.744C63.6328 407.01 63.9036 407.247 64.2734 407.455C64.6484 407.658 65.1432 407.872 65.7578 408.096C66.4297 408.34 67 408.601 67.4688 408.877C67.9375 409.148 68.2943 409.481 68.5391 409.877C68.7839 410.268 68.9062 410.765 68.9062 411.369ZM78.4297 410.111C78.4297 410.814 78.3385 411.442 78.1562 411.994C77.974 412.546 77.7109 413.012 77.3672 413.393C77.0234 413.773 76.6068 414.064 76.1172 414.268C75.6328 414.465 75.0833 414.564 74.4688 414.564C73.8958 414.564 73.3698 414.465 72.8906 414.268C72.4167 414.064 72.0052 413.773 71.6562 413.393C71.3125 413.012 71.0443 412.546 70.8516 411.994C70.6641 411.442 70.5703 410.814 70.5703 410.111C70.5703 409.174 70.7292 408.377 71.0469 407.721C71.3646 407.059 71.8177 406.557 72.4062 406.213C73 405.864 73.7057 405.689 74.5234 405.689C75.3047 405.689 75.987 405.864 76.5703 406.213C77.1589 406.562 77.6146 407.067 77.9375 407.729C78.2656 408.385 78.4297 409.179 78.4297 410.111ZM71.9141 410.111C71.9141 410.799 72.0052 411.395 72.1875 411.9C72.3698 412.406 72.651 412.796 73.0312 413.072C73.4115 413.348 73.901 413.486 74.5 413.486C75.0938 413.486 75.5807 413.348 75.9609 413.072C76.3464 412.796 76.6302 412.406 76.8125 411.9C76.9948 411.395 77.0859 410.799 77.0859 410.111C77.0859 409.429 76.9948 408.84 76.8125 408.346C76.6302 407.846 76.349 407.46 75.9688 407.189C75.5885 406.919 75.0964 406.783 74.4922 406.783C73.6016 406.783 72.9479 407.077 72.5312 407.666C72.1198 408.255 71.9141 409.07 71.9141 410.111ZM84.4844 406.861H82.3516V414.408H81.0547V406.861H79.5391V406.236L81.0547 405.807V405.236C81.0547 404.518 81.1615 403.934 81.375 403.486C81.5885 403.033 81.8984 402.7 82.3047 402.486C82.7109 402.273 83.2057 402.166 83.7891 402.166C84.1172 402.166 84.4167 402.195 84.6875 402.252C84.9635 402.309 85.2057 402.374 85.4141 402.447L85.0781 403.471C84.901 403.413 84.7005 403.361 84.4766 403.314C84.2578 403.262 84.0339 403.236 83.8047 403.236C83.3099 403.236 82.9427 403.398 82.7031 403.721C82.4688 404.038 82.3516 404.538 82.3516 405.221V405.846H84.4844V406.861ZM88.8281 413.502C89.0417 413.502 89.2604 413.484 89.4844 413.447C89.7083 413.411 89.8906 413.367 90.0312 413.314V414.322C89.8802 414.39 89.6693 414.447 89.3984 414.494C89.1328 414.541 88.8724 414.564 88.6172 414.564C88.1641 414.564 87.7526 414.486 87.3828 414.33C87.013 414.169 86.7161 413.898 86.4922 413.518C86.2734 413.137 86.1641 412.611 86.1641 411.939V406.861H84.9453V406.229L86.1719 405.721L86.6875 403.861H87.4688V405.846H89.9766V406.861H87.4688V411.9C87.4688 412.437 87.5911 412.838 87.8359 413.104C88.0859 413.369 88.4167 413.502 88.8281 413.502ZM93.25 412.549L93.3516 412.729C93.2578 413.109 93.138 413.515 92.9922 413.947C92.8516 414.38 92.6953 414.812 92.5234 415.244C92.3568 415.682 92.1875 416.09 92.0156 416.471H91.0469C91.1562 416.054 91.263 415.614 91.3672 415.15C91.4714 414.692 91.5651 414.239 91.6484 413.791C91.737 413.338 91.8073 412.924 91.8594 412.549H93.25ZM103.492 414.564C102.721 414.564 102.042 414.406 101.453 414.088C100.865 413.77 100.406 413.286 100.078 412.635C99.75 411.984 99.5859 411.163 99.5859 410.174C99.5859 409.137 99.7578 408.291 100.102 407.635C100.451 406.973 100.93 406.484 101.539 406.166C102.148 405.848 102.841 405.689 103.617 405.689C104.044 405.689 104.456 405.734 104.852 405.822C105.253 405.906 105.581 406.012 105.836 406.143L105.445 407.229C105.185 407.124 104.883 407.031 104.539 406.947C104.201 406.864 103.883 406.822 103.586 406.822C102.992 406.822 102.497 406.95 102.102 407.205C101.711 407.46 101.417 407.835 101.219 408.33C101.026 408.825 100.93 409.434 100.93 410.158C100.93 410.851 101.023 411.442 101.211 411.932C101.404 412.421 101.688 412.796 102.062 413.057C102.443 413.312 102.917 413.439 103.484 413.439C103.938 413.439 104.346 413.393 104.711 413.299C105.076 413.2 105.406 413.085 105.703 412.955V414.111C105.417 414.257 105.096 414.369 104.742 414.447C104.393 414.525 103.977 414.564 103.492 414.564ZM110.938 405.705C111.958 405.705 112.716 405.934 113.211 406.393C113.706 406.851 113.953 407.583 113.953 408.588V414.408H113.008L112.758 413.143H112.695C112.456 413.455 112.206 413.718 111.945 413.932C111.685 414.14 111.383 414.299 111.039 414.408C110.701 414.512 110.284 414.564 109.789 414.564C109.268 414.564 108.805 414.473 108.398 414.291C107.997 414.109 107.68 413.833 107.445 413.463C107.216 413.093 107.102 412.624 107.102 412.057C107.102 411.202 107.44 410.546 108.117 410.088C108.794 409.63 109.826 409.38 111.211 409.338L112.688 409.275V408.752C112.688 408.012 112.529 407.494 112.211 407.197C111.893 406.9 111.445 406.752 110.867 406.752C110.419 406.752 109.992 406.817 109.586 406.947C109.18 407.077 108.794 407.231 108.43 407.408L108.031 406.424C108.417 406.226 108.859 406.057 109.359 405.916C109.859 405.775 110.385 405.705 110.938 405.705ZM112.672 410.189L111.367 410.244C110.299 410.286 109.547 410.46 109.109 410.768C108.672 411.075 108.453 411.51 108.453 412.072C108.453 412.562 108.602 412.924 108.898 413.158C109.195 413.393 109.589 413.51 110.078 413.51C110.839 413.51 111.461 413.299 111.945 412.877C112.43 412.455 112.672 411.822 112.672 410.979V410.189ZM117.93 414.408H116.625V402.252H117.93V414.408ZM129.969 405.689C130.911 405.689 131.622 405.937 132.102 406.432C132.581 406.921 132.82 407.71 132.82 408.799V414.408H131.539V408.861C131.539 408.169 131.388 407.65 131.086 407.307C130.789 406.958 130.346 406.783 129.758 406.783C128.93 406.783 128.328 407.023 127.953 407.502C127.578 407.981 127.391 408.687 127.391 409.619V414.408H126.102V408.861C126.102 408.398 126.034 408.012 125.898 407.705C125.768 407.398 125.57 407.169 125.305 407.018C125.044 406.861 124.714 406.783 124.312 406.783C123.745 406.783 123.289 406.9 122.945 407.135C122.602 407.369 122.352 407.718 122.195 408.182C122.044 408.64 121.969 409.205 121.969 409.877V414.408H120.672V405.846H121.719L121.914 407.057H121.984C122.156 406.76 122.372 406.51 122.633 406.307C122.893 406.104 123.185 405.95 123.508 405.846C123.831 405.742 124.174 405.689 124.539 405.689C125.19 405.689 125.734 405.812 126.172 406.057C126.615 406.296 126.935 406.663 127.133 407.158H127.203C127.484 406.663 127.87 406.296 128.359 406.057C128.849 405.812 129.385 405.689 129.969 405.689ZM136.969 412.549L137.07 412.729C136.977 413.109 136.857 413.515 136.711 413.947C136.57 414.38 136.414 414.812 136.242 415.244C136.076 415.682 135.906 416.09 135.734 416.471H134.766C134.875 416.054 134.982 415.614 135.086 415.15C135.19 414.692 135.284 414.239 135.367 413.791C135.456 413.338 135.526 412.924 135.578 412.549H136.969ZM146.984 405.705C148.005 405.705 148.763 405.934 149.258 406.393C149.753 406.851 150 407.583 150 408.588V414.408H149.055L148.805 413.143H148.742C148.503 413.455 148.253 413.718 147.992 413.932C147.732 414.14 147.43 414.299 147.086 414.408C146.747 414.512 146.331 414.564 145.836 414.564C145.315 414.564 144.852 414.473 144.445 414.291C144.044 414.109 143.727 413.833 143.492 413.463C143.263 413.093 143.148 412.624 143.148 412.057C143.148 411.202 143.487 410.546 144.164 410.088C144.841 409.63 145.872 409.38 147.258 409.338L148.734 409.275V408.752C148.734 408.012 148.576 407.494 148.258 407.197C147.94 406.9 147.492 406.752 146.914 406.752C146.466 406.752 146.039 406.817 145.633 406.947C145.227 407.077 144.841 407.231 144.477 407.408L144.078 406.424C144.464 406.226 144.906 406.057 145.406 405.916C145.906 405.775 146.432 405.705 146.984 405.705ZM148.719 410.189L147.414 410.244C146.346 410.286 145.594 410.46 145.156 410.768C144.719 411.075 144.5 411.51 144.5 412.072C144.5 412.562 144.648 412.924 144.945 413.158C145.242 413.393 145.635 413.51 146.125 413.51C146.885 413.51 147.508 413.299 147.992 412.877C148.477 412.455 148.719 411.822 148.719 410.979V410.189ZM156.727 405.689C157.742 405.689 158.51 405.939 159.031 406.439C159.552 406.934 159.812 407.731 159.812 408.83V414.408H158.531V408.916C158.531 408.202 158.367 407.669 158.039 407.314C157.716 406.96 157.219 406.783 156.547 406.783C155.599 406.783 154.932 407.051 154.547 407.588C154.161 408.124 153.969 408.903 153.969 409.924V414.408H152.672V405.846H153.719L153.914 407.08H153.984C154.167 406.778 154.398 406.525 154.68 406.322C154.961 406.114 155.276 405.958 155.625 405.854C155.974 405.744 156.341 405.689 156.727 405.689ZM165.531 414.564C164.448 414.564 163.589 414.195 162.953 413.455C162.323 412.715 162.008 411.617 162.008 410.158C162.008 408.684 162.331 407.572 162.977 406.822C163.622 406.067 164.482 405.689 165.555 405.689C166.008 405.689 166.404 405.749 166.742 405.869C167.081 405.989 167.372 406.15 167.617 406.354C167.862 406.551 168.068 406.778 168.234 407.033H168.328C168.307 406.872 168.286 406.65 168.266 406.369C168.245 406.088 168.234 405.859 168.234 405.682V402.252H169.531V414.408H168.484L168.289 413.189H168.234C168.073 413.445 167.867 413.676 167.617 413.885C167.372 414.093 167.078 414.26 166.734 414.385C166.396 414.505 165.995 414.564 165.531 414.564ZM165.734 413.486C166.651 413.486 167.299 413.226 167.68 412.705C168.06 412.184 168.25 411.411 168.25 410.385V410.15C168.25 409.062 168.068 408.226 167.703 407.643C167.344 407.059 166.688 406.768 165.734 406.768C164.938 406.768 164.341 407.075 163.945 407.689C163.549 408.299 163.352 409.132 163.352 410.189C163.352 411.242 163.547 412.054 163.938 412.627C164.333 413.2 164.932 413.486 165.734 413.486ZM179.641 405.705C180.661 405.705 181.419 405.934 181.914 406.393C182.409 406.851 182.656 407.583 182.656 408.588V414.408H181.711L181.461 413.143H181.398C181.159 413.455 180.909 413.718 180.648 413.932C180.388 414.14 180.086 414.299 179.742 414.408C179.404 414.512 178.987 414.564 178.492 414.564C177.971 414.564 177.508 414.473 177.102 414.291C176.701 414.109 176.383 413.833 176.148 413.463C175.919 413.093 175.805 412.624 175.805 412.057C175.805 411.202 176.143 410.546 176.82 410.088C177.497 409.63 178.529 409.38 179.914 409.338L181.391 409.275V408.752C181.391 408.012 181.232 407.494 180.914 407.197C180.596 406.9 180.148 406.752 179.57 406.752C179.122 406.752 178.695 406.817 178.289 406.947C177.883 407.077 177.497 407.231 177.133 407.408L176.734 406.424C177.12 406.226 177.562 406.057 178.062 405.916C178.562 405.775 179.089 405.705 179.641 405.705ZM181.375 410.189L180.07 410.244C179.003 410.286 178.25 410.46 177.812 410.768C177.375 411.075 177.156 411.51 177.156 412.072C177.156 412.562 177.305 412.924 177.602 413.158C177.898 413.393 178.292 413.51 178.781 413.51C179.542 413.51 180.164 413.299 180.648 412.877C181.133 412.455 181.375 411.822 181.375 410.979V410.189ZM186.633 414.408H185.328V402.252H186.633V414.408ZM196.344 414.393L194.82 409.408C194.753 409.195 194.688 408.986 194.625 408.783C194.568 408.575 194.513 408.377 194.461 408.189C194.414 407.997 194.37 407.82 194.328 407.658C194.292 407.492 194.26 407.348 194.234 407.229H194.18C194.159 407.348 194.13 407.492 194.094 407.658C194.057 407.82 194.013 407.997 193.961 408.189C193.914 408.382 193.862 408.585 193.805 408.799C193.747 409.007 193.682 409.218 193.609 409.432L192.016 414.393H190.555L188.195 405.83H189.539L190.773 410.557C190.857 410.869 190.935 411.179 191.008 411.486C191.086 411.788 191.151 412.075 191.203 412.346C191.26 412.611 191.302 412.843 191.328 413.041H191.391C191.422 412.911 191.456 412.755 191.492 412.572C191.534 412.39 191.578 412.197 191.625 411.994C191.677 411.786 191.732 411.58 191.789 411.377C191.846 411.169 191.904 410.973 191.961 410.791L193.539 405.83H194.938L196.461 410.783C196.539 411.033 196.615 411.294 196.688 411.564C196.766 411.835 196.836 412.098 196.898 412.354C196.961 412.604 197.005 412.827 197.031 413.025H197.094C197.115 412.848 197.154 412.63 197.211 412.369C197.268 412.109 197.333 411.822 197.406 411.51C197.484 411.197 197.565 410.88 197.648 410.557L198.898 405.83H200.219L197.852 414.393H196.344ZM204.984 405.705C206.005 405.705 206.763 405.934 207.258 406.393C207.753 406.851 208 407.583 208 408.588V414.408H207.055L206.805 413.143H206.742C206.503 413.455 206.253 413.718 205.992 413.932C205.732 414.14 205.43 414.299 205.086 414.408C204.747 414.512 204.331 414.564 203.836 414.564C203.315 414.564 202.852 414.473 202.445 414.291C202.044 414.109 201.727 413.833 201.492 413.463C201.263 413.093 201.148 412.624 201.148 412.057C201.148 411.202 201.487 410.546 202.164 410.088C202.841 409.63 203.872 409.38 205.258 409.338L206.734 409.275V408.752C206.734 408.012 206.576 407.494 206.258 407.197C205.94 406.9 205.492 406.752 204.914 406.752C204.466 406.752 204.039 406.817 203.633 406.947C203.227 407.077 202.841 407.231 202.477 407.408L202.078 406.424C202.464 406.226 202.906 406.057 203.406 405.916C203.906 405.775 204.432 405.705 204.984 405.705ZM206.719 410.189L205.414 410.244C204.346 410.286 203.594 410.46 203.156 410.768C202.719 411.075 202.5 411.51 202.5 412.072C202.5 412.562 202.648 412.924 202.945 413.158C203.242 413.393 203.635 413.51 204.125 413.51C204.885 413.51 205.508 413.299 205.992 412.877C206.477 412.455 206.719 411.822 206.719 410.979V410.189ZM209.32 405.846H210.711L212.602 410.814C212.711 411.106 212.812 411.387 212.906 411.658C213 411.924 213.083 412.179 213.156 412.424C213.229 412.669 213.286 412.906 213.328 413.135H213.383C213.456 412.874 213.56 412.533 213.695 412.111C213.831 411.684 213.977 411.249 214.133 410.807L215.922 405.846H217.32L213.594 415.666C213.396 416.192 213.164 416.65 212.898 417.041C212.638 417.432 212.32 417.731 211.945 417.939C211.57 418.153 211.117 418.26 210.586 418.26C210.341 418.26 210.125 418.244 209.938 418.213C209.75 418.187 209.589 418.156 209.453 418.119V417.08C209.568 417.106 209.706 417.13 209.867 417.15C210.034 417.171 210.206 417.182 210.383 417.182C210.706 417.182 210.984 417.119 211.219 416.994C211.458 416.874 211.664 416.697 211.836 416.463C212.008 416.229 212.156 415.95 212.281 415.627L212.75 414.424L209.32 405.846ZM224.227 412.064C224.227 412.611 224.089 413.072 223.812 413.447C223.542 413.817 223.151 414.096 222.641 414.283C222.135 414.471 221.531 414.564 220.828 414.564C220.229 414.564 219.711 414.518 219.273 414.424C218.836 414.33 218.453 414.197 218.125 414.025V412.83C218.474 413.002 218.891 413.158 219.375 413.299C219.859 413.439 220.354 413.51 220.859 413.51C221.599 413.51 222.135 413.39 222.469 413.15C222.802 412.911 222.969 412.585 222.969 412.174C222.969 411.939 222.901 411.734 222.766 411.557C222.635 411.374 222.414 411.2 222.102 411.033C221.789 410.861 221.357 410.674 220.805 410.471C220.258 410.262 219.784 410.057 219.383 409.854C218.987 409.645 218.68 409.393 218.461 409.096C218.247 408.799 218.141 408.413 218.141 407.939C218.141 407.215 218.432 406.661 219.016 406.275C219.604 405.885 220.375 405.689 221.328 405.689C221.844 405.689 222.326 405.742 222.773 405.846C223.227 405.945 223.648 406.08 224.039 406.252L223.602 407.291C223.247 407.14 222.87 407.012 222.469 406.908C222.068 406.804 221.659 406.752 221.242 406.752C220.643 406.752 220.182 406.851 219.859 407.049C219.542 407.247 219.383 407.518 219.383 407.861C219.383 408.127 219.456 408.346 219.602 408.518C219.753 408.689 219.992 408.851 220.32 409.002C220.648 409.153 221.081 409.33 221.617 409.533C222.154 409.731 222.617 409.937 223.008 410.15C223.398 410.359 223.698 410.614 223.906 410.916C224.12 411.213 224.227 411.596 224.227 412.064ZM234.359 405.689C234.531 405.689 234.711 405.7 234.898 405.721C235.086 405.736 235.253 405.76 235.398 405.791L235.234 406.994C235.094 406.958 234.938 406.929 234.766 406.908C234.594 406.887 234.432 406.877 234.281 406.877C233.938 406.877 233.612 406.947 233.305 407.088C233.003 407.223 232.737 407.421 232.508 407.682C232.279 407.937 232.099 408.247 231.969 408.611C231.839 408.971 231.773 409.372 231.773 409.814V414.408H230.469V405.846H231.547L231.688 407.424H231.742C231.919 407.106 232.133 406.817 232.383 406.557C232.633 406.291 232.922 406.08 233.25 405.924C233.583 405.768 233.953 405.689 234.359 405.689ZM240.312 405.689C241.042 405.689 241.667 405.851 242.188 406.174C242.708 406.497 243.107 406.95 243.383 407.533C243.659 408.111 243.797 408.788 243.797 409.564V410.369H237.883C237.898 411.374 238.148 412.14 238.633 412.666C239.117 413.192 239.799 413.455 240.68 413.455C241.221 413.455 241.701 413.406 242.117 413.307C242.534 413.208 242.966 413.062 243.414 412.869V414.01C242.982 414.202 242.552 414.343 242.125 414.432C241.703 414.52 241.203 414.564 240.625 414.564C239.802 414.564 239.083 414.398 238.469 414.064C237.859 413.726 237.385 413.231 237.047 412.58C236.708 411.929 236.539 411.132 236.539 410.189C236.539 409.268 236.693 408.471 237 407.799C237.312 407.122 237.75 406.601 238.312 406.236C238.88 405.872 239.547 405.689 240.312 405.689ZM240.297 406.752C239.604 406.752 239.052 406.979 238.641 407.432C238.229 407.885 237.984 408.518 237.906 409.33H242.438C242.432 408.82 242.352 408.372 242.195 407.986C242.044 407.596 241.812 407.294 241.5 407.08C241.188 406.861 240.786 406.752 240.297 406.752ZM249.203 405.705C250.224 405.705 250.982 405.934 251.477 406.393C251.971 406.851 252.219 407.583 252.219 408.588V414.408H251.273L251.023 413.143H250.961C250.721 413.455 250.471 413.718 250.211 413.932C249.951 414.14 249.648 414.299 249.305 414.408C248.966 414.512 248.549 414.564 248.055 414.564C247.534 414.564 247.07 414.473 246.664 414.291C246.263 414.109 245.945 413.833 245.711 413.463C245.482 413.093 245.367 412.624 245.367 412.057C245.367 411.202 245.706 410.546 246.383 410.088C247.06 409.63 248.091 409.38 249.477 409.338L250.953 409.275V408.752C250.953 408.012 250.794 407.494 250.477 407.197C250.159 406.9 249.711 406.752 249.133 406.752C248.685 406.752 248.258 406.817 247.852 406.947C247.445 407.077 247.06 407.231 246.695 407.408L246.297 406.424C246.682 406.226 247.125 406.057 247.625 405.916C248.125 405.775 248.651 405.705 249.203 405.705ZM250.938 410.189L249.633 410.244C248.565 410.286 247.812 410.46 247.375 410.768C246.938 411.075 246.719 411.51 246.719 412.072C246.719 412.562 246.867 412.924 247.164 413.158C247.461 413.393 247.854 413.51 248.344 413.51C249.104 413.51 249.727 413.299 250.211 412.877C250.695 412.455 250.938 411.822 250.938 410.979V410.189ZM257.938 414.564C256.854 414.564 255.995 414.195 255.359 413.455C254.729 412.715 254.414 411.617 254.414 410.158C254.414 408.684 254.737 407.572 255.383 406.822C256.029 406.067 256.888 405.689 257.961 405.689C258.414 405.689 258.81 405.749 259.148 405.869C259.487 405.989 259.779 406.15 260.023 406.354C260.268 406.551 260.474 406.778 260.641 407.033H260.734C260.714 406.872 260.693 406.65 260.672 406.369C260.651 406.088 260.641 405.859 260.641 405.682V402.252H261.938V414.408H260.891L260.695 413.189H260.641C260.479 413.445 260.273 413.676 260.023 413.885C259.779 414.093 259.484 414.26 259.141 414.385C258.802 414.505 258.401 414.564 257.938 414.564ZM258.141 413.486C259.057 413.486 259.706 413.226 260.086 412.705C260.466 412.184 260.656 411.411 260.656 410.385V410.15C260.656 409.062 260.474 408.226 260.109 407.643C259.75 407.059 259.094 406.768 258.141 406.768C257.344 406.768 256.747 407.075 256.352 407.689C255.956 408.299 255.758 409.132 255.758 410.189C255.758 411.242 255.953 412.054 256.344 412.627C256.74 413.2 257.339 413.486 258.141 413.486ZM263.336 405.846H264.727L266.617 410.814C266.727 411.106 266.828 411.387 266.922 411.658C267.016 411.924 267.099 412.179 267.172 412.424C267.245 412.669 267.302 412.906 267.344 413.135H267.398C267.471 412.874 267.576 412.533 267.711 412.111C267.846 411.684 267.992 411.249 268.148 410.807L269.938 405.846H271.336L267.609 415.666C267.411 416.192 267.18 416.65 266.914 417.041C266.654 417.432 266.336 417.731 265.961 417.939C265.586 418.153 265.133 418.26 264.602 418.26C264.357 418.26 264.141 418.244 263.953 418.213C263.766 418.187 263.604 418.156 263.469 418.119V417.08C263.583 417.106 263.721 417.13 263.883 417.15C264.049 417.171 264.221 417.182 264.398 417.182C264.721 417.182 265 417.119 265.234 416.994C265.474 416.874 265.68 416.697 265.852 416.463C266.023 416.229 266.172 415.95 266.297 415.627L266.766 414.424L263.336 405.846ZM280.672 406.861H278.539V414.408H277.242V406.861H275.727V406.236L277.242 405.807V405.236C277.242 404.518 277.349 403.934 277.562 403.486C277.776 403.033 278.086 402.7 278.492 402.486C278.898 402.273 279.393 402.166 279.977 402.166C280.305 402.166 280.604 402.195 280.875 402.252C281.151 402.309 281.393 402.374 281.602 402.447L281.266 403.471C281.089 403.413 280.888 403.361 280.664 403.314C280.445 403.262 280.221 403.236 279.992 403.236C279.497 403.236 279.13 403.398 278.891 403.721C278.656 404.038 278.539 404.538 278.539 405.221V405.846H280.672V406.861ZM289.633 410.111C289.633 410.814 289.542 411.442 289.359 411.994C289.177 412.546 288.914 413.012 288.57 413.393C288.227 413.773 287.81 414.064 287.32 414.268C286.836 414.465 286.286 414.564 285.672 414.564C285.099 414.564 284.573 414.465 284.094 414.268C283.62 414.064 283.208 413.773 282.859 413.393C282.516 413.012 282.247 412.546 282.055 411.994C281.867 411.442 281.773 410.814 281.773 410.111C281.773 409.174 281.932 408.377 282.25 407.721C282.568 407.059 283.021 406.557 283.609 406.213C284.203 405.864 284.909 405.689 285.727 405.689C286.508 405.689 287.19 405.864 287.773 406.213C288.362 406.562 288.818 407.067 289.141 407.729C289.469 408.385 289.633 409.179 289.633 410.111ZM283.117 410.111C283.117 410.799 283.208 411.395 283.391 411.9C283.573 412.406 283.854 412.796 284.234 413.072C284.615 413.348 285.104 413.486 285.703 413.486C286.297 413.486 286.784 413.348 287.164 413.072C287.549 412.796 287.833 412.406 288.016 411.9C288.198 411.395 288.289 410.799 288.289 410.111C288.289 409.429 288.198 408.84 288.016 408.346C287.833 407.846 287.552 407.46 287.172 407.189C286.792 406.919 286.299 406.783 285.695 406.783C284.805 406.783 284.151 407.077 283.734 407.666C283.323 408.255 283.117 409.07 283.117 410.111ZM295.766 405.689C295.938 405.689 296.117 405.7 296.305 405.721C296.492 405.736 296.659 405.76 296.805 405.791L296.641 406.994C296.5 406.958 296.344 406.929 296.172 406.908C296 406.887 295.839 406.877 295.688 406.877C295.344 406.877 295.018 406.947 294.711 407.088C294.409 407.223 294.143 407.421 293.914 407.682C293.685 407.937 293.505 408.247 293.375 408.611C293.245 408.971 293.18 409.372 293.18 409.814V414.408H291.875V405.846H292.953L293.094 407.424H293.148C293.326 407.106 293.539 406.817 293.789 406.557C294.039 406.291 294.328 406.08 294.656 405.924C294.99 405.768 295.359 405.689 295.766 405.689ZM305.781 405.705C306.802 405.705 307.56 405.934 308.055 406.393C308.549 406.851 308.797 407.583 308.797 408.588V414.408H307.852L307.602 413.143H307.539C307.299 413.455 307.049 413.718 306.789 413.932C306.529 414.14 306.227 414.299 305.883 414.408C305.544 414.512 305.128 414.564 304.633 414.564C304.112 414.564 303.648 414.473 303.242 414.291C302.841 414.109 302.523 413.833 302.289 413.463C302.06 413.093 301.945 412.624 301.945 412.057C301.945 411.202 302.284 410.546 302.961 410.088C303.638 409.63 304.669 409.38 306.055 409.338L307.531 409.275V408.752C307.531 408.012 307.372 407.494 307.055 407.197C306.737 406.9 306.289 406.752 305.711 406.752C305.263 406.752 304.836 406.817 304.43 406.947C304.023 407.077 303.638 407.231 303.273 407.408L302.875 406.424C303.26 406.226 303.703 406.057 304.203 405.916C304.703 405.775 305.229 405.705 305.781 405.705ZM307.516 410.189L306.211 410.244C305.143 410.286 304.391 410.46 303.953 410.768C303.516 411.075 303.297 411.51 303.297 412.072C303.297 412.562 303.445 412.924 303.742 413.158C304.039 413.393 304.432 413.51 304.922 413.51C305.682 413.51 306.305 413.299 306.789 412.877C307.273 412.455 307.516 411.822 307.516 410.979V410.189ZM64.1328 442.236V438.564C64.1328 438.361 64.138 438.127 64.1484 437.861C64.1589 437.596 64.1771 437.367 64.2031 437.174H64.1172C63.8776 437.57 63.5365 437.9 63.0938 438.166C62.651 438.432 62.0807 438.564 61.3828 438.564C60.3359 438.564 59.4948 438.195 58.8594 437.455C58.224 436.715 57.9062 435.611 57.9062 434.143C57.9062 433.179 58.0521 432.367 58.3438 431.705C58.6354 431.044 59.0469 430.544 59.5781 430.205C60.1146 429.861 60.7396 429.689 61.4531 429.689C62.1354 429.689 62.6927 429.825 63.125 430.096C63.5573 430.361 63.8958 430.687 64.1406 431.072H64.2031L64.3984 429.846H65.4297V442.236H64.1328ZM61.625 437.486C62.2292 437.486 62.7135 437.374 63.0781 437.15C63.4427 436.921 63.7083 436.577 63.875 436.119C64.0469 435.661 64.138 435.09 64.1484 434.408V434.135C64.1484 433.031 63.9609 432.195 63.5859 431.627C63.2109 431.054 62.5573 430.768 61.625 430.768C60.8229 430.768 60.2266 431.075 59.8359 431.689C59.4453 432.299 59.25 433.127 59.25 434.174C59.25 435.221 59.4453 436.036 59.8359 436.619C60.2266 437.197 60.8229 437.486 61.625 437.486ZM75.2578 429.846V438.408H74.1953L74.0078 437.205H73.9375C73.7604 437.502 73.5312 437.752 73.25 437.955C72.9688 438.158 72.651 438.309 72.2969 438.408C71.9479 438.512 71.5755 438.564 71.1797 438.564C70.5026 438.564 69.9349 438.455 69.4766 438.236C69.0182 438.018 68.6719 437.679 68.4375 437.221C68.2083 436.762 68.0938 436.174 68.0938 435.455V429.846H69.4062V435.361C69.4062 436.075 69.5677 436.609 69.8906 436.963C70.2135 437.312 70.7057 437.486 71.3672 437.486C72.0026 437.486 72.5078 437.367 72.8828 437.127C73.263 436.887 73.5365 436.536 73.7031 436.072C73.8698 435.604 73.9531 435.031 73.9531 434.354V429.846H75.2578ZM79.2969 429.846V438.408H78V429.846H79.2969ZM78.6641 426.643C78.8776 426.643 79.0599 426.713 79.2109 426.854C79.3672 426.989 79.4453 427.202 79.4453 427.494C79.4453 427.781 79.3672 427.994 79.2109 428.135C79.0599 428.275 78.8776 428.346 78.6641 428.346C78.4401 428.346 78.2526 428.275 78.1016 428.135C77.9557 427.994 77.8828 427.781 77.8828 427.494C77.8828 427.202 77.9557 426.989 78.1016 426.854C78.2526 426.713 78.4401 426.643 78.6641 426.643ZM85.3438 429.689C86.0729 429.689 86.6979 429.851 87.2188 430.174C87.7396 430.497 88.138 430.95 88.4141 431.533C88.6901 432.111 88.8281 432.788 88.8281 433.564V434.369H82.9141C82.9297 435.374 83.1797 436.14 83.6641 436.666C84.1484 437.192 84.8307 437.455 85.7109 437.455C86.2526 437.455 86.7318 437.406 87.1484 437.307C87.5651 437.208 87.9974 437.062 88.4453 436.869V438.01C88.013 438.202 87.5833 438.343 87.1562 438.432C86.7344 438.52 86.2344 438.564 85.6562 438.564C84.8333 438.564 84.1146 438.398 83.5 438.064C82.8906 437.726 82.4167 437.231 82.0781 436.58C81.7396 435.929 81.5703 435.132 81.5703 434.189C81.5703 433.268 81.724 432.471 82.0312 431.799C82.3438 431.122 82.7812 430.601 83.3438 430.236C83.9115 429.872 84.5781 429.689 85.3438 429.689ZM85.3281 430.752C84.6354 430.752 84.0833 430.979 83.6719 431.432C83.2604 431.885 83.0156 432.518 82.9375 433.33H87.4688C87.4635 432.82 87.3828 432.372 87.2266 431.986C87.0755 431.596 86.8438 431.294 86.5312 431.08C86.2188 430.861 85.8177 430.752 85.3281 430.752ZM93.7969 437.502C94.0104 437.502 94.2292 437.484 94.4531 437.447C94.6771 437.411 94.8594 437.367 95 437.314V438.322C94.849 438.39 94.638 438.447 94.3672 438.494C94.1016 438.541 93.8411 438.564 93.5859 438.564C93.1328 438.564 92.7214 438.486 92.3516 438.33C91.9818 438.169 91.6849 437.898 91.4609 437.518C91.2422 437.137 91.1328 436.611 91.1328 435.939V430.861H89.9141V430.229L91.1406 429.721L91.6562 427.861H92.4375V429.846H94.9453V430.861H92.4375V435.9C92.4375 436.437 92.5599 436.838 92.8047 437.104C93.0547 437.369 93.3854 437.502 93.7969 437.502ZM104.945 429.689C105.961 429.689 106.729 429.939 107.25 430.439C107.771 430.934 108.031 431.731 108.031 432.83V438.408H106.75V432.916C106.75 432.202 106.586 431.669 106.258 431.314C105.935 430.96 105.438 430.783 104.766 430.783C103.818 430.783 103.151 431.051 102.766 431.588C102.38 432.124 102.188 432.903 102.188 433.924V438.408H100.891V429.846H101.938L102.133 431.08H102.203C102.385 430.778 102.617 430.525 102.898 430.322C103.18 430.114 103.495 429.958 103.844 429.854C104.193 429.744 104.56 429.689 104.945 429.689ZM113.906 429.705C114.927 429.705 115.685 429.934 116.18 430.393C116.674 430.851 116.922 431.583 116.922 432.588V438.408H115.977L115.727 437.143H115.664C115.424 437.455 115.174 437.718 114.914 437.932C114.654 438.14 114.352 438.299 114.008 438.408C113.669 438.512 113.253 438.564 112.758 438.564C112.237 438.564 111.773 438.473 111.367 438.291C110.966 438.109 110.648 437.833 110.414 437.463C110.185 437.093 110.07 436.624 110.07 436.057C110.07 435.202 110.409 434.546 111.086 434.088C111.763 433.63 112.794 433.38 114.18 433.338L115.656 433.275V432.752C115.656 432.012 115.497 431.494 115.18 431.197C114.862 430.9 114.414 430.752 113.836 430.752C113.388 430.752 112.961 430.817 112.555 430.947C112.148 431.077 111.763 431.231 111.398 431.408L111 430.424C111.385 430.226 111.828 430.057 112.328 429.916C112.828 429.775 113.354 429.705 113.906 429.705ZM115.641 434.189L114.336 434.244C113.268 434.286 112.516 434.46 112.078 434.768C111.641 435.075 111.422 435.51 111.422 436.072C111.422 436.562 111.57 436.924 111.867 437.158C112.164 437.393 112.557 437.51 113.047 437.51C113.807 437.51 114.43 437.299 114.914 436.877C115.398 436.455 115.641 435.822 115.641 434.979V434.189ZM123.617 429.689C124.685 429.689 125.536 430.057 126.172 430.791C126.807 431.525 127.125 432.63 127.125 434.104C127.125 435.077 126.979 435.895 126.688 436.557C126.396 437.218 125.984 437.718 125.453 438.057C124.927 438.395 124.305 438.564 123.586 438.564C123.133 438.564 122.734 438.505 122.391 438.385C122.047 438.265 121.753 438.104 121.508 437.9C121.263 437.697 121.06 437.476 120.898 437.236H120.805C120.82 437.439 120.839 437.684 120.859 437.971C120.885 438.257 120.898 438.507 120.898 438.721V442.236H119.594V429.846H120.664L120.836 431.111H120.898C121.065 430.851 121.268 430.614 121.508 430.4C121.747 430.182 122.039 430.01 122.383 429.885C122.732 429.755 123.143 429.689 123.617 429.689ZM123.391 430.783C122.797 430.783 122.318 430.898 121.953 431.127C121.594 431.356 121.331 431.7 121.164 432.158C120.997 432.611 120.909 433.182 120.898 433.869V434.119C120.898 434.843 120.977 435.455 121.133 435.955C121.294 436.455 121.557 436.835 121.922 437.096C122.292 437.356 122.786 437.486 123.406 437.486C123.938 437.486 124.38 437.343 124.734 437.057C125.089 436.77 125.352 436.372 125.523 435.861C125.701 435.346 125.789 434.755 125.789 434.088C125.789 433.077 125.591 432.275 125.195 431.682C124.805 431.083 124.203 430.783 123.391 430.783ZM129.195 437.596C129.195 437.231 129.284 436.973 129.461 436.822C129.638 436.666 129.854 436.588 130.109 436.588C130.375 436.588 130.599 436.666 130.781 436.822C130.964 436.973 131.055 437.231 131.055 437.596C131.055 437.955 130.964 438.218 130.781 438.385C130.599 438.546 130.375 438.627 130.109 438.627C129.854 438.627 129.638 438.546 129.461 438.385C129.284 438.218 129.195 437.955 129.195 437.596ZM137.945 438.408V426.986H139.273V437.221H144.344V438.408H137.945ZM153.492 434.111C153.492 434.814 153.401 435.442 153.219 435.994C153.036 436.546 152.773 437.012 152.43 437.393C152.086 437.773 151.669 438.064 151.18 438.268C150.695 438.465 150.146 438.564 149.531 438.564C148.958 438.564 148.432 438.465 147.953 438.268C147.479 438.064 147.068 437.773 146.719 437.393C146.375 437.012 146.107 436.546 145.914 435.994C145.727 435.442 145.633 434.814 145.633 434.111C145.633 433.174 145.792 432.377 146.109 431.721C146.427 431.059 146.88 430.557 147.469 430.213C148.062 429.864 148.768 429.689 149.586 429.689C150.367 429.689 151.049 429.864 151.633 430.213C152.221 430.562 152.677 431.067 153 431.729C153.328 432.385 153.492 433.179 153.492 434.111ZM146.977 434.111C146.977 434.799 147.068 435.395 147.25 435.9C147.432 436.406 147.714 436.796 148.094 437.072C148.474 437.348 148.964 437.486 149.562 437.486C150.156 437.486 150.643 437.348 151.023 437.072C151.409 436.796 151.693 436.406 151.875 435.9C152.057 435.395 152.148 434.799 152.148 434.111C152.148 433.429 152.057 432.84 151.875 432.346C151.693 431.846 151.411 431.46 151.031 431.189C150.651 430.919 150.159 430.783 149.555 430.783C148.664 430.783 148.01 431.077 147.594 431.666C147.182 432.255 146.977 433.07 146.977 434.111ZM157.617 438.408L154.367 429.846H155.758L157.641 435.025C157.771 435.38 157.904 435.77 158.039 436.197C158.174 436.624 158.268 436.968 158.32 437.229H158.375C158.438 436.968 158.542 436.624 158.688 436.197C158.833 435.765 158.966 435.374 159.086 435.025L160.969 429.846H162.359L159.102 438.408H157.617ZM167.031 429.689C167.76 429.689 168.385 429.851 168.906 430.174C169.427 430.497 169.826 430.95 170.102 431.533C170.378 432.111 170.516 432.788 170.516 433.564V434.369H164.602C164.617 435.374 164.867 436.14 165.352 436.666C165.836 437.192 166.518 437.455 167.398 437.455C167.94 437.455 168.419 437.406 168.836 437.307C169.253 437.208 169.685 437.062 170.133 436.869V438.01C169.701 438.202 169.271 438.343 168.844 438.432C168.422 438.52 167.922 438.564 167.344 438.564C166.521 438.564 165.802 438.398 165.188 438.064C164.578 437.726 164.104 437.231 163.766 436.58C163.427 435.929 163.258 435.132 163.258 434.189C163.258 433.268 163.411 432.471 163.719 431.799C164.031 431.122 164.469 430.601 165.031 430.236C165.599 429.872 166.266 429.689 167.031 429.689ZM167.016 430.752C166.323 430.752 165.771 430.979 165.359 431.432C164.948 431.885 164.703 432.518 164.625 433.33H169.156C169.151 432.82 169.07 432.372 168.914 431.986C168.763 431.596 168.531 431.294 168.219 431.08C167.906 430.861 167.505 430.752 167.016 430.752ZM178.258 436.064C178.258 436.611 178.12 437.072 177.844 437.447C177.573 437.817 177.182 438.096 176.672 438.283C176.167 438.471 175.562 438.564 174.859 438.564C174.26 438.564 173.742 438.518 173.305 438.424C172.867 438.33 172.484 438.197 172.156 438.025V436.83C172.505 437.002 172.922 437.158 173.406 437.299C173.891 437.439 174.385 437.51 174.891 437.51C175.63 437.51 176.167 437.39 176.5 437.15C176.833 436.911 177 436.585 177 436.174C177 435.939 176.932 435.734 176.797 435.557C176.667 435.374 176.445 435.2 176.133 435.033C175.82 434.861 175.388 434.674 174.836 434.471C174.289 434.262 173.815 434.057 173.414 433.854C173.018 433.645 172.711 433.393 172.492 433.096C172.279 432.799 172.172 432.413 172.172 431.939C172.172 431.215 172.464 430.661 173.047 430.275C173.635 429.885 174.406 429.689 175.359 429.689C175.875 429.689 176.357 429.742 176.805 429.846C177.258 429.945 177.68 430.08 178.07 430.252L177.633 431.291C177.279 431.14 176.901 431.012 176.5 430.908C176.099 430.804 175.69 430.752 175.273 430.752C174.674 430.752 174.214 430.851 173.891 431.049C173.573 431.247 173.414 431.518 173.414 431.861C173.414 432.127 173.487 432.346 173.633 432.518C173.784 432.689 174.023 432.851 174.352 433.002C174.68 433.153 175.112 433.33 175.648 433.533C176.185 433.731 176.648 433.937 177.039 434.15C177.43 434.359 177.729 434.614 177.938 434.916C178.151 435.213 178.258 435.596 178.258 436.064ZM190.039 436.064C190.039 436.611 189.901 437.072 189.625 437.447C189.354 437.817 188.964 438.096 188.453 438.283C187.948 438.471 187.344 438.564 186.641 438.564C186.042 438.564 185.523 438.518 185.086 438.424C184.648 438.33 184.266 438.197 183.938 438.025V436.83C184.286 437.002 184.703 437.158 185.188 437.299C185.672 437.439 186.167 437.51 186.672 437.51C187.411 437.51 187.948 437.39 188.281 437.15C188.615 436.911 188.781 436.585 188.781 436.174C188.781 435.939 188.714 435.734 188.578 435.557C188.448 435.374 188.227 435.2 187.914 435.033C187.602 434.861 187.169 434.674 186.617 434.471C186.07 434.262 185.596 434.057 185.195 433.854C184.799 433.645 184.492 433.393 184.273 433.096C184.06 432.799 183.953 432.413 183.953 431.939C183.953 431.215 184.245 430.661 184.828 430.275C185.417 429.885 186.188 429.689 187.141 429.689C187.656 429.689 188.138 429.742 188.586 429.846C189.039 429.945 189.461 430.08 189.852 430.252L189.414 431.291C189.06 431.14 188.682 431.012 188.281 430.908C187.88 430.804 187.471 430.752 187.055 430.752C186.456 430.752 185.995 430.851 185.672 431.049C185.354 431.247 185.195 431.518 185.195 431.861C185.195 432.127 185.268 432.346 185.414 432.518C185.565 432.689 185.805 432.851 186.133 433.002C186.461 433.153 186.893 433.33 187.43 433.533C187.966 433.731 188.43 433.937 188.82 434.15C189.211 434.359 189.51 434.614 189.719 434.916C189.932 435.213 190.039 435.596 190.039 436.064ZM199.508 434.111C199.508 434.814 199.417 435.442 199.234 435.994C199.052 436.546 198.789 437.012 198.445 437.393C198.102 437.773 197.685 438.064 197.195 438.268C196.711 438.465 196.161 438.564 195.547 438.564C194.974 438.564 194.448 438.465 193.969 438.268C193.495 438.064 193.083 437.773 192.734 437.393C192.391 437.012 192.122 436.546 191.93 435.994C191.742 435.442 191.648 434.814 191.648 434.111C191.648 433.174 191.807 432.377 192.125 431.721C192.443 431.059 192.896 430.557 193.484 430.213C194.078 429.864 194.784 429.689 195.602 429.689C196.383 429.689 197.065 429.864 197.648 430.213C198.237 430.562 198.693 431.067 199.016 431.729C199.344 432.385 199.508 433.179 199.508 434.111ZM192.992 434.111C192.992 434.799 193.083 435.395 193.266 435.9C193.448 436.406 193.729 436.796 194.109 437.072C194.49 437.348 194.979 437.486 195.578 437.486C196.172 437.486 196.659 437.348 197.039 437.072C197.424 436.796 197.708 436.406 197.891 435.9C198.073 435.395 198.164 434.799 198.164 434.111C198.164 433.429 198.073 432.84 197.891 432.346C197.708 431.846 197.427 431.46 197.047 431.189C196.667 430.919 196.174 430.783 195.57 430.783C194.68 430.783 194.026 431.077 193.609 431.666C193.198 432.255 192.992 433.07 192.992 434.111ZM205.562 430.861H203.43V438.408H202.133V430.861H200.617V430.236L202.133 429.807V429.236C202.133 428.518 202.24 427.934 202.453 427.486C202.667 427.033 202.977 426.7 203.383 426.486C203.789 426.273 204.284 426.166 204.867 426.166C205.195 426.166 205.495 426.195 205.766 426.252C206.042 426.309 206.284 426.374 206.492 426.447L206.156 427.471C205.979 427.413 205.779 427.361 205.555 427.314C205.336 427.262 205.112 427.236 204.883 427.236C204.388 427.236 204.021 427.398 203.781 427.721C203.547 428.038 203.43 428.538 203.43 429.221V429.846H205.562V430.861ZM209.906 437.502C210.12 437.502 210.339 437.484 210.562 437.447C210.786 437.411 210.969 437.367 211.109 437.314V438.322C210.958 438.39 210.747 438.447 210.477 438.494C210.211 438.541 209.951 438.564 209.695 438.564C209.242 438.564 208.831 438.486 208.461 438.33C208.091 438.169 207.794 437.898 207.57 437.518C207.352 437.137 207.242 436.611 207.242 435.939V430.861H206.023V430.229L207.25 429.721L207.766 427.861H208.547V429.846H211.055V430.861H208.547V435.9C208.547 436.437 208.669 436.838 208.914 437.104C209.164 437.369 209.495 437.502 209.906 437.502ZM223.969 438.393L222.445 433.408C222.378 433.195 222.312 432.986 222.25 432.783C222.193 432.575 222.138 432.377 222.086 432.189C222.039 431.997 221.995 431.82 221.953 431.658C221.917 431.492 221.885 431.348 221.859 431.229H221.805C221.784 431.348 221.755 431.492 221.719 431.658C221.682 431.82 221.638 431.997 221.586 432.189C221.539 432.382 221.487 432.585 221.43 432.799C221.372 433.007 221.307 433.218 221.234 433.432L219.641 438.393H218.18L215.82 429.83H217.164L218.398 434.557C218.482 434.869 218.56 435.179 218.633 435.486C218.711 435.788 218.776 436.075 218.828 436.346C218.885 436.611 218.927 436.843 218.953 437.041H219.016C219.047 436.911 219.081 436.755 219.117 436.572C219.159 436.39 219.203 436.197 219.25 435.994C219.302 435.786 219.357 435.58 219.414 435.377C219.471 435.169 219.529 434.973 219.586 434.791L221.164 429.83H222.562L224.086 434.783C224.164 435.033 224.24 435.294 224.312 435.564C224.391 435.835 224.461 436.098 224.523 436.354C224.586 436.604 224.63 436.827 224.656 437.025H224.719C224.74 436.848 224.779 436.63 224.836 436.369C224.893 436.109 224.958 435.822 225.031 435.51C225.109 435.197 225.19 434.88 225.273 434.557L226.523 429.83H227.844L225.477 438.393H223.969ZM232.703 429.689C233.432 429.689 234.057 429.851 234.578 430.174C235.099 430.497 235.497 430.95 235.773 431.533C236.049 432.111 236.188 432.788 236.188 433.564V434.369H230.273C230.289 435.374 230.539 436.14 231.023 436.666C231.508 437.192 232.19 437.455 233.07 437.455C233.612 437.455 234.091 437.406 234.508 437.307C234.924 437.208 235.357 437.062 235.805 436.869V438.01C235.372 438.202 234.943 438.343 234.516 438.432C234.094 438.52 233.594 438.564 233.016 438.564C232.193 438.564 231.474 438.398 230.859 438.064C230.25 437.726 229.776 437.231 229.438 436.58C229.099 435.929 228.93 435.132 228.93 434.189C228.93 433.268 229.083 432.471 229.391 431.799C229.703 431.122 230.141 430.601 230.703 430.236C231.271 429.872 231.938 429.689 232.703 429.689ZM232.688 430.752C231.995 430.752 231.443 430.979 231.031 431.432C230.62 431.885 230.375 432.518 230.297 433.33H234.828C234.823 432.82 234.742 432.372 234.586 431.986C234.435 431.596 234.203 431.294 233.891 431.08C233.578 430.861 233.177 430.752 232.688 430.752ZM241.156 437.502C241.37 437.502 241.589 437.484 241.812 437.447C242.036 437.411 242.219 437.367 242.359 437.314V438.322C242.208 438.39 241.997 438.447 241.727 438.494C241.461 438.541 241.201 438.564 240.945 438.564C240.492 438.564 240.081 438.486 239.711 438.33C239.341 438.169 239.044 437.898 238.82 437.518C238.602 437.137 238.492 436.611 238.492 435.939V430.861H237.273V430.229L238.5 429.721L239.016 427.861H239.797V429.846H242.305V430.861H239.797V435.9C239.797 436.437 239.919 436.838 240.164 437.104C240.414 437.369 240.745 437.502 241.156 437.502ZM252.062 430.861H249.93V438.408H248.633V430.861H247.117V430.236L248.633 429.807V429.236C248.633 428.518 248.74 427.934 248.953 427.486C249.167 427.033 249.477 426.7 249.883 426.486C250.289 426.273 250.784 426.166 251.367 426.166C251.695 426.166 251.995 426.195 252.266 426.252C252.542 426.309 252.784 426.374 252.992 426.447L252.656 427.471C252.479 427.413 252.279 427.361 252.055 427.314C251.836 427.262 251.612 427.236 251.383 427.236C250.888 427.236 250.521 427.398 250.281 427.721C250.047 428.038 249.93 428.538 249.93 429.221V429.846H252.062V430.861ZM261.023 434.111C261.023 434.814 260.932 435.442 260.75 435.994C260.568 436.546 260.305 437.012 259.961 437.393C259.617 437.773 259.201 438.064 258.711 438.268C258.227 438.465 257.677 438.564 257.062 438.564C256.49 438.564 255.964 438.465 255.484 438.268C255.01 438.064 254.599 437.773 254.25 437.393C253.906 437.012 253.638 436.546 253.445 435.994C253.258 435.442 253.164 434.814 253.164 434.111C253.164 433.174 253.323 432.377 253.641 431.721C253.958 431.059 254.411 430.557 255 430.213C255.594 429.864 256.299 429.689 257.117 429.689C257.898 429.689 258.581 429.864 259.164 430.213C259.753 430.562 260.208 431.067 260.531 431.729C260.859 432.385 261.023 433.179 261.023 434.111ZM254.508 434.111C254.508 434.799 254.599 435.395 254.781 435.9C254.964 436.406 255.245 436.796 255.625 437.072C256.005 437.348 256.495 437.486 257.094 437.486C257.688 437.486 258.174 437.348 258.555 437.072C258.94 436.796 259.224 436.406 259.406 435.9C259.589 435.395 259.68 434.799 259.68 434.111C259.68 433.429 259.589 432.84 259.406 432.346C259.224 431.846 258.943 431.46 258.562 431.189C258.182 430.919 257.69 430.783 257.086 430.783C256.195 430.783 255.542 431.077 255.125 431.666C254.714 432.255 254.508 433.07 254.508 434.111ZM270.648 434.111C270.648 434.814 270.557 435.442 270.375 435.994C270.193 436.546 269.93 437.012 269.586 437.393C269.242 437.773 268.826 438.064 268.336 438.268C267.852 438.465 267.302 438.564 266.688 438.564C266.115 438.564 265.589 438.465 265.109 438.268C264.635 438.064 264.224 437.773 263.875 437.393C263.531 437.012 263.263 436.546 263.07 435.994C262.883 435.442 262.789 434.814 262.789 434.111C262.789 433.174 262.948 432.377 263.266 431.721C263.583 431.059 264.036 430.557 264.625 430.213C265.219 429.864 265.924 429.689 266.742 429.689C267.523 429.689 268.206 429.864 268.789 430.213C269.378 430.562 269.833 431.067 270.156 431.729C270.484 432.385 270.648 433.179 270.648 434.111ZM264.133 434.111C264.133 434.799 264.224 435.395 264.406 435.9C264.589 436.406 264.87 436.796 265.25 437.072C265.63 437.348 266.12 437.486 266.719 437.486C267.312 437.486 267.799 437.348 268.18 437.072C268.565 436.796 268.849 436.406 269.031 435.9C269.214 435.395 269.305 434.799 269.305 434.111C269.305 433.429 269.214 432.84 269.031 432.346C268.849 431.846 268.568 431.46 268.188 431.189C267.807 430.919 267.315 430.783 266.711 430.783C265.82 430.783 265.167 431.077 264.75 431.666C264.339 432.255 264.133 433.07 264.133 434.111ZM275.938 438.564C274.854 438.564 273.995 438.195 273.359 437.455C272.729 436.715 272.414 435.617 272.414 434.158C272.414 432.684 272.737 431.572 273.383 430.822C274.029 430.067 274.888 429.689 275.961 429.689C276.414 429.689 276.81 429.749 277.148 429.869C277.487 429.989 277.779 430.15 278.023 430.354C278.268 430.551 278.474 430.778 278.641 431.033H278.734C278.714 430.872 278.693 430.65 278.672 430.369C278.651 430.088 278.641 429.859 278.641 429.682V426.252H279.938V438.408H278.891L278.695 437.189H278.641C278.479 437.445 278.273 437.676 278.023 437.885C277.779 438.093 277.484 438.26 277.141 438.385C276.802 438.505 276.401 438.564 275.938 438.564ZM276.141 437.486C277.057 437.486 277.706 437.226 278.086 436.705C278.466 436.184 278.656 435.411 278.656 434.385V434.15C278.656 433.062 278.474 432.226 278.109 431.643C277.75 431.059 277.094 430.768 276.141 430.768C275.344 430.768 274.747 431.075 274.352 431.689C273.956 432.299 273.758 433.132 273.758 434.189C273.758 435.242 273.953 436.054 274.344 436.627C274.74 437.2 275.339 437.486 276.141 437.486ZM290.047 429.705C291.068 429.705 291.826 429.934 292.32 430.393C292.815 430.851 293.062 431.583 293.062 432.588V438.408H292.117L291.867 437.143H291.805C291.565 437.455 291.315 437.718 291.055 437.932C290.794 438.14 290.492 438.299 290.148 438.408C289.81 438.512 289.393 438.564 288.898 438.564C288.378 438.564 287.914 438.473 287.508 438.291C287.107 438.109 286.789 437.833 286.555 437.463C286.326 437.093 286.211 436.624 286.211 436.057C286.211 435.202 286.549 434.546 287.227 434.088C287.904 433.63 288.935 433.38 290.32 433.338L291.797 433.275V432.752C291.797 432.012 291.638 431.494 291.32 431.197C291.003 430.9 290.555 430.752 289.977 430.752C289.529 430.752 289.102 430.817 288.695 430.947C288.289 431.077 287.904 431.231 287.539 431.408L287.141 430.424C287.526 430.226 287.969 430.057 288.469 429.916C288.969 429.775 289.495 429.705 290.047 429.705ZM291.781 434.189L290.477 434.244C289.409 434.286 288.656 434.46 288.219 434.768C287.781 435.075 287.562 435.51 287.562 436.072C287.562 436.562 287.711 436.924 288.008 437.158C288.305 437.393 288.698 437.51 289.188 437.51C289.948 437.51 290.57 437.299 291.055 436.877C291.539 436.455 291.781 435.822 291.781 434.979V434.189ZM299.789 429.689C300.805 429.689 301.573 429.939 302.094 430.439C302.615 430.934 302.875 431.731 302.875 432.83V438.408H301.594V432.916C301.594 432.202 301.43 431.669 301.102 431.314C300.779 430.96 300.281 430.783 299.609 430.783C298.661 430.783 297.995 431.051 297.609 431.588C297.224 432.124 297.031 432.903 297.031 433.924V438.408H295.734V429.846H296.781L296.977 431.08H297.047C297.229 430.778 297.461 430.525 297.742 430.322C298.023 430.114 298.339 429.958 298.688 429.854C299.036 429.744 299.404 429.689 299.789 429.689ZM308.594 438.564C307.51 438.564 306.651 438.195 306.016 437.455C305.385 436.715 305.07 435.617 305.07 434.158C305.07 432.684 305.393 431.572 306.039 430.822C306.685 430.067 307.544 429.689 308.617 429.689C309.07 429.689 309.466 429.749 309.805 429.869C310.143 429.989 310.435 430.15 310.68 430.354C310.924 430.551 311.13 430.778 311.297 431.033H311.391C311.37 430.872 311.349 430.65 311.328 430.369C311.307 430.088 311.297 429.859 311.297 429.682V426.252H312.594V438.408H311.547L311.352 437.189H311.297C311.135 437.445 310.93 437.676 310.68 437.885C310.435 438.093 310.141 438.26 309.797 438.385C309.458 438.505 309.057 438.564 308.594 438.564ZM308.797 437.486C309.714 437.486 310.362 437.226 310.742 436.705C311.122 436.184 311.312 435.411 311.312 434.385V434.15C311.312 433.062 311.13 432.226 310.766 431.643C310.406 431.059 309.75 430.768 308.797 430.768C308 430.768 307.404 431.075 307.008 431.689C306.612 432.299 306.414 433.132 306.414 434.189C306.414 435.242 306.609 436.054 307 436.627C307.396 437.2 307.995 437.486 308.797 437.486ZM125.359 466.252C124.234 466.252 123.367 466.041 122.758 465.619C122.148 465.202 121.844 464.617 121.844 463.861C121.844 463.325 122.013 462.867 122.352 462.486C122.695 462.106 123.169 461.854 123.773 461.729C123.549 461.624 123.357 461.468 123.195 461.26C123.039 461.051 122.961 460.812 122.961 460.541C122.961 460.229 123.047 459.955 123.219 459.721C123.396 459.481 123.664 459.252 124.023 459.033C123.576 458.851 123.211 458.544 122.93 458.111C122.654 457.674 122.516 457.166 122.516 456.588C122.516 455.973 122.643 455.45 122.898 455.018C123.154 454.58 123.523 454.247 124.008 454.018C124.492 453.788 125.078 453.674 125.766 453.674C125.917 453.674 126.068 453.682 126.219 453.697C126.375 453.708 126.523 453.726 126.664 453.752C126.805 453.773 126.927 453.799 127.031 453.83H129.969V454.666L128.391 454.861C128.547 455.064 128.677 455.309 128.781 455.596C128.885 455.882 128.938 456.2 128.938 456.549C128.938 457.403 128.648 458.083 128.07 458.588C127.492 459.088 126.698 459.338 125.688 459.338C125.448 459.338 125.203 459.317 124.953 459.275C124.698 459.416 124.503 459.572 124.367 459.744C124.237 459.916 124.172 460.114 124.172 460.338C124.172 460.505 124.221 460.637 124.32 460.736C124.424 460.835 124.573 460.908 124.766 460.955C124.958 460.997 125.19 461.018 125.461 461.018H126.969C127.901 461.018 128.615 461.213 129.109 461.604C129.609 461.994 129.859 462.564 129.859 463.314C129.859 464.262 129.474 464.989 128.703 465.494C127.932 465.999 126.818 466.252 125.359 466.252ZM125.398 465.236C126.107 465.236 126.693 465.163 127.156 465.018C127.625 464.877 127.974 464.671 128.203 464.4C128.438 464.135 128.555 463.817 128.555 463.447C128.555 463.104 128.477 462.843 128.32 462.666C128.164 462.494 127.935 462.38 127.633 462.322C127.331 462.26 126.961 462.229 126.523 462.229H125.039C124.654 462.229 124.318 462.288 124.031 462.408C123.745 462.528 123.523 462.705 123.367 462.939C123.216 463.174 123.141 463.465 123.141 463.814C123.141 464.278 123.336 464.63 123.727 464.869C124.117 465.114 124.674 465.236 125.398 465.236ZM125.734 458.393C126.354 458.393 126.82 458.236 127.133 457.924C127.445 457.611 127.602 457.156 127.602 456.557C127.602 455.916 127.443 455.437 127.125 455.119C126.807 454.796 126.339 454.635 125.719 454.635C125.125 454.635 124.667 454.801 124.344 455.135C124.026 455.463 123.867 455.945 123.867 456.58C123.867 457.163 124.029 457.611 124.352 457.924C124.674 458.236 125.135 458.393 125.734 458.393ZM134.953 453.689C135.682 453.689 136.307 453.851 136.828 454.174C137.349 454.497 137.747 454.95 138.023 455.533C138.299 456.111 138.438 456.788 138.438 457.564V458.369H132.523C132.539 459.374 132.789 460.14 133.273 460.666C133.758 461.192 134.44 461.455 135.32 461.455C135.862 461.455 136.341 461.406 136.758 461.307C137.174 461.208 137.607 461.062 138.055 460.869V462.01C137.622 462.202 137.193 462.343 136.766 462.432C136.344 462.52 135.844 462.564 135.266 462.564C134.443 462.564 133.724 462.398 133.109 462.064C132.5 461.726 132.026 461.231 131.688 460.58C131.349 459.929 131.18 459.132 131.18 458.189C131.18 457.268 131.333 456.471 131.641 455.799C131.953 455.122 132.391 454.601 132.953 454.236C133.521 453.872 134.188 453.689 134.953 453.689ZM134.938 454.752C134.245 454.752 133.693 454.979 133.281 455.432C132.87 455.885 132.625 456.518 132.547 457.33H137.078C137.073 456.82 136.992 456.372 136.836 455.986C136.685 455.596 136.453 455.294 136.141 455.08C135.828 454.861 135.427 454.752 134.938 454.752ZM144.695 453.689C145.711 453.689 146.479 453.939 147 454.439C147.521 454.934 147.781 455.731 147.781 456.83V462.408H146.5V456.916C146.5 456.202 146.336 455.669 146.008 455.314C145.685 454.96 145.188 454.783 144.516 454.783C143.568 454.783 142.901 455.051 142.516 455.588C142.13 456.124 141.938 456.903 141.938 457.924V462.408H140.641V453.846H141.688L141.883 455.08H141.953C142.135 454.778 142.367 454.525 142.648 454.322C142.93 454.114 143.245 453.958 143.594 453.854C143.943 453.744 144.31 453.689 144.695 453.689ZM153.219 461.502C153.432 461.502 153.651 461.484 153.875 461.447C154.099 461.411 154.281 461.367 154.422 461.314V462.322C154.271 462.39 154.06 462.447 153.789 462.494C153.523 462.541 153.263 462.564 153.008 462.564C152.555 462.564 152.143 462.486 151.773 462.33C151.404 462.169 151.107 461.898 150.883 461.518C150.664 461.137 150.555 460.611 150.555 459.939V454.861H149.336V454.229L150.562 453.721L151.078 451.861H151.859V453.846H154.367V454.861H151.859V459.9C151.859 460.437 151.982 460.838 152.227 461.104C152.477 461.369 152.807 461.502 153.219 461.502ZM157.461 462.408H156.156V450.252H157.461V462.408ZM163.5 453.689C164.229 453.689 164.854 453.851 165.375 454.174C165.896 454.497 166.294 454.95 166.57 455.533C166.846 456.111 166.984 456.788 166.984 457.564V458.369H161.07C161.086 459.374 161.336 460.14 161.82 460.666C162.305 461.192 162.987 461.455 163.867 461.455C164.409 461.455 164.888 461.406 165.305 461.307C165.721 461.208 166.154 461.062 166.602 460.869V462.01C166.169 462.202 165.74 462.343 165.312 462.432C164.891 462.52 164.391 462.564 163.812 462.564C162.99 462.564 162.271 462.398 161.656 462.064C161.047 461.726 160.573 461.231 160.234 460.58C159.896 459.929 159.727 459.132 159.727 458.189C159.727 457.268 159.88 456.471 160.188 455.799C160.5 455.122 160.938 454.601 161.5 454.236C162.068 453.872 162.734 453.689 163.5 453.689ZM163.484 454.752C162.792 454.752 162.24 454.979 161.828 455.432C161.417 455.885 161.172 456.518 161.094 457.33H165.625C165.62 456.82 165.539 456.372 165.383 455.986C165.232 455.596 165 455.294 164.688 455.08C164.375 454.861 163.974 454.752 163.484 454.752ZM174.641 450.252V453.885C174.641 454.093 174.635 454.304 174.625 454.518C174.615 454.726 174.596 454.919 174.57 455.096H174.656C174.833 454.794 175.057 454.541 175.328 454.338C175.604 454.13 175.917 453.973 176.266 453.869C176.615 453.76 176.984 453.705 177.375 453.705C178.062 453.705 178.635 453.814 179.094 454.033C179.557 454.252 179.904 454.59 180.133 455.049C180.367 455.507 180.484 456.101 180.484 456.83V462.408H179.203V456.916C179.203 456.202 179.039 455.669 178.711 455.314C178.388 454.96 177.891 454.783 177.219 454.783C176.583 454.783 176.076 454.906 175.695 455.15C175.32 455.39 175.049 455.744 174.883 456.213C174.721 456.682 174.641 457.255 174.641 457.932V462.408H173.344V450.252H174.641ZM186.359 453.705C187.38 453.705 188.138 453.934 188.633 454.393C189.128 454.851 189.375 455.583 189.375 456.588V462.408H188.43L188.18 461.143H188.117C187.878 461.455 187.628 461.718 187.367 461.932C187.107 462.14 186.805 462.299 186.461 462.408C186.122 462.512 185.706 462.564 185.211 462.564C184.69 462.564 184.227 462.473 183.82 462.291C183.419 462.109 183.102 461.833 182.867 461.463C182.638 461.093 182.523 460.624 182.523 460.057C182.523 459.202 182.862 458.546 183.539 458.088C184.216 457.63 185.247 457.38 186.633 457.338L188.109 457.275V456.752C188.109 456.012 187.951 455.494 187.633 455.197C187.315 454.9 186.867 454.752 186.289 454.752C185.841 454.752 185.414 454.817 185.008 454.947C184.602 455.077 184.216 455.231 183.852 455.408L183.453 454.424C183.839 454.226 184.281 454.057 184.781 453.916C185.281 453.775 185.807 453.705 186.359 453.705ZM188.094 458.189L186.789 458.244C185.721 458.286 184.969 458.46 184.531 458.768C184.094 459.075 183.875 459.51 183.875 460.072C183.875 460.562 184.023 460.924 184.32 461.158C184.617 461.393 185.01 461.51 185.5 461.51C186.26 461.51 186.883 461.299 187.367 460.877C187.852 460.455 188.094 459.822 188.094 458.979V458.189ZM196.102 453.689C197.117 453.689 197.885 453.939 198.406 454.439C198.927 454.934 199.188 455.731 199.188 456.83V462.408H197.906V456.916C197.906 456.202 197.742 455.669 197.414 455.314C197.091 454.96 196.594 454.783 195.922 454.783C194.974 454.783 194.307 455.051 193.922 455.588C193.536 456.124 193.344 456.903 193.344 457.924V462.408H192.047V453.846H193.094L193.289 455.08H193.359C193.542 454.778 193.773 454.525 194.055 454.322C194.336 454.114 194.651 453.958 195 453.854C195.349 453.744 195.716 453.689 196.102 453.689ZM204.906 462.564C203.823 462.564 202.964 462.195 202.328 461.455C201.698 460.715 201.383 459.617 201.383 458.158C201.383 456.684 201.706 455.572 202.352 454.822C202.997 454.067 203.857 453.689 204.93 453.689C205.383 453.689 205.779 453.749 206.117 453.869C206.456 453.989 206.747 454.15 206.992 454.354C207.237 454.551 207.443 454.778 207.609 455.033H207.703C207.682 454.872 207.661 454.65 207.641 454.369C207.62 454.088 207.609 453.859 207.609 453.682V450.252H208.906V462.408H207.859L207.664 461.189H207.609C207.448 461.445 207.242 461.676 206.992 461.885C206.747 462.093 206.453 462.26 206.109 462.385C205.771 462.505 205.37 462.564 204.906 462.564ZM205.109 461.486C206.026 461.486 206.674 461.226 207.055 460.705C207.435 460.184 207.625 459.411 207.625 458.385V458.15C207.625 457.062 207.443 456.226 207.078 455.643C206.719 455.059 206.062 454.768 205.109 454.768C204.312 454.768 203.716 455.075 203.32 455.689C202.924 456.299 202.727 457.132 202.727 458.189C202.727 459.242 202.922 460.054 203.312 460.627C203.708 461.2 204.307 461.486 205.109 461.486ZM219.836 453.689C220.904 453.689 221.755 454.057 222.391 454.791C223.026 455.525 223.344 456.63 223.344 458.104C223.344 459.077 223.198 459.895 222.906 460.557C222.615 461.218 222.203 461.718 221.672 462.057C221.146 462.395 220.523 462.564 219.805 462.564C219.352 462.564 218.953 462.505 218.609 462.385C218.266 462.265 217.971 462.104 217.727 461.9C217.482 461.697 217.279 461.476 217.117 461.236H217.023C217.039 461.439 217.057 461.684 217.078 461.971C217.104 462.257 217.117 462.507 217.117 462.721V466.236H215.812V453.846H216.883L217.055 455.111H217.117C217.284 454.851 217.487 454.614 217.727 454.4C217.966 454.182 218.258 454.01 218.602 453.885C218.951 453.755 219.362 453.689 219.836 453.689ZM219.609 454.783C219.016 454.783 218.536 454.898 218.172 455.127C217.812 455.356 217.549 455.7 217.383 456.158C217.216 456.611 217.128 457.182 217.117 457.869V458.119C217.117 458.843 217.195 459.455 217.352 459.955C217.513 460.455 217.776 460.835 218.141 461.096C218.51 461.356 219.005 461.486 219.625 461.486C220.156 461.486 220.599 461.343 220.953 461.057C221.307 460.77 221.57 460.372 221.742 459.861C221.919 459.346 222.008 458.755 222.008 458.088C222.008 457.077 221.81 456.275 221.414 455.682C221.023 455.083 220.422 454.783 219.609 454.783ZM226.914 462.408H225.609V450.252H226.914V462.408ZM232.859 453.705C233.88 453.705 234.638 453.934 235.133 454.393C235.628 454.851 235.875 455.583 235.875 456.588V462.408H234.93L234.68 461.143H234.617C234.378 461.455 234.128 461.718 233.867 461.932C233.607 462.14 233.305 462.299 232.961 462.408C232.622 462.512 232.206 462.564 231.711 462.564C231.19 462.564 230.727 462.473 230.32 462.291C229.919 462.109 229.602 461.833 229.367 461.463C229.138 461.093 229.023 460.624 229.023 460.057C229.023 459.202 229.362 458.546 230.039 458.088C230.716 457.63 231.747 457.38 233.133 457.338L234.609 457.275V456.752C234.609 456.012 234.451 455.494 234.133 455.197C233.815 454.9 233.367 454.752 232.789 454.752C232.341 454.752 231.914 454.817 231.508 454.947C231.102 455.077 230.716 455.231 230.352 455.408L229.953 454.424C230.339 454.226 230.781 454.057 231.281 453.916C231.781 453.775 232.307 453.705 232.859 453.705ZM234.594 458.189L233.289 458.244C232.221 458.286 231.469 458.46 231.031 458.768C230.594 459.075 230.375 459.51 230.375 460.072C230.375 460.562 230.523 460.924 230.82 461.158C231.117 461.393 231.51 461.51 232 461.51C232.76 461.51 233.383 461.299 233.867 460.877C234.352 460.455 234.594 459.822 234.594 458.979V458.189ZM237.195 453.846H238.586L240.477 458.814C240.586 459.106 240.688 459.387 240.781 459.658C240.875 459.924 240.958 460.179 241.031 460.424C241.104 460.669 241.161 460.906 241.203 461.135H241.258C241.331 460.874 241.435 460.533 241.57 460.111C241.706 459.684 241.852 459.249 242.008 458.807L243.797 453.846H245.195L241.469 463.666C241.271 464.192 241.039 464.65 240.773 465.041C240.513 465.432 240.195 465.731 239.82 465.939C239.445 466.153 238.992 466.26 238.461 466.26C238.216 466.26 238 466.244 237.812 466.213C237.625 466.187 237.464 466.156 237.328 466.119V465.08C237.443 465.106 237.581 465.13 237.742 465.15C237.909 465.171 238.081 465.182 238.258 465.182C238.581 465.182 238.859 465.119 239.094 464.994C239.333 464.874 239.539 464.697 239.711 464.463C239.883 464.229 240.031 463.95 240.156 463.627L240.625 462.424L237.195 453.846ZM246.367 461.596C246.367 461.231 246.456 460.973 246.633 460.822C246.81 460.666 247.026 460.588 247.281 460.588C247.547 460.588 247.771 460.666 247.953 460.822C248.135 460.973 248.227 461.231 248.227 461.596C248.227 461.955 248.135 462.218 247.953 462.385C247.771 462.546 247.547 462.627 247.281 462.627C247.026 462.627 246.81 462.546 246.633 462.385C246.456 462.218 246.367 461.955 246.367 461.596Z" fill="#F17522"/>
</svg>
