<svg width="367" height="523" viewBox="0 0 367 523" fill="none" xmlns="http://www.w3.org/2000/svg">
<path d="M142.465 340.503C144.13 335.067 149.17 331.348 154.855 331.348H218.716C224.502 331.348 229.609 335.197 231.168 340.769C249.521 406.365 251.389 438.979 247.052 462.724C245.997 468.495 240.776 472.408 234.909 472.408H136.017C130.211 472.408 125.028 468.574 123.857 462.887C118.297 435.866 122.21 406.637 142.465 340.503Z" fill="#FFF4D8"/>
<path d="M218.716 331.348H154.855C149.17 331.348 144.138 335.041 142.473 340.477C141.726 342.915 141.001 345.303 140.299 347.643C137.819 355.901 144.044 364.138 152.666 364.138H220.732C229.184 364.138 235.385 356.201 233.173 348.044C232.525 345.656 231.855 343.223 231.16 340.742C229.601 335.17 224.502 331.348 218.716 331.348Z" fill="#EAD2AA" fill-opacity="0.28"/>
<path d="M237.484 245.884C237.399 245.519 237.357 245.336 237.318 245.208C236.668 243.095 234.404 242.061 232.877 243.18C232.785 243.248 232.664 243.356 232.421 243.572L199.761 272.703C199.385 273.039 199.197 273.207 199.11 273.302C197.619 274.943 198.506 277.916 200.714 278.677C200.842 278.721 201.118 278.788 201.67 278.921C218.305 282.938 229.405 288.09 244.43 298.5C244.911 298.833 245.151 298.999 245.273 299.069C247.357 300.26 249.48 298.661 249.11 296.178C249.089 296.033 249.025 295.756 248.897 295.203L237.484 245.884Z" fill="#934E00"/>
<path fill-rule="evenodd" clip-rule="evenodd" d="M229.408 260.04C229.917 259.667 230.672 260.012 230.889 260.716C230.902 260.758 230.916 260.82 230.944 260.942L238.381 293.08C238.415 293.227 238.432 293.301 238.439 293.348C238.511 293.818 238.303 294.199 237.98 294.36C227.65 287.718 218.752 283.587 207.612 280.366C207.492 280.006 207.535 279.602 207.79 279.323C207.818 279.293 207.869 279.247 207.97 279.157L229.257 260.171C229.337 260.099 229.377 260.063 229.408 260.04Z" fill="#FFF5DC"/>
<path d="M129.755 245.884C129.839 245.519 129.882 245.336 129.921 245.208C130.571 243.095 132.835 242.061 134.361 243.18C134.453 243.248 134.575 243.356 134.817 243.572L167.478 272.703C167.854 273.039 168.042 273.207 168.128 273.302C169.62 274.943 168.733 277.916 166.525 278.677C166.396 278.721 166.12 278.788 165.568 278.921C148.933 282.938 137.834 288.09 122.808 298.5C122.327 298.833 122.087 298.999 121.966 299.069C119.881 300.26 117.759 298.661 118.128 296.178C118.15 296.033 118.214 295.756 118.342 295.203L129.755 245.884Z" fill="#934E00"/>
<path fill-rule="evenodd" clip-rule="evenodd" d="M137.831 260.04C137.322 259.667 136.567 260.012 136.351 260.716C136.338 260.758 136.323 260.82 136.295 260.941L128.858 293.08C128.823 293.227 128.807 293.301 128.8 293.348C128.729 293.818 128.936 294.199 129.259 294.36C139.589 287.718 148.488 283.587 159.627 280.366C159.747 280.006 159.703 279.602 159.448 279.323C159.42 279.293 159.37 279.247 159.27 279.157L137.983 260.171C137.902 260.099 137.862 260.063 137.831 260.04Z" fill="#FFF5DC"/>
<path d="M258.909 320.212C258.909 348.23 225.67 356.096 184.667 356.096C143.664 356.096 110.424 348.23 110.424 320.212C110.424 292.193 143.664 254.631 184.667 254.631C225.67 254.631 258.909 292.193 258.909 320.212Z" fill="url(#paint0_radial_1676_4463)"/>
<ellipse cx="159.301" cy="299.176" rx="4.33081" ry="4.94949" fill="black"/>
<ellipse cx="177.522" cy="314.644" rx="10.1784" ry="8.04293" fill="#FFEFC7"/>
<ellipse cx="194.286" cy="314.644" rx="10.1784" ry="8.04293" fill="#FFEFC7"/>
<ellipse cx="210.033" cy="299.176" rx="4.33081" ry="4.94949" fill="black"/>
<path d="M184.98 313.87C185.405 314.496 186.345 314.461 186.737 313.815C188.186 311.429 189.657 309.693 191.918 307.638C192.662 306.962 192.098 305.668 191.098 305.763C187.354 306.115 184.371 306.094 180.611 305.738C179.619 305.644 179.064 306.913 179.789 307.597C181.498 309.205 182.982 310.927 184.98 313.87Z" fill="#FF8A8A"/>
<path d="M142.465 340.503C144.13 335.067 149.17 331.348 154.855 331.348H218.716C224.502 331.348 229.609 335.197 231.168 340.769C249.521 406.365 251.389 438.979 247.052 462.724C245.997 468.495 240.776 472.408 234.909 472.408H136.017C130.211 472.408 125.028 468.574 123.857 462.887C118.297 435.866 122.21 406.637 142.465 340.503Z" fill="#5D5F74"/>
<path d="M218.716 331.348H154.855C149.17 331.348 144.138 335.041 142.473 340.477C141.726 342.915 141.001 345.303 140.299 347.643C137.819 355.901 144.044 364.138 152.666 364.138H220.732C229.184 364.138 235.385 356.201 233.173 348.044C232.525 345.656 231.855 343.223 231.16 340.742C229.601 335.17 224.502 331.348 218.716 331.348Z" fill="#4D4F63" fill-opacity="0.43"/>
<path d="M237.484 245.884C237.399 245.519 237.357 245.336 237.318 245.208C236.668 243.095 234.404 242.061 232.877 243.18C232.785 243.248 232.664 243.356 232.421 243.572L199.761 272.703C199.385 273.039 199.197 273.207 199.11 273.302C197.619 274.943 198.506 277.916 200.714 278.677C200.842 278.721 201.118 278.788 201.67 278.921C218.305 282.938 229.405 288.09 244.43 298.5C244.911 298.833 245.151 298.999 245.273 299.069C247.357 300.26 249.48 298.661 249.11 296.178C249.089 296.033 249.025 295.756 248.897 295.203L237.484 245.884Z" fill="#5D5F74"/>
<path fill-rule="evenodd" clip-rule="evenodd" d="M229.408 260.04C229.917 259.667 230.672 260.012 230.889 260.716C230.902 260.758 230.916 260.82 230.944 260.942L238.381 293.08C238.415 293.227 238.432 293.301 238.439 293.348C238.511 293.818 238.303 294.199 237.98 294.36C227.65 287.718 218.752 283.587 207.612 280.366C207.492 280.006 207.535 279.602 207.79 279.323C207.818 279.293 207.869 279.247 207.97 279.157L229.257 260.171C229.337 260.099 229.377 260.063 229.408 260.04Z" fill="#FFF5DC"/>
<path d="M129.755 245.884C129.839 245.519 129.882 245.336 129.921 245.208C130.571 243.095 132.835 242.061 134.361 243.18C134.453 243.248 134.575 243.356 134.817 243.572L167.478 272.703C167.854 273.039 168.042 273.207 168.128 273.302C169.62 274.943 168.733 277.916 166.525 278.677C166.396 278.721 166.12 278.788 165.568 278.921C148.933 282.938 137.834 288.09 122.808 298.5C122.327 298.833 122.087 298.999 121.966 299.069C119.881 300.26 117.759 298.661 118.128 296.178C118.15 296.033 118.214 295.756 118.342 295.203L129.755 245.884Z" fill="#5D5F74"/>
<path fill-rule="evenodd" clip-rule="evenodd" d="M137.831 260.04C137.322 259.667 136.567 260.012 136.351 260.716C136.338 260.758 136.323 260.82 136.295 260.941L128.858 293.08C128.823 293.227 128.807 293.301 128.8 293.348C128.729 293.818 128.936 294.199 129.259 294.36C139.589 287.718 148.488 283.587 159.627 280.366C159.747 280.006 159.703 279.602 159.448 279.323C159.42 279.293 159.37 279.247 159.27 279.157L137.983 260.171C137.902 260.099 137.862 260.063 137.831 260.04Z" fill="#FFF5DC"/>
<path d="M258.909 320.212C258.909 348.23 225.67 356.096 184.667 356.096C143.664 356.096 110.424 348.23 110.424 320.212C110.424 292.193 143.664 254.631 184.667 254.631C225.67 254.631 258.909 292.193 258.909 320.212Z" fill="#5D5F74"/>
<ellipse cx="159.301" cy="299.176" rx="4.33081" ry="4.94949" fill="black"/>
<ellipse cx="177.522" cy="314.644" rx="10.1784" ry="8.04293" fill="#FFEFC7"/>
<ellipse cx="194.286" cy="314.644" rx="10.1784" ry="8.04293" fill="#FFEFC7"/>
<ellipse cx="210.033" cy="299.176" rx="4.33081" ry="4.94949" fill="black"/>
<path d="M184.98 313.87C185.405 314.496 186.345 314.461 186.737 313.815C188.186 311.429 189.657 309.693 191.918 307.638C192.662 306.962 192.098 305.668 191.098 305.763C187.354 306.115 184.371 306.094 180.611 305.738C179.619 305.644 179.064 306.913 179.789 307.597C181.498 309.205 182.982 310.927 184.98 313.87Z" fill="#FF8A8A"/>
<path d="M142.465 340.503C144.13 335.067 149.17 331.348 154.855 331.348H218.716C224.502 331.348 229.609 335.197 231.168 340.769C249.521 406.365 251.389 438.979 247.052 462.724C245.997 468.495 240.776 472.408 234.909 472.408H136.017C130.211 472.408 125.028 468.574 123.857 462.887C118.297 435.866 122.21 406.637 142.465 340.503Z" fill="#FEF4D8"/>
<path d="M218.716 331.348H154.855C149.17 331.348 144.138 335.041 142.473 340.477C141.726 342.915 141.001 345.303 140.299 347.643C137.819 355.901 144.044 364.138 152.666 364.138H220.732C229.184 364.138 235.385 356.201 233.173 348.044C232.525 345.656 231.855 343.223 231.16 340.742C229.601 335.17 224.502 331.348 218.716 331.348Z" fill="#E2CFA7" fill-opacity="0.27"/>
<path d="M237.484 245.884C237.399 245.519 237.357 245.336 237.318 245.208C236.668 243.095 234.404 242.061 232.877 243.18C232.785 243.248 232.664 243.356 232.421 243.572L199.761 272.703C199.385 273.039 199.197 273.207 199.11 273.302C197.619 274.943 198.506 277.916 200.714 278.677C200.842 278.721 201.118 278.788 201.67 278.921C218.305 282.938 229.405 288.09 244.43 298.5C244.911 298.833 245.151 298.999 245.273 299.069C247.357 300.26 249.48 298.661 249.11 296.178C249.089 296.033 249.025 295.756 248.897 295.203L237.484 245.884Z" fill="#FFDE8B"/>
<path fill-rule="evenodd" clip-rule="evenodd" d="M229.408 260.04C229.917 259.667 230.672 260.012 230.889 260.716C230.902 260.758 230.916 260.82 230.944 260.942L238.381 293.08C238.415 293.227 238.432 293.301 238.439 293.348C238.511 293.818 238.303 294.199 237.98 294.36C227.65 287.718 218.752 283.587 207.612 280.366C207.492 280.006 207.535 279.602 207.79 279.323C207.818 279.293 207.869 279.247 207.97 279.157L229.257 260.171C229.337 260.099 229.377 260.063 229.408 260.04Z" fill="#FFF5DC"/>
<path d="M129.755 245.884C129.839 245.519 129.882 245.336 129.921 245.208C130.571 243.095 132.835 242.061 134.361 243.18C134.453 243.248 134.575 243.356 134.817 243.572L167.478 272.703C167.854 273.039 168.042 273.207 168.128 273.302C169.62 274.943 168.733 277.916 166.525 278.677C166.396 278.721 166.12 278.788 165.568 278.921C148.933 282.938 137.834 288.09 122.808 298.5C122.327 298.833 122.087 298.999 121.966 299.069C119.881 300.26 117.759 298.661 118.128 296.178C118.15 296.033 118.214 295.756 118.342 295.203L129.755 245.884Z" fill="#FFDE8B"/>
<path fill-rule="evenodd" clip-rule="evenodd" d="M137.831 260.04C137.322 259.667 136.567 260.012 136.351 260.716C136.338 260.758 136.323 260.82 136.295 260.941L128.858 293.08C128.823 293.227 128.807 293.301 128.8 293.348C128.729 293.818 128.936 294.199 129.259 294.36C139.589 287.718 148.488 283.587 159.627 280.366C159.747 280.006 159.703 279.602 159.448 279.323C159.42 279.293 159.37 279.247 159.27 279.157L137.983 260.171C137.902 260.099 137.862 260.063 137.831 260.04Z" fill="#FFF5DC"/>
<path d="M258.909 320.212C258.909 348.23 225.67 356.096 184.667 356.096C143.664 356.096 110.424 348.23 110.424 320.212C110.424 292.193 143.664 254.631 184.667 254.631C225.67 254.631 258.909 292.193 258.909 320.212Z" fill="url(#paint1_radial_1676_4463)"/>
<ellipse cx="159.301" cy="299.176" rx="4.33081" ry="4.94949" fill="black"/>
<ellipse cx="177.522" cy="314.644" rx="10.1784" ry="8.04293" fill="#FFEFC7"/>
<ellipse cx="194.286" cy="314.644" rx="10.1784" ry="8.04293" fill="#FFEFC7"/>
<ellipse cx="210.033" cy="299.176" rx="4.33081" ry="4.94949" fill="black"/>
<path d="M184.98 313.87C185.405 314.496 186.345 314.461 186.737 313.815C188.186 311.429 189.657 309.693 191.918 307.638C192.662 306.962 192.098 305.668 191.098 305.763C187.354 306.115 184.371 306.094 180.611 305.738C179.619 305.644 179.064 306.913 179.789 307.597C181.498 309.205 182.982 310.927 184.98 313.87Z" fill="#FF8A8A"/>
<path d="M183.5 517.408C277.665 517.408 354 441.073 354 346.908H13C13 441.073 89.3354 517.408 183.5 517.408Z" fill="white"/>
<path d="M354 346.408C354 440.573 277.665 516.908 183.5 516.908C89.3354 516.908 13 440.573 13 346.408" stroke="#F17522" stroke-width="11" stroke-linecap="round"/>
<path d="M170 345.908C170 354.469 162.165 355.408 152.5 355.408C142.835 355.408 135 354.469 135 345.908C135 337.348 142.835 330.408 152.5 330.408C162.165 330.408 170 337.348 170 345.908Z" fill="#FEE4A0"/>
<path d="M235 345.908C235 354.469 227.165 355.408 217.5 355.408C207.835 355.408 200 354.469 200 345.908C200 337.348 207.835 330.408 217.5 330.408C227.165 330.408 235 337.348 235 345.908Z" fill="#FEE4A0"/>
<path d="M183.5 23.4248C277.665 23.4248 354 99.7603 354 193.925H13C13 99.7603 89.3354 23.4248 183.5 23.4248Z" fill="#F17522"/>
<path d="M354 193.908C354 99.7437 277.665 23.4082 183.5 23.4082C89.3354 23.4082 13 99.7437 13 193.908" stroke="#F17522" stroke-width="11"/>
<path d="M299.43 2.45381C299.345 2.17157 299.302 2.03045 299.262 1.92503C298.599 0.20038 296.55 -0.520922 294.953 0.408337C294.855 0.465137 294.734 0.548607 294.491 0.715545L225.683 48.0179C225.238 48.3234 225.016 48.4761 224.907 48.5674C223.036 50.1335 223.688 53.1184 226.042 53.7617C226.179 53.7991 226.453 53.8467 227 53.9419C263.622 60.3076 285.929 68.3087 318.738 86.2798C319.217 86.5422 319.456 86.6734 319.587 86.7295C321.822 87.6917 324.192 85.7725 323.715 83.3864C323.687 83.2473 323.611 82.9932 323.458 82.4852L299.43 2.45381Z" fill="#FFDE8B"/>
<path fill-rule="evenodd" clip-rule="evenodd" d="M286.304 26.5442C286.837 26.2344 287.52 26.4752 287.741 27.0501C287.754 27.0851 287.768 27.1321 287.797 27.2258L302.66 76.7307C302.703 76.8751 302.725 76.9475 302.734 76.9924C302.814 77.3867 302.655 77.7461 302.382 77.967C282.138 67.8691 264.862 61.6818 243.001 56.8704C242.99 56.5795 243.104 56.2814 243.361 56.0676C243.396 56.0382 243.46 55.9948 243.588 55.9075L286.151 26.6467C286.232 26.5913 286.272 26.5631 286.304 26.5442Z" fill="#FFF5DC"/>
<path d="M74.1087 2.45381C74.1935 2.17157 74.2358 2.03045 74.2764 1.92503C74.9392 0.20038 76.9885 -0.520922 78.5855 0.408337C78.6831 0.465137 78.8045 0.548607 79.0473 0.715545L147.856 48.0179C148.3 48.3234 148.522 48.4761 148.631 48.5674C150.502 50.1335 149.85 53.1184 147.497 53.7617C147.359 53.7991 147.086 53.8467 146.538 53.9419C109.916 60.3076 87.6098 68.3087 54.8003 86.2798C54.3213 86.5422 54.0819 86.6734 53.9515 86.7295C51.7167 87.6917 49.3467 85.7725 49.8233 83.3864C49.8511 83.2473 49.9273 82.9932 50.0799 82.4852L74.1087 2.45381Z" fill="#FFDE8B"/>
<path fill-rule="evenodd" clip-rule="evenodd" d="M87.2337 26.5441C86.7014 26.2345 86.0182 26.4752 85.7972 27.05C85.7837 27.0851 85.7698 27.1327 85.7415 27.2267L70.8783 76.7306C70.8349 76.8751 70.8131 76.9475 70.804 76.9924C70.7241 77.3866 70.8831 77.746 71.1556 77.967C91.3998 67.8691 108.676 61.6817 130.537 56.8703C130.548 56.5795 130.434 56.2812 130.177 56.0676C130.142 56.0381 130.078 55.9944 129.951 55.9074L87.388 26.6467C87.3071 26.591 87.2663 26.5631 87.2337 26.5441Z" fill="#FFF5DC"/>
<path d="M2.6262 188.181C4.68726 185.586 8.00942 184.425 11.3234 184.425H355.937C360.057 184.425 364.233 186.233 365.908 189.997C367.36 193.261 367.372 196.063 365.895 199.223C364.227 202.793 360.194 204.425 356.254 204.425H11.3891C8.03594 204.425 4.67707 203.232 2.61963 200.584C-0.922413 196.026 -0.825676 192.527 2.6262 188.181Z" fill="#1A1A1A"/>
<circle cx="183" cy="194.425" r="53" fill="#1A1A1A"/>
<path d="M220.434 198.797C220.434 216.189 203.771 227.425 183.217 227.425C162.663 227.425 146 216.189 146 198.797C146 181.404 162.663 164.442 183.217 164.442C203.771 164.442 220.434 181.404 220.434 198.797Z" fill="#FFDE8B"/>
<path d="M158.536 162.407C158.565 162.313 158.579 162.266 158.592 162.231C158.813 161.656 159.496 161.415 160.029 161.725C160.061 161.744 160.102 161.772 160.183 161.827L173.855 171.227C173.966 171.303 174.021 171.341 174.055 171.369C174.625 171.839 174.505 172.744 173.832 173.05C173.792 173.068 173.728 173.091 173.602 173.135L155.158 179.627C155.032 179.671 154.968 179.694 154.926 179.705C154.209 179.888 153.549 179.257 153.698 178.534C153.707 178.49 153.727 178.426 153.765 178.298L158.536 162.407Z" fill="#FFDE8B"/>
<path d="M207.837 162.407C207.808 162.313 207.794 162.266 207.781 162.231C207.56 161.656 206.877 161.415 206.344 161.725C206.312 161.744 206.271 161.772 206.191 161.827L192.518 171.227C192.407 171.303 192.352 171.341 192.318 171.369C191.748 171.839 191.868 172.744 192.541 173.05C192.581 173.068 192.645 173.091 192.771 173.135L211.215 179.627C211.342 179.671 211.405 179.694 211.447 179.705C212.164 179.888 212.824 179.257 212.675 178.534C212.666 178.49 212.646 178.426 212.608 178.298L207.837 162.407Z" fill="#FFDE8B"/>
<path d="M204.753 197.593C204.753 207.213 195.182 213.428 183.377 213.428C171.571 213.428 162 207.213 162 197.593C162 187.974 171.571 178.592 183.377 178.592C195.182 178.592 204.753 187.974 204.753 197.593Z" fill="#FFF5DC"/>
<path d="M168.49 179.161C168.515 179.057 168.528 179.005 168.54 178.968C168.743 178.354 169.483 178.105 170.039 178.464C170.072 178.485 170.116 178.518 170.203 178.584L175.837 182.873C175.939 182.951 175.99 182.99 176.022 183.019C176.561 183.505 176.428 184.368 175.77 184.655C175.73 184.672 175.67 184.692 175.549 184.733L168.275 187.182C168.154 187.222 168.094 187.243 168.052 187.253C167.352 187.423 166.691 186.828 166.798 186.124C166.805 186.082 166.82 186.021 166.849 185.899L168.49 179.161Z" fill="#FFF5DC"/>
<path d="M198.018 179.161C197.993 179.057 197.98 179.005 197.968 178.968C197.764 178.354 197.025 178.105 196.469 178.464C196.435 178.485 196.392 178.518 196.305 178.584L190.671 182.873C190.569 182.951 190.518 182.99 190.485 183.019C189.947 183.505 190.08 184.368 190.738 184.655C190.777 184.672 190.838 184.692 190.958 184.733L198.233 187.182C198.354 187.222 198.414 187.243 198.456 187.253C199.156 187.423 199.817 186.828 199.71 186.124C199.703 186.082 199.688 186.021 199.658 185.899L198.018 179.161Z" fill="#FFF5DC"/>
<path d="M121.133 388.562C120.796 388.562 120.532 388.467 120.341 388.276C120.165 388.086 120.077 387.822 120.077 387.484V373.822C120.077 373.47 120.173 373.206 120.363 373.03C120.554 372.84 120.811 372.744 121.133 372.744C121.441 372.744 121.676 372.803 121.837 372.92C122.013 373.023 122.175 373.214 122.321 373.492L128.085 384.25H127.403L133.145 373.492C133.292 373.214 133.446 373.023 133.607 372.92C133.769 372.803 134.003 372.744 134.311 372.744C134.634 372.744 134.883 372.84 135.059 373.03C135.235 373.206 135.323 373.47 135.323 373.822V387.484C135.323 387.822 135.235 388.086 135.059 388.276C134.898 388.467 134.649 388.562 134.311 388.562C133.974 388.562 133.717 388.467 133.541 388.276C133.365 388.086 133.277 387.822 133.277 387.484V376.132H133.761L128.657 385.57C128.54 385.79 128.415 385.952 128.283 386.054C128.151 386.157 127.968 386.208 127.733 386.208C127.499 386.208 127.308 386.157 127.161 386.054C127.015 385.937 126.883 385.776 126.765 385.57L121.617 376.11H122.145V387.484C122.145 387.822 122.057 388.086 121.881 388.276C121.72 388.467 121.471 388.562 121.133 388.562ZM143.779 388.606C142.605 388.606 141.593 388.386 140.743 387.946C139.907 387.492 139.254 386.854 138.785 386.032C138.33 385.196 138.103 384.206 138.103 383.062C138.103 381.948 138.33 380.972 138.785 380.136C139.239 379.3 139.863 378.648 140.655 378.178C141.447 377.709 142.349 377.474 143.361 377.474C144.109 377.474 144.776 377.599 145.363 377.848C145.949 378.083 146.448 378.435 146.859 378.904C147.284 379.359 147.599 379.916 147.805 380.576C148.025 381.236 148.135 381.977 148.135 382.798C148.135 383.048 148.061 383.238 147.915 383.37C147.768 383.488 147.548 383.546 147.255 383.546H139.863V382.182H146.639L146.265 382.49C146.265 381.757 146.155 381.134 145.935 380.62C145.729 380.107 145.414 379.718 144.989 379.454C144.578 379.176 144.065 379.036 143.449 379.036C142.759 379.036 142.173 379.198 141.689 379.52C141.219 379.843 140.86 380.29 140.611 380.862C140.361 381.434 140.237 382.102 140.237 382.864V382.996C140.237 384.287 140.537 385.262 141.139 385.922C141.755 386.568 142.642 386.89 143.801 386.89C144.241 386.89 144.703 386.832 145.187 386.714C145.685 386.597 146.155 386.399 146.595 386.12C146.844 385.974 147.064 385.908 147.255 385.922C147.46 385.937 147.621 386.003 147.739 386.12C147.871 386.238 147.951 386.384 147.981 386.56C148.01 386.736 147.981 386.92 147.893 387.11C147.805 387.286 147.651 387.448 147.431 387.594C146.932 387.932 146.353 388.188 145.693 388.364C145.033 388.526 144.395 388.606 143.779 388.606ZM155.595 388.606C154.422 388.606 153.41 388.386 152.559 387.946C151.723 387.492 151.07 386.854 150.601 386.032C150.146 385.196 149.919 384.206 149.919 383.062C149.919 381.948 150.146 380.972 150.601 380.136C151.056 379.3 151.679 378.648 152.471 378.178C153.263 377.709 154.165 377.474 155.177 377.474C155.925 377.474 156.592 377.599 157.179 377.848C157.766 378.083 158.264 378.435 158.675 378.904C159.1 379.359 159.416 379.916 159.621 380.576C159.841 381.236 159.951 381.977 159.951 382.798C159.951 383.048 159.878 383.238 159.731 383.37C159.584 383.488 159.364 383.546 159.071 383.546H151.679V382.182H158.455L158.081 382.49C158.081 381.757 157.971 381.134 157.751 380.62C157.546 380.107 157.23 379.718 156.805 379.454C156.394 379.176 155.881 379.036 155.265 379.036C154.576 379.036 153.989 379.198 153.505 379.52C153.036 379.843 152.676 380.29 152.427 380.862C152.178 381.434 152.053 382.102 152.053 382.864V382.996C152.053 384.287 152.354 385.262 152.955 385.922C153.571 386.568 154.458 386.89 155.617 386.89C156.057 386.89 156.519 386.832 157.003 386.714C157.502 386.597 157.971 386.399 158.411 386.12C158.66 385.974 158.88 385.908 159.071 385.922C159.276 385.937 159.438 386.003 159.555 386.12C159.687 386.238 159.768 386.384 159.797 386.56C159.826 386.736 159.797 386.92 159.709 387.11C159.621 387.286 159.467 387.448 159.247 387.594C158.748 387.932 158.169 388.188 157.509 388.364C156.849 388.526 156.211 388.606 155.595 388.606ZM166.928 388.606C166.048 388.606 165.307 388.452 164.706 388.144C164.105 387.836 163.657 387.382 163.364 386.78C163.071 386.179 162.924 385.446 162.924 384.58V379.388H161.604C161.311 379.388 161.083 379.315 160.922 379.168C160.761 379.007 160.68 378.794 160.68 378.53C160.68 378.252 160.761 378.039 160.922 377.892C161.083 377.746 161.311 377.672 161.604 377.672H162.924V375.406C162.924 375.04 163.019 374.761 163.21 374.57C163.415 374.38 163.694 374.284 164.046 374.284C164.398 374.284 164.669 374.38 164.86 374.57C165.051 374.761 165.146 375.04 165.146 375.406V377.672H167.72C168.013 377.672 168.241 377.746 168.402 377.892C168.563 378.039 168.644 378.252 168.644 378.53C168.644 378.794 168.563 379.007 168.402 379.168C168.241 379.315 168.013 379.388 167.72 379.388H165.146V384.404C165.146 385.182 165.307 385.768 165.63 386.164C165.967 386.56 166.51 386.758 167.258 386.758C167.522 386.758 167.749 386.736 167.94 386.692C168.145 386.634 168.314 386.597 168.446 386.582C168.607 386.582 168.739 386.641 168.842 386.758C168.945 386.861 168.996 387.066 168.996 387.374C168.996 387.594 168.952 387.8 168.864 387.99C168.791 388.181 168.651 388.306 168.446 388.364C168.27 388.423 168.028 388.474 167.72 388.518C167.427 388.577 167.163 388.606 166.928 388.606ZM181.358 388.562C180.991 388.562 180.705 388.46 180.5 388.254C180.309 388.049 180.214 387.763 180.214 387.396V374.812H175.55C175.242 374.812 175 374.732 174.824 374.57C174.648 374.394 174.56 374.152 174.56 373.844C174.56 373.536 174.648 373.302 174.824 373.14C175 372.979 175.242 372.898 175.55 372.898H187.144C187.467 372.898 187.716 372.979 187.892 373.14C188.068 373.302 188.156 373.536 188.156 373.844C188.156 374.152 188.068 374.394 187.892 374.57C187.716 374.732 187.467 374.812 187.144 374.812H182.48V387.396C182.48 387.763 182.385 388.049 182.194 388.254C182.018 388.46 181.739 388.562 181.358 388.562ZM191.597 388.562C191.245 388.562 190.973 388.467 190.783 388.276C190.592 388.071 190.497 387.792 190.497 387.44V373.866C190.497 373.5 190.592 373.221 190.783 373.03C190.973 372.84 191.245 372.744 191.597 372.744C191.949 372.744 192.22 372.84 192.411 373.03C192.616 373.221 192.719 373.5 192.719 373.866V379.96H192.411C192.733 379.139 193.239 378.523 193.929 378.112C194.618 377.687 195.41 377.474 196.305 377.474C197.155 377.474 197.859 377.636 198.417 377.958C198.989 378.266 199.414 378.743 199.693 379.388C199.971 380.019 200.111 380.818 200.111 381.786V387.44C200.111 387.792 200.015 388.071 199.825 388.276C199.634 388.467 199.363 388.562 199.011 388.562C198.644 388.562 198.365 388.467 198.175 388.276C197.984 388.071 197.889 387.792 197.889 387.44V381.918C197.889 380.994 197.705 380.32 197.339 379.894C196.987 379.469 196.429 379.256 195.667 379.256C194.772 379.256 194.053 379.535 193.511 380.092C192.983 380.65 192.719 381.398 192.719 382.336V387.44C192.719 388.188 192.345 388.562 191.597 388.562ZM204.272 388.54C203.92 388.54 203.649 388.438 203.458 388.232C203.268 388.012 203.172 387.712 203.172 387.33V378.75C203.172 378.369 203.268 378.076 203.458 377.87C203.649 377.665 203.92 377.562 204.272 377.562C204.624 377.562 204.896 377.665 205.086 377.87C205.292 378.076 205.394 378.369 205.394 378.75V387.33C205.394 387.712 205.299 388.012 205.108 388.232C204.918 388.438 204.639 388.54 204.272 388.54ZM204.272 375.274C203.832 375.274 203.488 375.164 203.238 374.944C203.004 374.724 202.886 374.416 202.886 374.02C202.886 373.61 203.004 373.302 203.238 373.096C203.488 372.876 203.832 372.766 204.272 372.766C204.712 372.766 205.05 372.876 205.284 373.096C205.534 373.302 205.658 373.61 205.658 374.02C205.658 374.416 205.534 374.724 205.284 374.944C205.05 375.164 204.712 375.274 204.272 375.274ZM212.284 388.606C211.639 388.606 210.971 388.533 210.282 388.386C209.607 388.24 208.984 387.99 208.412 387.638C208.221 387.506 208.089 387.36 208.016 387.198C207.943 387.037 207.913 386.876 207.928 386.714C207.957 386.538 208.023 386.392 208.126 386.274C208.243 386.142 208.383 386.062 208.544 386.032C208.72 386.003 208.903 386.04 209.094 386.142C209.666 386.465 210.216 386.692 210.744 386.824C211.272 386.942 211.793 387 212.306 387C213.083 387 213.67 386.861 214.066 386.582C214.462 386.304 214.66 385.93 214.66 385.46C214.66 385.079 214.528 384.786 214.264 384.58C214 384.36 213.604 384.192 213.076 384.074L210.986 383.656C210.077 383.466 209.387 383.128 208.918 382.644C208.449 382.16 208.214 381.544 208.214 380.796C208.214 380.122 208.397 379.535 208.764 379.036C209.131 378.538 209.644 378.156 210.304 377.892C210.964 377.614 211.727 377.474 212.592 377.474C213.237 377.474 213.846 377.555 214.418 377.716C214.99 377.878 215.518 378.12 216.002 378.442C216.193 378.545 216.317 378.684 216.376 378.86C216.435 379.022 216.442 379.183 216.398 379.344C216.369 379.506 216.295 379.652 216.178 379.784C216.061 379.902 215.914 379.975 215.738 380.004C215.577 380.019 215.393 379.975 215.188 379.872C214.748 379.594 214.308 379.396 213.868 379.278C213.443 379.161 213.017 379.102 212.592 379.102C211.815 379.102 211.228 379.249 210.832 379.542C210.451 379.821 210.26 380.202 210.26 380.686C210.26 381.053 210.377 381.354 210.612 381.588C210.847 381.823 211.213 381.992 211.712 382.094L213.802 382.512C214.755 382.703 215.474 383.026 215.958 383.48C216.457 383.935 216.706 384.551 216.706 385.328C216.706 386.34 216.303 387.14 215.496 387.726C214.689 388.313 213.619 388.606 212.284 388.606ZM232.173 388.606C230.604 388.606 229.262 388.284 228.147 387.638C227.032 386.993 226.174 386.076 225.573 384.888C224.986 383.686 224.693 382.27 224.693 380.642C224.693 379.425 224.862 378.332 225.199 377.364C225.536 376.382 226.02 375.546 226.651 374.856C227.296 374.152 228.081 373.617 229.005 373.25C229.944 372.884 231 372.7 232.173 372.7C233.038 372.7 233.867 372.818 234.659 373.052C235.466 373.287 236.162 373.624 236.749 374.064C236.998 374.226 237.16 374.424 237.233 374.658C237.321 374.878 237.336 375.091 237.277 375.296C237.233 375.502 237.138 375.678 236.991 375.824C236.844 375.956 236.654 376.03 236.419 376.044C236.199 376.059 235.957 375.978 235.693 375.802C235.209 375.436 234.674 375.164 234.087 374.988C233.5 374.812 232.884 374.724 232.239 374.724C231.124 374.724 230.186 374.959 229.423 375.428C228.66 375.883 228.081 376.55 227.685 377.43C227.289 378.31 227.091 379.381 227.091 380.642C227.091 381.904 227.289 382.982 227.685 383.876C228.081 384.756 228.66 385.431 229.423 385.9C230.186 386.355 231.124 386.582 232.239 386.582C232.884 386.582 233.5 386.494 234.087 386.318C234.688 386.128 235.253 385.849 235.781 385.482C236.045 385.321 236.28 385.248 236.485 385.262C236.705 385.277 236.888 385.35 237.035 385.482C237.182 385.614 237.277 385.783 237.321 385.988C237.38 386.179 237.372 386.384 237.299 386.604C237.24 386.81 237.101 386.986 236.881 387.132C236.28 387.616 235.568 387.983 234.747 388.232C233.926 388.482 233.068 388.606 232.173 388.606ZM242.913 388.606C242.165 388.606 241.49 388.46 240.889 388.166C240.302 387.873 239.84 387.477 239.503 386.978C239.166 386.48 238.997 385.915 238.997 385.284C238.997 384.492 239.195 383.869 239.591 383.414C240.002 382.945 240.669 382.615 241.593 382.424C242.532 382.219 243.793 382.116 245.377 382.116H246.411V383.48H245.399C244.343 383.48 243.507 383.532 242.891 383.634C242.275 383.737 241.835 383.913 241.571 384.162C241.322 384.397 241.197 384.727 241.197 385.152C241.197 385.71 241.388 386.164 241.769 386.516C242.15 386.854 242.678 387.022 243.353 387.022C243.896 387.022 244.372 386.898 244.783 386.648C245.194 386.384 245.516 386.032 245.751 385.592C246 385.152 246.125 384.646 246.125 384.074V381.544C246.125 380.708 245.949 380.107 245.597 379.74C245.245 379.374 244.666 379.19 243.859 379.19C243.39 379.19 242.898 379.249 242.385 379.366C241.886 379.484 241.366 379.682 240.823 379.96C240.574 380.078 240.361 380.114 240.185 380.07C240.009 380.026 239.87 379.931 239.767 379.784C239.664 379.623 239.606 379.454 239.591 379.278C239.591 379.088 239.635 378.904 239.723 378.728C239.826 378.552 239.994 378.42 240.229 378.332C240.874 378.024 241.512 377.804 242.143 377.672C242.774 377.54 243.368 377.474 243.925 377.474C244.908 377.474 245.714 377.628 246.345 377.936C246.99 378.244 247.467 378.714 247.775 379.344C248.083 379.975 248.237 380.789 248.237 381.786V387.44C248.237 387.792 248.149 388.071 247.973 388.276C247.797 388.467 247.54 388.562 247.203 388.562C246.88 388.562 246.624 388.467 246.433 388.276C246.242 388.071 246.147 387.792 246.147 387.44V386.01H246.345C246.228 386.553 246.008 387.022 245.685 387.418C245.377 387.8 244.988 388.093 244.519 388.298C244.05 388.504 243.514 388.606 242.913 388.606ZM255.873 388.606C254.993 388.606 254.253 388.452 253.651 388.144C253.05 387.836 252.603 387.382 252.309 386.78C252.016 386.179 251.869 385.446 251.869 384.58V379.388H250.549C250.256 379.388 250.029 379.315 249.867 379.168C249.706 379.007 249.625 378.794 249.625 378.53C249.625 378.252 249.706 378.039 249.867 377.892C250.029 377.746 250.256 377.672 250.549 377.672H251.869V375.406C251.869 375.04 251.965 374.761 252.155 374.57C252.361 374.38 252.639 374.284 252.991 374.284C253.343 374.284 253.615 374.38 253.805 374.57C253.996 374.761 254.091 375.04 254.091 375.406V377.672H256.665C256.959 377.672 257.186 377.746 257.347 377.892C257.509 378.039 257.589 378.252 257.589 378.53C257.589 378.794 257.509 379.007 257.347 379.168C257.186 379.315 256.959 379.388 256.665 379.388H254.091V384.404C254.091 385.182 254.253 385.768 254.575 386.164C254.913 386.56 255.455 386.758 256.203 386.758C256.467 386.758 256.695 386.736 256.885 386.692C257.091 386.634 257.259 386.597 257.391 386.582C257.553 386.582 257.685 386.641 257.787 386.758C257.89 386.861 257.941 387.066 257.941 387.374C257.941 387.594 257.897 387.8 257.809 387.99C257.736 388.181 257.597 388.306 257.391 388.364C257.215 388.423 256.973 388.474 256.665 388.518C256.372 388.577 256.108 388.606 255.873 388.606Z" fill="#F17522"/>
<path d="M70.2891 414.408L68.8828 410.783H64.3047L62.9062 414.408H61.5625L66.0312 402.939H67.2266L71.6641 414.408H70.2891ZM68.4844 409.604L67.1484 406.002C67.1172 405.908 67.0651 405.755 66.9922 405.541C66.9245 405.327 66.8542 405.106 66.7812 404.877C66.7083 404.648 66.6484 404.463 66.6016 404.322C66.5495 404.536 66.4922 404.749 66.4297 404.963C66.3724 405.171 66.3151 405.367 66.2578 405.549C66.2005 405.726 66.151 405.877 66.1094 406.002L64.75 409.604H68.4844ZM78.5156 414.408H77.2109V402.252H78.5156V414.408ZM82.5547 405.846V414.408H81.2578V405.846H82.5547ZM81.9219 402.643C82.1354 402.643 82.3177 402.713 82.4688 402.854C82.625 402.989 82.7031 403.202 82.7031 403.494C82.7031 403.781 82.625 403.994 82.4688 404.135C82.3177 404.275 82.1354 404.346 81.9219 404.346C81.6979 404.346 81.5104 404.275 81.3594 404.135C81.2135 403.994 81.1406 403.781 81.1406 403.494C81.1406 403.202 81.2135 402.989 81.3594 402.854C81.5104 402.713 81.6979 402.643 81.9219 402.643ZM88.0703 413.502C88.2839 413.502 88.5026 413.484 88.7266 413.447C88.9505 413.411 89.1328 413.367 89.2734 413.314V414.322C89.1224 414.39 88.9115 414.447 88.6406 414.494C88.375 414.541 88.1146 414.564 87.8594 414.564C87.4062 414.564 86.9948 414.486 86.625 414.33C86.2552 414.169 85.9583 413.898 85.7344 413.518C85.5156 413.137 85.4062 412.611 85.4062 411.939V406.861H84.1875V406.229L85.4141 405.721L85.9297 403.861H86.7109V405.846H89.2188V406.861H86.7109V411.9C86.7109 412.437 86.8333 412.838 87.0781 413.104C87.3281 413.369 87.6589 413.502 88.0703 413.502ZM93.7734 413.502C93.987 413.502 94.2057 413.484 94.4297 413.447C94.6536 413.411 94.8359 413.367 94.9766 413.314V414.322C94.8255 414.39 94.6146 414.447 94.3438 414.494C94.0781 414.541 93.8177 414.564 93.5625 414.564C93.1094 414.564 92.6979 414.486 92.3281 414.33C91.9583 414.169 91.6615 413.898 91.4375 413.518C91.2188 413.137 91.1094 412.611 91.1094 411.939V406.861H89.8906V406.229L91.1172 405.721L91.6328 403.861H92.4141V405.846H94.9219V406.861H92.4141V411.9C92.4141 412.437 92.5365 412.838 92.7812 413.104C93.0312 413.369 93.362 413.502 93.7734 413.502ZM98.0156 414.408H96.7109V402.252H98.0156V414.408ZM104.055 405.689C104.784 405.689 105.409 405.851 105.93 406.174C106.451 406.497 106.849 406.95 107.125 407.533C107.401 408.111 107.539 408.788 107.539 409.564V410.369H101.625C101.641 411.374 101.891 412.14 102.375 412.666C102.859 413.192 103.542 413.455 104.422 413.455C104.964 413.455 105.443 413.406 105.859 413.307C106.276 413.208 106.708 413.062 107.156 412.869V414.01C106.724 414.202 106.294 414.343 105.867 414.432C105.445 414.52 104.945 414.564 104.367 414.564C103.544 414.564 102.826 414.398 102.211 414.064C101.602 413.726 101.128 413.231 100.789 412.58C100.451 411.929 100.281 411.132 100.281 410.189C100.281 409.268 100.435 408.471 100.742 407.799C101.055 407.122 101.492 406.601 102.055 406.236C102.622 405.872 103.289 405.689 104.055 405.689ZM104.039 406.752C103.346 406.752 102.794 406.979 102.383 407.432C101.971 407.885 101.727 408.518 101.648 409.33H106.18C106.174 408.82 106.094 408.372 105.938 407.986C105.786 407.596 105.555 407.294 105.242 407.08C104.93 406.861 104.529 406.752 104.039 406.752ZM119.438 412.064C119.438 412.611 119.299 413.072 119.023 413.447C118.753 413.817 118.362 414.096 117.852 414.283C117.346 414.471 116.742 414.564 116.039 414.564C115.44 414.564 114.922 414.518 114.484 414.424C114.047 414.33 113.664 414.197 113.336 414.025V412.83C113.685 413.002 114.102 413.158 114.586 413.299C115.07 413.439 115.565 413.51 116.07 413.51C116.81 413.51 117.346 413.39 117.68 413.15C118.013 412.911 118.18 412.585 118.18 412.174C118.18 411.939 118.112 411.734 117.977 411.557C117.846 411.374 117.625 411.2 117.312 411.033C117 410.861 116.568 410.674 116.016 410.471C115.469 410.262 114.995 410.057 114.594 409.854C114.198 409.645 113.891 409.393 113.672 409.096C113.458 408.799 113.352 408.413 113.352 407.939C113.352 407.215 113.643 406.661 114.227 406.275C114.815 405.885 115.586 405.689 116.539 405.689C117.055 405.689 117.536 405.742 117.984 405.846C118.438 405.945 118.859 406.08 119.25 406.252L118.812 407.291C118.458 407.14 118.081 407.012 117.68 406.908C117.279 406.804 116.87 406.752 116.453 406.752C115.854 406.752 115.393 406.851 115.07 407.049C114.753 407.247 114.594 407.518 114.594 407.861C114.594 408.127 114.667 408.346 114.812 408.518C114.964 408.689 115.203 408.851 115.531 409.002C115.859 409.153 116.292 409.33 116.828 409.533C117.365 409.731 117.828 409.937 118.219 410.15C118.609 410.359 118.909 410.614 119.117 410.916C119.331 411.213 119.438 411.596 119.438 412.064ZM122.82 402.252V405.885C122.82 406.093 122.815 406.304 122.805 406.518C122.794 406.726 122.776 406.919 122.75 407.096H122.836C123.013 406.794 123.237 406.541 123.508 406.338C123.784 406.13 124.096 405.973 124.445 405.869C124.794 405.76 125.164 405.705 125.555 405.705C126.242 405.705 126.815 405.814 127.273 406.033C127.737 406.252 128.083 406.59 128.312 407.049C128.547 407.507 128.664 408.101 128.664 408.83V414.408H127.383V408.916C127.383 408.202 127.219 407.669 126.891 407.314C126.568 406.96 126.07 406.783 125.398 406.783C124.763 406.783 124.255 406.906 123.875 407.15C123.5 407.39 123.229 407.744 123.062 408.213C122.901 408.682 122.82 409.255 122.82 409.932V414.408H121.523V402.252H122.82ZM129.984 405.846H131.375L133.266 410.814C133.375 411.106 133.477 411.387 133.57 411.658C133.664 411.924 133.747 412.179 133.82 412.424C133.893 412.669 133.951 412.906 133.992 413.135H134.047C134.12 412.874 134.224 412.533 134.359 412.111C134.495 411.684 134.641 411.249 134.797 410.807L136.586 405.846H137.984L134.258 415.666C134.06 416.192 133.828 416.65 133.562 417.041C133.302 417.432 132.984 417.731 132.609 417.939C132.234 418.153 131.781 418.26 131.25 418.26C131.005 418.26 130.789 418.244 130.602 418.213C130.414 418.187 130.253 418.156 130.117 418.119V417.08C130.232 417.106 130.37 417.13 130.531 417.15C130.698 417.171 130.87 417.182 131.047 417.182C131.37 417.182 131.648 417.119 131.883 416.994C132.122 416.874 132.328 416.697 132.5 416.463C132.672 416.229 132.82 415.95 132.945 415.627L133.414 414.424L129.984 405.846ZM146.711 405.705C147.732 405.705 148.49 405.934 148.984 406.393C149.479 406.851 149.727 407.583 149.727 408.588V414.408H148.781L148.531 413.143H148.469C148.229 413.455 147.979 413.718 147.719 413.932C147.458 414.14 147.156 414.299 146.812 414.408C146.474 414.512 146.057 414.564 145.562 414.564C145.042 414.564 144.578 414.473 144.172 414.291C143.771 414.109 143.453 413.833 143.219 413.463C142.99 413.093 142.875 412.624 142.875 412.057C142.875 411.202 143.214 410.546 143.891 410.088C144.568 409.63 145.599 409.38 146.984 409.338L148.461 409.275V408.752C148.461 408.012 148.302 407.494 147.984 407.197C147.667 406.9 147.219 406.752 146.641 406.752C146.193 406.752 145.766 406.817 145.359 406.947C144.953 407.077 144.568 407.231 144.203 407.408L143.805 406.424C144.19 406.226 144.633 406.057 145.133 405.916C145.633 405.775 146.159 405.705 146.711 405.705ZM148.445 410.189L147.141 410.244C146.073 410.286 145.32 410.46 144.883 410.768C144.445 411.075 144.227 411.51 144.227 412.072C144.227 412.562 144.375 412.924 144.672 413.158C144.969 413.393 145.362 413.51 145.852 413.51C146.612 413.51 147.234 413.299 147.719 412.877C148.203 412.455 148.445 411.822 148.445 410.979V410.189ZM155.164 413.502C155.378 413.502 155.596 413.484 155.82 413.447C156.044 413.411 156.227 413.367 156.367 413.314V414.322C156.216 414.39 156.005 414.447 155.734 414.494C155.469 414.541 155.208 414.564 154.953 414.564C154.5 414.564 154.089 414.486 153.719 414.33C153.349 414.169 153.052 413.898 152.828 413.518C152.609 413.137 152.5 412.611 152.5 411.939V406.861H151.281V406.229L152.508 405.721L153.023 403.861H153.805V405.846H156.312V406.861H153.805V411.9C153.805 412.437 153.927 412.838 154.172 413.104C154.422 413.369 154.753 413.502 155.164 413.502ZM166.07 406.861H163.938V414.408H162.641V406.861H161.125V406.236L162.641 405.807V405.236C162.641 404.518 162.747 403.934 162.961 403.486C163.174 403.033 163.484 402.7 163.891 402.486C164.297 402.273 164.792 402.166 165.375 402.166C165.703 402.166 166.003 402.195 166.273 402.252C166.549 402.309 166.792 402.374 167 402.447L166.664 403.471C166.487 403.413 166.286 403.361 166.062 403.314C165.844 403.262 165.62 403.236 165.391 403.236C164.896 403.236 164.529 403.398 164.289 403.721C164.055 404.038 163.938 404.538 163.938 405.221V405.846H166.07V406.861ZM168.938 405.846V414.408H167.641V405.846H168.938ZM168.305 402.643C168.518 402.643 168.701 402.713 168.852 402.854C169.008 402.989 169.086 403.202 169.086 403.494C169.086 403.781 169.008 403.994 168.852 404.135C168.701 404.275 168.518 404.346 168.305 404.346C168.081 404.346 167.893 404.275 167.742 404.135C167.596 403.994 167.523 403.781 167.523 403.494C167.523 403.202 167.596 402.989 167.742 402.854C167.893 402.713 168.081 402.643 168.305 402.643ZM175.57 405.689C175.742 405.689 175.922 405.7 176.109 405.721C176.297 405.736 176.464 405.76 176.609 405.791L176.445 406.994C176.305 406.958 176.148 406.929 175.977 406.908C175.805 406.887 175.643 406.877 175.492 406.877C175.148 406.877 174.823 406.947 174.516 407.088C174.214 407.223 173.948 407.421 173.719 407.682C173.49 407.937 173.31 408.247 173.18 408.611C173.049 408.971 172.984 409.372 172.984 409.814V414.408H171.68V405.846H172.758L172.898 407.424H172.953C173.13 407.106 173.344 406.817 173.594 406.557C173.844 406.291 174.133 406.08 174.461 405.924C174.794 405.768 175.164 405.689 175.57 405.689ZM183.766 412.064C183.766 412.611 183.628 413.072 183.352 413.447C183.081 413.817 182.69 414.096 182.18 414.283C181.674 414.471 181.07 414.564 180.367 414.564C179.768 414.564 179.25 414.518 178.812 414.424C178.375 414.33 177.992 414.197 177.664 414.025V412.83C178.013 413.002 178.43 413.158 178.914 413.299C179.398 413.439 179.893 413.51 180.398 413.51C181.138 413.51 181.674 413.39 182.008 413.15C182.341 412.911 182.508 412.585 182.508 412.174C182.508 411.939 182.44 411.734 182.305 411.557C182.174 411.374 181.953 411.2 181.641 411.033C181.328 410.861 180.896 410.674 180.344 410.471C179.797 410.262 179.323 410.057 178.922 409.854C178.526 409.645 178.219 409.393 178 409.096C177.786 408.799 177.68 408.413 177.68 407.939C177.68 407.215 177.971 406.661 178.555 406.275C179.143 405.885 179.914 405.689 180.867 405.689C181.383 405.689 181.865 405.742 182.312 405.846C182.766 405.945 183.188 406.08 183.578 406.252L183.141 407.291C182.786 407.14 182.409 407.012 182.008 406.908C181.607 406.804 181.198 406.752 180.781 406.752C180.182 406.752 179.721 406.851 179.398 407.049C179.081 407.247 178.922 407.518 178.922 407.861C178.922 408.127 178.995 408.346 179.141 408.518C179.292 408.689 179.531 408.851 179.859 409.002C180.188 409.153 180.62 409.33 181.156 409.533C181.693 409.731 182.156 409.937 182.547 410.15C182.938 410.359 183.237 410.614 183.445 410.916C183.659 411.213 183.766 411.596 183.766 412.064ZM188.617 413.502C188.831 413.502 189.049 413.484 189.273 413.447C189.497 413.411 189.68 413.367 189.82 413.314V414.322C189.669 414.39 189.458 414.447 189.188 414.494C188.922 414.541 188.661 414.564 188.406 414.564C187.953 414.564 187.542 414.486 187.172 414.33C186.802 414.169 186.505 413.898 186.281 413.518C186.062 413.137 185.953 412.611 185.953 411.939V406.861H184.734V406.229L185.961 405.721L186.477 403.861H187.258V405.846H189.766V406.861H187.258V411.9C187.258 412.437 187.38 412.838 187.625 413.104C187.875 413.369 188.206 413.502 188.617 413.502ZM193.039 412.549L193.141 412.729C193.047 413.109 192.927 413.515 192.781 413.947C192.641 414.38 192.484 414.812 192.312 415.244C192.146 415.682 191.977 416.09 191.805 416.471H190.836C190.945 416.054 191.052 415.614 191.156 415.15C191.26 414.692 191.354 414.239 191.438 413.791C191.526 413.338 191.596 412.924 191.648 412.549H193.039ZM201.148 402.252V405.291C201.148 405.64 201.138 405.979 201.117 406.307C201.102 406.635 201.089 406.89 201.078 407.072H201.148C201.383 406.687 201.721 406.361 202.164 406.096C202.607 405.83 203.172 405.697 203.859 405.697C204.932 405.697 205.786 406.07 206.422 406.814C207.062 407.554 207.383 408.656 207.383 410.119C207.383 411.083 207.237 411.895 206.945 412.557C206.654 413.218 206.242 413.718 205.711 414.057C205.18 414.395 204.552 414.564 203.828 414.564C203.151 414.564 202.594 414.439 202.156 414.189C201.724 413.934 201.391 413.624 201.156 413.26H201.055L200.789 414.408H199.852V402.252H201.148ZM203.648 406.783C203.029 406.783 202.536 406.906 202.172 407.15C201.807 407.39 201.544 407.755 201.383 408.244C201.227 408.729 201.148 409.343 201.148 410.088V410.158C201.148 411.236 201.328 412.062 201.688 412.635C202.047 413.202 202.701 413.486 203.648 413.486C204.445 413.486 205.042 413.195 205.438 412.611C205.839 412.028 206.039 411.195 206.039 410.111C206.039 409.007 205.841 408.176 205.445 407.619C205.055 407.062 204.456 406.783 203.648 406.783ZM216.719 405.846V414.408H215.656L215.469 413.205H215.398C215.221 413.502 214.992 413.752 214.711 413.955C214.43 414.158 214.112 414.309 213.758 414.408C213.409 414.512 213.036 414.564 212.641 414.564C211.964 414.564 211.396 414.455 210.938 414.236C210.479 414.018 210.133 413.679 209.898 413.221C209.669 412.762 209.555 412.174 209.555 411.455V405.846H210.867V411.361C210.867 412.075 211.029 412.609 211.352 412.963C211.674 413.312 212.167 413.486 212.828 413.486C213.464 413.486 213.969 413.367 214.344 413.127C214.724 412.887 214.997 412.536 215.164 412.072C215.331 411.604 215.414 411.031 215.414 410.354V405.846H216.719ZM222.227 413.502C222.44 413.502 222.659 413.484 222.883 413.447C223.107 413.411 223.289 413.367 223.43 413.314V414.322C223.279 414.39 223.068 414.447 222.797 414.494C222.531 414.541 222.271 414.564 222.016 414.564C221.562 414.564 221.151 414.486 220.781 414.33C220.411 414.169 220.115 413.898 219.891 413.518C219.672 413.137 219.562 412.611 219.562 411.939V406.861H218.344V406.229L219.57 405.721L220.086 403.861H220.867V405.846H223.375V406.861H220.867V411.9C220.867 412.437 220.99 412.838 221.234 413.104C221.484 413.369 221.815 413.502 222.227 413.502ZM233.133 406.861H231V414.408H229.703V406.861H228.188V406.236L229.703 405.807V405.236C229.703 404.518 229.81 403.934 230.023 403.486C230.237 403.033 230.547 402.7 230.953 402.486C231.359 402.273 231.854 402.166 232.438 402.166C232.766 402.166 233.065 402.195 233.336 402.252C233.612 402.309 233.854 402.374 234.062 402.447L233.727 403.471C233.549 403.413 233.349 403.361 233.125 403.314C232.906 403.262 232.682 403.236 232.453 403.236C231.958 403.236 231.591 403.398 231.352 403.721C231.117 404.038 231 404.538 231 405.221V405.846H233.133V406.861ZM241.781 405.846V414.408H240.719L240.531 413.205H240.461C240.284 413.502 240.055 413.752 239.773 413.955C239.492 414.158 239.174 414.309 238.82 414.408C238.471 414.512 238.099 414.564 237.703 414.564C237.026 414.564 236.458 414.455 236 414.236C235.542 414.018 235.195 413.679 234.961 413.221C234.732 412.762 234.617 412.174 234.617 411.455V405.846H235.93V411.361C235.93 412.075 236.091 412.609 236.414 412.963C236.737 413.312 237.229 413.486 237.891 413.486C238.526 413.486 239.031 413.367 239.406 413.127C239.786 412.887 240.06 412.536 240.227 412.072C240.393 411.604 240.477 411.031 240.477 410.354V405.846H241.781ZM245.828 414.408H244.523V402.252H245.828V414.408ZM249.875 414.408H248.57V402.252H249.875V414.408ZM264.156 410.111C264.156 410.814 264.065 411.442 263.883 411.994C263.701 412.546 263.438 413.012 263.094 413.393C262.75 413.773 262.333 414.064 261.844 414.268C261.359 414.465 260.81 414.564 260.195 414.564C259.622 414.564 259.096 414.465 258.617 414.268C258.143 414.064 257.732 413.773 257.383 413.393C257.039 413.012 256.771 412.546 256.578 411.994C256.391 411.442 256.297 410.814 256.297 410.111C256.297 409.174 256.456 408.377 256.773 407.721C257.091 407.059 257.544 406.557 258.133 406.213C258.727 405.864 259.432 405.689 260.25 405.689C261.031 405.689 261.714 405.864 262.297 406.213C262.885 406.562 263.341 407.067 263.664 407.729C263.992 408.385 264.156 409.179 264.156 410.111ZM257.641 410.111C257.641 410.799 257.732 411.395 257.914 411.9C258.096 412.406 258.378 412.796 258.758 413.072C259.138 413.348 259.628 413.486 260.227 413.486C260.82 413.486 261.307 413.348 261.688 413.072C262.073 412.796 262.357 412.406 262.539 411.9C262.721 411.395 262.812 410.799 262.812 410.111C262.812 409.429 262.721 408.84 262.539 408.346C262.357 407.846 262.076 407.46 261.695 407.189C261.315 406.919 260.823 406.783 260.219 406.783C259.328 406.783 258.674 407.077 258.258 407.666C257.846 408.255 257.641 409.07 257.641 410.111ZM270.211 406.861H268.078V414.408H266.781V406.861H265.266V406.236L266.781 405.807V405.236C266.781 404.518 266.888 403.934 267.102 403.486C267.315 403.033 267.625 402.7 268.031 402.486C268.438 402.273 268.932 402.166 269.516 402.166C269.844 402.166 270.143 402.195 270.414 402.252C270.69 402.309 270.932 402.374 271.141 402.447L270.805 403.471C270.628 403.413 270.427 403.361 270.203 403.314C269.984 403.262 269.76 403.236 269.531 403.236C269.036 403.236 268.669 403.398 268.43 403.721C268.195 404.038 268.078 404.538 268.078 405.221V405.846H270.211V406.861ZM277.25 414.408H275.945V402.252H277.25V414.408ZM287.375 410.111C287.375 410.814 287.284 411.442 287.102 411.994C286.919 412.546 286.656 413.012 286.312 413.393C285.969 413.773 285.552 414.064 285.062 414.268C284.578 414.465 284.029 414.564 283.414 414.564C282.841 414.564 282.315 414.465 281.836 414.268C281.362 414.064 280.951 413.773 280.602 413.393C280.258 413.012 279.99 412.546 279.797 411.994C279.609 411.442 279.516 410.814 279.516 410.111C279.516 409.174 279.674 408.377 279.992 407.721C280.31 407.059 280.763 406.557 281.352 406.213C281.945 405.864 282.651 405.689 283.469 405.689C284.25 405.689 284.932 405.864 285.516 406.213C286.104 406.562 286.56 407.067 286.883 407.729C287.211 408.385 287.375 409.179 287.375 410.111ZM280.859 410.111C280.859 410.799 280.951 411.395 281.133 411.9C281.315 412.406 281.596 412.796 281.977 413.072C282.357 413.348 282.846 413.486 283.445 413.486C284.039 413.486 284.526 413.348 284.906 413.072C285.292 412.796 285.576 412.406 285.758 411.9C285.94 411.395 286.031 410.799 286.031 410.111C286.031 409.429 285.94 408.84 285.758 408.346C285.576 407.846 285.294 407.46 284.914 407.189C284.534 406.919 284.042 406.783 283.438 406.783C282.547 406.783 281.893 407.077 281.477 407.666C281.065 408.255 280.859 409.07 280.859 410.111ZM291.5 414.408L288.25 405.846H289.641L291.523 411.025C291.654 411.38 291.786 411.77 291.922 412.197C292.057 412.624 292.151 412.968 292.203 413.229H292.258C292.32 412.968 292.424 412.624 292.57 412.197C292.716 411.765 292.849 411.374 292.969 411.025L294.852 405.846H296.242L292.984 414.408H291.5ZM300.914 405.689C301.643 405.689 302.268 405.851 302.789 406.174C303.31 406.497 303.708 406.95 303.984 407.533C304.26 408.111 304.398 408.788 304.398 409.564V410.369H298.484C298.5 411.374 298.75 412.14 299.234 412.666C299.719 413.192 300.401 413.455 301.281 413.455C301.823 413.455 302.302 413.406 302.719 413.307C303.135 413.208 303.568 413.062 304.016 412.869V414.01C303.583 414.202 303.154 414.343 302.727 414.432C302.305 414.52 301.805 414.564 301.227 414.564C300.404 414.564 299.685 414.398 299.07 414.064C298.461 413.726 297.987 413.231 297.648 412.58C297.31 411.929 297.141 411.132 297.141 410.189C297.141 409.268 297.294 408.471 297.602 407.799C297.914 407.122 298.352 406.601 298.914 406.236C299.482 405.872 300.148 405.689 300.914 405.689ZM300.898 406.752C300.206 406.752 299.654 406.979 299.242 407.432C298.831 407.885 298.586 408.518 298.508 409.33H303.039C303.034 408.82 302.953 408.372 302.797 407.986C302.646 407.596 302.414 407.294 302.102 407.08C301.789 406.861 301.388 406.752 300.898 406.752ZM306.406 413.596C306.406 413.231 306.495 412.973 306.672 412.822C306.849 412.666 307.065 412.588 307.32 412.588C307.586 412.588 307.81 412.666 307.992 412.822C308.174 412.973 308.266 413.231 308.266 413.596C308.266 413.955 308.174 414.218 307.992 414.385C307.81 414.546 307.586 414.627 307.32 414.627C307.065 414.627 306.849 414.546 306.672 414.385C306.495 414.218 306.406 413.955 306.406 413.596ZM62.3906 438.408V426.986H63.7188V437.221H68.7891V438.408H62.3906ZM77.9375 434.111C77.9375 434.814 77.8464 435.442 77.6641 435.994C77.4818 436.546 77.2188 437.012 76.875 437.393C76.5312 437.773 76.1146 438.064 75.625 438.268C75.1406 438.465 74.5911 438.564 73.9766 438.564C73.4036 438.564 72.8776 438.465 72.3984 438.268C71.9245 438.064 71.513 437.773 71.1641 437.393C70.8203 437.012 70.5521 436.546 70.3594 435.994C70.1719 435.442 70.0781 434.814 70.0781 434.111C70.0781 433.174 70.237 432.377 70.5547 431.721C70.8724 431.059 71.3255 430.557 71.9141 430.213C72.5078 429.864 73.2135 429.689 74.0312 429.689C74.8125 429.689 75.4948 429.864 76.0781 430.213C76.6667 430.562 77.1224 431.067 77.4453 431.729C77.7734 432.385 77.9375 433.179 77.9375 434.111ZM71.4219 434.111C71.4219 434.799 71.513 435.395 71.6953 435.9C71.8776 436.406 72.1589 436.796 72.5391 437.072C72.9193 437.348 73.4089 437.486 74.0078 437.486C74.6016 437.486 75.0885 437.348 75.4688 437.072C75.8542 436.796 76.138 436.406 76.3203 435.9C76.5026 435.395 76.5938 434.799 76.5938 434.111C76.5938 433.429 76.5026 432.84 76.3203 432.346C76.138 431.846 75.8568 431.46 75.4766 431.189C75.0964 430.919 74.6042 430.783 74 430.783C73.1094 430.783 72.4557 431.077 72.0391 431.666C71.6276 432.255 71.4219 433.07 71.4219 434.111ZM82.0625 438.408L78.8125 429.846H80.2031L82.0859 435.025C82.2161 435.38 82.349 435.77 82.4844 436.197C82.6198 436.624 82.7135 436.968 82.7656 437.229H82.8203C82.8828 436.968 82.987 436.624 83.1328 436.197C83.2786 435.765 83.4115 435.374 83.5312 435.025L85.4141 429.846H86.8047L83.5469 438.408H82.0625ZM91.4766 429.689C92.2057 429.689 92.8307 429.851 93.3516 430.174C93.8724 430.497 94.2708 430.95 94.5469 431.533C94.8229 432.111 94.9609 432.788 94.9609 433.564V434.369H89.0469C89.0625 435.374 89.3125 436.14 89.7969 436.666C90.2812 437.192 90.9635 437.455 91.8438 437.455C92.3854 437.455 92.8646 437.406 93.2812 437.307C93.6979 437.208 94.1302 437.062 94.5781 436.869V438.01C94.1458 438.202 93.7161 438.343 93.2891 438.432C92.8672 438.52 92.3672 438.564 91.7891 438.564C90.9661 438.564 90.2474 438.398 89.6328 438.064C89.0234 437.726 88.5495 437.231 88.2109 436.58C87.8724 435.929 87.7031 435.132 87.7031 434.189C87.7031 433.268 87.8568 432.471 88.1641 431.799C88.4766 431.122 88.9141 430.601 89.4766 430.236C90.0443 429.872 90.7109 429.689 91.4766 429.689ZM91.4609 430.752C90.7682 430.752 90.2161 430.979 89.8047 431.432C89.3932 431.885 89.1484 432.518 89.0703 433.33H93.6016C93.5964 432.82 93.5156 432.372 93.3594 431.986C93.2083 431.596 92.9766 431.294 92.6641 431.08C92.3516 430.861 91.9505 430.752 91.4609 430.752ZM102.703 436.064C102.703 436.611 102.565 437.072 102.289 437.447C102.018 437.817 101.628 438.096 101.117 438.283C100.612 438.471 100.008 438.564 99.3047 438.564C98.7057 438.564 98.1875 438.518 97.75 438.424C97.3125 438.33 96.9297 438.197 96.6016 438.025V436.83C96.9505 437.002 97.3672 437.158 97.8516 437.299C98.3359 437.439 98.8307 437.51 99.3359 437.51C100.076 437.51 100.612 437.39 100.945 437.15C101.279 436.911 101.445 436.585 101.445 436.174C101.445 435.939 101.378 435.734 101.242 435.557C101.112 435.374 100.891 435.2 100.578 435.033C100.266 434.861 99.8333 434.674 99.2812 434.471C98.7344 434.262 98.2604 434.057 97.8594 433.854C97.4635 433.645 97.1562 433.393 96.9375 433.096C96.724 432.799 96.6172 432.413 96.6172 431.939C96.6172 431.215 96.9089 430.661 97.4922 430.275C98.0807 429.885 98.8516 429.689 99.8047 429.689C100.32 429.689 100.802 429.742 101.25 429.846C101.703 429.945 102.125 430.08 102.516 430.252L102.078 431.291C101.724 431.14 101.346 431.012 100.945 430.908C100.544 430.804 100.135 430.752 99.7188 430.752C99.1198 430.752 98.6589 430.851 98.3359 431.049C98.0182 431.247 97.8594 431.518 97.8594 431.861C97.8594 432.127 97.9323 432.346 98.0781 432.518C98.2292 432.689 98.4688 432.851 98.7969 433.002C99.125 433.153 99.5573 433.33 100.094 433.533C100.63 433.731 101.094 433.937 101.484 434.15C101.875 434.359 102.174 434.614 102.383 434.916C102.596 435.213 102.703 435.596 102.703 436.064ZM112.758 430.861H110.625V438.408H109.328V430.861H107.812V430.236L109.328 429.807V429.236C109.328 428.518 109.435 427.934 109.648 427.486C109.862 427.033 110.172 426.7 110.578 426.486C110.984 426.273 111.479 426.166 112.062 426.166C112.391 426.166 112.69 426.195 112.961 426.252C113.237 426.309 113.479 426.374 113.688 426.447L113.352 427.471C113.174 427.413 112.974 427.361 112.75 427.314C112.531 427.262 112.307 427.236 112.078 427.236C111.583 427.236 111.216 427.398 110.977 427.721C110.742 428.038 110.625 428.538 110.625 429.221V429.846H112.758V430.861ZM118.227 429.689C118.398 429.689 118.578 429.7 118.766 429.721C118.953 429.736 119.12 429.76 119.266 429.791L119.102 430.994C118.961 430.958 118.805 430.929 118.633 430.908C118.461 430.887 118.299 430.877 118.148 430.877C117.805 430.877 117.479 430.947 117.172 431.088C116.87 431.223 116.604 431.421 116.375 431.682C116.146 431.937 115.966 432.247 115.836 432.611C115.706 432.971 115.641 433.372 115.641 433.814V438.408H114.336V429.846H115.414L115.555 431.424H115.609C115.786 431.106 116 430.817 116.25 430.557C116.5 430.291 116.789 430.08 117.117 429.924C117.451 429.768 117.82 429.689 118.227 429.689ZM124.18 429.689C124.909 429.689 125.534 429.851 126.055 430.174C126.576 430.497 126.974 430.95 127.25 431.533C127.526 432.111 127.664 432.788 127.664 433.564V434.369H121.75C121.766 435.374 122.016 436.14 122.5 436.666C122.984 437.192 123.667 437.455 124.547 437.455C125.089 437.455 125.568 437.406 125.984 437.307C126.401 437.208 126.833 437.062 127.281 436.869V438.01C126.849 438.202 126.419 438.343 125.992 438.432C125.57 438.52 125.07 438.564 124.492 438.564C123.669 438.564 122.951 438.398 122.336 438.064C121.727 437.726 121.253 437.231 120.914 436.58C120.576 435.929 120.406 435.132 120.406 434.189C120.406 433.268 120.56 432.471 120.867 431.799C121.18 431.122 121.617 430.601 122.18 430.236C122.747 429.872 123.414 429.689 124.18 429.689ZM124.164 430.752C123.471 430.752 122.919 430.979 122.508 431.432C122.096 431.885 121.852 432.518 121.773 433.33H126.305C126.299 432.82 126.219 432.372 126.062 431.986C125.911 431.596 125.68 431.294 125.367 431.08C125.055 430.861 124.654 430.752 124.164 430.752ZM135.406 436.064C135.406 436.611 135.268 437.072 134.992 437.447C134.721 437.817 134.331 438.096 133.82 438.283C133.315 438.471 132.711 438.564 132.008 438.564C131.409 438.564 130.891 438.518 130.453 438.424C130.016 438.33 129.633 438.197 129.305 438.025V436.83C129.654 437.002 130.07 437.158 130.555 437.299C131.039 437.439 131.534 437.51 132.039 437.51C132.779 437.51 133.315 437.39 133.648 437.15C133.982 436.911 134.148 436.585 134.148 436.174C134.148 435.939 134.081 435.734 133.945 435.557C133.815 435.374 133.594 435.2 133.281 435.033C132.969 434.861 132.536 434.674 131.984 434.471C131.438 434.262 130.964 434.057 130.562 433.854C130.167 433.645 129.859 433.393 129.641 433.096C129.427 432.799 129.32 432.413 129.32 431.939C129.32 431.215 129.612 430.661 130.195 430.275C130.784 429.885 131.555 429.689 132.508 429.689C133.023 429.689 133.505 429.742 133.953 429.846C134.406 429.945 134.828 430.08 135.219 430.252L134.781 431.291C134.427 431.14 134.049 431.012 133.648 430.908C133.247 430.804 132.839 430.752 132.422 430.752C131.823 430.752 131.362 430.851 131.039 431.049C130.721 431.247 130.562 431.518 130.562 431.861C130.562 432.127 130.635 432.346 130.781 432.518C130.932 432.689 131.172 432.851 131.5 433.002C131.828 433.153 132.26 433.33 132.797 433.533C133.333 433.731 133.797 433.937 134.188 434.15C134.578 434.359 134.878 434.614 135.086 434.916C135.299 435.213 135.406 435.596 135.406 436.064ZM138.789 426.252V429.885C138.789 430.093 138.784 430.304 138.773 430.518C138.763 430.726 138.745 430.919 138.719 431.096H138.805C138.982 430.794 139.206 430.541 139.477 430.338C139.753 430.13 140.065 429.973 140.414 429.869C140.763 429.76 141.133 429.705 141.523 429.705C142.211 429.705 142.784 429.814 143.242 430.033C143.706 430.252 144.052 430.59 144.281 431.049C144.516 431.507 144.633 432.101 144.633 432.83V438.408H143.352V432.916C143.352 432.202 143.188 431.669 142.859 431.314C142.536 430.96 142.039 430.783 141.367 430.783C140.732 430.783 140.224 430.906 139.844 431.15C139.469 431.39 139.198 431.744 139.031 432.213C138.87 432.682 138.789 433.255 138.789 433.932V438.408H137.492V426.252H138.789ZM158.43 438.393L156.906 433.408C156.839 433.195 156.773 432.986 156.711 432.783C156.654 432.575 156.599 432.377 156.547 432.189C156.5 431.997 156.456 431.82 156.414 431.658C156.378 431.492 156.346 431.348 156.32 431.229H156.266C156.245 431.348 156.216 431.492 156.18 431.658C156.143 431.82 156.099 431.997 156.047 432.189C156 432.382 155.948 432.585 155.891 432.799C155.833 433.007 155.768 433.218 155.695 433.432L154.102 438.393H152.641L150.281 429.83H151.625L152.859 434.557C152.943 434.869 153.021 435.179 153.094 435.486C153.172 435.788 153.237 436.075 153.289 436.346C153.346 436.611 153.388 436.843 153.414 437.041H153.477C153.508 436.911 153.542 436.755 153.578 436.572C153.62 436.39 153.664 436.197 153.711 435.994C153.763 435.786 153.818 435.58 153.875 435.377C153.932 435.169 153.99 434.973 154.047 434.791L155.625 429.83H157.023L158.547 434.783C158.625 435.033 158.701 435.294 158.773 435.564C158.852 435.835 158.922 436.098 158.984 436.354C159.047 436.604 159.091 436.827 159.117 437.025H159.18C159.201 436.848 159.24 436.63 159.297 436.369C159.354 436.109 159.419 435.822 159.492 435.51C159.57 435.197 159.651 434.88 159.734 434.557L160.984 429.83H162.305L159.938 438.393H158.43ZM167.07 429.705C168.091 429.705 168.849 429.934 169.344 430.393C169.839 430.851 170.086 431.583 170.086 432.588V438.408H169.141L168.891 437.143H168.828C168.589 437.455 168.339 437.718 168.078 437.932C167.818 438.14 167.516 438.299 167.172 438.408C166.833 438.512 166.417 438.564 165.922 438.564C165.401 438.564 164.938 438.473 164.531 438.291C164.13 438.109 163.812 437.833 163.578 437.463C163.349 437.093 163.234 436.624 163.234 436.057C163.234 435.202 163.573 434.546 164.25 434.088C164.927 433.63 165.958 433.38 167.344 433.338L168.82 433.275V432.752C168.82 432.012 168.661 431.494 168.344 431.197C168.026 430.9 167.578 430.752 167 430.752C166.552 430.752 166.125 430.817 165.719 430.947C165.312 431.077 164.927 431.231 164.562 431.408L164.164 430.424C164.549 430.226 164.992 430.057 165.492 429.916C165.992 429.775 166.518 429.705 167.07 429.705ZM168.805 434.189L167.5 434.244C166.432 434.286 165.68 434.46 165.242 434.768C164.805 435.075 164.586 435.51 164.586 436.072C164.586 436.562 164.734 436.924 165.031 437.158C165.328 437.393 165.721 437.51 166.211 437.51C166.971 437.51 167.594 437.299 168.078 436.877C168.562 436.455 168.805 435.822 168.805 434.979V434.189ZM175.523 437.502C175.737 437.502 175.956 437.484 176.18 437.447C176.404 437.411 176.586 437.367 176.727 437.314V438.322C176.576 438.39 176.365 438.447 176.094 438.494C175.828 438.541 175.568 438.564 175.312 438.564C174.859 438.564 174.448 438.486 174.078 438.33C173.708 438.169 173.411 437.898 173.188 437.518C172.969 437.137 172.859 436.611 172.859 435.939V430.861H171.641V430.229L172.867 429.721L173.383 427.861H174.164V429.846H176.672V430.861H174.164V435.9C174.164 436.437 174.286 436.838 174.531 437.104C174.781 437.369 175.112 437.502 175.523 437.502ZM181.758 429.689C182.487 429.689 183.112 429.851 183.633 430.174C184.154 430.497 184.552 430.95 184.828 431.533C185.104 432.111 185.242 432.788 185.242 433.564V434.369H179.328C179.344 435.374 179.594 436.14 180.078 436.666C180.562 437.192 181.245 437.455 182.125 437.455C182.667 437.455 183.146 437.406 183.562 437.307C183.979 437.208 184.411 437.062 184.859 436.869V438.01C184.427 438.202 183.997 438.343 183.57 438.432C183.148 438.52 182.648 438.564 182.07 438.564C181.247 438.564 180.529 438.398 179.914 438.064C179.305 437.726 178.831 437.231 178.492 436.58C178.154 435.929 177.984 435.132 177.984 434.189C177.984 433.268 178.138 432.471 178.445 431.799C178.758 431.122 179.195 430.601 179.758 430.236C180.326 429.872 180.992 429.689 181.758 429.689ZM181.742 430.752C181.049 430.752 180.497 430.979 180.086 431.432C179.674 431.885 179.43 432.518 179.352 433.33H183.883C183.878 432.82 183.797 432.372 183.641 431.986C183.49 431.596 183.258 431.294 182.945 431.08C182.633 430.861 182.232 430.752 181.742 430.752ZM191.336 429.689C191.508 429.689 191.688 429.7 191.875 429.721C192.062 429.736 192.229 429.76 192.375 429.791L192.211 430.994C192.07 430.958 191.914 430.929 191.742 430.908C191.57 430.887 191.409 430.877 191.258 430.877C190.914 430.877 190.589 430.947 190.281 431.088C189.979 431.223 189.714 431.421 189.484 431.682C189.255 431.937 189.076 432.247 188.945 432.611C188.815 432.971 188.75 433.372 188.75 433.814V438.408H187.445V429.846H188.523L188.664 431.424H188.719C188.896 431.106 189.109 430.817 189.359 430.557C189.609 430.291 189.898 430.08 190.227 429.924C190.56 429.768 190.93 429.689 191.336 429.689ZM201.352 429.705C202.372 429.705 203.13 429.934 203.625 430.393C204.12 430.851 204.367 431.583 204.367 432.588V438.408H203.422L203.172 437.143H203.109C202.87 437.455 202.62 437.718 202.359 437.932C202.099 438.14 201.797 438.299 201.453 438.408C201.115 438.512 200.698 438.564 200.203 438.564C199.682 438.564 199.219 438.473 198.812 438.291C198.411 438.109 198.094 437.833 197.859 437.463C197.63 437.093 197.516 436.624 197.516 436.057C197.516 435.202 197.854 434.546 198.531 434.088C199.208 433.63 200.24 433.38 201.625 433.338L203.102 433.275V432.752C203.102 432.012 202.943 431.494 202.625 431.197C202.307 430.9 201.859 430.752 201.281 430.752C200.833 430.752 200.406 430.817 200 430.947C199.594 431.077 199.208 431.231 198.844 431.408L198.445 430.424C198.831 430.226 199.273 430.057 199.773 429.916C200.273 429.775 200.799 429.705 201.352 429.705ZM203.086 434.189L201.781 434.244C200.714 434.286 199.961 434.46 199.523 434.768C199.086 435.075 198.867 435.51 198.867 436.072C198.867 436.562 199.016 436.924 199.312 437.158C199.609 437.393 200.003 437.51 200.492 437.51C201.253 437.51 201.875 437.299 202.359 436.877C202.844 436.455 203.086 435.822 203.086 434.979V434.189ZM211.094 429.689C212.109 429.689 212.878 429.939 213.398 430.439C213.919 430.934 214.18 431.731 214.18 432.83V438.408H212.898V432.916C212.898 432.202 212.734 431.669 212.406 431.314C212.083 430.96 211.586 430.783 210.914 430.783C209.966 430.783 209.299 431.051 208.914 431.588C208.529 432.124 208.336 432.903 208.336 433.924V438.408H207.039V429.846H208.086L208.281 431.08H208.352C208.534 430.778 208.766 430.525 209.047 430.322C209.328 430.114 209.643 429.958 209.992 429.854C210.341 429.744 210.708 429.689 211.094 429.689ZM219.898 438.564C218.815 438.564 217.956 438.195 217.32 437.455C216.69 436.715 216.375 435.617 216.375 434.158C216.375 432.684 216.698 431.572 217.344 430.822C217.99 430.067 218.849 429.689 219.922 429.689C220.375 429.689 220.771 429.749 221.109 429.869C221.448 429.989 221.74 430.15 221.984 430.354C222.229 430.551 222.435 430.778 222.602 431.033H222.695C222.674 430.872 222.654 430.65 222.633 430.369C222.612 430.088 222.602 429.859 222.602 429.682V426.252H223.898V438.408H222.852L222.656 437.189H222.602C222.44 437.445 222.234 437.676 221.984 437.885C221.74 438.093 221.445 438.26 221.102 438.385C220.763 438.505 220.362 438.564 219.898 438.564ZM220.102 437.486C221.018 437.486 221.667 437.226 222.047 436.705C222.427 436.184 222.617 435.411 222.617 434.385V434.15C222.617 433.062 222.435 432.226 222.07 431.643C221.711 431.059 221.055 430.768 220.102 430.768C219.305 430.768 218.708 431.075 218.312 431.689C217.917 432.299 217.719 433.132 217.719 434.189C217.719 435.242 217.914 436.054 218.305 436.627C218.701 437.2 219.299 437.486 220.102 437.486ZM234.617 430.861H232.484V438.408H231.188V430.861H229.672V430.236L231.188 429.807V429.236C231.188 428.518 231.294 427.934 231.508 427.486C231.721 427.033 232.031 426.7 232.438 426.486C232.844 426.273 233.339 426.166 233.922 426.166C234.25 426.166 234.549 426.195 234.82 426.252C235.096 426.309 235.339 426.374 235.547 426.447L235.211 427.471C235.034 427.413 234.833 427.361 234.609 427.314C234.391 427.262 234.167 427.236 233.938 427.236C233.443 427.236 233.076 427.398 232.836 427.721C232.602 428.038 232.484 428.538 232.484 429.221V429.846H234.617V430.861ZM243.578 434.111C243.578 434.814 243.487 435.442 243.305 435.994C243.122 436.546 242.859 437.012 242.516 437.393C242.172 437.773 241.755 438.064 241.266 438.268C240.781 438.465 240.232 438.564 239.617 438.564C239.044 438.564 238.518 438.465 238.039 438.268C237.565 438.064 237.154 437.773 236.805 437.393C236.461 437.012 236.193 436.546 236 435.994C235.812 435.442 235.719 434.814 235.719 434.111C235.719 433.174 235.878 432.377 236.195 431.721C236.513 431.059 236.966 430.557 237.555 430.213C238.148 429.864 238.854 429.689 239.672 429.689C240.453 429.689 241.135 429.864 241.719 430.213C242.307 430.562 242.763 431.067 243.086 431.729C243.414 432.385 243.578 433.179 243.578 434.111ZM237.062 434.111C237.062 434.799 237.154 435.395 237.336 435.9C237.518 436.406 237.799 436.796 238.18 437.072C238.56 437.348 239.049 437.486 239.648 437.486C240.242 437.486 240.729 437.348 241.109 437.072C241.495 436.796 241.779 436.406 241.961 435.9C242.143 435.395 242.234 434.799 242.234 434.111C242.234 433.429 242.143 432.84 241.961 432.346C241.779 431.846 241.497 431.46 241.117 431.189C240.737 430.919 240.245 430.783 239.641 430.783C238.75 430.783 238.096 431.077 237.68 431.666C237.268 432.255 237.062 433.07 237.062 434.111ZM247.125 438.408H245.82V426.252H247.125V438.408ZM251.172 438.408H249.867V426.252H251.172V438.408ZM261.297 434.111C261.297 434.814 261.206 435.442 261.023 435.994C260.841 436.546 260.578 437.012 260.234 437.393C259.891 437.773 259.474 438.064 258.984 438.268C258.5 438.465 257.951 438.564 257.336 438.564C256.763 438.564 256.237 438.465 255.758 438.268C255.284 438.064 254.872 437.773 254.523 437.393C254.18 437.012 253.911 436.546 253.719 435.994C253.531 435.442 253.438 434.814 253.438 434.111C253.438 433.174 253.596 432.377 253.914 431.721C254.232 431.059 254.685 430.557 255.273 430.213C255.867 429.864 256.573 429.689 257.391 429.689C258.172 429.689 258.854 429.864 259.438 430.213C260.026 430.562 260.482 431.067 260.805 431.729C261.133 432.385 261.297 433.179 261.297 434.111ZM254.781 434.111C254.781 434.799 254.872 435.395 255.055 435.9C255.237 436.406 255.518 436.796 255.898 437.072C256.279 437.348 256.768 437.486 257.367 437.486C257.961 437.486 258.448 437.348 258.828 437.072C259.214 436.796 259.497 436.406 259.68 435.9C259.862 435.395 259.953 434.799 259.953 434.111C259.953 433.429 259.862 432.84 259.68 432.346C259.497 431.846 259.216 431.46 258.836 431.189C258.456 430.919 257.964 430.783 257.359 430.783C256.469 430.783 255.815 431.077 255.398 431.666C254.987 432.255 254.781 433.07 254.781 434.111ZM270.508 438.393L268.984 433.408C268.917 433.195 268.852 432.986 268.789 432.783C268.732 432.575 268.677 432.377 268.625 432.189C268.578 431.997 268.534 431.82 268.492 431.658C268.456 431.492 268.424 431.348 268.398 431.229H268.344C268.323 431.348 268.294 431.492 268.258 431.658C268.221 431.82 268.177 431.997 268.125 432.189C268.078 432.382 268.026 432.585 267.969 432.799C267.911 433.007 267.846 433.218 267.773 433.432L266.18 438.393H264.719L262.359 429.83H263.703L264.938 434.557C265.021 434.869 265.099 435.179 265.172 435.486C265.25 435.788 265.315 436.075 265.367 436.346C265.424 436.611 265.466 436.843 265.492 437.041H265.555C265.586 436.911 265.62 436.755 265.656 436.572C265.698 436.39 265.742 436.197 265.789 435.994C265.841 435.786 265.896 435.58 265.953 435.377C266.01 435.169 266.068 434.973 266.125 434.791L267.703 429.83H269.102L270.625 434.783C270.703 435.033 270.779 435.294 270.852 435.564C270.93 435.835 271 436.098 271.062 436.354C271.125 436.604 271.169 436.827 271.195 437.025H271.258C271.279 436.848 271.318 436.63 271.375 436.369C271.432 436.109 271.497 435.822 271.57 435.51C271.648 435.197 271.729 434.88 271.812 434.557L273.062 429.83H274.383L272.016 438.393H270.508ZM277.242 429.846V438.408H275.945V429.846H277.242ZM276.609 426.643C276.823 426.643 277.005 426.713 277.156 426.854C277.312 426.989 277.391 427.202 277.391 427.494C277.391 427.781 277.312 427.994 277.156 428.135C277.005 428.275 276.823 428.346 276.609 428.346C276.385 428.346 276.198 428.275 276.047 428.135C275.901 427.994 275.828 427.781 275.828 427.494C275.828 427.202 275.901 426.989 276.047 426.854C276.198 426.713 276.385 426.643 276.609 426.643ZM284.047 429.689C285.062 429.689 285.831 429.939 286.352 430.439C286.872 430.934 287.133 431.731 287.133 432.83V438.408H285.852V432.916C285.852 432.202 285.688 431.669 285.359 431.314C285.036 430.96 284.539 430.783 283.867 430.783C282.919 430.783 282.253 431.051 281.867 431.588C281.482 432.124 281.289 432.903 281.289 433.924V438.408H279.992V429.846H281.039L281.234 431.08H281.305C281.487 430.778 281.719 430.525 282 430.322C282.281 430.114 282.596 429.958 282.945 429.854C283.294 429.744 283.661 429.689 284.047 429.689ZM292.195 442.252C291.07 442.252 290.203 442.041 289.594 441.619C288.984 441.202 288.68 440.617 288.68 439.861C288.68 439.325 288.849 438.867 289.188 438.486C289.531 438.106 290.005 437.854 290.609 437.729C290.385 437.624 290.193 437.468 290.031 437.26C289.875 437.051 289.797 436.812 289.797 436.541C289.797 436.229 289.883 435.955 290.055 435.721C290.232 435.481 290.5 435.252 290.859 435.033C290.411 434.851 290.047 434.544 289.766 434.111C289.49 433.674 289.352 433.166 289.352 432.588C289.352 431.973 289.479 431.45 289.734 431.018C289.99 430.58 290.359 430.247 290.844 430.018C291.328 429.788 291.914 429.674 292.602 429.674C292.753 429.674 292.904 429.682 293.055 429.697C293.211 429.708 293.359 429.726 293.5 429.752C293.641 429.773 293.763 429.799 293.867 429.83H296.805V430.666L295.227 430.861C295.383 431.064 295.513 431.309 295.617 431.596C295.721 431.882 295.773 432.2 295.773 432.549C295.773 433.403 295.484 434.083 294.906 434.588C294.328 435.088 293.534 435.338 292.523 435.338C292.284 435.338 292.039 435.317 291.789 435.275C291.534 435.416 291.339 435.572 291.203 435.744C291.073 435.916 291.008 436.114 291.008 436.338C291.008 436.505 291.057 436.637 291.156 436.736C291.26 436.835 291.409 436.908 291.602 436.955C291.794 436.997 292.026 437.018 292.297 437.018H293.805C294.737 437.018 295.451 437.213 295.945 437.604C296.445 437.994 296.695 438.564 296.695 439.314C296.695 440.262 296.31 440.989 295.539 441.494C294.768 441.999 293.654 442.252 292.195 442.252ZM292.234 441.236C292.943 441.236 293.529 441.163 293.992 441.018C294.461 440.877 294.81 440.671 295.039 440.4C295.273 440.135 295.391 439.817 295.391 439.447C295.391 439.104 295.312 438.843 295.156 438.666C295 438.494 294.771 438.38 294.469 438.322C294.167 438.26 293.797 438.229 293.359 438.229H291.875C291.49 438.229 291.154 438.288 290.867 438.408C290.581 438.528 290.359 438.705 290.203 438.939C290.052 439.174 289.977 439.465 289.977 439.814C289.977 440.278 290.172 440.63 290.562 440.869C290.953 441.114 291.51 441.236 292.234 441.236ZM292.57 434.393C293.19 434.393 293.656 434.236 293.969 433.924C294.281 433.611 294.438 433.156 294.438 432.557C294.438 431.916 294.279 431.437 293.961 431.119C293.643 430.796 293.174 430.635 292.555 430.635C291.961 430.635 291.503 430.801 291.18 431.135C290.862 431.463 290.703 431.945 290.703 432.58C290.703 433.163 290.865 433.611 291.188 433.924C291.51 434.236 291.971 434.393 292.57 434.393ZM305.852 429.705C306.872 429.705 307.63 429.934 308.125 430.393C308.62 430.851 308.867 431.583 308.867 432.588V438.408H307.922L307.672 437.143H307.609C307.37 437.455 307.12 437.718 306.859 437.932C306.599 438.14 306.297 438.299 305.953 438.408C305.615 438.512 305.198 438.564 304.703 438.564C304.182 438.564 303.719 438.473 303.312 438.291C302.911 438.109 302.594 437.833 302.359 437.463C302.13 437.093 302.016 436.624 302.016 436.057C302.016 435.202 302.354 434.546 303.031 434.088C303.708 433.63 304.74 433.38 306.125 433.338L307.602 433.275V432.752C307.602 432.012 307.443 431.494 307.125 431.197C306.807 430.9 306.359 430.752 305.781 430.752C305.333 430.752 304.906 430.817 304.5 430.947C304.094 431.077 303.708 431.231 303.344 431.408L302.945 430.424C303.331 430.226 303.773 430.057 304.273 429.916C304.773 429.775 305.299 429.705 305.852 429.705ZM307.586 434.189L306.281 434.244C305.214 434.286 304.461 434.46 304.023 434.768C303.586 435.075 303.367 435.51 303.367 436.072C303.367 436.562 303.516 436.924 303.812 437.158C304.109 437.393 304.503 437.51 304.992 437.51C305.753 437.51 306.375 437.299 306.859 436.877C307.344 436.455 307.586 435.822 307.586 434.979V434.189ZM131.25 454.861H129.117V462.408H127.82V454.861H126.305V454.236L127.82 453.807V453.236C127.82 452.518 127.927 451.934 128.141 451.486C128.354 451.033 128.664 450.7 129.07 450.486C129.477 450.273 129.971 450.166 130.555 450.166C130.883 450.166 131.182 450.195 131.453 450.252C131.729 450.309 131.971 450.374 132.18 450.447L131.844 451.471C131.667 451.413 131.466 451.361 131.242 451.314C131.023 451.262 130.799 451.236 130.57 451.236C130.076 451.236 129.708 451.398 129.469 451.721C129.234 452.038 129.117 452.538 129.117 453.221V453.846H131.25V454.861ZM134.125 462.408H132.82V450.252H134.125V462.408ZM144.242 458.111C144.242 458.814 144.151 459.442 143.969 459.994C143.786 460.546 143.523 461.012 143.18 461.393C142.836 461.773 142.419 462.064 141.93 462.268C141.445 462.465 140.896 462.564 140.281 462.564C139.708 462.564 139.182 462.465 138.703 462.268C138.229 462.064 137.818 461.773 137.469 461.393C137.125 461.012 136.857 460.546 136.664 459.994C136.477 459.442 136.383 458.814 136.383 458.111C136.383 457.174 136.542 456.377 136.859 455.721C137.177 455.059 137.63 454.557 138.219 454.213C138.812 453.864 139.518 453.689 140.336 453.689C141.117 453.689 141.799 453.864 142.383 454.213C142.971 454.562 143.427 455.067 143.75 455.729C144.078 456.385 144.242 457.179 144.242 458.111ZM137.727 458.111C137.727 458.799 137.818 459.395 138 459.9C138.182 460.406 138.464 460.796 138.844 461.072C139.224 461.348 139.714 461.486 140.312 461.486C140.906 461.486 141.393 461.348 141.773 461.072C142.159 460.796 142.443 460.406 142.625 459.9C142.807 459.395 142.898 458.799 142.898 458.111C142.898 457.429 142.807 456.84 142.625 456.346C142.443 455.846 142.161 455.46 141.781 455.189C141.401 454.919 140.909 454.783 140.305 454.783C139.414 454.783 138.76 455.077 138.344 455.666C137.932 456.255 137.727 457.07 137.727 458.111ZM149.688 453.705C150.708 453.705 151.466 453.934 151.961 454.393C152.456 454.851 152.703 455.583 152.703 456.588V462.408H151.758L151.508 461.143H151.445C151.206 461.455 150.956 461.718 150.695 461.932C150.435 462.14 150.133 462.299 149.789 462.408C149.451 462.512 149.034 462.564 148.539 462.564C148.018 462.564 147.555 462.473 147.148 462.291C146.747 462.109 146.43 461.833 146.195 461.463C145.966 461.093 145.852 460.624 145.852 460.057C145.852 459.202 146.19 458.546 146.867 458.088C147.544 457.63 148.576 457.38 149.961 457.338L151.438 457.275V456.752C151.438 456.012 151.279 455.494 150.961 455.197C150.643 454.9 150.195 454.752 149.617 454.752C149.169 454.752 148.742 454.817 148.336 454.947C147.93 455.077 147.544 455.231 147.18 455.408L146.781 454.424C147.167 454.226 147.609 454.057 148.109 453.916C148.609 453.775 149.135 453.705 149.688 453.705ZM151.422 458.189L150.117 458.244C149.049 458.286 148.297 458.46 147.859 458.768C147.422 459.075 147.203 459.51 147.203 460.072C147.203 460.562 147.352 460.924 147.648 461.158C147.945 461.393 148.339 461.51 148.828 461.51C149.589 461.51 150.211 461.299 150.695 460.877C151.18 460.455 151.422 459.822 151.422 458.979V458.189ZM158.141 461.502C158.354 461.502 158.573 461.484 158.797 461.447C159.021 461.411 159.203 461.367 159.344 461.314V462.322C159.193 462.39 158.982 462.447 158.711 462.494C158.445 462.541 158.185 462.564 157.93 462.564C157.477 462.564 157.065 462.486 156.695 462.33C156.326 462.169 156.029 461.898 155.805 461.518C155.586 461.137 155.477 460.611 155.477 459.939V454.861H154.258V454.229L155.484 453.721L156 451.861H156.781V453.846H159.289V454.861H156.781V459.9C156.781 460.437 156.904 460.838 157.148 461.104C157.398 461.369 157.729 461.502 158.141 461.502ZM162.375 453.846V462.408H161.078V453.846H162.375ZM161.742 450.643C161.956 450.643 162.138 450.713 162.289 450.854C162.445 450.989 162.523 451.202 162.523 451.494C162.523 451.781 162.445 451.994 162.289 452.135C162.138 452.275 161.956 452.346 161.742 452.346C161.518 452.346 161.331 452.275 161.18 452.135C161.034 451.994 160.961 451.781 160.961 451.494C160.961 451.202 161.034 450.989 161.18 450.854C161.331 450.713 161.518 450.643 161.742 450.643ZM169.18 453.689C170.195 453.689 170.964 453.939 171.484 454.439C172.005 454.934 172.266 455.731 172.266 456.83V462.408H170.984V456.916C170.984 456.202 170.82 455.669 170.492 455.314C170.169 454.96 169.672 454.783 169 454.783C168.052 454.783 167.385 455.051 167 455.588C166.615 456.124 166.422 456.903 166.422 457.924V462.408H165.125V453.846H166.172L166.367 455.08H166.438C166.62 454.778 166.852 454.525 167.133 454.322C167.414 454.114 167.729 453.958 168.078 453.854C168.427 453.744 168.794 453.689 169.18 453.689ZM177.328 466.252C176.203 466.252 175.336 466.041 174.727 465.619C174.117 465.202 173.812 464.617 173.812 463.861C173.812 463.325 173.982 462.867 174.32 462.486C174.664 462.106 175.138 461.854 175.742 461.729C175.518 461.624 175.326 461.468 175.164 461.26C175.008 461.051 174.93 460.812 174.93 460.541C174.93 460.229 175.016 459.955 175.188 459.721C175.365 459.481 175.633 459.252 175.992 459.033C175.544 458.851 175.18 458.544 174.898 458.111C174.622 457.674 174.484 457.166 174.484 456.588C174.484 455.973 174.612 455.45 174.867 455.018C175.122 454.58 175.492 454.247 175.977 454.018C176.461 453.788 177.047 453.674 177.734 453.674C177.885 453.674 178.036 453.682 178.188 453.697C178.344 453.708 178.492 453.726 178.633 453.752C178.773 453.773 178.896 453.799 179 453.83H181.938V454.666L180.359 454.861C180.516 455.064 180.646 455.309 180.75 455.596C180.854 455.882 180.906 456.2 180.906 456.549C180.906 457.403 180.617 458.083 180.039 458.588C179.461 459.088 178.667 459.338 177.656 459.338C177.417 459.338 177.172 459.317 176.922 459.275C176.667 459.416 176.471 459.572 176.336 459.744C176.206 459.916 176.141 460.114 176.141 460.338C176.141 460.505 176.19 460.637 176.289 460.736C176.393 460.835 176.542 460.908 176.734 460.955C176.927 460.997 177.159 461.018 177.43 461.018H178.938C179.87 461.018 180.583 461.213 181.078 461.604C181.578 461.994 181.828 462.564 181.828 463.314C181.828 464.262 181.443 464.989 180.672 465.494C179.901 465.999 178.786 466.252 177.328 466.252ZM177.367 465.236C178.076 465.236 178.661 465.163 179.125 465.018C179.594 464.877 179.943 464.671 180.172 464.4C180.406 464.135 180.523 463.817 180.523 463.447C180.523 463.104 180.445 462.843 180.289 462.666C180.133 462.494 179.904 462.38 179.602 462.322C179.299 462.26 178.93 462.229 178.492 462.229H177.008C176.622 462.229 176.286 462.288 176 462.408C175.714 462.528 175.492 462.705 175.336 462.939C175.185 463.174 175.109 463.465 175.109 463.814C175.109 464.278 175.305 464.63 175.695 464.869C176.086 465.114 176.643 465.236 177.367 465.236ZM177.703 458.393C178.323 458.393 178.789 458.236 179.102 457.924C179.414 457.611 179.57 457.156 179.57 456.557C179.57 455.916 179.411 455.437 179.094 455.119C178.776 454.796 178.307 454.635 177.688 454.635C177.094 454.635 176.635 454.801 176.312 455.135C175.995 455.463 175.836 455.945 175.836 456.58C175.836 457.163 175.997 457.611 176.32 457.924C176.643 458.236 177.104 458.393 177.703 458.393ZM191.594 454.861H189.461V462.408H188.164V454.861H186.648V454.236L188.164 453.807V453.236C188.164 452.518 188.271 451.934 188.484 451.486C188.698 451.033 189.008 450.7 189.414 450.486C189.82 450.273 190.315 450.166 190.898 450.166C191.227 450.166 191.526 450.195 191.797 450.252C192.073 450.309 192.315 450.374 192.523 450.447L192.188 451.471C192.01 451.413 191.81 451.361 191.586 451.314C191.367 451.262 191.143 451.236 190.914 451.236C190.419 451.236 190.052 451.398 189.812 451.721C189.578 452.038 189.461 452.538 189.461 453.221V453.846H191.594V454.861ZM196.469 453.689C197.198 453.689 197.823 453.851 198.344 454.174C198.865 454.497 199.263 454.95 199.539 455.533C199.815 456.111 199.953 456.788 199.953 457.564V458.369H194.039C194.055 459.374 194.305 460.14 194.789 460.666C195.273 461.192 195.956 461.455 196.836 461.455C197.378 461.455 197.857 461.406 198.273 461.307C198.69 461.208 199.122 461.062 199.57 460.869V462.01C199.138 462.202 198.708 462.343 198.281 462.432C197.859 462.52 197.359 462.564 196.781 462.564C195.958 462.564 195.24 462.398 194.625 462.064C194.016 461.726 193.542 461.231 193.203 460.58C192.865 459.929 192.695 459.132 192.695 458.189C192.695 457.268 192.849 456.471 193.156 455.799C193.469 455.122 193.906 454.601 194.469 454.236C195.036 453.872 195.703 453.689 196.469 453.689ZM196.453 454.752C195.76 454.752 195.208 454.979 194.797 455.432C194.385 455.885 194.141 456.518 194.062 457.33H198.594C198.589 456.82 198.508 456.372 198.352 455.986C198.201 455.596 197.969 455.294 197.656 455.08C197.344 454.861 196.943 454.752 196.453 454.752ZM205.359 453.705C206.38 453.705 207.138 453.934 207.633 454.393C208.128 454.851 208.375 455.583 208.375 456.588V462.408H207.43L207.18 461.143H207.117C206.878 461.455 206.628 461.718 206.367 461.932C206.107 462.14 205.805 462.299 205.461 462.408C205.122 462.512 204.706 462.564 204.211 462.564C203.69 462.564 203.227 462.473 202.82 462.291C202.419 462.109 202.102 461.833 201.867 461.463C201.638 461.093 201.523 460.624 201.523 460.057C201.523 459.202 201.862 458.546 202.539 458.088C203.216 457.63 204.247 457.38 205.633 457.338L207.109 457.275V456.752C207.109 456.012 206.951 455.494 206.633 455.197C206.315 454.9 205.867 454.752 205.289 454.752C204.841 454.752 204.414 454.817 204.008 454.947C203.602 455.077 203.216 455.231 202.852 455.408L202.453 454.424C202.839 454.226 203.281 454.057 203.781 453.916C204.281 453.775 204.807 453.705 205.359 453.705ZM207.094 458.189L205.789 458.244C204.721 458.286 203.969 458.46 203.531 458.768C203.094 459.075 202.875 459.51 202.875 460.072C202.875 460.562 203.023 460.924 203.32 461.158C203.617 461.393 204.01 461.51 204.5 461.51C205.26 461.51 205.883 461.299 206.367 460.877C206.852 460.455 207.094 459.822 207.094 458.979V458.189ZM213.812 461.502C214.026 461.502 214.245 461.484 214.469 461.447C214.693 461.411 214.875 461.367 215.016 461.314V462.322C214.865 462.39 214.654 462.447 214.383 462.494C214.117 462.541 213.857 462.564 213.602 462.564C213.148 462.564 212.737 462.486 212.367 462.33C211.997 462.169 211.701 461.898 211.477 461.518C211.258 461.137 211.148 460.611 211.148 459.939V454.861H209.93V454.229L211.156 453.721L211.672 451.861H212.453V453.846H214.961V454.861H212.453V459.9C212.453 460.437 212.576 460.838 212.82 461.104C213.07 461.369 213.401 461.502 213.812 461.502ZM218.047 450.252V453.885C218.047 454.093 218.042 454.304 218.031 454.518C218.021 454.726 218.003 454.919 217.977 455.096H218.062C218.24 454.794 218.464 454.541 218.734 454.338C219.01 454.13 219.323 453.973 219.672 453.869C220.021 453.76 220.391 453.705 220.781 453.705C221.469 453.705 222.042 453.814 222.5 454.033C222.964 454.252 223.31 454.59 223.539 455.049C223.773 455.507 223.891 456.101 223.891 456.83V462.408H222.609V456.916C222.609 456.202 222.445 455.669 222.117 455.314C221.794 454.96 221.297 454.783 220.625 454.783C219.99 454.783 219.482 454.906 219.102 455.15C218.727 455.39 218.456 455.744 218.289 456.213C218.128 456.682 218.047 457.255 218.047 457.932V462.408H216.75V450.252H218.047ZM229.859 453.689C230.589 453.689 231.214 453.851 231.734 454.174C232.255 454.497 232.654 454.95 232.93 455.533C233.206 456.111 233.344 456.788 233.344 457.564V458.369H227.43C227.445 459.374 227.695 460.14 228.18 460.666C228.664 461.192 229.346 461.455 230.227 461.455C230.768 461.455 231.247 461.406 231.664 461.307C232.081 461.208 232.513 461.062 232.961 460.869V462.01C232.529 462.202 232.099 462.343 231.672 462.432C231.25 462.52 230.75 462.564 230.172 462.564C229.349 462.564 228.63 462.398 228.016 462.064C227.406 461.726 226.932 461.231 226.594 460.58C226.255 459.929 226.086 459.132 226.086 458.189C226.086 457.268 226.24 456.471 226.547 455.799C226.859 455.122 227.297 454.601 227.859 454.236C228.427 453.872 229.094 453.689 229.859 453.689ZM229.844 454.752C229.151 454.752 228.599 454.979 228.188 455.432C227.776 455.885 227.531 456.518 227.453 457.33H231.984C231.979 456.82 231.898 456.372 231.742 455.986C231.591 455.596 231.359 455.294 231.047 455.08C230.734 454.861 230.333 454.752 229.844 454.752ZM239.438 453.689C239.609 453.689 239.789 453.7 239.977 453.721C240.164 453.736 240.331 453.76 240.477 453.791L240.312 454.994C240.172 454.958 240.016 454.929 239.844 454.908C239.672 454.887 239.51 454.877 239.359 454.877C239.016 454.877 238.69 454.947 238.383 455.088C238.081 455.223 237.815 455.421 237.586 455.682C237.357 455.937 237.177 456.247 237.047 456.611C236.917 456.971 236.852 457.372 236.852 457.814V462.408H235.547V453.846H236.625L236.766 455.424H236.82C236.997 455.106 237.211 454.817 237.461 454.557C237.711 454.291 238 454.08 238.328 453.924C238.661 453.768 239.031 453.689 239.438 453.689ZM241.898 461.596C241.898 461.231 241.987 460.973 242.164 460.822C242.341 460.666 242.557 460.588 242.812 460.588C243.078 460.588 243.302 460.666 243.484 460.822C243.667 460.973 243.758 461.231 243.758 461.596C243.758 461.955 243.667 462.218 243.484 462.385C243.302 462.546 243.078 462.627 242.812 462.627C242.557 462.627 242.341 462.546 242.164 462.385C241.987 462.218 241.898 461.955 241.898 461.596Z" fill="#F17522"/>
<defs>
<radialGradient id="paint0_radial_1676_4463" cx="0" cy="0" r="1" gradientUnits="userSpaceOnUse" gradientTransform="translate(184.667 305.363) rotate(90) scale(118.169 172.931)">
<stop stop-color="#934E00"/>
<stop offset="0.34522" stop-color="#FFF4D8"/>
</radialGradient>
<radialGradient id="paint1_radial_1676_4463" cx="0" cy="0" r="1" gradientUnits="userSpaceOnUse" gradientTransform="translate(184.667 310.313) rotate(90) scale(32.1717 47.0806)">
<stop stop-color="#FFDE8B"/>
<stop offset="1" stop-color="#FFF4D8"/>
</radialGradient>
</defs>
</svg>
