<svg width="367" height="523" viewBox="0 0 367 523" fill="none" xmlns="http://www.w3.org/2000/svg">
<path d="M142.465 340.503C144.13 335.067 149.17 331.348 154.855 331.348H218.716C224.502 331.348 229.609 335.197 231.168 340.769C249.521 406.365 251.389 438.979 247.052 462.724C245.997 468.495 240.776 472.408 234.909 472.408H136.017C130.211 472.408 125.028 468.574 123.857 462.887C118.297 435.866 122.21 406.637 142.465 340.503Z" fill="#FFF4D8"/>
<path d="M218.716 331.348H154.855C149.17 331.348 144.138 335.041 142.473 340.477C141.726 342.915 141.001 345.303 140.299 347.643C137.819 355.901 144.044 364.138 152.666 364.138H220.732C229.184 364.138 235.385 356.201 233.173 348.044C232.525 345.656 231.855 343.223 231.16 340.742C229.601 335.17 224.502 331.348 218.716 331.348Z" fill="#EAD2AA" fill-opacity="0.28"/>
<path d="M237.484 245.884C237.4 245.519 237.357 245.336 237.318 245.208C236.668 243.095 234.404 242.061 232.877 243.18C232.785 243.248 232.664 243.356 232.422 243.572L199.761 272.703C199.385 273.039 199.197 273.207 199.11 273.302C197.619 274.943 198.506 277.916 200.714 278.677C200.842 278.721 201.119 278.788 201.671 278.921C218.305 282.938 229.405 288.09 244.431 298.5C244.911 298.833 245.152 298.999 245.273 299.069C247.357 300.26 249.48 298.661 249.111 296.178C249.089 296.033 249.025 295.756 248.897 295.203L237.484 245.884Z" fill="#934E00"/>
<path fill-rule="evenodd" clip-rule="evenodd" d="M229.408 260.04C229.917 259.667 230.672 260.012 230.889 260.716C230.902 260.758 230.916 260.82 230.944 260.942L238.381 293.08C238.415 293.227 238.432 293.301 238.439 293.348C238.511 293.818 238.303 294.199 237.98 294.36C227.65 287.718 218.752 283.587 207.612 280.366C207.492 280.006 207.535 279.602 207.79 279.323C207.818 279.293 207.869 279.247 207.97 279.157L229.257 260.171C229.337 260.099 229.377 260.063 229.408 260.04Z" fill="#FFF5DC"/>
<path d="M129.754 245.884C129.839 245.519 129.881 245.336 129.92 245.208C130.57 243.095 132.834 242.061 134.361 243.18C134.453 243.248 134.574 243.356 134.817 243.572L167.477 272.703C167.853 273.039 168.042 273.207 168.128 273.302C169.62 274.943 168.733 277.916 166.524 278.677C166.396 278.721 166.12 278.788 165.568 278.921C148.933 282.938 137.834 288.09 122.808 298.5C122.327 298.833 122.087 298.999 121.965 299.069C119.881 300.26 117.759 298.661 118.128 296.178C118.149 296.033 118.214 295.756 118.342 295.203L129.754 245.884Z" fill="#934E00"/>
<path fill-rule="evenodd" clip-rule="evenodd" d="M137.831 260.04C137.322 259.667 136.567 260.012 136.35 260.716C136.337 260.758 136.323 260.82 136.295 260.941L128.857 293.08C128.823 293.227 128.807 293.301 128.8 293.348C128.728 293.818 128.936 294.199 129.259 294.36C139.589 287.718 148.487 283.587 159.627 280.366C159.747 280.006 159.703 279.602 159.448 279.323C159.42 279.293 159.37 279.247 159.269 279.157L137.982 260.171C137.902 260.099 137.862 260.063 137.831 260.04Z" fill="#FFF5DC"/>
<path d="M258.909 320.212C258.909 348.23 225.67 356.096 184.667 356.096C143.664 356.096 110.424 348.23 110.424 320.212C110.424 292.193 143.664 254.631 184.667 254.631C225.67 254.631 258.909 292.193 258.909 320.212Z" fill="url(#paint0_radial_1676_4138)"/>
<ellipse cx="159.301" cy="299.176" rx="4.33081" ry="4.94949" fill="black"/>
<ellipse cx="177.522" cy="314.644" rx="10.1784" ry="8.04293" fill="#FFEFC7"/>
<ellipse cx="194.286" cy="314.644" rx="10.1784" ry="8.04293" fill="#FFEFC7"/>
<ellipse cx="210.033" cy="299.176" rx="4.33081" ry="4.94949" fill="black"/>
<path d="M184.98 313.87C185.405 314.496 186.345 314.461 186.737 313.815C188.186 311.429 189.657 309.693 191.918 307.638C192.662 306.962 192.098 305.668 191.098 305.763C187.354 306.115 184.371 306.094 180.611 305.738C179.619 305.644 179.064 306.913 179.789 307.597C181.498 309.205 182.982 310.927 184.98 313.87Z" fill="#FF8A8A"/>
<path d="M183.5 517.408C277.665 517.408 354 441.073 354 346.908H13C13 441.073 89.3354 517.408 183.5 517.408Z" fill="white"/>
<path d="M354 346.408C354 440.573 277.665 516.908 183.5 516.908C89.3354 516.908 13 440.573 13 346.408" stroke="#F17522" stroke-width="11" stroke-linecap="round"/>
<path d="M170 345.908C170 354.469 162.165 355.408 152.5 355.408C142.835 355.408 135 354.469 135 345.908C135 337.348 142.835 330.408 152.5 330.408C162.165 330.408 170 337.348 170 345.908Z" fill="#A86F2B"/>
<path d="M235 345.908C235 354.469 227.165 355.408 217.5 355.408C207.835 355.408 200 354.469 200 345.908C200 337.348 207.835 330.408 217.5 330.408C227.165 330.408 235 337.348 235 345.908Z" fill="#A86F2B"/>
<path d="M183.5 23.4248C277.665 23.4248 354 99.7603 354 193.925H13C13 99.7603 89.3354 23.4248 183.5 23.4248Z" fill="#F17522"/>
<path d="M354 193.908C354 99.7437 277.665 23.4082 183.5 23.4082C89.3354 23.4082 13 99.7437 13 193.908" stroke="#F17522" stroke-width="11"/>
<path d="M299.43 2.45381C299.345 2.17157 299.302 2.03045 299.262 1.92503C298.599 0.20038 296.55 -0.520922 294.953 0.408337C294.855 0.465137 294.734 0.548607 294.491 0.715545L225.683 48.0179C225.238 48.3234 225.016 48.4761 224.907 48.5674C223.036 50.1335 223.688 53.1184 226.042 53.7617C226.179 53.7991 226.453 53.8467 227 53.9419C263.622 60.3076 285.929 68.3087 318.738 86.2798C319.217 86.5422 319.456 86.6734 319.587 86.7295C321.822 87.6917 324.192 85.7725 323.715 83.3864C323.687 83.2473 323.611 82.9932 323.458 82.4852L299.43 2.45381Z" fill="#FFDE8B"/>
<path fill-rule="evenodd" clip-rule="evenodd" d="M286.305 26.5453C286.837 26.2356 287.52 26.4755 287.741 27.0502C287.755 27.0854 287.769 27.1329 287.797 27.227L302.66 76.7309C302.703 76.8754 302.725 76.9477 302.734 76.9926C302.814 77.3871 302.655 77.7463 302.382 77.9672C282.138 67.8696 264.862 61.6829 243.001 56.8715C242.99 56.5804 243.104 56.2826 243.361 56.0688C243.397 56.0393 243.46 55.995 243.587 55.9076L286.15 26.6469C286.231 26.5914 286.272 26.5643 286.305 26.5453Z" fill="#FFF5DC"/>
<path d="M74.1087 2.45381C74.1935 2.17157 74.2358 2.03045 74.2764 1.92503C74.9392 0.20038 76.9885 -0.520922 78.5855 0.408337C78.6831 0.465137 78.8045 0.548607 79.0473 0.715545L147.856 48.0179C148.3 48.3234 148.522 48.4761 148.631 48.5674C150.502 50.1335 149.85 53.1184 147.497 53.7617C147.359 53.7991 147.086 53.8467 146.538 53.9419C109.916 60.3076 87.6098 68.3087 54.8003 86.2798C54.3213 86.5422 54.0819 86.6734 53.9515 86.7295C51.7167 87.6917 49.3467 85.7725 49.8233 83.3864C49.8511 83.2473 49.9273 82.9932 50.0799 82.4852L74.1087 2.45381Z" fill="#FFDE8B"/>
<path fill-rule="evenodd" clip-rule="evenodd" d="M87.2332 26.5441C86.7009 26.2345 86.0176 26.4751 85.7967 27.05C85.7832 27.085 85.7691 27.1321 85.741 27.2257L70.8778 76.7296C70.8345 76.8738 70.8127 76.9464 70.8035 76.9914C70.7236 77.3854 70.8829 77.7449 71.1551 77.966C91.3995 67.868 108.676 61.6817 130.538 56.8703C130.548 56.5794 130.434 56.2813 130.178 56.0675C130.142 56.0381 130.078 55.9948 129.951 55.9074L87.3875 26.6466C87.3066 26.591 87.2658 26.563 87.2332 26.5441Z" fill="#FFF5DC"/>
<path d="M2.6262 188.181C4.68726 185.586 8.00942 184.425 11.3234 184.425H355.937C360.057 184.425 364.233 186.233 365.908 189.997C367.36 193.261 367.372 196.063 365.895 199.223C364.227 202.793 360.194 204.425 356.254 204.425H11.3891C8.03594 204.425 4.67707 203.232 2.61963 200.584C-0.922413 196.026 -0.825676 192.527 2.6262 188.181Z" fill="#1A1A1A"/>
<circle cx="183" cy="194.425" r="53" fill="#1A1A1A"/>
<path d="M220.434 198.796C220.434 216.188 203.771 227.424 183.217 227.424C162.663 227.424 146 216.188 146 198.796C146 181.403 162.663 164.441 183.217 164.441C203.771 164.441 220.434 181.403 220.434 198.796Z" fill="#FFDE8B"/>
<path d="M158.536 162.406C158.565 162.312 158.579 162.265 158.592 162.23C158.813 161.655 159.496 161.414 160.029 161.724C160.061 161.743 160.102 161.771 160.183 161.826L173.855 171.226C173.966 171.302 174.021 171.34 174.055 171.368C174.625 171.838 174.505 172.743 173.832 173.049C173.792 173.067 173.728 173.09 173.602 173.134L155.158 179.626C155.032 179.67 154.968 179.693 154.926 179.704C154.209 179.887 153.549 179.257 153.698 178.533C153.707 178.489 153.727 178.425 153.765 178.297L158.536 162.406Z" fill="#FFDE8B"/>
<path d="M207.837 162.406C207.808 162.312 207.794 162.265 207.781 162.23C207.56 161.655 206.877 161.414 206.344 161.724C206.312 161.743 206.271 161.771 206.191 161.826L192.518 171.226C192.407 171.302 192.352 171.34 192.318 171.368C191.748 171.838 191.868 172.743 192.541 173.049C192.581 173.067 192.645 173.09 192.771 173.134L211.215 179.626C211.342 179.67 211.405 179.693 211.447 179.704C212.164 179.887 212.824 179.257 212.675 178.533C212.666 178.489 212.646 178.425 212.608 178.297L207.837 162.406Z" fill="#FFDE8B"/>
<path d="M204.753 197.593C204.753 207.213 195.182 213.428 183.377 213.428C171.571 213.428 162 207.213 162 197.593C162 187.974 171.571 178.592 183.377 178.592C195.182 178.592 204.753 187.974 204.753 197.593Z" fill="#FFF5DC"/>
<path d="M168.49 179.161C168.515 179.057 168.528 179.005 168.54 178.968C168.743 178.354 169.483 178.105 170.039 178.464C170.072 178.485 170.116 178.518 170.203 178.584L175.837 182.873C175.939 182.951 175.99 182.99 176.022 183.019C176.561 183.505 176.428 184.368 175.77 184.655C175.73 184.672 175.67 184.692 175.549 184.733L168.275 187.182C168.154 187.222 168.094 187.243 168.052 187.253C167.352 187.423 166.691 186.828 166.798 186.124C166.805 186.082 166.82 186.021 166.849 185.899L168.49 179.161Z" fill="#FFF5DC"/>
<path d="M198.018 179.161C197.993 179.057 197.98 179.005 197.968 178.968C197.764 178.354 197.025 178.105 196.469 178.464C196.435 178.485 196.392 178.518 196.305 178.584L190.671 182.873C190.569 182.951 190.518 182.99 190.485 183.019C189.947 183.505 190.08 184.368 190.738 184.655C190.777 184.672 190.838 184.692 190.958 184.733L198.233 187.182C198.354 187.222 198.414 187.243 198.456 187.253C199.156 187.423 199.817 186.828 199.71 186.124C199.703 186.082 199.688 186.021 199.658 185.899L198.018 179.161Z" fill="#FFF5DC"/>
<path d="M121.133 388.562C120.796 388.562 120.532 388.467 120.341 388.276C120.165 388.086 120.077 387.822 120.077 387.484V373.822C120.077 373.47 120.173 373.206 120.363 373.03C120.554 372.84 120.811 372.744 121.133 372.744C121.441 372.744 121.676 372.803 121.837 372.92C122.013 373.023 122.175 373.214 122.321 373.492L128.085 384.25H127.403L133.145 373.492C133.292 373.214 133.446 373.023 133.607 372.92C133.769 372.803 134.003 372.744 134.311 372.744C134.634 372.744 134.883 372.84 135.059 373.03C135.235 373.206 135.323 373.47 135.323 373.822V387.484C135.323 387.822 135.235 388.086 135.059 388.276C134.898 388.467 134.649 388.562 134.311 388.562C133.974 388.562 133.717 388.467 133.541 388.276C133.365 388.086 133.277 387.822 133.277 387.484V376.132H133.761L128.657 385.57C128.54 385.79 128.415 385.952 128.283 386.054C128.151 386.157 127.968 386.208 127.733 386.208C127.499 386.208 127.308 386.157 127.161 386.054C127.015 385.937 126.883 385.776 126.765 385.57L121.617 376.11H122.145V387.484C122.145 387.822 122.057 388.086 121.881 388.276C121.72 388.467 121.471 388.562 121.133 388.562ZM143.779 388.606C142.605 388.606 141.593 388.386 140.743 387.946C139.907 387.492 139.254 386.854 138.785 386.032C138.33 385.196 138.103 384.206 138.103 383.062C138.103 381.948 138.33 380.972 138.785 380.136C139.239 379.3 139.863 378.648 140.655 378.178C141.447 377.709 142.349 377.474 143.361 377.474C144.109 377.474 144.776 377.599 145.363 377.848C145.949 378.083 146.448 378.435 146.859 378.904C147.284 379.359 147.599 379.916 147.805 380.576C148.025 381.236 148.135 381.977 148.135 382.798C148.135 383.048 148.061 383.238 147.915 383.37C147.768 383.488 147.548 383.546 147.255 383.546H139.863V382.182H146.639L146.265 382.49C146.265 381.757 146.155 381.134 145.935 380.62C145.729 380.107 145.414 379.718 144.989 379.454C144.578 379.176 144.065 379.036 143.449 379.036C142.759 379.036 142.173 379.198 141.689 379.52C141.219 379.843 140.86 380.29 140.611 380.862C140.361 381.434 140.237 382.102 140.237 382.864V382.996C140.237 384.287 140.537 385.262 141.139 385.922C141.755 386.568 142.642 386.89 143.801 386.89C144.241 386.89 144.703 386.832 145.187 386.714C145.685 386.597 146.155 386.399 146.595 386.12C146.844 385.974 147.064 385.908 147.255 385.922C147.46 385.937 147.621 386.003 147.739 386.12C147.871 386.238 147.951 386.384 147.981 386.56C148.01 386.736 147.981 386.92 147.893 387.11C147.805 387.286 147.651 387.448 147.431 387.594C146.932 387.932 146.353 388.188 145.693 388.364C145.033 388.526 144.395 388.606 143.779 388.606ZM155.595 388.606C154.422 388.606 153.41 388.386 152.559 387.946C151.723 387.492 151.07 386.854 150.601 386.032C150.146 385.196 149.919 384.206 149.919 383.062C149.919 381.948 150.146 380.972 150.601 380.136C151.056 379.3 151.679 378.648 152.471 378.178C153.263 377.709 154.165 377.474 155.177 377.474C155.925 377.474 156.592 377.599 157.179 377.848C157.766 378.083 158.264 378.435 158.675 378.904C159.1 379.359 159.416 379.916 159.621 380.576C159.841 381.236 159.951 381.977 159.951 382.798C159.951 383.048 159.878 383.238 159.731 383.37C159.584 383.488 159.364 383.546 159.071 383.546H151.679V382.182H158.455L158.081 382.49C158.081 381.757 157.971 381.134 157.751 380.62C157.546 380.107 157.23 379.718 156.805 379.454C156.394 379.176 155.881 379.036 155.265 379.036C154.576 379.036 153.989 379.198 153.505 379.52C153.036 379.843 152.676 380.29 152.427 380.862C152.178 381.434 152.053 382.102 152.053 382.864V382.996C152.053 384.287 152.354 385.262 152.955 385.922C153.571 386.568 154.458 386.89 155.617 386.89C156.057 386.89 156.519 386.832 157.003 386.714C157.502 386.597 157.971 386.399 158.411 386.12C158.66 385.974 158.88 385.908 159.071 385.922C159.276 385.937 159.438 386.003 159.555 386.12C159.687 386.238 159.768 386.384 159.797 386.56C159.826 386.736 159.797 386.92 159.709 387.11C159.621 387.286 159.467 387.448 159.247 387.594C158.748 387.932 158.169 388.188 157.509 388.364C156.849 388.526 156.211 388.606 155.595 388.606ZM166.928 388.606C166.048 388.606 165.307 388.452 164.706 388.144C164.105 387.836 163.657 387.382 163.364 386.78C163.071 386.179 162.924 385.446 162.924 384.58V379.388H161.604C161.311 379.388 161.083 379.315 160.922 379.168C160.761 379.007 160.68 378.794 160.68 378.53C160.68 378.252 160.761 378.039 160.922 377.892C161.083 377.746 161.311 377.672 161.604 377.672H162.924V375.406C162.924 375.04 163.019 374.761 163.21 374.57C163.415 374.38 163.694 374.284 164.046 374.284C164.398 374.284 164.669 374.38 164.86 374.57C165.051 374.761 165.146 375.04 165.146 375.406V377.672H167.72C168.013 377.672 168.241 377.746 168.402 377.892C168.563 378.039 168.644 378.252 168.644 378.53C168.644 378.794 168.563 379.007 168.402 379.168C168.241 379.315 168.013 379.388 167.72 379.388H165.146V384.404C165.146 385.182 165.307 385.768 165.63 386.164C165.967 386.56 166.51 386.758 167.258 386.758C167.522 386.758 167.749 386.736 167.94 386.692C168.145 386.634 168.314 386.597 168.446 386.582C168.607 386.582 168.739 386.641 168.842 386.758C168.945 386.861 168.996 387.066 168.996 387.374C168.996 387.594 168.952 387.8 168.864 387.99C168.791 388.181 168.651 388.306 168.446 388.364C168.27 388.423 168.028 388.474 167.72 388.518C167.427 388.577 167.163 388.606 166.928 388.606ZM181.358 388.562C180.991 388.562 180.705 388.46 180.5 388.254C180.309 388.049 180.214 387.763 180.214 387.396V374.812H175.55C175.242 374.812 175 374.732 174.824 374.57C174.648 374.394 174.56 374.152 174.56 373.844C174.56 373.536 174.648 373.302 174.824 373.14C175 372.979 175.242 372.898 175.55 372.898H187.144C187.467 372.898 187.716 372.979 187.892 373.14C188.068 373.302 188.156 373.536 188.156 373.844C188.156 374.152 188.068 374.394 187.892 374.57C187.716 374.732 187.467 374.812 187.144 374.812H182.48V387.396C182.48 387.763 182.385 388.049 182.194 388.254C182.018 388.46 181.739 388.562 181.358 388.562ZM191.597 388.562C191.245 388.562 190.973 388.467 190.783 388.276C190.592 388.071 190.497 387.792 190.497 387.44V373.866C190.497 373.5 190.592 373.221 190.783 373.03C190.973 372.84 191.245 372.744 191.597 372.744C191.949 372.744 192.22 372.84 192.411 373.03C192.616 373.221 192.719 373.5 192.719 373.866V379.96H192.411C192.733 379.139 193.239 378.523 193.929 378.112C194.618 377.687 195.41 377.474 196.305 377.474C197.155 377.474 197.859 377.636 198.417 377.958C198.989 378.266 199.414 378.743 199.693 379.388C199.971 380.019 200.111 380.818 200.111 381.786V387.44C200.111 387.792 200.015 388.071 199.825 388.276C199.634 388.467 199.363 388.562 199.011 388.562C198.644 388.562 198.365 388.467 198.175 388.276C197.984 388.071 197.889 387.792 197.889 387.44V381.918C197.889 380.994 197.705 380.32 197.339 379.894C196.987 379.469 196.429 379.256 195.667 379.256C194.772 379.256 194.053 379.535 193.511 380.092C192.983 380.65 192.719 381.398 192.719 382.336V387.44C192.719 388.188 192.345 388.562 191.597 388.562ZM204.272 388.54C203.92 388.54 203.649 388.438 203.458 388.232C203.268 388.012 203.172 387.712 203.172 387.33V378.75C203.172 378.369 203.268 378.076 203.458 377.87C203.649 377.665 203.92 377.562 204.272 377.562C204.624 377.562 204.896 377.665 205.086 377.87C205.292 378.076 205.394 378.369 205.394 378.75V387.33C205.394 387.712 205.299 388.012 205.108 388.232C204.918 388.438 204.639 388.54 204.272 388.54ZM204.272 375.274C203.832 375.274 203.488 375.164 203.238 374.944C203.004 374.724 202.886 374.416 202.886 374.02C202.886 373.61 203.004 373.302 203.238 373.096C203.488 372.876 203.832 372.766 204.272 372.766C204.712 372.766 205.05 372.876 205.284 373.096C205.534 373.302 205.658 373.61 205.658 374.02C205.658 374.416 205.534 374.724 205.284 374.944C205.05 375.164 204.712 375.274 204.272 375.274ZM212.284 388.606C211.639 388.606 210.971 388.533 210.282 388.386C209.607 388.24 208.984 387.99 208.412 387.638C208.221 387.506 208.089 387.36 208.016 387.198C207.943 387.037 207.913 386.876 207.928 386.714C207.957 386.538 208.023 386.392 208.126 386.274C208.243 386.142 208.383 386.062 208.544 386.032C208.72 386.003 208.903 386.04 209.094 386.142C209.666 386.465 210.216 386.692 210.744 386.824C211.272 386.942 211.793 387 212.306 387C213.083 387 213.67 386.861 214.066 386.582C214.462 386.304 214.66 385.93 214.66 385.46C214.66 385.079 214.528 384.786 214.264 384.58C214 384.36 213.604 384.192 213.076 384.074L210.986 383.656C210.077 383.466 209.387 383.128 208.918 382.644C208.449 382.16 208.214 381.544 208.214 380.796C208.214 380.122 208.397 379.535 208.764 379.036C209.131 378.538 209.644 378.156 210.304 377.892C210.964 377.614 211.727 377.474 212.592 377.474C213.237 377.474 213.846 377.555 214.418 377.716C214.99 377.878 215.518 378.12 216.002 378.442C216.193 378.545 216.317 378.684 216.376 378.86C216.435 379.022 216.442 379.183 216.398 379.344C216.369 379.506 216.295 379.652 216.178 379.784C216.061 379.902 215.914 379.975 215.738 380.004C215.577 380.019 215.393 379.975 215.188 379.872C214.748 379.594 214.308 379.396 213.868 379.278C213.443 379.161 213.017 379.102 212.592 379.102C211.815 379.102 211.228 379.249 210.832 379.542C210.451 379.821 210.26 380.202 210.26 380.686C210.26 381.053 210.377 381.354 210.612 381.588C210.847 381.823 211.213 381.992 211.712 382.094L213.802 382.512C214.755 382.703 215.474 383.026 215.958 383.48C216.457 383.935 216.706 384.551 216.706 385.328C216.706 386.34 216.303 387.14 215.496 387.726C214.689 388.313 213.619 388.606 212.284 388.606ZM232.173 388.606C230.604 388.606 229.262 388.284 228.147 387.638C227.032 386.993 226.174 386.076 225.573 384.888C224.986 383.686 224.693 382.27 224.693 380.642C224.693 379.425 224.862 378.332 225.199 377.364C225.536 376.382 226.02 375.546 226.651 374.856C227.296 374.152 228.081 373.617 229.005 373.25C229.944 372.884 231 372.7 232.173 372.7C233.038 372.7 233.867 372.818 234.659 373.052C235.466 373.287 236.162 373.624 236.749 374.064C236.998 374.226 237.16 374.424 237.233 374.658C237.321 374.878 237.336 375.091 237.277 375.296C237.233 375.502 237.138 375.678 236.991 375.824C236.844 375.956 236.654 376.03 236.419 376.044C236.199 376.059 235.957 375.978 235.693 375.802C235.209 375.436 234.674 375.164 234.087 374.988C233.5 374.812 232.884 374.724 232.239 374.724C231.124 374.724 230.186 374.959 229.423 375.428C228.66 375.883 228.081 376.55 227.685 377.43C227.289 378.31 227.091 379.381 227.091 380.642C227.091 381.904 227.289 382.982 227.685 383.876C228.081 384.756 228.66 385.431 229.423 385.9C230.186 386.355 231.124 386.582 232.239 386.582C232.884 386.582 233.5 386.494 234.087 386.318C234.688 386.128 235.253 385.849 235.781 385.482C236.045 385.321 236.28 385.248 236.485 385.262C236.705 385.277 236.888 385.35 237.035 385.482C237.182 385.614 237.277 385.783 237.321 385.988C237.38 386.179 237.372 386.384 237.299 386.604C237.24 386.81 237.101 386.986 236.881 387.132C236.28 387.616 235.568 387.983 234.747 388.232C233.926 388.482 233.068 388.606 232.173 388.606ZM242.913 388.606C242.165 388.606 241.49 388.46 240.889 388.166C240.302 387.873 239.84 387.477 239.503 386.978C239.166 386.48 238.997 385.915 238.997 385.284C238.997 384.492 239.195 383.869 239.591 383.414C240.002 382.945 240.669 382.615 241.593 382.424C242.532 382.219 243.793 382.116 245.377 382.116H246.411V383.48H245.399C244.343 383.48 243.507 383.532 242.891 383.634C242.275 383.737 241.835 383.913 241.571 384.162C241.322 384.397 241.197 384.727 241.197 385.152C241.197 385.71 241.388 386.164 241.769 386.516C242.15 386.854 242.678 387.022 243.353 387.022C243.896 387.022 244.372 386.898 244.783 386.648C245.194 386.384 245.516 386.032 245.751 385.592C246 385.152 246.125 384.646 246.125 384.074V381.544C246.125 380.708 245.949 380.107 245.597 379.74C245.245 379.374 244.666 379.19 243.859 379.19C243.39 379.19 242.898 379.249 242.385 379.366C241.886 379.484 241.366 379.682 240.823 379.96C240.574 380.078 240.361 380.114 240.185 380.07C240.009 380.026 239.87 379.931 239.767 379.784C239.664 379.623 239.606 379.454 239.591 379.278C239.591 379.088 239.635 378.904 239.723 378.728C239.826 378.552 239.994 378.42 240.229 378.332C240.874 378.024 241.512 377.804 242.143 377.672C242.774 377.54 243.368 377.474 243.925 377.474C244.908 377.474 245.714 377.628 246.345 377.936C246.99 378.244 247.467 378.714 247.775 379.344C248.083 379.975 248.237 380.789 248.237 381.786V387.44C248.237 387.792 248.149 388.071 247.973 388.276C247.797 388.467 247.54 388.562 247.203 388.562C246.88 388.562 246.624 388.467 246.433 388.276C246.242 388.071 246.147 387.792 246.147 387.44V386.01H246.345C246.228 386.553 246.008 387.022 245.685 387.418C245.377 387.8 244.988 388.093 244.519 388.298C244.05 388.504 243.514 388.606 242.913 388.606ZM255.873 388.606C254.993 388.606 254.253 388.452 253.651 388.144C253.05 387.836 252.603 387.382 252.309 386.78C252.016 386.179 251.869 385.446 251.869 384.58V379.388H250.549C250.256 379.388 250.029 379.315 249.867 379.168C249.706 379.007 249.625 378.794 249.625 378.53C249.625 378.252 249.706 378.039 249.867 377.892C250.029 377.746 250.256 377.672 250.549 377.672H251.869V375.406C251.869 375.04 251.965 374.761 252.155 374.57C252.361 374.38 252.639 374.284 252.991 374.284C253.343 374.284 253.615 374.38 253.805 374.57C253.996 374.761 254.091 375.04 254.091 375.406V377.672H256.665C256.959 377.672 257.186 377.746 257.347 377.892C257.509 378.039 257.589 378.252 257.589 378.53C257.589 378.794 257.509 379.007 257.347 379.168C257.186 379.315 256.959 379.388 256.665 379.388H254.091V384.404C254.091 385.182 254.253 385.768 254.575 386.164C254.913 386.56 255.455 386.758 256.203 386.758C256.467 386.758 256.695 386.736 256.885 386.692C257.091 386.634 257.259 386.597 257.391 386.582C257.553 386.582 257.685 386.641 257.787 386.758C257.89 386.861 257.941 387.066 257.941 387.374C257.941 387.594 257.897 387.8 257.809 387.99C257.736 388.181 257.597 388.306 257.391 388.364C257.215 388.423 256.973 388.474 256.665 388.518C256.372 388.577 256.108 388.606 255.873 388.606Z" fill="#F17522"/>
<path d="M75.0234 403.994C74.3932 403.994 73.8255 404.104 73.3203 404.322C72.8203 404.536 72.3932 404.848 72.0391 405.26C71.6901 405.666 71.4219 406.158 71.2344 406.736C71.0469 407.314 70.9531 407.965 70.9531 408.689C70.9531 409.648 71.1016 410.481 71.3984 411.189C71.7005 411.893 72.1484 412.437 72.7422 412.822C73.3411 413.208 74.0885 413.4 74.9844 413.4C75.4948 413.4 75.974 413.359 76.4219 413.275C76.875 413.187 77.3151 413.077 77.7422 412.947V414.104C77.3255 414.26 76.888 414.374 76.4297 414.447C75.9714 414.525 75.4271 414.564 74.7969 414.564C73.6354 414.564 72.6641 414.325 71.8828 413.846C71.1068 413.361 70.5234 412.679 70.1328 411.799C69.7474 410.919 69.5547 409.88 69.5547 408.682C69.5547 407.817 69.6745 407.028 69.9141 406.314C70.1589 405.596 70.513 404.976 70.9766 404.455C71.4453 403.934 72.0182 403.533 72.6953 403.252C73.3776 402.965 74.1589 402.822 75.0391 402.822C75.6172 402.822 76.1745 402.88 76.7109 402.994C77.2474 403.109 77.7318 403.273 78.1641 403.486L77.6328 404.611C77.2682 404.445 76.8672 404.301 76.4297 404.182C75.9974 404.057 75.5286 403.994 75.0234 403.994ZM87.0938 405.846V414.408H86.0312L85.8438 413.205H85.7734C85.5964 413.502 85.3672 413.752 85.0859 413.955C84.8047 414.158 84.487 414.309 84.1328 414.408C83.7839 414.512 83.4115 414.564 83.0156 414.564C82.3385 414.564 81.7708 414.455 81.3125 414.236C80.8542 414.018 80.5078 413.679 80.2734 413.221C80.0443 412.762 79.9297 412.174 79.9297 411.455V405.846H81.2422V411.361C81.2422 412.075 81.4036 412.609 81.7266 412.963C82.0495 413.312 82.5417 413.486 83.2031 413.486C83.8385 413.486 84.3438 413.367 84.7188 413.127C85.099 412.887 85.3724 412.536 85.5391 412.072C85.7057 411.604 85.7891 411.031 85.7891 410.354V405.846H87.0938ZM93.7266 405.689C93.8984 405.689 94.0781 405.7 94.2656 405.721C94.4531 405.736 94.6198 405.76 94.7656 405.791L94.6016 406.994C94.4609 406.958 94.3047 406.929 94.1328 406.908C93.9609 406.887 93.7995 406.877 93.6484 406.877C93.3047 406.877 92.9792 406.947 92.6719 407.088C92.3698 407.223 92.1042 407.421 91.875 407.682C91.6458 407.937 91.4661 408.247 91.3359 408.611C91.2057 408.971 91.1406 409.372 91.1406 409.814V414.408H89.8359V405.846H90.9141L91.0547 407.424H91.1094C91.2865 407.106 91.5 406.817 91.75 406.557C92 406.291 92.2891 406.08 92.6172 405.924C92.9505 405.768 93.3203 405.689 93.7266 405.689ZM97.6797 405.846V414.408H96.3828V405.846H97.6797ZM97.0469 402.643C97.2604 402.643 97.4427 402.713 97.5938 402.854C97.75 402.989 97.8281 403.202 97.8281 403.494C97.8281 403.781 97.75 403.994 97.5938 404.135C97.4427 404.275 97.2604 404.346 97.0469 404.346C96.8229 404.346 96.6354 404.275 96.4844 404.135C96.3385 403.994 96.2656 403.781 96.2656 403.494C96.2656 403.202 96.3385 402.989 96.4844 402.854C96.6354 402.713 96.8229 402.643 97.0469 402.643ZM107.812 410.111C107.812 410.814 107.721 411.442 107.539 411.994C107.357 412.546 107.094 413.012 106.75 413.393C106.406 413.773 105.99 414.064 105.5 414.268C105.016 414.465 104.466 414.564 103.852 414.564C103.279 414.564 102.753 414.465 102.273 414.268C101.799 414.064 101.388 413.773 101.039 413.393C100.695 413.012 100.427 412.546 100.234 411.994C100.047 411.442 99.9531 410.814 99.9531 410.111C99.9531 409.174 100.112 408.377 100.43 407.721C100.747 407.059 101.201 406.557 101.789 406.213C102.383 405.864 103.089 405.689 103.906 405.689C104.688 405.689 105.37 405.864 105.953 406.213C106.542 406.562 106.997 407.067 107.32 407.729C107.648 408.385 107.812 409.179 107.812 410.111ZM101.297 410.111C101.297 410.799 101.388 411.395 101.57 411.9C101.753 412.406 102.034 412.796 102.414 413.072C102.794 413.348 103.284 413.486 103.883 413.486C104.477 413.486 104.964 413.348 105.344 413.072C105.729 412.796 106.013 412.406 106.195 411.9C106.378 411.395 106.469 410.799 106.469 410.111C106.469 409.429 106.378 408.84 106.195 408.346C106.013 407.846 105.732 407.46 105.352 407.189C104.971 406.919 104.479 406.783 103.875 406.783C102.984 406.783 102.331 407.077 101.914 407.666C101.503 408.255 101.297 409.07 101.297 410.111ZM117.125 405.846V414.408H116.062L115.875 413.205H115.805C115.628 413.502 115.398 413.752 115.117 413.955C114.836 414.158 114.518 414.309 114.164 414.408C113.815 414.512 113.443 414.564 113.047 414.564C112.37 414.564 111.802 414.455 111.344 414.236C110.885 414.018 110.539 413.679 110.305 413.221C110.076 412.762 109.961 412.174 109.961 411.455V405.846H111.273V411.361C111.273 412.075 111.435 412.609 111.758 412.963C112.081 413.312 112.573 413.486 113.234 413.486C113.87 413.486 114.375 413.367 114.75 413.127C115.13 412.887 115.404 412.536 115.57 412.072C115.737 411.604 115.82 411.031 115.82 410.354V405.846H117.125ZM125.406 412.064C125.406 412.611 125.268 413.072 124.992 413.447C124.721 413.817 124.331 414.096 123.82 414.283C123.315 414.471 122.711 414.564 122.008 414.564C121.409 414.564 120.891 414.518 120.453 414.424C120.016 414.33 119.633 414.197 119.305 414.025V412.83C119.654 413.002 120.07 413.158 120.555 413.299C121.039 413.439 121.534 413.51 122.039 413.51C122.779 413.51 123.315 413.39 123.648 413.15C123.982 412.911 124.148 412.585 124.148 412.174C124.148 411.939 124.081 411.734 123.945 411.557C123.815 411.374 123.594 411.2 123.281 411.033C122.969 410.861 122.536 410.674 121.984 410.471C121.438 410.262 120.964 410.057 120.562 409.854C120.167 409.645 119.859 409.393 119.641 409.096C119.427 408.799 119.32 408.413 119.32 407.939C119.32 407.215 119.612 406.661 120.195 406.275C120.784 405.885 121.555 405.689 122.508 405.689C123.023 405.689 123.505 405.742 123.953 405.846C124.406 405.945 124.828 406.08 125.219 406.252L124.781 407.291C124.427 407.14 124.049 407.012 123.648 406.908C123.247 406.804 122.839 406.752 122.422 406.752C121.823 406.752 121.362 406.851 121.039 407.049C120.721 407.247 120.562 407.518 120.562 407.861C120.562 408.127 120.635 408.346 120.781 408.518C120.932 408.689 121.172 408.851 121.5 409.002C121.828 409.153 122.26 409.33 122.797 409.533C123.333 409.731 123.797 409.937 124.188 410.15C124.578 410.359 124.878 410.614 125.086 410.916C125.299 411.213 125.406 411.596 125.406 412.064ZM128.977 412.549L129.078 412.729C128.984 413.109 128.865 413.515 128.719 413.947C128.578 414.38 128.422 414.812 128.25 415.244C128.083 415.682 127.914 416.09 127.742 416.471H126.773C126.883 416.054 126.99 415.614 127.094 415.15C127.198 414.692 127.292 414.239 127.375 413.791C127.464 413.338 127.534 412.924 127.586 412.549H128.977ZM141.328 412.064C141.328 412.611 141.19 413.072 140.914 413.447C140.643 413.817 140.253 414.096 139.742 414.283C139.237 414.471 138.633 414.564 137.93 414.564C137.331 414.564 136.812 414.518 136.375 414.424C135.938 414.33 135.555 414.197 135.227 414.025V412.83C135.576 413.002 135.992 413.158 136.477 413.299C136.961 413.439 137.456 413.51 137.961 413.51C138.701 413.51 139.237 413.39 139.57 413.15C139.904 412.911 140.07 412.585 140.07 412.174C140.07 411.939 140.003 411.734 139.867 411.557C139.737 411.374 139.516 411.2 139.203 411.033C138.891 410.861 138.458 410.674 137.906 410.471C137.359 410.262 136.885 410.057 136.484 409.854C136.089 409.645 135.781 409.393 135.562 409.096C135.349 408.799 135.242 408.413 135.242 407.939C135.242 407.215 135.534 406.661 136.117 406.275C136.706 405.885 137.477 405.689 138.43 405.689C138.945 405.689 139.427 405.742 139.875 405.846C140.328 405.945 140.75 406.08 141.141 406.252L140.703 407.291C140.349 407.14 139.971 407.012 139.57 406.908C139.169 406.804 138.76 406.752 138.344 406.752C137.745 406.752 137.284 406.851 136.961 407.049C136.643 407.247 136.484 407.518 136.484 407.861C136.484 408.127 136.557 408.346 136.703 408.518C136.854 408.689 137.094 408.851 137.422 409.002C137.75 409.153 138.182 409.33 138.719 409.533C139.255 409.731 139.719 409.937 140.109 410.15C140.5 410.359 140.799 410.614 141.008 410.916C141.221 411.213 141.328 411.596 141.328 412.064ZM144.711 405.846V414.408H143.414V405.846H144.711ZM144.078 402.643C144.292 402.643 144.474 402.713 144.625 402.854C144.781 402.989 144.859 403.202 144.859 403.494C144.859 403.781 144.781 403.994 144.625 404.135C144.474 404.275 144.292 404.346 144.078 404.346C143.854 404.346 143.667 404.275 143.516 404.135C143.37 403.994 143.297 403.781 143.297 403.494C143.297 403.202 143.37 402.989 143.516 402.854C143.667 402.713 143.854 402.643 144.078 402.643ZM148.766 414.408H147.461V402.252H148.766V414.408ZM152.812 414.408H151.508V402.252H152.812V414.408ZM154.203 405.846H155.594L157.484 410.814C157.594 411.106 157.695 411.387 157.789 411.658C157.883 411.924 157.966 412.179 158.039 412.424C158.112 412.669 158.169 412.906 158.211 413.135H158.266C158.339 412.874 158.443 412.533 158.578 412.111C158.714 411.684 158.859 411.249 159.016 410.807L160.805 405.846H162.203L158.477 415.666C158.279 416.192 158.047 416.65 157.781 417.041C157.521 417.432 157.203 417.731 156.828 417.939C156.453 418.153 156 418.26 155.469 418.26C155.224 418.26 155.008 418.244 154.82 418.213C154.633 418.187 154.471 418.156 154.336 418.119V417.08C154.451 417.106 154.589 417.13 154.75 417.15C154.917 417.171 155.089 417.182 155.266 417.182C155.589 417.182 155.867 417.119 156.102 416.994C156.341 416.874 156.547 416.697 156.719 416.463C156.891 416.229 157.039 415.95 157.164 415.627L157.633 414.424L154.203 405.846ZM165.055 412.549L165.156 412.729C165.062 413.109 164.943 413.515 164.797 413.947C164.656 414.38 164.5 414.812 164.328 415.244C164.161 415.682 163.992 416.09 163.82 416.471H162.852C162.961 416.054 163.068 415.614 163.172 415.15C163.276 414.692 163.37 414.239 163.453 413.791C163.542 413.338 163.612 412.924 163.664 412.549H165.055ZM175.07 405.705C176.091 405.705 176.849 405.934 177.344 406.393C177.839 406.851 178.086 407.583 178.086 408.588V414.408H177.141L176.891 413.143H176.828C176.589 413.455 176.339 413.718 176.078 413.932C175.818 414.14 175.516 414.299 175.172 414.408C174.833 414.512 174.417 414.564 173.922 414.564C173.401 414.564 172.938 414.473 172.531 414.291C172.13 414.109 171.812 413.833 171.578 413.463C171.349 413.093 171.234 412.624 171.234 412.057C171.234 411.202 171.573 410.546 172.25 410.088C172.927 409.63 173.958 409.38 175.344 409.338L176.82 409.275V408.752C176.82 408.012 176.661 407.494 176.344 407.197C176.026 406.9 175.578 406.752 175 406.752C174.552 406.752 174.125 406.817 173.719 406.947C173.312 407.077 172.927 407.231 172.562 407.408L172.164 406.424C172.549 406.226 172.992 406.057 173.492 405.916C173.992 405.775 174.518 405.705 175.07 405.705ZM176.805 410.189L175.5 410.244C174.432 410.286 173.68 410.46 173.242 410.768C172.805 411.075 172.586 411.51 172.586 412.072C172.586 412.562 172.734 412.924 173.031 413.158C173.328 413.393 173.721 413.51 174.211 413.51C174.971 413.51 175.594 413.299 176.078 412.877C176.562 412.455 176.805 411.822 176.805 410.979V410.189ZM184.812 405.689C185.828 405.689 186.596 405.939 187.117 406.439C187.638 406.934 187.898 407.731 187.898 408.83V414.408H186.617V408.916C186.617 408.202 186.453 407.669 186.125 407.314C185.802 406.96 185.305 406.783 184.633 406.783C183.685 406.783 183.018 407.051 182.633 407.588C182.247 408.124 182.055 408.903 182.055 409.924V414.408H180.758V405.846H181.805L182 407.08H182.07C182.253 406.778 182.484 406.525 182.766 406.322C183.047 406.114 183.362 405.958 183.711 405.854C184.06 405.744 184.427 405.689 184.812 405.689ZM193.617 414.564C192.534 414.564 191.674 414.195 191.039 413.455C190.409 412.715 190.094 411.617 190.094 410.158C190.094 408.684 190.417 407.572 191.062 406.822C191.708 406.067 192.568 405.689 193.641 405.689C194.094 405.689 194.49 405.749 194.828 405.869C195.167 405.989 195.458 406.15 195.703 406.354C195.948 406.551 196.154 406.778 196.32 407.033H196.414C196.393 406.872 196.372 406.65 196.352 406.369C196.331 406.088 196.32 405.859 196.32 405.682V402.252H197.617V414.408H196.57L196.375 413.189H196.32C196.159 413.445 195.953 413.676 195.703 413.885C195.458 414.093 195.164 414.26 194.82 414.385C194.482 414.505 194.081 414.564 193.617 414.564ZM193.82 413.486C194.737 413.486 195.385 413.226 195.766 412.705C196.146 412.184 196.336 411.411 196.336 410.385V410.15C196.336 409.062 196.154 408.226 195.789 407.643C195.43 407.059 194.773 406.768 193.82 406.768C193.023 406.768 192.427 407.075 192.031 407.689C191.635 408.299 191.438 409.132 191.438 410.189C191.438 411.242 191.633 412.054 192.023 412.627C192.419 413.2 193.018 413.486 193.82 413.486ZM207.727 405.705C208.747 405.705 209.505 405.934 210 406.393C210.495 406.851 210.742 407.583 210.742 408.588V414.408H209.797L209.547 413.143H209.484C209.245 413.455 208.995 413.718 208.734 413.932C208.474 414.14 208.172 414.299 207.828 414.408C207.49 414.512 207.073 414.564 206.578 414.564C206.057 414.564 205.594 414.473 205.188 414.291C204.786 414.109 204.469 413.833 204.234 413.463C204.005 413.093 203.891 412.624 203.891 412.057C203.891 411.202 204.229 410.546 204.906 410.088C205.583 409.63 206.615 409.38 208 409.338L209.477 409.275V408.752C209.477 408.012 209.318 407.494 209 407.197C208.682 406.9 208.234 406.752 207.656 406.752C207.208 406.752 206.781 406.817 206.375 406.947C205.969 407.077 205.583 407.231 205.219 407.408L204.82 406.424C205.206 406.226 205.648 406.057 206.148 405.916C206.648 405.775 207.174 405.705 207.727 405.705ZM209.461 410.189L208.156 410.244C207.089 410.286 206.336 410.46 205.898 410.768C205.461 411.075 205.242 411.51 205.242 412.072C205.242 412.562 205.391 412.924 205.688 413.158C205.984 413.393 206.378 413.51 206.867 413.51C207.628 413.51 208.25 413.299 208.734 412.877C209.219 412.455 209.461 411.822 209.461 410.979V410.189ZM214.719 414.408H213.414V402.252H214.719V414.408ZM224.43 414.393L222.906 409.408C222.839 409.195 222.773 408.986 222.711 408.783C222.654 408.575 222.599 408.377 222.547 408.189C222.5 407.997 222.456 407.82 222.414 407.658C222.378 407.492 222.346 407.348 222.32 407.229H222.266C222.245 407.348 222.216 407.492 222.18 407.658C222.143 407.82 222.099 407.997 222.047 408.189C222 408.382 221.948 408.585 221.891 408.799C221.833 409.007 221.768 409.218 221.695 409.432L220.102 414.393H218.641L216.281 405.83H217.625L218.859 410.557C218.943 410.869 219.021 411.179 219.094 411.486C219.172 411.788 219.237 412.075 219.289 412.346C219.346 412.611 219.388 412.843 219.414 413.041H219.477C219.508 412.911 219.542 412.755 219.578 412.572C219.62 412.39 219.664 412.197 219.711 411.994C219.763 411.786 219.818 411.58 219.875 411.377C219.932 411.169 219.99 410.973 220.047 410.791L221.625 405.83H223.023L224.547 410.783C224.625 411.033 224.701 411.294 224.773 411.564C224.852 411.835 224.922 412.098 224.984 412.354C225.047 412.604 225.091 412.827 225.117 413.025H225.18C225.201 412.848 225.24 412.63 225.297 412.369C225.354 412.109 225.419 411.822 225.492 411.51C225.57 411.197 225.651 410.88 225.734 410.557L226.984 405.83H228.305L225.938 414.393H224.43ZM233.07 405.705C234.091 405.705 234.849 405.934 235.344 406.393C235.839 406.851 236.086 407.583 236.086 408.588V414.408H235.141L234.891 413.143H234.828C234.589 413.455 234.339 413.718 234.078 413.932C233.818 414.14 233.516 414.299 233.172 414.408C232.833 414.512 232.417 414.564 231.922 414.564C231.401 414.564 230.938 414.473 230.531 414.291C230.13 414.109 229.812 413.833 229.578 413.463C229.349 413.093 229.234 412.624 229.234 412.057C229.234 411.202 229.573 410.546 230.25 410.088C230.927 409.63 231.958 409.38 233.344 409.338L234.82 409.275V408.752C234.82 408.012 234.661 407.494 234.344 407.197C234.026 406.9 233.578 406.752 233 406.752C232.552 406.752 232.125 406.817 231.719 406.947C231.312 407.077 230.927 407.231 230.562 407.408L230.164 406.424C230.549 406.226 230.992 406.057 231.492 405.916C231.992 405.775 232.518 405.705 233.07 405.705ZM234.805 410.189L233.5 410.244C232.432 410.286 231.68 410.46 231.242 410.768C230.805 411.075 230.586 411.51 230.586 412.072C230.586 412.562 230.734 412.924 231.031 413.158C231.328 413.393 231.721 413.51 232.211 413.51C232.971 413.51 233.594 413.299 234.078 412.877C234.562 412.455 234.805 411.822 234.805 410.979V410.189ZM237.406 405.846H238.797L240.688 410.814C240.797 411.106 240.898 411.387 240.992 411.658C241.086 411.924 241.169 412.179 241.242 412.424C241.315 412.669 241.372 412.906 241.414 413.135H241.469C241.542 412.874 241.646 412.533 241.781 412.111C241.917 411.684 242.062 411.249 242.219 410.807L244.008 405.846H245.406L241.68 415.666C241.482 416.192 241.25 416.65 240.984 417.041C240.724 417.432 240.406 417.731 240.031 417.939C239.656 418.153 239.203 418.26 238.672 418.26C238.427 418.26 238.211 418.244 238.023 418.213C237.836 418.187 237.674 418.156 237.539 418.119V417.08C237.654 417.106 237.792 417.13 237.953 417.15C238.12 417.171 238.292 417.182 238.469 417.182C238.792 417.182 239.07 417.119 239.305 416.994C239.544 416.874 239.75 416.697 239.922 416.463C240.094 416.229 240.242 415.95 240.367 415.627L240.836 414.424L237.406 405.846ZM252.312 412.064C252.312 412.611 252.174 413.072 251.898 413.447C251.628 413.817 251.237 414.096 250.727 414.283C250.221 414.471 249.617 414.564 248.914 414.564C248.315 414.564 247.797 414.518 247.359 414.424C246.922 414.33 246.539 414.197 246.211 414.025V412.83C246.56 413.002 246.977 413.158 247.461 413.299C247.945 413.439 248.44 413.51 248.945 413.51C249.685 413.51 250.221 413.39 250.555 413.15C250.888 412.911 251.055 412.585 251.055 412.174C251.055 411.939 250.987 411.734 250.852 411.557C250.721 411.374 250.5 411.2 250.188 411.033C249.875 410.861 249.443 410.674 248.891 410.471C248.344 410.262 247.87 410.057 247.469 409.854C247.073 409.645 246.766 409.393 246.547 409.096C246.333 408.799 246.227 408.413 246.227 407.939C246.227 407.215 246.518 406.661 247.102 406.275C247.69 405.885 248.461 405.689 249.414 405.689C249.93 405.689 250.411 405.742 250.859 405.846C251.312 405.945 251.734 406.08 252.125 406.252L251.688 407.291C251.333 407.14 250.956 407.012 250.555 406.908C250.154 406.804 249.745 406.752 249.328 406.752C248.729 406.752 248.268 406.851 247.945 407.049C247.628 407.247 247.469 407.518 247.469 407.861C247.469 408.127 247.542 408.346 247.688 408.518C247.839 408.689 248.078 408.851 248.406 409.002C248.734 409.153 249.167 409.33 249.703 409.533C250.24 409.731 250.703 409.937 251.094 410.15C251.484 410.359 251.784 410.614 251.992 410.916C252.206 411.213 252.312 411.596 252.312 412.064ZM262.445 405.689C262.617 405.689 262.797 405.7 262.984 405.721C263.172 405.736 263.339 405.76 263.484 405.791L263.32 406.994C263.18 406.958 263.023 406.929 262.852 406.908C262.68 406.887 262.518 406.877 262.367 406.877C262.023 406.877 261.698 406.947 261.391 407.088C261.089 407.223 260.823 407.421 260.594 407.682C260.365 407.937 260.185 408.247 260.055 408.611C259.924 408.971 259.859 409.372 259.859 409.814V414.408H258.555V405.846H259.633L259.773 407.424H259.828C260.005 407.106 260.219 406.817 260.469 406.557C260.719 406.291 261.008 406.08 261.336 405.924C261.669 405.768 262.039 405.689 262.445 405.689ZM268.398 405.689C269.128 405.689 269.753 405.851 270.273 406.174C270.794 406.497 271.193 406.95 271.469 407.533C271.745 408.111 271.883 408.788 271.883 409.564V410.369H265.969C265.984 411.374 266.234 412.14 266.719 412.666C267.203 413.192 267.885 413.455 268.766 413.455C269.307 413.455 269.786 413.406 270.203 413.307C270.62 413.208 271.052 413.062 271.5 412.869V414.01C271.068 414.202 270.638 414.343 270.211 414.432C269.789 414.52 269.289 414.564 268.711 414.564C267.888 414.564 267.169 414.398 266.555 414.064C265.945 413.726 265.471 413.231 265.133 412.58C264.794 411.929 264.625 411.132 264.625 410.189C264.625 409.268 264.779 408.471 265.086 407.799C265.398 407.122 265.836 406.601 266.398 406.236C266.966 405.872 267.633 405.689 268.398 405.689ZM268.383 406.752C267.69 406.752 267.138 406.979 266.727 407.432C266.315 407.885 266.07 408.518 265.992 409.33H270.523C270.518 408.82 270.438 408.372 270.281 407.986C270.13 407.596 269.898 407.294 269.586 407.08C269.273 406.861 268.872 406.752 268.383 406.752ZM277.289 405.705C278.31 405.705 279.068 405.934 279.562 406.393C280.057 406.851 280.305 407.583 280.305 408.588V414.408H279.359L279.109 413.143H279.047C278.807 413.455 278.557 413.718 278.297 413.932C278.036 414.14 277.734 414.299 277.391 414.408C277.052 414.512 276.635 414.564 276.141 414.564C275.62 414.564 275.156 414.473 274.75 414.291C274.349 414.109 274.031 413.833 273.797 413.463C273.568 413.093 273.453 412.624 273.453 412.057C273.453 411.202 273.792 410.546 274.469 410.088C275.146 409.63 276.177 409.38 277.562 409.338L279.039 409.275V408.752C279.039 408.012 278.88 407.494 278.562 407.197C278.245 406.9 277.797 406.752 277.219 406.752C276.771 406.752 276.344 406.817 275.938 406.947C275.531 407.077 275.146 407.231 274.781 407.408L274.383 406.424C274.768 406.226 275.211 406.057 275.711 405.916C276.211 405.775 276.737 405.705 277.289 405.705ZM279.023 410.189L277.719 410.244C276.651 410.286 275.898 410.46 275.461 410.768C275.023 411.075 274.805 411.51 274.805 412.072C274.805 412.562 274.953 412.924 275.25 413.158C275.547 413.393 275.94 413.51 276.43 413.51C277.19 413.51 277.812 413.299 278.297 412.877C278.781 412.455 279.023 411.822 279.023 410.979V410.189ZM286.023 414.564C284.94 414.564 284.081 414.195 283.445 413.455C282.815 412.715 282.5 411.617 282.5 410.158C282.5 408.684 282.823 407.572 283.469 406.822C284.115 406.067 284.974 405.689 286.047 405.689C286.5 405.689 286.896 405.749 287.234 405.869C287.573 405.989 287.865 406.15 288.109 406.354C288.354 406.551 288.56 406.778 288.727 407.033H288.82C288.799 406.872 288.779 406.65 288.758 406.369C288.737 406.088 288.727 405.859 288.727 405.682V402.252H290.023V414.408H288.977L288.781 413.189H288.727C288.565 413.445 288.359 413.676 288.109 413.885C287.865 414.093 287.57 414.26 287.227 414.385C286.888 414.505 286.487 414.564 286.023 414.564ZM286.227 413.486C287.143 413.486 287.792 413.226 288.172 412.705C288.552 412.184 288.742 411.411 288.742 410.385V410.15C288.742 409.062 288.56 408.226 288.195 407.643C287.836 407.059 287.18 406.768 286.227 406.768C285.43 406.768 284.833 407.075 284.438 407.689C284.042 408.299 283.844 409.132 283.844 410.189C283.844 411.242 284.039 412.054 284.43 412.627C284.826 413.2 285.424 413.486 286.227 413.486ZM291.422 405.846H292.812L294.703 410.814C294.812 411.106 294.914 411.387 295.008 411.658C295.102 411.924 295.185 412.179 295.258 412.424C295.331 412.669 295.388 412.906 295.43 413.135H295.484C295.557 412.874 295.661 412.533 295.797 412.111C295.932 411.684 296.078 411.249 296.234 410.807L298.023 405.846H299.422L295.695 415.666C295.497 416.192 295.266 416.65 295 417.041C294.74 417.432 294.422 417.731 294.047 417.939C293.672 418.153 293.219 418.26 292.688 418.26C292.443 418.26 292.227 418.244 292.039 418.213C291.852 418.187 291.69 418.156 291.555 418.119V417.08C291.669 417.106 291.807 417.13 291.969 417.15C292.135 417.171 292.307 417.182 292.484 417.182C292.807 417.182 293.086 417.119 293.32 416.994C293.56 416.874 293.766 416.697 293.938 416.463C294.109 416.229 294.258 415.95 294.383 415.627L294.852 414.424L291.422 405.846ZM72.2344 437.502C72.4479 437.502 72.6667 437.484 72.8906 437.447C73.1146 437.411 73.2969 437.367 73.4375 437.314V438.322C73.2865 438.39 73.0755 438.447 72.8047 438.494C72.5391 438.541 72.2786 438.564 72.0234 438.564C71.5703 438.564 71.1589 438.486 70.7891 438.33C70.4193 438.169 70.1224 437.898 69.8984 437.518C69.6797 437.137 69.5703 436.611 69.5703 435.939V430.861H68.3516V430.229L69.5781 429.721L70.0938 427.861H70.875V429.846H73.3828V430.861H70.875V435.9C70.875 436.437 70.9974 436.838 71.2422 437.104C71.4922 437.369 71.8229 437.502 72.2344 437.502ZM82.5547 434.111C82.5547 434.814 82.4635 435.442 82.2812 435.994C82.099 436.546 81.8359 437.012 81.4922 437.393C81.1484 437.773 80.7318 438.064 80.2422 438.268C79.7578 438.465 79.2083 438.564 78.5938 438.564C78.0208 438.564 77.4948 438.465 77.0156 438.268C76.5417 438.064 76.1302 437.773 75.7812 437.393C75.4375 437.012 75.1693 436.546 74.9766 435.994C74.7891 435.442 74.6953 434.814 74.6953 434.111C74.6953 433.174 74.8542 432.377 75.1719 431.721C75.4896 431.059 75.9427 430.557 76.5312 430.213C77.125 429.864 77.8307 429.689 78.6484 429.689C79.4297 429.689 80.112 429.864 80.6953 430.213C81.2839 430.562 81.7396 431.067 82.0625 431.729C82.3906 432.385 82.5547 433.179 82.5547 434.111ZM76.0391 434.111C76.0391 434.799 76.1302 435.395 76.3125 435.9C76.4948 436.406 76.776 436.796 77.1562 437.072C77.5365 437.348 78.026 437.486 78.625 437.486C79.2188 437.486 79.7057 437.348 80.0859 437.072C80.4714 436.796 80.7552 436.406 80.9375 435.9C81.1198 435.395 81.2109 434.799 81.2109 434.111C81.2109 433.429 81.1198 432.84 80.9375 432.346C80.7552 431.846 80.474 431.46 80.0938 431.189C79.7135 430.919 79.2214 430.783 78.6172 430.783C77.7266 430.783 77.0729 431.077 76.6562 431.666C76.2448 432.255 76.0391 433.07 76.0391 434.111ZM92.9766 429.689C94.0443 429.689 94.8958 430.057 95.5312 430.791C96.1667 431.525 96.4844 432.63 96.4844 434.104C96.4844 435.077 96.3385 435.895 96.0469 436.557C95.7552 437.218 95.3438 437.718 94.8125 438.057C94.2865 438.395 93.6641 438.564 92.9453 438.564C92.4922 438.564 92.0938 438.505 91.75 438.385C91.4062 438.265 91.112 438.104 90.8672 437.9C90.6224 437.697 90.4193 437.476 90.2578 437.236H90.1641C90.1797 437.439 90.1979 437.684 90.2188 437.971C90.2448 438.257 90.2578 438.507 90.2578 438.721V442.236H88.9531V429.846H90.0234L90.1953 431.111H90.2578C90.4245 430.851 90.6276 430.614 90.8672 430.4C91.1068 430.182 91.3984 430.01 91.7422 429.885C92.0911 429.755 92.5026 429.689 92.9766 429.689ZM92.75 430.783C92.1562 430.783 91.6771 430.898 91.3125 431.127C90.9531 431.356 90.6901 431.7 90.5234 432.158C90.3568 432.611 90.2682 433.182 90.2578 433.869V434.119C90.2578 434.843 90.3359 435.455 90.4922 435.955C90.6536 436.455 90.9167 436.835 91.2812 437.096C91.651 437.356 92.1458 437.486 92.7656 437.486C93.2969 437.486 93.7396 437.343 94.0938 437.057C94.4479 436.77 94.7109 436.372 94.8828 435.861C95.0599 435.346 95.1484 434.755 95.1484 434.088C95.1484 433.077 94.9505 432.275 94.5547 431.682C94.1641 431.083 93.5625 430.783 92.75 430.783ZM100.055 438.408H98.75V426.252H100.055V438.408ZM106 429.705C107.021 429.705 107.779 429.934 108.273 430.393C108.768 430.851 109.016 431.583 109.016 432.588V438.408H108.07L107.82 437.143H107.758C107.518 437.455 107.268 437.718 107.008 437.932C106.747 438.14 106.445 438.299 106.102 438.408C105.763 438.512 105.346 438.564 104.852 438.564C104.331 438.564 103.867 438.473 103.461 438.291C103.06 438.109 102.742 437.833 102.508 437.463C102.279 437.093 102.164 436.624 102.164 436.057C102.164 435.202 102.503 434.546 103.18 434.088C103.857 433.63 104.888 433.38 106.273 433.338L107.75 433.275V432.752C107.75 432.012 107.591 431.494 107.273 431.197C106.956 430.9 106.508 430.752 105.93 430.752C105.482 430.752 105.055 430.817 104.648 430.947C104.242 431.077 103.857 431.231 103.492 431.408L103.094 430.424C103.479 430.226 103.922 430.057 104.422 429.916C104.922 429.775 105.448 429.705 106 429.705ZM107.734 434.189L106.43 434.244C105.362 434.286 104.609 434.46 104.172 434.768C103.734 435.075 103.516 435.51 103.516 436.072C103.516 436.562 103.664 436.924 103.961 437.158C104.258 437.393 104.651 437.51 105.141 437.51C105.901 437.51 106.523 437.299 107.008 436.877C107.492 436.455 107.734 435.822 107.734 434.979V434.189ZM110.336 429.846H111.727L113.617 434.814C113.727 435.106 113.828 435.387 113.922 435.658C114.016 435.924 114.099 436.179 114.172 436.424C114.245 436.669 114.302 436.906 114.344 437.135H114.398C114.471 436.874 114.576 436.533 114.711 436.111C114.846 435.684 114.992 435.249 115.148 434.807L116.938 429.846H118.336L114.609 439.666C114.411 440.192 114.18 440.65 113.914 441.041C113.654 441.432 113.336 441.731 112.961 441.939C112.586 442.153 112.133 442.26 111.602 442.26C111.357 442.26 111.141 442.244 110.953 442.213C110.766 442.187 110.604 442.156 110.469 442.119V441.08C110.583 441.106 110.721 441.13 110.883 441.15C111.049 441.171 111.221 441.182 111.398 441.182C111.721 441.182 112 441.119 112.234 440.994C112.474 440.874 112.68 440.697 112.852 440.463C113.023 440.229 113.172 439.95 113.297 439.627L113.766 438.424L110.336 429.846ZM119.508 437.596C119.508 437.231 119.596 436.973 119.773 436.822C119.951 436.666 120.167 436.588 120.422 436.588C120.688 436.588 120.911 436.666 121.094 436.822C121.276 436.973 121.367 437.231 121.367 437.596C121.367 437.955 121.276 438.218 121.094 438.385C120.911 438.546 120.688 438.627 120.422 438.627C120.167 438.627 119.951 438.546 119.773 438.385C119.596 438.218 119.508 437.955 119.508 437.596ZM128.258 438.408V426.986H129.586V437.221H134.656V438.408H128.258ZM143.805 434.111C143.805 434.814 143.714 435.442 143.531 435.994C143.349 436.546 143.086 437.012 142.742 437.393C142.398 437.773 141.982 438.064 141.492 438.268C141.008 438.465 140.458 438.564 139.844 438.564C139.271 438.564 138.745 438.465 138.266 438.268C137.792 438.064 137.38 437.773 137.031 437.393C136.688 437.012 136.419 436.546 136.227 435.994C136.039 435.442 135.945 434.814 135.945 434.111C135.945 433.174 136.104 432.377 136.422 431.721C136.74 431.059 137.193 430.557 137.781 430.213C138.375 429.864 139.081 429.689 139.898 429.689C140.68 429.689 141.362 429.864 141.945 430.213C142.534 430.562 142.99 431.067 143.312 431.729C143.641 432.385 143.805 433.179 143.805 434.111ZM137.289 434.111C137.289 434.799 137.38 435.395 137.562 435.9C137.745 436.406 138.026 436.796 138.406 437.072C138.786 437.348 139.276 437.486 139.875 437.486C140.469 437.486 140.956 437.348 141.336 437.072C141.721 436.796 142.005 436.406 142.188 435.9C142.37 435.395 142.461 434.799 142.461 434.111C142.461 433.429 142.37 432.84 142.188 432.346C142.005 431.846 141.724 431.46 141.344 431.189C140.964 430.919 140.471 430.783 139.867 430.783C138.977 430.783 138.323 431.077 137.906 431.666C137.495 432.255 137.289 433.07 137.289 434.111ZM147.93 438.408L144.68 429.846H146.07L147.953 435.025C148.083 435.38 148.216 435.77 148.352 436.197C148.487 436.624 148.581 436.968 148.633 437.229H148.688C148.75 436.968 148.854 436.624 149 436.197C149.146 435.765 149.279 435.374 149.398 435.025L151.281 429.846H152.672L149.414 438.408H147.93ZM157.344 429.689C158.073 429.689 158.698 429.851 159.219 430.174C159.74 430.497 160.138 430.95 160.414 431.533C160.69 432.111 160.828 432.788 160.828 433.564V434.369H154.914C154.93 435.374 155.18 436.14 155.664 436.666C156.148 437.192 156.831 437.455 157.711 437.455C158.253 437.455 158.732 437.406 159.148 437.307C159.565 437.208 159.997 437.062 160.445 436.869V438.01C160.013 438.202 159.583 438.343 159.156 438.432C158.734 438.52 158.234 438.564 157.656 438.564C156.833 438.564 156.115 438.398 155.5 438.064C154.891 437.726 154.417 437.231 154.078 436.58C153.74 435.929 153.57 435.132 153.57 434.189C153.57 433.268 153.724 432.471 154.031 431.799C154.344 431.122 154.781 430.601 155.344 430.236C155.911 429.872 156.578 429.689 157.344 429.689ZM157.328 430.752C156.635 430.752 156.083 430.979 155.672 431.432C155.26 431.885 155.016 432.518 154.938 433.33H159.469C159.464 432.82 159.383 432.372 159.227 431.986C159.076 431.596 158.844 431.294 158.531 431.08C158.219 430.861 157.818 430.752 157.328 430.752ZM168.57 436.064C168.57 436.611 168.432 437.072 168.156 437.447C167.885 437.817 167.495 438.096 166.984 438.283C166.479 438.471 165.875 438.564 165.172 438.564C164.573 438.564 164.055 438.518 163.617 438.424C163.18 438.33 162.797 438.197 162.469 438.025V436.83C162.818 437.002 163.234 437.158 163.719 437.299C164.203 437.439 164.698 437.51 165.203 437.51C165.943 437.51 166.479 437.39 166.812 437.15C167.146 436.911 167.312 436.585 167.312 436.174C167.312 435.939 167.245 435.734 167.109 435.557C166.979 435.374 166.758 435.2 166.445 435.033C166.133 434.861 165.701 434.674 165.148 434.471C164.602 434.262 164.128 434.057 163.727 433.854C163.331 433.645 163.023 433.393 162.805 433.096C162.591 432.799 162.484 432.413 162.484 431.939C162.484 431.215 162.776 430.661 163.359 430.275C163.948 429.885 164.719 429.689 165.672 429.689C166.188 429.689 166.669 429.742 167.117 429.846C167.57 429.945 167.992 430.08 168.383 430.252L167.945 431.291C167.591 431.14 167.214 431.012 166.812 430.908C166.411 430.804 166.003 430.752 165.586 430.752C164.987 430.752 164.526 430.851 164.203 431.049C163.885 431.247 163.727 431.518 163.727 431.861C163.727 432.127 163.799 432.346 163.945 432.518C164.096 432.689 164.336 432.851 164.664 433.002C164.992 433.153 165.424 433.33 165.961 433.533C166.497 433.731 166.961 433.937 167.352 434.15C167.742 434.359 168.042 434.614 168.25 434.916C168.464 435.213 168.57 435.596 168.57 436.064ZM178.242 438.564C177.471 438.564 176.792 438.406 176.203 438.088C175.615 437.77 175.156 437.286 174.828 436.635C174.5 435.984 174.336 435.163 174.336 434.174C174.336 433.137 174.508 432.291 174.852 431.635C175.201 430.973 175.68 430.484 176.289 430.166C176.898 429.848 177.591 429.689 178.367 429.689C178.794 429.689 179.206 429.734 179.602 429.822C180.003 429.906 180.331 430.012 180.586 430.143L180.195 431.229C179.935 431.124 179.633 431.031 179.289 430.947C178.951 430.864 178.633 430.822 178.336 430.822C177.742 430.822 177.247 430.95 176.852 431.205C176.461 431.46 176.167 431.835 175.969 432.33C175.776 432.825 175.68 433.434 175.68 434.158C175.68 434.851 175.773 435.442 175.961 435.932C176.154 436.421 176.438 436.796 176.812 437.057C177.193 437.312 177.667 437.439 178.234 437.439C178.688 437.439 179.096 437.393 179.461 437.299C179.826 437.2 180.156 437.085 180.453 436.955V438.111C180.167 438.257 179.846 438.369 179.492 438.447C179.143 438.525 178.727 438.564 178.242 438.564ZM186.375 429.689C186.547 429.689 186.727 429.7 186.914 429.721C187.102 429.736 187.268 429.76 187.414 429.791L187.25 430.994C187.109 430.958 186.953 430.929 186.781 430.908C186.609 430.887 186.448 430.877 186.297 430.877C185.953 430.877 185.628 430.947 185.32 431.088C185.018 431.223 184.753 431.421 184.523 431.682C184.294 431.937 184.115 432.247 183.984 432.611C183.854 432.971 183.789 433.372 183.789 433.814V438.408H182.484V429.846H183.562L183.703 431.424H183.758C183.935 431.106 184.148 430.817 184.398 430.557C184.648 430.291 184.938 430.08 185.266 429.924C185.599 429.768 185.969 429.689 186.375 429.689ZM196.102 429.846V438.408H195.039L194.852 437.205H194.781C194.604 437.502 194.375 437.752 194.094 437.955C193.812 438.158 193.495 438.309 193.141 438.408C192.792 438.512 192.419 438.564 192.023 438.564C191.346 438.564 190.779 438.455 190.32 438.236C189.862 438.018 189.516 437.679 189.281 437.221C189.052 436.762 188.938 436.174 188.938 435.455V429.846H190.25V435.361C190.25 436.075 190.411 436.609 190.734 436.963C191.057 437.312 191.549 437.486 192.211 437.486C192.846 437.486 193.352 437.367 193.727 437.127C194.107 436.887 194.38 436.536 194.547 436.072C194.714 435.604 194.797 435.031 194.797 434.354V429.846H196.102ZM202.898 429.689C203.914 429.689 204.682 429.939 205.203 430.439C205.724 430.934 205.984 431.731 205.984 432.83V438.408H204.703V432.916C204.703 432.202 204.539 431.669 204.211 431.314C203.888 430.96 203.391 430.783 202.719 430.783C201.771 430.783 201.104 431.051 200.719 431.588C200.333 432.124 200.141 432.903 200.141 433.924V438.408H198.844V429.846H199.891L200.086 431.08H200.156C200.339 430.778 200.57 430.525 200.852 430.322C201.133 430.114 201.448 429.958 201.797 429.854C202.146 429.744 202.513 429.689 202.898 429.689ZM212.086 438.564C211.315 438.564 210.635 438.406 210.047 438.088C209.458 437.77 209 437.286 208.672 436.635C208.344 435.984 208.18 435.163 208.18 434.174C208.18 433.137 208.352 432.291 208.695 431.635C209.044 430.973 209.523 430.484 210.133 430.166C210.742 429.848 211.435 429.689 212.211 429.689C212.638 429.689 213.049 429.734 213.445 429.822C213.846 429.906 214.174 430.012 214.43 430.143L214.039 431.229C213.779 431.124 213.477 431.031 213.133 430.947C212.794 430.864 212.477 430.822 212.18 430.822C211.586 430.822 211.091 430.95 210.695 431.205C210.305 431.46 210.01 431.835 209.812 432.33C209.62 432.825 209.523 433.434 209.523 434.158C209.523 434.851 209.617 435.442 209.805 435.932C209.997 436.421 210.281 436.796 210.656 437.057C211.036 437.312 211.51 437.439 212.078 437.439C212.531 437.439 212.94 437.393 213.305 437.299C213.669 437.2 214 437.085 214.297 436.955V438.111C214.01 438.257 213.69 438.369 213.336 438.447C212.987 438.525 212.57 438.564 212.086 438.564ZM217.625 426.252V429.885C217.625 430.093 217.62 430.304 217.609 430.518C217.599 430.726 217.581 430.919 217.555 431.096H217.641C217.818 430.794 218.042 430.541 218.312 430.338C218.589 430.13 218.901 429.973 219.25 429.869C219.599 429.76 219.969 429.705 220.359 429.705C221.047 429.705 221.62 429.814 222.078 430.033C222.542 430.252 222.888 430.59 223.117 431.049C223.352 431.507 223.469 432.101 223.469 432.83V438.408H222.188V432.916C222.188 432.202 222.023 431.669 221.695 431.314C221.372 430.96 220.875 430.783 220.203 430.783C219.568 430.783 219.06 430.906 218.68 431.15C218.305 431.39 218.034 431.744 217.867 432.213C217.706 432.682 217.625 433.255 217.625 433.932V438.408H216.328V426.252H217.625ZM224.789 429.846H226.18L228.07 434.814C228.18 435.106 228.281 435.387 228.375 435.658C228.469 435.924 228.552 436.179 228.625 436.424C228.698 436.669 228.755 436.906 228.797 437.135H228.852C228.924 436.874 229.029 436.533 229.164 436.111C229.299 435.684 229.445 435.249 229.602 434.807L231.391 429.846H232.789L229.062 439.666C228.865 440.192 228.633 440.65 228.367 441.041C228.107 441.432 227.789 441.731 227.414 441.939C227.039 442.153 226.586 442.26 226.055 442.26C225.81 442.26 225.594 442.244 225.406 442.213C225.219 442.187 225.057 442.156 224.922 442.119V441.08C225.036 441.106 225.174 441.13 225.336 441.15C225.503 441.171 225.674 441.182 225.852 441.182C226.174 441.182 226.453 441.119 226.688 440.994C226.927 440.874 227.133 440.697 227.305 440.463C227.477 440.229 227.625 439.95 227.75 439.627L228.219 438.424L224.789 429.846ZM241.359 438.564C240.276 438.564 239.417 438.195 238.781 437.455C238.151 436.715 237.836 435.617 237.836 434.158C237.836 432.684 238.159 431.572 238.805 430.822C239.451 430.067 240.31 429.689 241.383 429.689C241.836 429.689 242.232 429.749 242.57 429.869C242.909 429.989 243.201 430.15 243.445 430.354C243.69 430.551 243.896 430.778 244.062 431.033H244.156C244.135 430.872 244.115 430.65 244.094 430.369C244.073 430.088 244.062 429.859 244.062 429.682V426.252H245.359V438.408H244.312L244.117 437.189H244.062C243.901 437.445 243.695 437.676 243.445 437.885C243.201 438.093 242.906 438.26 242.562 438.385C242.224 438.505 241.823 438.564 241.359 438.564ZM241.562 437.486C242.479 437.486 243.128 437.226 243.508 436.705C243.888 436.184 244.078 435.411 244.078 434.385V434.15C244.078 433.062 243.896 432.226 243.531 431.643C243.172 431.059 242.516 430.768 241.562 430.768C240.766 430.768 240.169 431.075 239.773 431.689C239.378 432.299 239.18 433.132 239.18 434.189C239.18 435.242 239.375 436.054 239.766 436.627C240.161 437.2 240.76 437.486 241.562 437.486ZM252 429.689C252.172 429.689 252.352 429.7 252.539 429.721C252.727 429.736 252.893 429.76 253.039 429.791L252.875 430.994C252.734 430.958 252.578 430.929 252.406 430.908C252.234 430.887 252.073 430.877 251.922 430.877C251.578 430.877 251.253 430.947 250.945 431.088C250.643 431.223 250.378 431.421 250.148 431.682C249.919 431.937 249.74 432.247 249.609 432.611C249.479 432.971 249.414 433.372 249.414 433.814V438.408H248.109V429.846H249.188L249.328 431.424H249.383C249.56 431.106 249.773 430.817 250.023 430.557C250.273 430.291 250.562 430.08 250.891 429.924C251.224 429.768 251.594 429.689 252 429.689ZM253.305 429.846H254.695L256.586 434.814C256.695 435.106 256.797 435.387 256.891 435.658C256.984 435.924 257.068 436.179 257.141 436.424C257.214 436.669 257.271 436.906 257.312 437.135H257.367C257.44 436.874 257.544 436.533 257.68 436.111C257.815 435.684 257.961 435.249 258.117 434.807L259.906 429.846H261.305L257.578 439.666C257.38 440.192 257.148 440.65 256.883 441.041C256.622 441.432 256.305 441.731 255.93 441.939C255.555 442.153 255.102 442.26 254.57 442.26C254.326 442.26 254.109 442.244 253.922 442.213C253.734 442.187 253.573 442.156 253.438 442.119V441.08C253.552 441.106 253.69 441.13 253.852 441.15C254.018 441.171 254.19 441.182 254.367 441.182C254.69 441.182 254.969 441.119 255.203 440.994C255.443 440.874 255.648 440.697 255.82 440.463C255.992 440.229 256.141 439.95 256.266 439.627L256.734 438.424L253.305 429.846ZM270.641 430.861H268.508V438.408H267.211V430.861H265.695V430.236L267.211 429.807V429.236C267.211 428.518 267.318 427.934 267.531 427.486C267.745 427.033 268.055 426.7 268.461 426.486C268.867 426.273 269.362 426.166 269.945 426.166C270.273 426.166 270.573 426.195 270.844 426.252C271.12 426.309 271.362 426.374 271.57 426.447L271.234 427.471C271.057 427.413 270.857 427.361 270.633 427.314C270.414 427.262 270.19 427.236 269.961 427.236C269.466 427.236 269.099 427.398 268.859 427.721C268.625 428.038 268.508 428.538 268.508 429.221V429.846H270.641V430.861ZM279.602 434.111C279.602 434.814 279.51 435.442 279.328 435.994C279.146 436.546 278.883 437.012 278.539 437.393C278.195 437.773 277.779 438.064 277.289 438.268C276.805 438.465 276.255 438.564 275.641 438.564C275.068 438.564 274.542 438.465 274.062 438.268C273.589 438.064 273.177 437.773 272.828 437.393C272.484 437.012 272.216 436.546 272.023 435.994C271.836 435.442 271.742 434.814 271.742 434.111C271.742 433.174 271.901 432.377 272.219 431.721C272.536 431.059 272.99 430.557 273.578 430.213C274.172 429.864 274.878 429.689 275.695 429.689C276.477 429.689 277.159 429.864 277.742 430.213C278.331 430.562 278.786 431.067 279.109 431.729C279.438 432.385 279.602 433.179 279.602 434.111ZM273.086 434.111C273.086 434.799 273.177 435.395 273.359 435.9C273.542 436.406 273.823 436.796 274.203 437.072C274.583 437.348 275.073 437.486 275.672 437.486C276.266 437.486 276.753 437.348 277.133 437.072C277.518 436.796 277.802 436.406 277.984 435.9C278.167 435.395 278.258 434.799 278.258 434.111C278.258 433.429 278.167 432.84 277.984 432.346C277.802 431.846 277.521 431.46 277.141 431.189C276.76 430.919 276.268 430.783 275.664 430.783C274.773 430.783 274.12 431.077 273.703 431.666C273.292 432.255 273.086 433.07 273.086 434.111ZM289.227 434.111C289.227 434.814 289.135 435.442 288.953 435.994C288.771 436.546 288.508 437.012 288.164 437.393C287.82 437.773 287.404 438.064 286.914 438.268C286.43 438.465 285.88 438.564 285.266 438.564C284.693 438.564 284.167 438.465 283.688 438.268C283.214 438.064 282.802 437.773 282.453 437.393C282.109 437.012 281.841 436.546 281.648 435.994C281.461 435.442 281.367 434.814 281.367 434.111C281.367 433.174 281.526 432.377 281.844 431.721C282.161 431.059 282.615 430.557 283.203 430.213C283.797 429.864 284.503 429.689 285.32 429.689C286.102 429.689 286.784 429.864 287.367 430.213C287.956 430.562 288.411 431.067 288.734 431.729C289.062 432.385 289.227 433.179 289.227 434.111ZM282.711 434.111C282.711 434.799 282.802 435.395 282.984 435.9C283.167 436.406 283.448 436.796 283.828 437.072C284.208 437.348 284.698 437.486 285.297 437.486C285.891 437.486 286.378 437.348 286.758 437.072C287.143 436.796 287.427 436.406 287.609 435.9C287.792 435.395 287.883 434.799 287.883 434.111C287.883 433.429 287.792 432.84 287.609 432.346C287.427 431.846 287.146 431.46 286.766 431.189C286.385 430.919 285.893 430.783 285.289 430.783C284.398 430.783 283.745 431.077 283.328 431.666C282.917 432.255 282.711 433.07 282.711 434.111ZM294.516 438.564C293.432 438.564 292.573 438.195 291.938 437.455C291.307 436.715 290.992 435.617 290.992 434.158C290.992 432.684 291.315 431.572 291.961 430.822C292.607 430.067 293.466 429.689 294.539 429.689C294.992 429.689 295.388 429.749 295.727 429.869C296.065 429.989 296.357 430.15 296.602 430.354C296.846 430.551 297.052 430.778 297.219 431.033H297.312C297.292 430.872 297.271 430.65 297.25 430.369C297.229 430.088 297.219 429.859 297.219 429.682V426.252H298.516V438.408H297.469L297.273 437.189H297.219C297.057 437.445 296.852 437.676 296.602 437.885C296.357 438.093 296.062 438.26 295.719 438.385C295.38 438.505 294.979 438.564 294.516 438.564ZM294.719 437.486C295.635 437.486 296.284 437.226 296.664 436.705C297.044 436.184 297.234 435.411 297.234 434.385V434.15C297.234 433.062 297.052 432.226 296.688 431.643C296.328 431.059 295.672 430.768 294.719 430.768C293.922 430.768 293.326 431.075 292.93 431.689C292.534 432.299 292.336 433.132 292.336 434.189C292.336 435.242 292.531 436.054 292.922 436.627C293.318 437.2 293.917 437.486 294.719 437.486ZM94.3906 453.705C95.4115 453.705 96.1693 453.934 96.6641 454.393C97.1589 454.851 97.4062 455.583 97.4062 456.588V462.408H96.4609L96.2109 461.143H96.1484C95.9089 461.455 95.6589 461.718 95.3984 461.932C95.138 462.14 94.8359 462.299 94.4922 462.408C94.1536 462.512 93.737 462.564 93.2422 462.564C92.7214 462.564 92.2578 462.473 91.8516 462.291C91.4505 462.109 91.1328 461.833 90.8984 461.463C90.6693 461.093 90.5547 460.624 90.5547 460.057C90.5547 459.202 90.8932 458.546 91.5703 458.088C92.2474 457.63 93.2786 457.38 94.6641 457.338L96.1406 457.275V456.752C96.1406 456.012 95.9818 455.494 95.6641 455.197C95.3464 454.9 94.8984 454.752 94.3203 454.752C93.8724 454.752 93.4453 454.817 93.0391 454.947C92.6328 455.077 92.2474 455.231 91.8828 455.408L91.4844 454.424C91.8698 454.226 92.3125 454.057 92.8125 453.916C93.3125 453.775 93.8385 453.705 94.3906 453.705ZM96.125 458.189L94.8203 458.244C93.7526 458.286 93 458.46 92.5625 458.768C92.125 459.075 91.9062 459.51 91.9062 460.072C91.9062 460.562 92.0547 460.924 92.3516 461.158C92.6484 461.393 93.0417 461.51 93.5312 461.51C94.2917 461.51 94.9141 461.299 95.3984 460.877C95.8828 460.455 96.125 459.822 96.125 458.979V458.189ZM104.133 453.689C105.148 453.689 105.917 453.939 106.438 454.439C106.958 454.934 107.219 455.731 107.219 456.83V462.408H105.938V456.916C105.938 456.202 105.773 455.669 105.445 455.314C105.122 454.96 104.625 454.783 103.953 454.783C103.005 454.783 102.339 455.051 101.953 455.588C101.568 456.124 101.375 456.903 101.375 457.924V462.408H100.078V453.846H101.125L101.32 455.08H101.391C101.573 454.778 101.805 454.525 102.086 454.322C102.367 454.114 102.682 453.958 103.031 453.854C103.38 453.744 103.747 453.689 104.133 453.689ZM112.938 462.564C111.854 462.564 110.995 462.195 110.359 461.455C109.729 460.715 109.414 459.617 109.414 458.158C109.414 456.684 109.737 455.572 110.383 454.822C111.029 454.067 111.888 453.689 112.961 453.689C113.414 453.689 113.81 453.749 114.148 453.869C114.487 453.989 114.779 454.15 115.023 454.354C115.268 454.551 115.474 454.778 115.641 455.033H115.734C115.714 454.872 115.693 454.65 115.672 454.369C115.651 454.088 115.641 453.859 115.641 453.682V450.252H116.938V462.408H115.891L115.695 461.189H115.641C115.479 461.445 115.273 461.676 115.023 461.885C114.779 462.093 114.484 462.26 114.141 462.385C113.802 462.505 113.401 462.564 112.938 462.564ZM113.141 461.486C114.057 461.486 114.706 461.226 115.086 460.705C115.466 460.184 115.656 459.411 115.656 458.385V458.15C115.656 457.062 115.474 456.226 115.109 455.643C114.75 455.059 114.094 454.768 113.141 454.768C112.344 454.768 111.747 455.075 111.352 455.689C110.956 456.299 110.758 457.132 110.758 458.189C110.758 459.242 110.953 460.054 111.344 460.627C111.74 461.2 112.339 461.486 113.141 461.486ZM127.273 462.564C126.503 462.564 125.823 462.406 125.234 462.088C124.646 461.77 124.188 461.286 123.859 460.635C123.531 459.984 123.367 459.163 123.367 458.174C123.367 457.137 123.539 456.291 123.883 455.635C124.232 454.973 124.711 454.484 125.32 454.166C125.93 453.848 126.622 453.689 127.398 453.689C127.826 453.689 128.237 453.734 128.633 453.822C129.034 453.906 129.362 454.012 129.617 454.143L129.227 455.229C128.966 455.124 128.664 455.031 128.32 454.947C127.982 454.864 127.664 454.822 127.367 454.822C126.773 454.822 126.279 454.95 125.883 455.205C125.492 455.46 125.198 455.835 125 456.33C124.807 456.825 124.711 457.434 124.711 458.158C124.711 458.851 124.805 459.442 124.992 459.932C125.185 460.421 125.469 460.796 125.844 461.057C126.224 461.312 126.698 461.439 127.266 461.439C127.719 461.439 128.128 461.393 128.492 461.299C128.857 461.2 129.188 461.085 129.484 460.955V462.111C129.198 462.257 128.878 462.369 128.523 462.447C128.174 462.525 127.758 462.564 127.273 462.564ZM132.812 450.252V453.885C132.812 454.093 132.807 454.304 132.797 454.518C132.786 454.726 132.768 454.919 132.742 455.096H132.828C133.005 454.794 133.229 454.541 133.5 454.338C133.776 454.13 134.089 453.973 134.438 453.869C134.786 453.76 135.156 453.705 135.547 453.705C136.234 453.705 136.807 453.814 137.266 454.033C137.729 454.252 138.076 454.59 138.305 455.049C138.539 455.507 138.656 456.101 138.656 456.83V462.408H137.375V456.916C137.375 456.202 137.211 455.669 136.883 455.314C136.56 454.96 136.062 454.783 135.391 454.783C134.755 454.783 134.247 454.906 133.867 455.15C133.492 455.39 133.221 455.744 133.055 456.213C132.893 456.682 132.812 457.255 132.812 457.932V462.408H131.516V450.252H132.812ZM144.531 453.705C145.552 453.705 146.31 453.934 146.805 454.393C147.299 454.851 147.547 455.583 147.547 456.588V462.408H146.602L146.352 461.143H146.289C146.049 461.455 145.799 461.718 145.539 461.932C145.279 462.14 144.977 462.299 144.633 462.408C144.294 462.512 143.878 462.564 143.383 462.564C142.862 462.564 142.398 462.473 141.992 462.291C141.591 462.109 141.273 461.833 141.039 461.463C140.81 461.093 140.695 460.624 140.695 460.057C140.695 459.202 141.034 458.546 141.711 458.088C142.388 457.63 143.419 457.38 144.805 457.338L146.281 457.275V456.752C146.281 456.012 146.122 455.494 145.805 455.197C145.487 454.9 145.039 454.752 144.461 454.752C144.013 454.752 143.586 454.817 143.18 454.947C142.773 455.077 142.388 455.231 142.023 455.408L141.625 454.424C142.01 454.226 142.453 454.057 142.953 453.916C143.453 453.775 143.979 453.705 144.531 453.705ZM146.266 458.189L144.961 458.244C143.893 458.286 143.141 458.46 142.703 458.768C142.266 459.075 142.047 459.51 142.047 460.072C142.047 460.562 142.195 460.924 142.492 461.158C142.789 461.393 143.182 461.51 143.672 461.51C144.432 461.51 145.055 461.299 145.539 460.877C146.023 460.455 146.266 459.822 146.266 458.979V458.189ZM155.758 460.064C155.758 460.611 155.62 461.072 155.344 461.447C155.073 461.817 154.682 462.096 154.172 462.283C153.667 462.471 153.062 462.564 152.359 462.564C151.76 462.564 151.242 462.518 150.805 462.424C150.367 462.33 149.984 462.197 149.656 462.025V460.83C150.005 461.002 150.422 461.158 150.906 461.299C151.391 461.439 151.885 461.51 152.391 461.51C153.13 461.51 153.667 461.39 154 461.15C154.333 460.911 154.5 460.585 154.5 460.174C154.5 459.939 154.432 459.734 154.297 459.557C154.167 459.374 153.945 459.2 153.633 459.033C153.32 458.861 152.888 458.674 152.336 458.471C151.789 458.262 151.315 458.057 150.914 457.854C150.518 457.645 150.211 457.393 149.992 457.096C149.779 456.799 149.672 456.413 149.672 455.939C149.672 455.215 149.964 454.661 150.547 454.275C151.135 453.885 151.906 453.689 152.859 453.689C153.375 453.689 153.857 453.742 154.305 453.846C154.758 453.945 155.18 454.08 155.57 454.252L155.133 455.291C154.779 455.14 154.401 455.012 154 454.908C153.599 454.804 153.19 454.752 152.773 454.752C152.174 454.752 151.714 454.851 151.391 455.049C151.073 455.247 150.914 455.518 150.914 455.861C150.914 456.127 150.987 456.346 151.133 456.518C151.284 456.689 151.523 456.851 151.852 457.002C152.18 457.153 152.612 457.33 153.148 457.533C153.685 457.731 154.148 457.937 154.539 458.15C154.93 458.359 155.229 458.614 155.438 458.916C155.651 459.213 155.758 459.596 155.758 460.064ZM159.141 453.846V462.408H157.844V453.846H159.141ZM158.508 450.643C158.721 450.643 158.904 450.713 159.055 450.854C159.211 450.989 159.289 451.202 159.289 451.494C159.289 451.781 159.211 451.994 159.055 452.135C158.904 452.275 158.721 452.346 158.508 452.346C158.284 452.346 158.096 452.275 157.945 452.135C157.799 451.994 157.727 451.781 157.727 451.494C157.727 451.202 157.799 450.989 157.945 450.854C158.096 450.713 158.284 450.643 158.508 450.643ZM165.945 453.689C166.961 453.689 167.729 453.939 168.25 454.439C168.771 454.934 169.031 455.731 169.031 456.83V462.408H167.75V456.916C167.75 456.202 167.586 455.669 167.258 455.314C166.935 454.96 166.438 454.783 165.766 454.783C164.818 454.783 164.151 455.051 163.766 455.588C163.38 456.124 163.188 456.903 163.188 457.924V462.408H161.891V453.846H162.938L163.133 455.08H163.203C163.385 454.778 163.617 454.525 163.898 454.322C164.18 454.114 164.495 453.958 164.844 453.854C165.193 453.744 165.56 453.689 165.945 453.689ZM174.094 466.252C172.969 466.252 172.102 466.041 171.492 465.619C170.883 465.202 170.578 464.617 170.578 463.861C170.578 463.325 170.747 462.867 171.086 462.486C171.43 462.106 171.904 461.854 172.508 461.729C172.284 461.624 172.091 461.468 171.93 461.26C171.773 461.051 171.695 460.812 171.695 460.541C171.695 460.229 171.781 459.955 171.953 459.721C172.13 459.481 172.398 459.252 172.758 459.033C172.31 458.851 171.945 458.544 171.664 458.111C171.388 457.674 171.25 457.166 171.25 456.588C171.25 455.973 171.378 455.45 171.633 455.018C171.888 454.58 172.258 454.247 172.742 454.018C173.227 453.788 173.812 453.674 174.5 453.674C174.651 453.674 174.802 453.682 174.953 453.697C175.109 453.708 175.258 453.726 175.398 453.752C175.539 453.773 175.661 453.799 175.766 453.83H178.703V454.666L177.125 454.861C177.281 455.064 177.411 455.309 177.516 455.596C177.62 455.882 177.672 456.2 177.672 456.549C177.672 457.403 177.383 458.083 176.805 458.588C176.227 459.088 175.432 459.338 174.422 459.338C174.182 459.338 173.938 459.317 173.688 459.275C173.432 459.416 173.237 459.572 173.102 459.744C172.971 459.916 172.906 460.114 172.906 460.338C172.906 460.505 172.956 460.637 173.055 460.736C173.159 460.835 173.307 460.908 173.5 460.955C173.693 460.997 173.924 461.018 174.195 461.018H175.703C176.635 461.018 177.349 461.213 177.844 461.604C178.344 461.994 178.594 462.564 178.594 463.314C178.594 464.262 178.208 464.989 177.438 465.494C176.667 465.999 175.552 466.252 174.094 466.252ZM174.133 465.236C174.841 465.236 175.427 465.163 175.891 465.018C176.359 464.877 176.708 464.671 176.938 464.4C177.172 464.135 177.289 463.817 177.289 463.447C177.289 463.104 177.211 462.843 177.055 462.666C176.898 462.494 176.669 462.38 176.367 462.322C176.065 462.26 175.695 462.229 175.258 462.229H173.773C173.388 462.229 173.052 462.288 172.766 462.408C172.479 462.528 172.258 462.705 172.102 462.939C171.951 463.174 171.875 463.465 171.875 463.814C171.875 464.278 172.07 464.63 172.461 464.869C172.852 465.114 173.409 465.236 174.133 465.236ZM174.469 458.393C175.089 458.393 175.555 458.236 175.867 457.924C176.18 457.611 176.336 457.156 176.336 456.557C176.336 455.916 176.177 455.437 175.859 455.119C175.542 454.796 175.073 454.635 174.453 454.635C173.859 454.635 173.401 454.801 173.078 455.135C172.76 455.463 172.602 455.945 172.602 456.58C172.602 457.163 172.763 457.611 173.086 457.924C173.409 458.236 173.87 458.393 174.469 458.393ZM187.75 453.705C188.771 453.705 189.529 453.934 190.023 454.393C190.518 454.851 190.766 455.583 190.766 456.588V462.408H189.82L189.57 461.143H189.508C189.268 461.455 189.018 461.718 188.758 461.932C188.497 462.14 188.195 462.299 187.852 462.408C187.513 462.512 187.096 462.564 186.602 462.564C186.081 462.564 185.617 462.473 185.211 462.291C184.81 462.109 184.492 461.833 184.258 461.463C184.029 461.093 183.914 460.624 183.914 460.057C183.914 459.202 184.253 458.546 184.93 458.088C185.607 457.63 186.638 457.38 188.023 457.338L189.5 457.275V456.752C189.5 456.012 189.341 455.494 189.023 455.197C188.706 454.9 188.258 454.752 187.68 454.752C187.232 454.752 186.805 454.817 186.398 454.947C185.992 455.077 185.607 455.231 185.242 455.408L184.844 454.424C185.229 454.226 185.672 454.057 186.172 453.916C186.672 453.775 187.198 453.705 187.75 453.705ZM189.484 458.189L188.18 458.244C187.112 458.286 186.359 458.46 185.922 458.768C185.484 459.075 185.266 459.51 185.266 460.072C185.266 460.562 185.414 460.924 185.711 461.158C186.008 461.393 186.401 461.51 186.891 461.51C187.651 461.51 188.273 461.299 188.758 460.877C189.242 460.455 189.484 459.822 189.484 458.979V458.189ZM201.484 453.689C201.656 453.689 201.836 453.7 202.023 453.721C202.211 453.736 202.378 453.76 202.523 453.791L202.359 454.994C202.219 454.958 202.062 454.929 201.891 454.908C201.719 454.887 201.557 454.877 201.406 454.877C201.062 454.877 200.737 454.947 200.43 455.088C200.128 455.223 199.862 455.421 199.633 455.682C199.404 455.937 199.224 456.247 199.094 456.611C198.964 456.971 198.898 457.372 198.898 457.814V462.408H197.594V453.846H198.672L198.812 455.424H198.867C199.044 455.106 199.258 454.817 199.508 454.557C199.758 454.291 200.047 454.08 200.375 453.924C200.708 453.768 201.078 453.689 201.484 453.689ZM211.523 458.111C211.523 458.814 211.432 459.442 211.25 459.994C211.068 460.546 210.805 461.012 210.461 461.393C210.117 461.773 209.701 462.064 209.211 462.268C208.727 462.465 208.177 462.564 207.562 462.564C206.99 462.564 206.464 462.465 205.984 462.268C205.51 462.064 205.099 461.773 204.75 461.393C204.406 461.012 204.138 460.546 203.945 459.994C203.758 459.442 203.664 458.814 203.664 458.111C203.664 457.174 203.823 456.377 204.141 455.721C204.458 455.059 204.911 454.557 205.5 454.213C206.094 453.864 206.799 453.689 207.617 453.689C208.398 453.689 209.081 453.864 209.664 454.213C210.253 454.562 210.708 455.067 211.031 455.729C211.359 456.385 211.523 457.179 211.523 458.111ZM205.008 458.111C205.008 458.799 205.099 459.395 205.281 459.9C205.464 460.406 205.745 460.796 206.125 461.072C206.505 461.348 206.995 461.486 207.594 461.486C208.188 461.486 208.674 461.348 209.055 461.072C209.44 460.796 209.724 460.406 209.906 459.9C210.089 459.395 210.18 458.799 210.18 458.111C210.18 457.429 210.089 456.84 209.906 456.346C209.724 455.846 209.443 455.46 209.062 455.189C208.682 454.919 208.19 454.783 207.586 454.783C206.695 454.783 206.042 455.077 205.625 455.666C205.214 456.255 205.008 457.07 205.008 458.111ZM215.07 462.408H213.766V450.252H215.07V462.408ZM219.117 462.408H217.812V450.252H219.117V462.408ZM223.156 453.846V462.408H221.859V453.846H223.156ZM222.523 450.643C222.737 450.643 222.919 450.713 223.07 450.854C223.227 450.989 223.305 451.202 223.305 451.494C223.305 451.781 223.227 451.994 223.07 452.135C222.919 452.275 222.737 452.346 222.523 452.346C222.299 452.346 222.112 452.275 221.961 452.135C221.815 451.994 221.742 451.781 221.742 451.494C221.742 451.202 221.815 450.989 221.961 450.854C222.112 450.713 222.299 450.643 222.523 450.643ZM229.961 453.689C230.977 453.689 231.745 453.939 232.266 454.439C232.786 454.934 233.047 455.731 233.047 456.83V462.408H231.766V456.916C231.766 456.202 231.602 455.669 231.273 455.314C230.951 454.96 230.453 454.783 229.781 454.783C228.833 454.783 228.167 455.051 227.781 455.588C227.396 456.124 227.203 456.903 227.203 457.924V462.408H225.906V453.846H226.953L227.148 455.08H227.219C227.401 454.778 227.633 454.525 227.914 454.322C228.195 454.114 228.51 453.958 228.859 453.854C229.208 453.744 229.576 453.689 229.961 453.689ZM238.109 466.252C236.984 466.252 236.117 466.041 235.508 465.619C234.898 465.202 234.594 464.617 234.594 463.861C234.594 463.325 234.763 462.867 235.102 462.486C235.445 462.106 235.919 461.854 236.523 461.729C236.299 461.624 236.107 461.468 235.945 461.26C235.789 461.051 235.711 460.812 235.711 460.541C235.711 460.229 235.797 459.955 235.969 459.721C236.146 459.481 236.414 459.252 236.773 459.033C236.326 458.851 235.961 458.544 235.68 458.111C235.404 457.674 235.266 457.166 235.266 456.588C235.266 455.973 235.393 455.45 235.648 455.018C235.904 454.58 236.273 454.247 236.758 454.018C237.242 453.788 237.828 453.674 238.516 453.674C238.667 453.674 238.818 453.682 238.969 453.697C239.125 453.708 239.273 453.726 239.414 453.752C239.555 453.773 239.677 453.799 239.781 453.83H242.719V454.666L241.141 454.861C241.297 455.064 241.427 455.309 241.531 455.596C241.635 455.882 241.688 456.2 241.688 456.549C241.688 457.403 241.398 458.083 240.82 458.588C240.242 459.088 239.448 459.338 238.438 459.338C238.198 459.338 237.953 459.317 237.703 459.275C237.448 459.416 237.253 459.572 237.117 459.744C236.987 459.916 236.922 460.114 236.922 460.338C236.922 460.505 236.971 460.637 237.07 460.736C237.174 460.835 237.323 460.908 237.516 460.955C237.708 460.997 237.94 461.018 238.211 461.018H239.719C240.651 461.018 241.365 461.213 241.859 461.604C242.359 461.994 242.609 462.564 242.609 463.314C242.609 464.262 242.224 464.989 241.453 465.494C240.682 465.999 239.568 466.252 238.109 466.252ZM238.148 465.236C238.857 465.236 239.443 465.163 239.906 465.018C240.375 464.877 240.724 464.671 240.953 464.4C241.188 464.135 241.305 463.817 241.305 463.447C241.305 463.104 241.227 462.843 241.07 462.666C240.914 462.494 240.685 462.38 240.383 462.322C240.081 462.26 239.711 462.229 239.273 462.229H237.789C237.404 462.229 237.068 462.288 236.781 462.408C236.495 462.528 236.273 462.705 236.117 462.939C235.966 463.174 235.891 463.465 235.891 463.814C235.891 464.278 236.086 464.63 236.477 464.869C236.867 465.114 237.424 465.236 238.148 465.236ZM238.484 458.393C239.104 458.393 239.57 458.236 239.883 457.924C240.195 457.611 240.352 457.156 240.352 456.557C240.352 455.916 240.193 455.437 239.875 455.119C239.557 454.796 239.089 454.635 238.469 454.635C237.875 454.635 237.417 454.801 237.094 455.135C236.776 455.463 236.617 455.945 236.617 456.58C236.617 457.163 236.779 457.611 237.102 457.924C237.424 458.236 237.885 458.393 238.484 458.393ZM249.859 450.252V453.291C249.859 453.64 249.849 453.979 249.828 454.307C249.812 454.635 249.799 454.89 249.789 455.072H249.859C250.094 454.687 250.432 454.361 250.875 454.096C251.318 453.83 251.883 453.697 252.57 453.697C253.643 453.697 254.497 454.07 255.133 454.814C255.773 455.554 256.094 456.656 256.094 458.119C256.094 459.083 255.948 459.895 255.656 460.557C255.365 461.218 254.953 461.718 254.422 462.057C253.891 462.395 253.263 462.564 252.539 462.564C251.862 462.564 251.305 462.439 250.867 462.189C250.435 461.934 250.102 461.624 249.867 461.26H249.766L249.5 462.408H248.562V450.252H249.859ZM252.359 454.783C251.74 454.783 251.247 454.906 250.883 455.15C250.518 455.39 250.255 455.755 250.094 456.244C249.938 456.729 249.859 457.343 249.859 458.088V458.158C249.859 459.236 250.039 460.062 250.398 460.635C250.758 461.202 251.411 461.486 252.359 461.486C253.156 461.486 253.753 461.195 254.148 460.611C254.549 460.028 254.75 459.195 254.75 458.111C254.75 457.007 254.552 456.176 254.156 455.619C253.766 455.062 253.167 454.783 252.359 454.783ZM261.562 453.705C262.583 453.705 263.341 453.934 263.836 454.393C264.331 454.851 264.578 455.583 264.578 456.588V462.408H263.633L263.383 461.143H263.32C263.081 461.455 262.831 461.718 262.57 461.932C262.31 462.14 262.008 462.299 261.664 462.408C261.326 462.512 260.909 462.564 260.414 462.564C259.893 462.564 259.43 462.473 259.023 462.291C258.622 462.109 258.305 461.833 258.07 461.463C257.841 461.093 257.727 460.624 257.727 460.057C257.727 459.202 258.065 458.546 258.742 458.088C259.419 457.63 260.451 457.38 261.836 457.338L263.312 457.275V456.752C263.312 456.012 263.154 455.494 262.836 455.197C262.518 454.9 262.07 454.752 261.492 454.752C261.044 454.752 260.617 454.817 260.211 454.947C259.805 455.077 259.419 455.231 259.055 455.408L258.656 454.424C259.042 454.226 259.484 454.057 259.984 453.916C260.484 453.775 261.01 453.705 261.562 453.705ZM263.297 458.189L261.992 458.244C260.924 458.286 260.172 458.46 259.734 458.768C259.297 459.075 259.078 459.51 259.078 460.072C259.078 460.562 259.227 460.924 259.523 461.158C259.82 461.393 260.214 461.51 260.703 461.51C261.464 461.51 262.086 461.299 262.57 460.877C263.055 460.455 263.297 459.822 263.297 458.979V458.189ZM268.555 462.408H267.25V450.252H268.555V462.408ZM272.602 462.408H271.297V450.252H272.602V462.408ZM275.148 461.596C275.148 461.231 275.237 460.973 275.414 460.822C275.591 460.666 275.807 460.588 276.062 460.588C276.328 460.588 276.552 460.666 276.734 460.822C276.917 460.973 277.008 461.231 277.008 461.596C277.008 461.955 276.917 462.218 276.734 462.385C276.552 462.546 276.328 462.627 276.062 462.627C275.807 462.627 275.591 462.546 275.414 462.385C275.237 462.218 275.148 461.955 275.148 461.596Z" fill="#F17522"/>
<defs>
<radialGradient id="paint0_radial_1676_4138" cx="0" cy="0" r="1" gradientUnits="userSpaceOnUse" gradientTransform="translate(184.667 305.363) rotate(90) scale(118.169 172.931)">
<stop stop-color="#934E00"/>
<stop offset="0.34522" stop-color="#FFF4D8"/>
</radialGradient>
</defs>
</svg>
