<?xml version="1.0" encoding="UTF-8"?>
<svg id="Hand" xmlns="http://www.w3.org/2000/svg" version="1.1" viewBox="0 0 1920 1080">
  <!-- Generator: Adobe Illustrator 30.3.0, SVG Export Plug-In . SVG Version: 2.1.3 Build 182)  -->
  <defs>
    <style>
      .st0 {
        fill: #e6b691;
      }
    </style>
  </defs>
  <path class="st0" d="M1345.7,589.8l-37.4-152.9-113.7,27.8c-9.9,1.4-24,1.4-38.3-2,0,0-75.2-36.8-115.1-55.6s-58.7-26.6-102.6-21.1c-69.7,7-305.8,108.5-334.6,140.8-22.1,25.6-5.2,68.5,41.9,58.9l177.9-73.9c3.1-34.5,24-47.4,57.2-46.5l202.4,70.7c5.7,3.9,2.6,12.6-7,10.9l-201.5-69.8c-31.4-3.5-60.6,46.7-12.6,67.2l164.9,69.3c69.8,35.8,80.3,44.6,150,30.5,17.8-5.7,41.2-19.9,64.9-28.8l103.9-25.4Z"/>
  <path class="st0" d="M825.7,524.5l-162.7,67.6c8.1,10.4,22.4,14.7,35.2,9.6l137.9-55.2c.9-.4,1.8-.8,2.6-1.2-6.1-5.7-10.6-12.9-13.1-20.8Z"/>
</svg>