<svg width="13" height="18" viewBox="0 0 13 18" fill="none" xmlns="http://www.w3.org/2000/svg">
<path d="M6.5 0C4.0147 0 2 2.015 2 4.5C2 6.985 4.0147 9 6.5 9C8.9853 9 11 6.985 11 4.5C11 2.015 8.9853 0 6.5 0ZM3.0625 10.344C1.2284 11.101 0 12.956 0 15V17C0 17.552 0.4477 18 1 18H12C12.5523 18 13 17.552 13 17V15C13 13.004 11.7648 11.194 9.9375 10.406C9.6803 10.295 9.3806 10.292 9.125 10.406C8.2402 10.803 7.3782 11 6.5 11C5.6248 11 4.7598 10.792 3.8438 10.375C3.5919 10.26 3.3183 10.238 3.0625 10.344Z" fill="#F17522"/>
</svg>
