<svg width="31" height="46" viewBox="0 0 31 46" fill="none" xmlns="http://www.w3.org/2000/svg">
<path fill-rule="evenodd" clip-rule="evenodd" d="M12.7312 1.28307C13.8947 -0.418387 16.3943 -0.42945 17.5742 1.26068C23.4017 9.60791 26.6889 15.464 29.7314 23.7616C29.9935 24.3689 30.2187 24.9959 30.4023 25.6405C30.5876 26.1734 30.7737 26.7165 30.9591 27.2716C30.9763 27.3234 30.9378 27.3768 30.8832 27.3768C30.8339 27.3768 30.7963 27.4211 30.804 27.4698C30.9283 28.2601 30.9941 29.0702 30.9941 29.8954C30.994 38.454 24.0557 45.3925 15.4971 45.3925C6.93845 45.3924 0.000143288 38.454 0 29.8954C0 29.0713 0.0656826 28.2621 0.189702 27.4728C0.197606 27.4225 0.158833 27.3768 0.107912 27.3768C0.0535253 27.3768 0.0142375 27.3243 0.0285004 27.2718C2.44532 18.3786 5.15868 12.3563 12.7312 1.28307Z" fill="#6EA1FF"/>
</svg>
