<svg width="54" height="37" viewBox="0 0 54 37" fill="none" xmlns="http://www.w3.org/2000/svg">
<ellipse cx="26.7557" cy="31.2147" rx="26.7557" ry="5.5741" fill="#FFB50A"/>
<rect y="7.80469" width="53.5114" height="23.4112" fill="#FFB50A"/>
<ellipse cx="26.7557" cy="7.24633" rx="26.7557" ry="7.24633" fill="#DEDEDE"/>
<path d="M33.2513 21.5371C34.227 22.5388 34.8041 23.776 34.8041 25.1152C34.8037 28.4518 31.2248 31.1561 26.8099 31.1562C22.3949 31.1562 18.8152 28.4519 18.8148 25.1152C18.8148 23.751 19.4132 22.4918 20.4222 21.4805L21.4467 16.7227L24.308 19.376C25.095 19.1801 25.9361 19.0732 26.8099 19.0732C27.6959 19.0733 28.5477 19.1837 29.3441 19.3848L32.2162 16.7227L33.2513 21.5371Z" fill="white"/>
<path d="M14.6418 4.45898H20.0945C21.0972 4.45898 22.1009 4.80528 22.7389 5.57888C23.8886 6.97308 23.7902 7.94614 22.7019 9.09164C22.074 9.75255 21.1567 10.0331 20.2451 10.0331H14.6418" stroke="#B3B3B3" stroke-width="2" stroke-linecap="round"/>
</svg>
