<svg width="124" height="77" viewBox="0 0 124 77" fill="none" xmlns="http://www.w3.org/2000/svg">
<path d="M62.6895 0C69.3986 0 75.2499 3.67086 78.3458 9.11328C81.4999 7.64552 85.2169 7.39002 88.7364 8.69531C93.2277 10.3613 96.3047 14.1644 97.2432 18.5244C97.4078 18.5784 97.5725 18.6345 97.7364 18.6953C102.76 20.5586 106.014 25.0953 106.485 30.0947C108.833 29.6398 111.331 29.8031 113.736 30.6953C120.727 33.2882 124.292 41.0574 121.699 48.0479C121.477 48.647 121.216 49.2205 120.921 49.7676C123.029 51.9395 123.829 55.2087 122.706 58.2354C121.422 61.6963 118.026 63.7561 114.521 63.5C111.766 70.1904 104.185 73.5471 97.3467 71.0107C95.6667 70.3875 94.1849 69.4647 92.9385 68.3262C89.4648 73.0788 83.1389 75.1592 77.3467 73.0107C76.3907 72.6561 75.4997 72.203 74.6788 71.6699C71.1558 76.1779 64.9973 78.1067 59.3467 76.0107C58.4293 75.6704 57.5716 75.2395 56.7784 74.7344C55.7748 74.9079 54.7427 75 53.6895 75C49.9951 75 46.5616 73.8856 43.7042 71.9766C40.1195 74.8842 35.1363 75.8785 30.4952 74.1572C28.342 73.3586 26.5142 72.0677 25.0909 70.4609C23.8457 70.6142 22.5466 70.4829 21.2891 70.0166C19.5977 69.3892 18.2402 68.2564 17.3243 66.8535C15.4751 67.6538 13.3275 67.7725 11.2891 67.0166C7.6426 65.664 5.54938 61.9652 6.08405 58.2656C5.81789 58.1967 5.55248 58.1143 5.28912 58.0166C1.09239 56.4599 -1.0486 51.7954 0.507874 47.5986C1.7804 44.1679 5.12981 42.1123 8.6026 42.3262C10.9792 35.1653 17.731 30.0001 25.6895 30C26.7126 30 27.7159 30.086 28.6924 30.25C28.6913 30.1668 28.6895 30.0835 28.6895 30C28.6895 20.3892 36.2219 12.5376 45.7051 12.0264C48.1687 5.02158 54.8425 7.81173e-05 62.6895 0Z" fill="#B23200"/>
</svg>
