<svg width="263" height="213" viewBox="0 0 263 213" fill="none" xmlns="http://www.w3.org/2000/svg">
<path d="M47.0762 34.4223C48.1487 26.6856 57.8918 23.894 62.8986 29.8889L112.139 88.8466C116.311 93.8412 113.966 101.475 107.71 103.268L47.9219 120.398C41.6663 122.19 35.6347 116.956 36.5283 110.51L47.0762 34.4223Z" fill="#FFE058"/>
<path d="M52.4672 52.5288C53.5397 44.792 63.2827 42.0005 68.2896 47.9954L108.103 95.665C112.274 100.66 109.929 108.294 103.674 110.086L55.3324 123.937C49.0768 125.729 43.0452 120.495 43.9388 114.049L52.4672 52.5288Z" fill="#A87B00"/>
<path d="M215.924 34.4223C214.851 26.6856 205.108 23.894 200.101 29.8889L150.861 88.8466C146.689 93.8412 149.034 101.475 155.29 103.268L215.078 120.398C221.334 122.19 227.365 116.956 226.472 110.51L215.924 34.4223Z" fill="#FFE058"/>
<path d="M210.533 52.5288C209.46 44.792 199.717 42.0005 194.71 47.9954L154.897 95.665C150.726 100.66 153.071 108.294 159.326 110.086L207.668 123.937C213.923 125.729 219.955 120.495 219.061 114.049L210.533 52.5288Z" fill="#A87B00"/>
<path d="M21 182.62V133.998H238V181.644C238 189.315 234.077 196.548 226.921 199.312C180.34 217.304 73.8713 217.628 30.9474 199.372C24.3814 196.579 21 189.755 21 182.62Z" fill="url(#paint0_linear_2027_3794)"/>
<ellipse cx="130" cy="126.998" rx="113" ry="41" fill="#E2B307"/>
<ellipse cx="130" cy="124.998" rx="98" ry="27" fill="#FFE058"/>
<ellipse cx="129.5" cy="124.998" rx="11.5" ry="5" fill="#E2B307"/>
<path d="M138 124.578C146 119.078 167 111.078 198.5 115.078" stroke="#E2B307"/>
<path d="M139.5 125.999C147 124.499 157 122.999 176.5 130.499M128.5 127.499C129 130.499 128.5 139.999 128.5 143.499M119 124.499C111 120.999 98 112.499 58.5 115.999M128.5 121.998C128.5 117.498 127.5 112.498 131 105.998M133 121.998C134 115.999 138.5 110.998 144.5 108.498" stroke="#E2B307"/>
<path d="M119 126.274C116.5 126.274 106.5 124.774 98.5 128.774" stroke="#E2B307"/>
<defs>
<linearGradient id="paint0_linear_2027_3794" x1="129.5" y1="133.998" x2="130" y2="246" gradientUnits="userSpaceOnUse">
<stop stop-color="#FFE058"/>
<stop offset="1" stop-color="#D9AB37"/>
</linearGradient>
</defs>
</svg>
